  0
SECTION
  2
HEADER
  9
$ACADVER
  1
AC1014
  9
$ACADMAINTVER
 70
         0
  9
$DWGCODEPAGE
  3
ANSI_1252
  9
$INSBASE
 10
0.0
 20
0.0
 30
0.0
  9
$EXTMIN
 10
-0.93969262
 20
-0.98480775
 30
0.0
  9
$EXTMAX
 10
13.0
 20
12.98480775
 30
0.0
  9
$LIMMIN
 10
0.0
 20
0.0
  9
$LIMMAX
 10
0.0
 20
0.0
  9
$ORTHOMODE
 70
         0
  9
$REGENMODE
 70
         1
  9
$FILLMODE
 70
         1
  9
$QTEXTMODE
 70
         0
  9
$MIRRTEXT
 70
         1
  9
$DRAGMODE
 70
         2
  9
$LTSCALE
 40
5.24286
  9
$OSMODE
 70
         0
  9
$ATTMODE
 70
         1
  9
$TEXTSIZE
 40
0.2
  9
$TRACEWID
 40
0.05
  9
$TEXTSTYLE
  7
STANDARD
  9
$CLAYER
  8
0
  9
$CELTYPE
  6
CONTINUOUS
  9
$CECOLOR
 62
       256
  9
$CELTSCALE
 40
1.0
  9
$DELOBJ
 70
         1
  9
$DISPSILH
 70
         0
  9
$DIMSCALE
 40
1.0
  9
$DIMASZ
 40
0.18
  9
$DIMEXO
 40
0.0625
  9
$DIMDLI
 40
0.38
  9
$DIMRND
 40
0.0
  9
$DIMDLE
 40
0.0
  9
$DIMEXE
 40
0.18
  9
$DIMTP
 40
0.0
  9
$DIMTM
 40
0.0
  9
$DIMTXT
 40
0.18
  9
$DIMCEN
 40
0.09
  9
$DIMTSZ
 40
0.0
  9
$DIMTOL
 70
         0
  9
$DIMLIM
 70
         0
  9
$DIMTIH
 70
         1
  9
$DIMTOH
 70
         1
  9
$DIMSE1
 70
         0
  9
$DIMSE2
 70
         0
  9
$DIMTAD
 70
         0
  9
$DIMZIN
 70
         0
  9
$DIMBLK
  1

  9
$DIMASO
 70
         1
  9
$DIMSHO
 70
         1
  9
$DIMPOST
  1

  9
$DIMAPOST
  1

  9
$DIMALT
 70
         0
  9
$DIMALTD
 70
         2
  9
$DIMALTF
 40
25.4
  9
$DIMLFAC
 40
1.0
  9
$DIMTOFL
 70
         0
  9
$DIMTVP
 40
0.0
  9
$DIMTIX
 70
         0
  9
$DIMSOXD
 70
         0
  9
$DIMSAH
 70
         0
  9
$DIMBLK1
  1

  9
$DIMBLK2
  1

  9
$DIMSTYLE
  2
STANDARD
  9
$DIMCLRD
 70
         0
  9
$DIMCLRE
 70
         0
  9
$DIMCLRT
 70
         0
  9
$DIMTFAC
 40
1.0
  9
$DIMGAP
 40
0.09
  9
$DIMJUST
 70
         0
  9
$DIMSD1
 70
         0
  9
$DIMSD2
 70
         0
  9
$DIMTOLJ
 70
         1
  9
$DIMTZIN
 70
         0
  9
$DIMALTZ
 70
         0
  9
$DIMALTTZ
 70
         0
  9
$DIMFIT
 70
         3
  9
$DIMUPT
 70
         0
  9
$DIMUNIT
 70
         2
  9
$DIMDEC
 70
         4
  9
$DIMTDEC
 70
         4
  9
$DIMALTU
 70
         2
  9
$DIMALTTD
 70
         2
  9
$DIMTXSTY
  7
STANDARD
  9
$DIMAUNIT
 70
         0
  9
$LUNITS
 70
         2
  9
$LUPREC
 70
         4
  9
$SKETCHINC
 40
0.1
  9
$FILLETRAD
 40
0.0
  9
$AUNITS
 70
         0
  9
$AUPREC
 70
         0
  9
$MENU
  1
acad
  9
$ELEVATION
 40
0.0
  9
$PELEVATION
 40
0.0
  9
$THICKNESS
 40
0.0
  9
$LIMCHECK
 70
         0
  9
$BLIPMODE
 70
         1
  9
$CHAMFERA
 40
0.0
  9
$CHAMFERB
 40
0.0
  9
$CHAMFERC
 40
0.0
  9
$CHAMFERD
 40
0.0
  9
$SKPOLY
 70
         0
  9
$TDCREATE
 40
2457730.874016204
  9
$TDUPDATE
 40
2457730.874016204
  9
$TDINDWG
 40
0.0000000000
  9
$TDUSRTIMER
 40
0.0000000000
  9
$USRTIMER
 70
         1
  9
$ANGBASE
 50
0.0
  9
$ANGDIR
 70
         0
  9
$PDMODE
 70
         0
  9
$PDSIZE
 40
0.0
  9
$PLINEWID
 40
0.0
  9
$COORDS
 70
         0
  9
$SPLFRAME
 70
         0
  9
$SPLINETYPE
 70
         6
  9
$SPLINESEGS
 70
         8
  9
$ATTDIA
 70
         0
  9
$ATTREQ
 70
         1
  9
$HANDLING
 70
         1
  9
$HANDSEED
  5
9D
  9
$SURFTAB1
 70
         6
  9
$SURFTAB2
 70
         6
  9
$SURFTYPE
 70
         6
  9
$SURFU
 70
         6
  9
$SURFV
 70
         6
  9
$UCSNAME
  2

  9
$UCSORG
 10
0.0
 20
0.0
 30
0.0
  9
$UCSXDIR
 10
1.0
 20
0.0
 30
0.0
  9
$UCSYDIR
 10
0.0
 20
1.0
 30
0.0
  9
$PUCSNAME
  2

  9
$PUCSORG
 10
0.0
 20
0.0
 30
0.0
  9
$PUCSXDIR
 10
1.0
 20
0.0
 30
0.0
  9
$PUCSYDIR
 10
0.0
 20
1.0
 30
0.0
  9
$USERI1
 70
         0
  9
$USERI2
 70
         0
  9
$USERI3
 70
         0
  9
$USERI4
 70
         0
  9
$USERI5
 70
         0
  9
$USERR1
 40
0.0
  9
$USERR2
 40
0.0
  9
$USERR3
 40
0.0
  9
$USERR4
 40
0.0
  9
$USERR5
 40
0.0
  9
$WORLDVIEW
 70
         1
  9
$SHADEDGE
 70
         3
  9
$SHADEDIF
 70
        70
  9
$TILEMODE
 70
         1
  9
$MAXACTVP
 70
        16
  9
$PINSBASE
 10
0.0
 20
0.0
 30
0.0
  9
$PLIMCHECK
 70
         0
  9
$PEXTMIN
 10
1.0000000000E+20
 20
1.0000000000E+20
 30
1.0000000000E+20
  9
$PEXTMAX
 10
-1.0000000000E+20
 20
-1.0000000000E+20
 30
-1.0000000000E+20
  9
$PLIMMIN
 10
0.0
 20
0.0
  9
$PLIMMAX
 10
12.0
 20
9.0
  9
$UNITMODE
 70
         0
  9
$VISRETAIN
 70
         0
  9
$PLINEGEN
 70
         1
  9
$PSLTSCALE
 70
         0
  9
$TREEDEPTH
 70
      3020
  9
$PICKSTYLE
 70
         1
  9
$CMLSTYLE
  2
STANDARD
  9
$CMLJUST
 70
         0
  9
$CMLSCALE
 40
1.0
  9
$PROXYGRAPHICS
 70
         0
  9
$MEASUREMENT
 70
         0
  0
ENDSEC
  0
SECTION
  2
CLASSES
  0
CLASS
  1
LWPOLYLINE
  2
AcDbPolyline
  3
"AutoCAD"
 90
        0
280
         0
281
         1
  0
CLASS
  1
IMAGE
  2
AcDbRasterImage
  3
ISM
 90
      127
280
         0
281
         1
  0
CLASS
  1
OLE2FRAME
  2
AcDbOle2Frame
  3
""
 90
        0
280
         0
281
         1
  0
CLASS
  1
HATCH
  2
AcDbHatch
  3
"ACAD_SEDONA"
 90
        0
280
         0
281
         1
  0
CLASS
  1
DICTIONARYVAR
  2
AcDbDictionaryVar
  3
"AutoCAD"
 90
        0
280
         0
281
         0
  0
CLASS
  1
RASTERVARIABLES
  2
AcDbRasterVariables
  3
ISM
 90
        0
280
         0
281
         0
  0
CLASS
  1
IMAGEDEF
  2
AcDbRasterImageDef
  3
ISM
 90
        0
280
         0
281
         0
  0
CLASS
  1
IMAGEDEF_REACTOR
  2
AcDbRasterImageDefReactor
  3
ISM
 90
        1
280
         0
281
         0
  0
CLASS
  1
IDBUFFER
  2
AcDbIdBuffer
  3
"Acad"
 90
        0
280
         0
281
         0
  0
CLASS
  1
SPATIAL_FILTER
  2
AcDbSpatialFilter
  3
"Acad"
 90
        0
280
         0
281
         0
  0
CLASS
  1
XRECORD
  2
AcDbXrecord
  3
"<Built In>"
 90
        0
280
         0
281
         0
  0
CLASS
  1
SORTENTSTABLE
  2
AcDbSortentsTable
  3
"AutoCAD"
 90
        0
280
         0
281
         0
  0
CLASS
  1
LAYER_INDEX
  2
AcDbLayerIndex
  3
"Acad"
 90
        0
280
         0
281
         0
  0
CLASS
  1
SPATIAL_INDEX
  2
AcDbSpatialIndex
  3
"Acad"
 90
        0
280
         0
281
         0
  0
CLASS
  1
OBJECT_PTR
  2
CAseDLPNTableRecord
  3
"ASE-LPNTableRecord"
 90
        1
280
         0
281
         0
  0
CLASS
  1
LAYOUT
  2
AcDbLayout
  3
"AutoCAD 2000"
 90
        1
280
         0
281
         0
  0
CLASS
  1
PLOTSETTINGS
  2
AcDbPlotSettings
  3
"AutoCAD 2000"
 90
        1
280
         0
281
         0
  0
CLASS
  1
ACDBDICTIONARYWDFLT
  2
AcDbDictionaryWithDefault
  3
"AutoCAD 2000"
 90
        1
280
         0
281
         0
  0
CLASS
  1
ACDBPLACEHOLDER
  2
AcDbPlaceHolder
  3
"AutoCAD 2000"
 90
        1
280
         0
281
         0
  0
CLASS
  1
VBA_PROJECT
  2
AcDbVbaProject
  3
"acadvba"
 90
        1
280
         0
281
         0
  0
CLASS
  1
WIPEOUT
  2
AcDbWipeout
  3
WipeOut|AutoCAD Express Tool|expresstools@autodesk.com
 90
      127
280
         0
281
         1
  0
CLASS
  1
WIPEOUTVARIABLES
  2
AcDbWipeoutVariables
  3
WipeOut|AutoCAD Express Tool|expresstools@autodesk.com
 90
        0
280
         0
281
         0
  0
CLASS
  1
RTEXT
  2
RText
  3
RText|AutoCAD Express Tool|expresstools@autodesk.com
 90
        0
280
         0
281
         1
  0
CLASS
  1
ARCALIGNEDTEXT
  2
AcDbArcAlignedText
  3
ATEXT|AutoCAD Express Tool|expresstools@autodesk.com
 90
        0
280
         0
281
         1
  0
ENDSEC
  0
SECTION
  2
TABLES
  0
TABLE
  2
VPORT
  5
7
100
AcDbSymbolTable
 70
         1
  0
VPORT
  5
15
100
AcDbSymbolTableRecord
100
AcDbViewportTableRecord
  2
*ACTIVE
 70
         0
 10
0.0
 20
0.0
 11
1.0
 21
1.0
 12
6.591288
 22
4.579184
 13
0.0
 23
0.0
 14
1.0
 24
1.0
 15
0.0
 25
0.0
 16
0.0
 26
0.0
 36
1.0
 17
0.0
 27
0.0
 37
0.0
 40
9.158369
 41
0.688564
 42
50.0
 43
0.0
 44
0.0
 50
0.0
 51
0.0
 71
         0
 72
       100
 73
         1
 74
         1
 75
         0
 76
         0
 77
         0
 78
         0
  0
ENDTAB
  0
TABLE
  2
LTYPE
  5
4
100
AcDbSymbolTable
 70
        13
  0
LTYPE
  5
11
100
AcDbSymbolTableRecord
100
AcDbLinetypeTableRecord
  2
BYBLOCK
 70
        64
  3

 72
        65
 73
         0
 40
0.0
  0
LTYPE
  5
12
100
AcDbSymbolTableRecord
100
AcDbLinetypeTableRecord
  2
BYLAYER
 70
        64
  3

 72
        65
 73
         0
 40
0.0
  0
LTYPE
  5
13
100
AcDbSymbolTableRecord
100
AcDbLinetypeTableRecord
  2
CONTINUOUS
 70
        64
  3
Solid line
 72
        65
 73
         0
 40
0.0
  0
LTYPE
  5
1E
100
AcDbSymbolTableRecord
100
AcDbLinetypeTableRecord
  2
DOTTED
 70
        64
  3
Dotted
 72
        65
 73
         2
 40
0.125
 49
0.0
 74
         0
 49
-0.125
 74
         0
  0
LTYPE
  5
1F
100
AcDbSymbolTableRecord
100
AcDbLinetypeTableRecord
  2
CENTER
 70
        64
  3
Center
 72
        65
 73
         4
 40
0.7699999809
 49
0.5
 74
         0
 49
-0.0724999979
 74
         0
 49
0.125
 74
         0
 49
-0.0724999979
 74
         0
  0
LTYPE
  5
20
100
AcDbSymbolTableRecord
100
AcDbLinetypeTableRecord
  2
DASHED
 70
        64
  3
Dashed
 72
        65
 73
         2
 40
0.375
 49
0.25
 74
         0
 49
-0.125
 74
         0
  0
LTYPE
  5
21
100
AcDbSymbolTableRecord
100
AcDbLinetypeTableRecord
  2
HIDDEN
 70
        64
  3
Hidden
 72
        65
 73
         2
 40
0.1974999905
 49
0.125
 74
         0
 49
-0.0724999979
 74
         0
  0
LTYPE
  5
22
100
AcDbSymbolTableRecord
100
AcDbLinetypeTableRecord
  2
PHANTOM
 70
        64
  3
Phantom
 72
        65
 73
         6
 40
0.9674999714
 49
0.5
 74
         0
 49
-0.0724999979
 74
         0
 49
0.125
 74
         0
 49
-0.0724999979
 74
         0
 49
0.125
 74
         0
 49
-0.0724999979
 74
         0
  0
LTYPE
  5
23
100
AcDbSymbolTableRecord
100
AcDbLinetypeTableRecord
  2
DASHDOT
 70
        64
  3
Dashdot
 72
        65
 73
         4
 40
0.6762499809
 49
0.5
 74
         0
 49
-0.0724999979
 74
         0
 49
0.03125
 74
         0
 49
-0.0724999979
 74
         0
  0
LTYPE
  5
24
100
AcDbSymbolTableRecord
100
AcDbLinetypeTableRecord
  2
BORDER
 70
        64
  3
Border
 72
        65
 73
         6
 40
1.2487499714
 49
0.5
 74
         0
 49
-0.0724999979
 74
         0
 49
0.5
 74
         0
 49
-0.0724999979
 74
         0
 49
0.03125
 74
         0
 49
-0.0724999979
 74
         0
  0
LTYPE
  5
25
100
AcDbSymbolTableRecord
100
AcDbLinetypeTableRecord
  2
DIVIDE
 70
        64
  3
Divide
 72
        65
 73
         6
 40
0.7799999714
 49
0.5
 74
         0
 49
-0.0724999979
 74
         0
 49
0.03125
 74
         0
 49
-0.0724999979
 74
         0
 49
0.03125
 74
         0
 49
-0.0724999979
 74
         0
  0
LTYPE
  5
26
100
AcDbSymbolTableRecord
100
AcDbLinetypeTableRecord
  2
CUTTING
 70
        64
  3
Cutting
 72
        65
 73
         6
 40
1.4674999714
 49
1.0
 74
         0
 49
-0.0724999979
 74
         0
 49
0.125
 74
         0
 49
-0.0724999979
 74
         0
 49
0.125
 74
         0
 49
-0.0724999979
 74
         0
  0
LTYPE
  5
27
100
AcDbSymbolTableRecord
100
AcDbLinetypeTableRecord
  2
STITCH
 70
        64
  3
Stitch
 72
        65
 73
         2
 40
0.1449999958
 49
0.0724999979
 74
         0
 49
-0.0724999979
 74
         0
  0
ENDTAB
  0
TABLE
  2
LAYER
  5
2
100
AcDbSymbolTable
 70
        10
  0
LAYER
  5
14
100
AcDbSymbolTableRecord
100
AcDbLayerTableRecord
  2
0
 70
         0
 62
         7
  6
CONTINUOUS
  0
LAYER
  5
28
100
AcDbSymbolTableRecord
100
AcDbLayerTableRecord
  2
DT250
 70
         0
 62
         3
  6
CONTINUOUS
  0
LAYER
  5
29
100
AcDbSymbolTableRecord
100
AcDbLayerTableRecord
  2
DT500
 70
         0
 62
         5
  6
CONTINUOUS
  0
LAYER
  5
2A
100
AcDbSymbolTableRecord
100
AcDbLayerTableRecord
  2

 70
         0
 62
        -4
  6
CONTINUOUS
  0
LAYER
  5
2B
100
AcDbSymbolTableRecord
100
AcDbLayerTableRecord
  2

 70
         0
 62
         6
  6
CONTINUOUS
  0
LAYER
  5
2C
100
AcDbSymbolTableRecord
100
AcDbLayerTableRecord
  2

 70
         0
 62
         7
  6
CONTINUOUS
  0
LAYER
  5
2D
100
AcDbSymbolTableRecord
100
AcDbLayerTableRecord
  2

 70
         0
 62
        -7
  6
CONTINUOUS
  0
LAYER
  5
2E
100
AcDbSymbolTableRecord
100
AcDbLayerTableRecord
  2
MIRCO_250
 70
         0
 62
         5
  6
CONTINUOUS
  0
LAYER
  5
2F
100
AcDbSymbolTableRecord
100
AcDbLayerTableRecord
  2
MIRCO_500
 70
         0
 62
         5
  6
CONTINUOUS
  0
LAYER
  5
30
100
AcDbSymbolTableRecord
100
AcDbLayerTableRecord
  2

 70
         0
 62
         5
  6
CONTINUOUS
  0
ENDTAB
  0
TABLE
  2
STYLE
  5
3
100
AcDbSymbolTable
 70
         2
  0
STYLE
  5
17
100
AcDbSymbolTableRecord
100
AcDbTextStyleTableRecord
  2
STANDARD
 70
         0
 40
0.0
 41
1.0
 50
0.0
 71
         0
 42
0.0
  3
txt
  4

  0
STYLE
  5
1D
100
AcDbSymbolTableRecord
100
AcDbTextStyleTableRecord
  2
PLOTTER
 70
         0
 40
0.0
 41
0.98
 50
0.0
 71
         0
 42
0.0
  3
SIMPLEX
  4

  0
ENDTAB
  0
TABLE
  2
VIEW
  5
5
100
AcDbSymbolTable
 70
         0
  0
ENDTAB
  0
TABLE
  2
UCS
  5
6
100
AcDbSymbolTable
 70
         0
  0
ENDTAB
  0
TABLE
  2
APPID
  5
8
100
AcDbSymbolTable
 70
         1
  0
APPID
  5
16
100
AcDbSymbolTableRecord
100
AcDbRegAppTableRecord
  2
ACAD
 70
         0
  0
ENDTAB
  0
TABLE
  2
DIMSTYLE
  5
9
100
AcDbSymbolTable
 70
         1
  0
DIMSTYLE
105
18
100
AcDbSymbolTableRecord
100
AcDbDimStyleTableRecord
  2
STANDARD
 70
         0
  3

  4

  5

  6

  7

 40
1.0
 41
0.18
 42
0.0625
 43
0.38
 44
0.18
 45
0.0
 46
0.0
 47
0.0
 48
0.0
 71
         0
 72
         0
 73
         1
 74
         1
 75
         0
 76
         0
 77
         0
 78
         0
140
0.18
141
0.09
142
0.0
143
25.4
144
1.0
145
0.0
146
1.0
147
0.09
170
         0
171
         2
172
         0
173
         0
174
         0
175
         0
176
         0
177
         0
178
         0
270
         2
271
         4
272
         4
273
         2
274
         2
275
         0
280
         0
281
         0
282
         0
283
         1
284
         0
285
         0
286
         0
287
         0
288
         0
340
17
  0
ENDTAB
  0
TABLE
  2
BLOCK_RECORD
  5
1
100
AcDbSymbolTable
 70
         0
  0
BLOCK_RECORD
  5
A
100
AcDbSymbolTableRecord
100
AcDbBlockTableRecord
  2
*MODEL_SPACE
  0
BLOCK_RECORD
  5
B
100
AcDbSymbolTableRecord
100
AcDbBlockTableRecord
  2
*PAPER_SPACE
  0
ENDTAB
  0
ENDSEC
  0
SECTION
  2
BLOCKS
  0
BLOCK
  5
D
100
AcDbEntity
  8
0
100
AcDbBlockBegin
  2
*MODEL_SPACE
 70
         0
 10
0.0
 20
0.0
 30
0.0
  3
*MODEL_SPACE
  1

  0
ENDBLK
  5
E
100
AcDbEntity
  8
0
100
AcDbBlockEnd
  0
BLOCK
  5
F
100
AcDbEntity
 67
         1
  8
0
100
AcDbBlockBegin
  2
*PAPER_SPACE
 70
         0
 10
0.0
 20
0.0
 30
0.0
  3
*PAPER_SPACE
  1

  0
ENDBLK
  5
10
100
AcDbEntity
 67
         1
  8
0
100
AcDbBlockEnd
  0
ENDSEC
  0
SECTION
  2
ENTITIES
  0
CIRCLE
  5
31
100
AcDbEntity
  8
MIRCO_500
  6
CONTINUOUS
 62
         5
100
AcDbCircle
 10
11.3175
 20
41.75
 30
0.0
 40
0.302484
  0
CIRCLE
  5
32
100
AcDbEntity
  8
MIRCO_250
  6
CONTINUOUS
 62
         3
100
AcDbCircle
 10
11.3175
 20
41.75
 30
0.0
 40
0.369413
  0
CIRCLE
  5
33
100
AcDbEntity
  8
MIRCO_500
  6
CONTINUOUS
 62
         5
100
AcDbCircle
 10
13.702515075
 20
41.5521567655
 30
0.0
 40
0.302484
  0
CIRCLE
  5
34
100
AcDbEntity
  8
MIRCO_250
  6
CONTINUOUS
 62
         3
100
AcDbCircle
 10
13.702515075
 20
41.5521567655
 30
0.0
 40
0.369413
  0
CIRCLE
  5
35
100
AcDbEntity
  8
MIRCO_500
  6
CONTINUOUS
 62
         5
100
AcDbCircle
 10
14.8552283626
 20
40.5923379927
 30
0.0
 40
0.302484
  0
CIRCLE
  5
36
100
AcDbEntity
  8
MIRCO_250
  6
CONTINUOUS
 62
         3
100
AcDbCircle
 10
14.8552283626
 20
40.5923379927
 30
0.0
 40
0.369413
  0
CIRCLE
  5
37
100
AcDbEntity
  8
MIRCO_250
  6
CONTINUOUS
 62
         3
100
AcDbCircle
 10
16.0079416502
 20
39.6325192199
 30
0.0
 40
0.369413
  0
CIRCLE
  5
38
100
AcDbEntity
  8
MIRCO_500
  6
CONTINUOUS
 62
         5
100
AcDbCircle
 10
16.0079416502
 20
39.6325192199
 30
0.0
 40
0.302484
  0
LINE
  5
39
100
AcDbEntity
  8
DT500
  6
CONTINUOUS
 62
         5
100
AcDbLine
 10
4.9950410571
 20
41.5607757621
 30
0.0
 11
4.5147438539
 21
41.1608512734
 31
0.0
  0
LINE
  5
3A
100
AcDbEntity
  8
DT500
  6
CONTINUOUS
 62
         5
100
AcDbLine
 10
4.194804263
 20
41.545089036
 30
0.0
 11
4.6751014662
 21
41.9450135246
 31
0.0
  0
ARC
  5
3B
100
AcDbEntity
  8
DT500
  6
CONTINUOUS
 62
         5
100
AcDbCircle
 10
4.8350712616
 20
41.7528946434
 30
0.0
 40
0.25
100
AcDbArc
 50
-50.2171890157
 51
129.7828109843
  0
ARC
  5
3C
100
AcDbEntity
  8
DT500
  6
CONTINUOUS
 62
         5
100
AcDbCircle
 10
3.2020607709
 20
40.3931513819
 30
0.0
 40
0.25
100
AcDbArc
 50
129.7828109843
 51
-50.2171890157
  0
LINE
  5
3D
100
AcDbEntity
  8
DT500
  6
CONTINUOUS
 62
         5
100
AcDbLine
 10
3.8423277695
 20
40.6009569893
 30
0.0
 11
3.3620305663
 21
40.2010325007
 31
0.0
  0
LINE
  5
3E
100
AcDbEntity
  8
DT500
  6
CONTINUOUS
 62
         5
100
AcDbLine
 10
3.0420909754
 20
40.5852702632
 30
0.0
 11
3.5223881786
 21
40.9851947519
 31
0.0
  0
ARC
  5
3F
100
AcDbEntity
  8
DT500
  6
CONTINUOUS
 62
         5
100
AcDbCircle
 10
3.682357974
 20
40.7930758706
 30
0.0
 40
0.25
100
AcDbArc
 50
-50.2171890157
 51
129.7828109843
  0
ARC
  5
40
100
AcDbEntity
  8
DT500
  6
CONTINUOUS
 62
         5
100
AcDbCircle
 10
14.2622154507
 20
42.7127134161
 30
0.0
 40
0.25
100
AcDbArc
 50
50.2171890157
 51
-129.7828109843
  0
LINE
  5
41
100
AcDbEntity
  8
DT500
  6
CONTINUOUS
 62
         5
100
AcDbLine
 10
14.5825428585
 20
42.1206700462
 30
0.0
 11
14.1022456553
 21
42.5205945349
 31
0.0
  0
LINE
  5
42
100
AcDbEntity
  8
DT500
  6
CONTINUOUS
 62
         5
100
AcDbLine
 10
14.4221852462
 20
42.9048322974
 30
0.0
 11
14.9024824494
 21
42.5049078087
 31
0.0
  0
ARC
  5
43
100
AcDbEntity
  8
DT500
  6
CONTINUOUS
 62
         5
100
AcDbCircle
 10
14.7425126539
 20
42.3127889275
 30
0.0
 40
0.25
100
AcDbArc
 50
-129.7828109843
 51
50.2171890157
  0
ARC
  5
44
100
AcDbEntity
  8
DT500
  6
CONTINUOUS
 62
         5
100
AcDbCircle
 10
5.5074873461
 20
42.3127889275
 30
0.0
 40
0.25
100
AcDbArc
 50
129.7828109843
 51
-50.2171890157
  0
LINE
  5
45
100
AcDbEntity
  8
DT500
  6
CONTINUOUS
 62
         5
100
AcDbLine
 10
6.1477543447
 20
42.5205945349
 30
0.0
 11
5.6674571415
 21
42.1206700462
 31
0.0
  0
CIRCLE
  5
46
100
AcDbEntity
  8
DT500
  6
CONTINUOUS
 62
         5
100
AcDbCircle
 10
14.2599092325
 20
30.742384204
 30
0.0
 40
0.0445
  0
CIRCLE
  5
47
100
AcDbEntity
  8
DT500
  6
CONTINUOUS
 62
         5
100
AcDbCircle
 10
13.5718755512
 20
30.154166663
 30
0.0
 40
0.25
  0
CIRCLE
  5
48
100
AcDbEntity
  8
MIRCO_500
  6
CONTINUOUS
 62
         5
100
AcDbCircle
 10
4.2420583498
 20
39.6325192199
 30
0.0
 40
0.302484
  0
CIRCLE
  5
49
100
AcDbEntity
  8
MIRCO_250
  6
CONTINUOUS
 62
         3
100
AcDbCircle
 10
4.2420583498
 20
39.6325192199
 30
0.0
 40
0.369413
  0
CIRCLE
  5
4A
100
AcDbEntity
  8
MIRCO_500
  6
CONTINUOUS
 62
         5
100
AcDbCircle
 10
5.3947716374
 20
40.5923379927
 30
0.0
 40
0.302484
  0
CIRCLE
  5
4B
100
AcDbEntity
  8
MIRCO_250
  6
CONTINUOUS
 62
         3
100
AcDbCircle
 10
5.3947716374
 20
40.5923379927
 30
0.0
 40
0.369413
  0
CIRCLE
  5
4C
100
AcDbEntity
  8
MIRCO_500
  6
CONTINUOUS
 62
         5
100
AcDbCircle
 10
6.547484925
 20
41.5521567655
 30
0.0
 40
0.302484
  0
CIRCLE
  5
4D
100
AcDbEntity
  8
MIRCO_250
  6
CONTINUOUS
 62
         3
100
AcDbCircle
 10
6.547484925
 20
41.5521567655
 30
0.0
 40
0.369413
  0
CIRCLE
  5
4E
100
AcDbEntity
  8
MIRCO_500
  6
CONTINUOUS
 62
         5
100
AcDbCircle
 10
8.9325
 20
41.75
 30
0.0
 40
0.302484
  0
CIRCLE
  5
4F
100
AcDbEntity
  8
MIRCO_250
  6
CONTINUOUS
 62
         3
100
AcDbCircle
 10
8.9325
 20
41.75
 30
0.0
 40
0.369413
  0
CIRCLE
  5
50
100
AcDbEntity
  8
MIRCO_500
  6
CONTINUOUS
 62
         5
100
AcDbCircle
 10
10.125
 20
41.75
 30
0.0
 40
0.302484
  0
CIRCLE
  5
51
100
AcDbEntity
  8
MIRCO_250
  6
CONTINUOUS
 62
         3
100
AcDbCircle
 10
10.125
 20
41.75
 30
0.0
 40
0.369413
  0
CIRCLE
  5
52
100
AcDbEntity
  8
DT500
  6
CONTINUOUS
 62
         5
100
AcDbCircle
 10
17.3860225927
 20
32.0874690945
 30
0.0
 40
0.0445
  0
LINE
  5
53
100
AcDbEntity
  8
DT500
  6
CONTINUOUS
 62
         5
100
AcDbLine
 10
17.8322911024
 20
31.5826467004
 30
0.0
 11
20.25
 21
31.1868088976
 31
0.0
  0
LINE
  5
54
100
AcDbEntity
  8
DT500
  6
CONTINUOUS
 62
         5
100
AcDbLine
 10
11.4444522047
 20
28.7458366535
 30
0.0
 11
17.8322911024
 21
31.5833388976
 31
0.0
  0
CIRCLE
  5
55
100
AcDbEntity
  8
DT500
  6
CONTINUOUS
 62
         5
100
AcDbCircle
 10
19.120930869
 20
38.0752125845
 30
0.0
 40
0.0625
  0
CIRCLE
  5
56
100
AcDbEntity
  8
DT500
  6
CONTINUOUS
 62
         5
100
AcDbCircle
 10
17.0934911672
 20
42.1083275912
 30
0.0
 40
0.0625
  0
CIRCLE
  5
57
100
AcDbEntity
  8
DT500
  6
CONTINUOUS
 62
         5
100
AcDbCircle
 10
16.5513735747
 20
41.4572607752
 30
0.0
 40
0.0445
  0
CIRCLE
  5
58
100
AcDbEntity
  8
DT500
  6
CONTINUOUS
 62
         5
100
AcDbCircle
 10
17.7040868623
 20
40.4974420024
 30
0.0
 40
0.0445
  0
CIRCLE
  5
59
100
AcDbEntity
  8
DT500
  6
CONTINUOUS
 62
         5
100
AcDbCircle
 10
3.3464944388
 20
33.2244834529
 30
0.0
 40
0.25
  0
CIRCLE
  5
5A
100
AcDbEntity
  8
DT500
  6
CONTINUOUS
 62
         5
100
AcDbCircle
 10
2.8453889149
 20
32.033427061
 30
0.0
 40
0.0445
  0
CIRCLE
  5
5B
100
AcDbEntity
  8
DT500
  6
CONTINUOUS
 62
         5
100
AcDbCircle
 10
3.0050733833
 20
34.3559003186
 30
0.0
 40
0.0445
  0
CIRCLE
  5
5C
100
AcDbEntity
  8
DT500
  6
CONTINUOUS
 62
         5
100
AcDbCircle
 10
20.0001775
 20
38.9944450197
 30
0.0
 40
0.0445
  0
CIRCLE
  5
5D
100
AcDbEntity
  8
DT500
  6
CONTINUOUS
 62
         5
100
AcDbCircle
 10
1.1317381003
 20
38.0702950014
 30
0.0
 40
0.0625
  0
CIRCLE
  5
5E
100
AcDbEntity
  8
DT500
  6
CONTINUOUS
 62
         5
100
AcDbCircle
 10
2.5459131377
 20
40.4974420024
 30
0.0
 40
0.0445
  0
ARC
  5
5F
100
AcDbEntity
  8
DT500
  6
CONTINUOUS
 62
         5
100
AcDbCircle
 10
15.4149287384
 20
41.7528946434
 30
0.0
 40
0.25
100
AcDbArc
 50
50.2171890157
 51
-129.7828109843
  0
LINE
  5
60
100
AcDbEntity
  8
DT500
  6
CONTINUOUS
 62
         5
100
AcDbLine
 10
15.7352561461
 20
41.1608512734
 30
0.0
 11
15.2549589429
 21
41.5607757621
 31
0.0
  0
LINE
  5
61
100
AcDbEntity
  8
DT500
  6
CONTINUOUS
 62
         5
100
AcDbLine
 10
15.5748985338
 20
41.9450135246
 30
0.0
 11
16.055195737
 21
41.545089036
 31
0.0
  0
LINE
  5
62
100
AcDbEntity
  8
DT500
  6
CONTINUOUS
 62
         5
100
AcDbLine
 10
2.3951427953
 20
31.5722255512
 30
0.0
 11
8.8138922047
 21
28.7458366535
 31
0.0
  0
CIRCLE
  5
63
100
AcDbEntity
  8
DT500
  6
CONTINUOUS
 62
         5
100
AcDbCircle
 10
12.8305
 20
43.3768983268
 30
0.0
 40
0.0445
  0
CIRCLE
  5
64
100
AcDbEntity
  8
DT500
  6
CONTINUOUS
 62
         5
100
AcDbCircle
 10
14.2459469994
 20
43.3768983207
 30
0.0
 40
0.0445
  0
ARC
  5
65
100
AcDbEntity
  8
DT500
  6
CONTINUOUS
 62
         5
100
AcDbCircle
 10
15.8952259415
 20
41.3529701547
 30
0.0
 40
0.25
100
AcDbArc
 50
-129.7828109843
 51
50.2171890157
  0
ARC
  5
66
100
AcDbEntity
  8
DT500
  6
CONTINUOUS
 62
         5
100
AcDbCircle
 10
16.567642026
 20
40.7930758706
 30
0.0
 40
0.25
100
AcDbArc
 50
50.2171890157
 51
-129.7828109843
  0
LINE
  5
67
100
AcDbEntity
  8
DT500
  6
CONTINUOUS
 62
         5
100
AcDbLine
 10
16.8879694337
 20
40.2010325007
 30
0.0
 11
16.4076722305
 21
40.6009569893
 31
0.0
  0
LINE
  5
68
100
AcDbEntity
  8
DT500
  6
CONTINUOUS
 62
         5
100
AcDbLine
 10
16.7276118214
 20
40.9851947519
 30
0.0
 11
17.2079090246
 21
40.5852702632
 31
0.0
  0
ARC
  5
69
100
AcDbEntity
  8
DT500
  6
CONTINUOUS
 62
         5
100
AcDbCircle
 10
17.0479392291
 20
40.3931513819
 30
0.0
 40
0.25
100
AcDbArc
 50
-129.7828109843
 51
50.2171890157
  0
ARC
  5
6A
100
AcDbEntity
  8
DT500
  6
CONTINUOUS
 62
         5
100
AcDbCircle
 10
4.3547740585
 20
41.3529701547
 30
0.0
 40
0.25
100
AcDbArc
 50
129.7828109843
 51
-50.2171890157
  0
CIRCLE
  5
6B
100
AcDbEntity
  8
DT500
  6
CONTINUOUS
 62
         5
100
AcDbCircle
 10
3.6986264253
 20
41.4572607752
 30
0.0
 40
0.0445
  0
CIRCLE
  5
6C
100
AcDbEntity
  8
DT500
  6
CONTINUOUS
 62
         5
100
AcDbCircle
 10
6.6595601631
 20
30.1555555538
 30
0.0
 40
0.25
  0
LINE
  5
6D
100
AcDbEntity
  8
DT500
  6
CONTINUOUS
 62
         5
100
AcDbLine
 10
8.8138922047
 20
28.7458366535
 30
0.0
 11
11.4444522047
 21
28.7458366535
 31
0.0
  0
CIRCLE
  5
6E
100
AcDbEntity
  8
DT500
  6
CONTINUOUS
 62
         5
100
AcDbCircle
 10
17.226330388
 20
34.4099597638
 30
0.0
 40
0.0445
  0
CIRCLE
  5
6F
100
AcDbEntity
  8
DT500
  6
CONTINUOUS
 62
         5
100
AcDbCircle
 10
16.384277645
 20
31.8211966934
 30
0.0
 40
0.0625
  0
CIRCLE
  5
70
100
AcDbEntity
  8
DT500
  6
CONTINUOUS
 62
         5
100
AcDbCircle
 10
18.6469074864
 20
38.0700023391
 30
0.0
 40
0.0575
  0
CIRCLE
  5
71
100
AcDbEntity
  8
DT500
  6
CONTINUOUS
 62
         5
100
AcDbCircle
 10
17.811131918
 20
41.6194450197
 30
0.0
 40
0.0445
  0
LINE
  5
72
100
AcDbEntity
  8
DT500
  6
CONTINUOUS
 62
         5
100
AcDbLine
 10
7.875
 20
42.5
 30
0.0
 11
12.375
 21
42.5
 31
0.0
  0
LINE
  5
73
100
AcDbEntity
  8
DT500
  6
CONTINUOUS
 62
         5
100
AcDbLine
 10
8.375
 20
43.75
 30
0.0
 11
8.375
 21
43.0
 31
0.0
  0
LINE
  5
74
100
AcDbEntity
  8
DT500
  6
CONTINUOUS
 62
         5
100
AcDbLine
 10
11.875
 20
43.75
 30
0.0
 11
11.875
 21
43.0
 31
0.0
  0
LINE
  5
75
100
AcDbEntity
  8
DT500
  6
CONTINUOUS
 62
         5
100
AcDbLine
 10
7.875
 20
43.0
 30
0.0
 11
8.375
 21
43.0
 31
0.0
  0
LINE
  5
76
100
AcDbEntity
  8
DT500
  6
CONTINUOUS
 62
         5
100
AcDbLine
 10
11.875
 20
43.0
 30
0.0
 11
12.375
 21
43.0
 31
0.0
  0
LINE
  5
77
100
AcDbEntity
  8
DT500
  6
CONTINUOUS
 62
         5
100
AcDbLine
 10
11.875
 20
43.75
 30
0.0
 11
20.25
 21
43.75
 31
0.0
  0
CIRCLE
  5
78
100
AcDbEntity
  8
DT500
  6
CONTINUOUS
 62
         5
100
AcDbCircle
 10
15.3986602871
 20
42.417079548
 30
0.0
 40
0.0445
  0
CIRCLE
  5
79
100
AcDbEntity
  8
DT500
  6
CONTINUOUS
 62
         5
100
AcDbCircle
 10
7.4195
 20
43.3768983268
 30
0.0
 40
0.0445
  0
CIRCLE
  5
7A
100
AcDbEntity
  8
DT500
  6
CONTINUOUS
 62
         5
100
AcDbCircle
 10
6.0040530006
 20
43.3768983207
 30
0.0
 40
0.0445
  0
LINE
  5
7B
100
AcDbEntity
  8
DT500
  6
CONTINUOUS
 62
         5
100
AcDbLine
 10
5.3475175506
 20
42.5049078087
 30
0.0
 11
5.8278147538
 21
42.9048322974
 31
0.0
  0
ARC
  5
7C
100
AcDbEntity
  8
DT500
  6
CONTINUOUS
 62
         5
100
AcDbCircle
 10
5.9877845493
 20
42.7127134161
 30
0.0
 40
0.25
100
AcDbArc
 50
-50.2171890157
 51
129.7828109843
  0
CIRCLE
  5
7D
100
AcDbEntity
  8
DT500
  6
CONTINUOUS
 62
         5
100
AcDbCircle
 10
4.8513397129
 20
42.417079548
 30
0.0
 40
0.0445
  0
CIRCLE
  5
7E
100
AcDbEntity
  8
DT500
  6
CONTINUOUS
 62
         5
100
AcDbCircle
 10
5.9719932387
 20
30.6855350879
 30
0.0
 40
0.0445
  0
CIRCLE
  5
7F
100
AcDbEntity
  8
DT500
  6
CONTINUOUS
 62
         5
100
AcDbCircle
 10
0.2501775
 20
35.9944450197
 30
0.0
 40
0.0445
  0
CIRCLE
  5
80
100
AcDbEntity
  8
DT500
  6
CONTINUOUS
 62
         5
100
AcDbCircle
 10
0.2501775
 20
31.9944450197
 30
0.0
 40
0.0445
  0
CIRCLE
  5
81
100
AcDbEntity
  8
DT500
  6
CONTINUOUS
 62
         5
100
AcDbCircle
 10
1.3290099691
 20
42.3987960974
 30
0.0
 40
0.59375
  0
CIRCLE
  5
82
100
AcDbEntity
  8
DT500
  6
CONTINUOUS
 62
         5
100
AcDbCircle
 10
18.9209900309
 20
42.3987960974
 30
0.0
 40
0.59375
  0
CIRCLE
  5
83
100
AcDbEntity
  8
DT500
  6
CONTINUOUS
 62
         5
100
AcDbCircle
 10
16.9368699018
 20
33.2458269186
 30
0.0
 40
0.25
  0
LINE
  5
84
100
AcDbEntity
  8
DT500
  6
CONTINUOUS
 62
         5
100
AcDbLine
 10
0.0
 20
43.75
 30
0.0
 11
0.0
 21
31.1975722047
 31
0.0
  0
LINE
  5
85
100
AcDbEntity
  8
DT500
  6
CONTINUOUS
 62
         5
100
AcDbLine
 10
8.375
 20
43.75
 30
0.0
 11
0.0
 21
43.75
 31
0.0
  0
LINE
  5
86
100
AcDbEntity
  8
DT500
  6
CONTINUOUS
 62
         5
100
AcDbLine
 10
0.0001775
 20
31.1920172244
 30
0.0
 11
2.3953202953
 21
31.5666705709
 31
0.0
  0
CIRCLE
  5
87
100
AcDbEntity
  8
DT500
  6
CONTINUOUS
 62
         5
100
AcDbCircle
 10
19.4970504104
 20
38.5548347782
 30
0.0
 40
0.25
  0
CIRCLE
  5
88
100
AcDbEntity
  8
DT500
  6
CONTINUOUS
 62
         5
100
AcDbCircle
 10
0.7685926649
 20
38.5267144097
 30
0.0
 40
0.25
  0
CIRCLE
  5
89
100
AcDbEntity
  8
DT500
  6
CONTINUOUS
 62
         5
100
AcDbCircle
 10
12.4999999936
 20
37.7880814559
 30
0.0
 40
1.26
  0
CIRCLE
  5
8A
100
AcDbEntity
  8
DT500
  6
CONTINUOUS
 62
         5
100
AcDbCircle
 10
7.7500000064
 20
37.7880814559
 30
0.0
 40
1.26
  0
ARC
  5
8B
100
AcDbEntity
  8
DT500
  6
CONTINUOUS
 62
         5
100
AcDbCircle
 10
7.875
 20
42.75
 30
0.0
 40
0.25
100
AcDbArc
 50
90.0
 51
-90.0
  0
ARC
  5
8C
100
AcDbEntity
  8
DT500
  6
CONTINUOUS
 62
         5
100
AcDbCircle
 10
12.375
 20
42.75
 30
0.0
 40
0.25
100
AcDbArc
 50
-90.0
 51
90.0
  0
CIRCLE
  5
8D
100
AcDbEntity
  8
DT500
  6
CONTINUOUS
 62
         5
100
AcDbCircle
 10
1.6031233411
 20
38.0702950014
 30
0.0
 40
0.0575
  0
CIRCLE
  5
8E
100
AcDbEntity
  8
DT500
  6
CONTINUOUS
 62
         5
100
AcDbCircle
 10
2.439223082
 20
41.6194450197
 30
0.0
 40
0.0445
  0
CIRCLE
  5
8F
100
AcDbEntity
  8
DT500
  6
CONTINUOUS
 62
         5
100
AcDbCircle
 10
0.2501775
 20
38.9944450197
 30
0.0
 40
0.0445
  0
CIRCLE
  5
90
100
AcDbEntity
  8
DT500
  6
CONTINUOUS
 62
         5
100
AcDbCircle
 10
3.1565088328
 20
42.1083275912
 30
0.0
 40
0.0625
  0
CIRCLE
  5
91
100
AcDbEntity
  8
DT500
  6
CONTINUOUS
 62
         5
100
AcDbCircle
 10
1.5001775
 20
43.4944450197
 30
0.0
 40
0.0445
  0
CIRCLE
  5
92
100
AcDbEntity
  8
DT500
  6
CONTINUOUS
 62
         5
100
AcDbCircle
 10
4.5001775
 20
43.4944450197
 30
0.0
 40
0.0445
  0
CIRCLE
  5
93
100
AcDbEntity
  8
DT500
  6
CONTINUOUS
 62
         5
100
AcDbCircle
 10
2.439223082
 20
42.6194450197
 30
0.0
 40
0.0445
  0
CIRCLE
  5
94
100
AcDbEntity
  8
DT500
  6
CONTINUOUS
 62
         5
100
AcDbCircle
 10
0.2501775
 20
42.9944450197
 30
0.0
 40
0.0445
  0
CIRCLE
  5
95
100
AcDbEntity
  8
DT500
  6
CONTINUOUS
 62
         5
100
AcDbCircle
 10
18.7501775
 20
43.4944450197
 30
0.0
 40
0.0445
  0
CIRCLE
  5
96
100
AcDbEntity
  8
DT500
  6
CONTINUOUS
 62
         5
100
AcDbCircle
 10
15.7501775
 20
43.4944450197
 30
0.0
 40
0.0445
  0
CIRCLE
  5
97
100
AcDbEntity
  8
DT500
  6
CONTINUOUS
 62
         5
100
AcDbCircle
 10
17.811131918
 20
42.6194450197
 30
0.0
 40
0.0445
  0
CIRCLE
  5
98
100
AcDbEntity
  8
DT500
  6
CONTINUOUS
 62
         5
100
AcDbCircle
 10
20.0001775
 20
42.9944450197
 30
0.0
 40
0.0445
  0
LINE
  5
99
100
AcDbEntity
  8
DT500
  6
CONTINUOUS
 62
         5
100
AcDbLine
 10
20.25
 20
43.75
 30
0.0
 11
20.25
 21
31.1868088976
 31
0.0
  0
CIRCLE
  5
9A
100
AcDbEntity
  8
DT500
  6
CONTINUOUS
 62
         5
100
AcDbCircle
 10
3.8471338627
 20
31.7671546598
 30
0.0
 40
0.0625
  0
CIRCLE
  5
9B
100
AcDbEntity
  8
DT500
  6
CONTINUOUS
 62
         5
100
AcDbCircle
 10
20.0001775
 20
35.9944450197
 30
0.0
 40
0.0445
  0
CIRCLE
  5
9C
100
AcDbEntity
  8
DT500
  6
CONTINUOUS
 62
         5
100
AcDbCircle
 10
20.0001775
 20
31.9944450197
 30
0.0
 40
0.0445
  0
ENDSEC
  0
SECTION
  2
OBJECTS
  0
DICTIONARY
  5
19
100
AcDbDictionary
  3
ACAD_GROUP
350
1A
  3
ACAD_MLINESTYLE
350
1B
  0
DICTIONARY
  5
1A
102
{ACAD_REACTORS
330
19
102
}
100
AcDbDictionary
  0
DICTIONARY
  5
1B
102
{ACAD_REACTORS
330
19
102
}
100
AcDbDictionary
  3
STANDARD
350
1C
  0
MLINESTYLE
  5
1C
102
{ACAD_REACTORS
330
1B
102
}
100
AcDbMlineStyle
  2
STANDARD
 70
         0
  3

 62
         0
 51
90.0
 52
90.0
 71
         2
 49
0.5
 62
       256
  6
BYLAYER
 49
-0.5
 62
       256
  6
BYLAYER
  0
ENDSEC
  0
EOF
