  0
SECTION
  2
HEADER
  9
$ACADVER
  1
AC1014
  9
$ACADMAINTVER
 70
         0
  9
$DWGCODEPAGE
  3
ANSI_1252
  9
$INSBASE
 10
0.0
 20
0.0
 30
0.0
  9
$EXTMIN
 10
-0.93969262
 20
-0.98480775
 30
0.0
  9
$EXTMAX
 10
13.0
 20
12.98480775
 30
0.0
  9
$LIMMIN
 10
0.0
 20
0.0
  9
$LIMMAX
 10
0.0
 20
0.0
  9
$ORTHOMODE
 70
         0
  9
$REGENMODE
 70
         1
  9
$FILLMODE
 70
         1
  9
$QTEXTMODE
 70
         0
  9
$MIRRTEXT
 70
         1
  9
$DRAGMODE
 70
         2
  9
$LTSCALE
 40
1.0
  9
$OSMODE
 70
         0
  9
$ATTMODE
 70
         1
  9
$TEXTSIZE
 40
0.2
  9
$TRACEWID
 40
0.05
  9
$TEXTSTYLE
  7
STANDARD
  9
$CLAYER
  8
0
  9
$CELTYPE
  6
CONTINUOUS
  9
$CECOLOR
 62
       256
  9
$CELTSCALE
 40
1.0
  9
$DELOBJ
 70
         1
  9
$DISPSILH
 70
         0
  9
$DIMSCALE
 40
1.0
  9
$DIMASZ
 40
0.18
  9
$DIMEXO
 40
0.0625
  9
$DIMDLI
 40
0.38
  9
$DIMRND
 40
0.0
  9
$DIMDLE
 40
0.0
  9
$DIMEXE
 40
0.18
  9
$DIMTP
 40
0.0
  9
$DIMTM
 40
0.0
  9
$DIMTXT
 40
0.18
  9
$DIMCEN
 40
0.09
  9
$DIMTSZ
 40
0.0
  9
$DIMTOL
 70
         0
  9
$DIMLIM
 70
         0
  9
$DIMTIH
 70
         1
  9
$DIMTOH
 70
         1
  9
$DIMSE1
 70
         0
  9
$DIMSE2
 70
         0
  9
$DIMTAD
 70
         0
  9
$DIMZIN
 70
         0
  9
$DIMBLK
  1

  9
$DIMASO
 70
         1
  9
$DIMSHO
 70
         1
  9
$DIMPOST
  1

  9
$DIMAPOST
  1

  9
$DIMALT
 70
         0
  9
$DIMALTD
 70
         2
  9
$DIMALTF
 40
25.4
  9
$DIMLFAC
 40
1.0
  9
$DIMTOFL
 70
         0
  9
$DIMTVP
 40
0.0
  9
$DIMTIX
 70
         0
  9
$DIMSOXD
 70
         0
  9
$DIMSAH
 70
         0
  9
$DIMBLK1
  1

  9
$DIMBLK2
  1

  9
$DIMSTYLE
  2
STANDARD
  9
$DIMCLRD
 70
         0
  9
$DIMCLRE
 70
         0
  9
$DIMCLRT
 70
         0
  9
$DIMTFAC
 40
1.0
  9
$DIMGAP
 40
0.09
  9
$DIMJUST
 70
         0
  9
$DIMSD1
 70
         0
  9
$DIMSD2
 70
         0
  9
$DIMTOLJ
 70
         1
  9
$DIMTZIN
 70
         0
  9
$DIMALTZ
 70
         0
  9
$DIMALTTZ
 70
         0
  9
$DIMFIT
 70
         3
  9
$DIMUPT
 70
         0
  9
$DIMUNIT
 70
         2
  9
$DIMDEC
 70
         4
  9
$DIMTDEC
 70
         4
  9
$DIMALTU
 70
         2
  9
$DIMALTTD
 70
         2
  9
$DIMTXSTY
  7
STANDARD
  9
$DIMAUNIT
 70
         0
  9
$LUNITS
 70
         2
  9
$LUPREC
 70
         4
  9
$SKETCHINC
 40
0.1
  9
$FILLETRAD
 40
0.0
  9
$AUNITS
 70
         0
  9
$AUPREC
 70
         0
  9
$MENU
  1
acad
  9
$ELEVATION
 40
0.0
  9
$PELEVATION
 40
0.0
  9
$THICKNESS
 40
0.0
  9
$LIMCHECK
 70
         0
  9
$BLIPMODE
 70
         1
  9
$CHAMFERA
 40
0.0
  9
$CHAMFERB
 40
0.0
  9
$CHAMFERC
 40
0.0
  9
$CHAMFERD
 40
0.0
  9
$SKPOLY
 70
         0
  9
$TDCREATE
 40
2457730.872557871
  9
$TDUPDATE
 40
2457730.872557871
  9
$TDINDWG
 40
0.0000000000
  9
$TDUSRTIMER
 40
0.0000000000
  9
$USRTIMER
 70
         1
  9
$ANGBASE
 50
0.0
  9
$ANGDIR
 70
         0
  9
$PDMODE
 70
         0
  9
$PDSIZE
 40
0.0
  9
$PLINEWID
 40
0.0
  9
$COORDS
 70
         0
  9
$SPLFRAME
 70
         0
  9
$SPLINETYPE
 70
         6
  9
$SPLINESEGS
 70
         8
  9
$ATTDIA
 70
         0
  9
$ATTREQ
 70
         1
  9
$HANDLING
 70
         1
  9
$HANDSEED
  5
1DD
  9
$SURFTAB1
 70
         6
  9
$SURFTAB2
 70
         6
  9
$SURFTYPE
 70
         6
  9
$SURFU
 70
         6
  9
$SURFV
 70
         6
  9
$UCSNAME
  2

  9
$UCSORG
 10
0.0
 20
0.0
 30
0.0
  9
$UCSXDIR
 10
1.0
 20
0.0
 30
0.0
  9
$UCSYDIR
 10
0.0
 20
1.0
 30
0.0
  9
$PUCSNAME
  2

  9
$PUCSORG
 10
0.0
 20
0.0
 30
0.0
  9
$PUCSXDIR
 10
1.0
 20
0.0
 30
0.0
  9
$PUCSYDIR
 10
0.0
 20
1.0
 30
0.0
  9
$USERI1
 70
         0
  9
$USERI2
 70
         0
  9
$USERI3
 70
         0
  9
$USERI4
 70
         0
  9
$USERI5
 70
         0
  9
$USERR1
 40
0.0
  9
$USERR2
 40
0.0
  9
$USERR3
 40
0.0
  9
$USERR4
 40
0.0
  9
$USERR5
 40
0.0
  9
$WORLDVIEW
 70
         1
  9
$SHADEDGE
 70
         3
  9
$SHADEDIF
 70
        70
  9
$TILEMODE
 70
         1
  9
$MAXACTVP
 70
        16
  9
$PINSBASE
 10
0.0
 20
0.0
 30
0.0
  9
$PLIMCHECK
 70
         0
  9
$PEXTMIN
 10
1.0000000000E+20
 20
1.0000000000E+20
 30
1.0000000000E+20
  9
$PEXTMAX
 10
-1.0000000000E+20
 20
-1.0000000000E+20
 30
-1.0000000000E+20
  9
$PLIMMIN
 10
0.0
 20
0.0
  9
$PLIMMAX
 10
12.0
 20
9.0
  9
$UNITMODE
 70
         0
  9
$VISRETAIN
 70
         0
  9
$PLINEGEN
 70
         1
  9
$PSLTSCALE
 70
         0
  9
$TREEDEPTH
 70
      3020
  9
$PICKSTYLE
 70
         1
  9
$CMLSTYLE
  2
STANDARD
  9
$CMLJUST
 70
         0
  9
$CMLSCALE
 40
1.0
  9
$PROXYGRAPHICS
 70
         0
  9
$MEASUREMENT
 70
         0
  0
ENDSEC
  0
SECTION
  2
CLASSES
  0
CLASS
  1
LWPOLYLINE
  2
AcDbPolyline
  3
"AutoCAD"
 90
        0
280
         0
281
         1
  0
CLASS
  1
IMAGE
  2
AcDbRasterImage
  3
ISM
 90
      127
280
         0
281
         1
  0
CLASS
  1
OLE2FRAME
  2
AcDbOle2Frame
  3
""
 90
        0
280
         0
281
         1
  0
CLASS
  1
HATCH
  2
AcDbHatch
  3
"ACAD_SEDONA"
 90
        0
280
         0
281
         1
  0
CLASS
  1
DICTIONARYVAR
  2
AcDbDictionaryVar
  3
"AutoCAD"
 90
        0
280
         0
281
         0
  0
CLASS
  1
RASTERVARIABLES
  2
AcDbRasterVariables
  3
ISM
 90
        0
280
         0
281
         0
  0
CLASS
  1
IMAGEDEF
  2
AcDbRasterImageDef
  3
ISM
 90
        0
280
         0
281
         0
  0
CLASS
  1
IMAGEDEF_REACTOR
  2
AcDbRasterImageDefReactor
  3
ISM
 90
        1
280
         0
281
         0
  0
CLASS
  1
IDBUFFER
  2
AcDbIdBuffer
  3
"Acad"
 90
        0
280
         0
281
         0
  0
CLASS
  1
SPATIAL_FILTER
  2
AcDbSpatialFilter
  3
"Acad"
 90
        0
280
         0
281
         0
  0
CLASS
  1
XRECORD
  2
AcDbXrecord
  3
"<Built In>"
 90
        0
280
         0
281
         0
  0
CLASS
  1
SORTENTSTABLE
  2
AcDbSortentsTable
  3
"AutoCAD"
 90
        0
280
         0
281
         0
  0
CLASS
  1
LAYER_INDEX
  2
AcDbLayerIndex
  3
"Acad"
 90
        0
280
         0
281
         0
  0
CLASS
  1
SPATIAL_INDEX
  2
AcDbSpatialIndex
  3
"Acad"
 90
        0
280
         0
281
         0
  0
CLASS
  1
OBJECT_PTR
  2
CAseDLPNTableRecord
  3
"ASE-LPNTableRecord"
 90
        1
280
         0
281
         0
  0
CLASS
  1
LAYOUT
  2
AcDbLayout
  3
"AutoCAD 2000"
 90
        1
280
         0
281
         0
  0
CLASS
  1
PLOTSETTINGS
  2
AcDbPlotSettings
  3
"AutoCAD 2000"
 90
        1
280
         0
281
         0
  0
CLASS
  1
ACDBDICTIONARYWDFLT
  2
AcDbDictionaryWithDefault
  3
"AutoCAD 2000"
 90
        1
280
         0
281
         0
  0
CLASS
  1
ACDBPLACEHOLDER
  2
AcDbPlaceHolder
  3
"AutoCAD 2000"
 90
        1
280
         0
281
         0
  0
CLASS
  1
VBA_PROJECT
  2
AcDbVbaProject
  3
"acadvba"
 90
        1
280
         0
281
         0
  0
CLASS
  1
WIPEOUT
  2
AcDbWipeout
  3
WipeOut|AutoCAD Express Tool|expresstools@autodesk.com
 90
      127
280
         0
281
         1
  0
CLASS
  1
WIPEOUTVARIABLES
  2
AcDbWipeoutVariables
  3
WipeOut|AutoCAD Express Tool|expresstools@autodesk.com
 90
        0
280
         0
281
         0
  0
CLASS
  1
RTEXT
  2
RText
  3
RText|AutoCAD Express Tool|expresstools@autodesk.com
 90
        0
280
         0
281
         1
  0
CLASS
  1
ARCALIGNEDTEXT
  2
AcDbArcAlignedText
  3
ATEXT|AutoCAD Express Tool|expresstools@autodesk.com
 90
        0
280
         0
281
         1
  0
ENDSEC
  0
SECTION
  2
TABLES
  0
TABLE
  2
VPORT
  5
7
100
AcDbSymbolTable
 70
         1
  0
VPORT
  5
15
100
AcDbSymbolTableRecord
100
AcDbViewportTableRecord
  2
*ACTIVE
 70
         0
 10
0.0
 20
0.0
 11
1.0
 21
1.0
 12
6.591288
 22
4.579184
 13
0.0
 23
0.0
 14
1.0
 24
1.0
 15
0.0
 25
0.0
 16
0.0
 26
0.0
 36
1.0
 17
0.0
 27
0.0
 37
0.0
 40
9.158369
 41
0.688564
 42
50.0
 43
0.0
 44
0.0
 50
0.0
 51
0.0
 71
         0
 72
       100
 73
         1
 74
         1
 75
         0
 76
         0
 77
         0
 78
         0
  0
ENDTAB
  0
TABLE
  2
LTYPE
  5
4
100
AcDbSymbolTable
 70
        13
  0
LTYPE
  5
11
100
AcDbSymbolTableRecord
100
AcDbLinetypeTableRecord
  2
BYBLOCK
 70
        64
  3

 72
        65
 73
         0
 40
0.0
  0
LTYPE
  5
12
100
AcDbSymbolTableRecord
100
AcDbLinetypeTableRecord
  2
BYLAYER
 70
        64
  3

 72
        65
 73
         0
 40
0.0
  0
LTYPE
  5
13
100
AcDbSymbolTableRecord
100
AcDbLinetypeTableRecord
  2
CONTINUOUS
 70
        64
  3
Solid line
 72
        65
 73
         0
 40
0.0
  0
LTYPE
  5
1E
100
AcDbSymbolTableRecord
100
AcDbLinetypeTableRecord
  2
DOTTED
 70
        64
  3
Dotted
 72
        65
 73
         2
 40
0.125
 49
0.0
 74
         0
 49
-0.125
 74
         0
  0
LTYPE
  5
1F
100
AcDbSymbolTableRecord
100
AcDbLinetypeTableRecord
  2
CENTER
 70
        64
  3
Center
 72
        65
 73
         4
 40
0.7699999809
 49
0.5
 74
         0
 49
-0.0724999979
 74
         0
 49
0.125
 74
         0
 49
-0.0724999979
 74
         0
  0
LTYPE
  5
20
100
AcDbSymbolTableRecord
100
AcDbLinetypeTableRecord
  2
DASHED
 70
        64
  3
Dashed
 72
        65
 73
         2
 40
0.375
 49
0.25
 74
         0
 49
-0.125
 74
         0
  0
LTYPE
  5
21
100
AcDbSymbolTableRecord
100
AcDbLinetypeTableRecord
  2
HIDDEN
 70
        64
  3
Hidden
 72
        65
 73
         2
 40
0.1974999905
 49
0.125
 74
         0
 49
-0.0724999979
 74
         0
  0
LTYPE
  5
22
100
AcDbSymbolTableRecord
100
AcDbLinetypeTableRecord
  2
PHANTOM
 70
        64
  3
Phantom
 72
        65
 73
         6
 40
0.9674999714
 49
0.5
 74
         0
 49
-0.0724999979
 74
         0
 49
0.125
 74
         0
 49
-0.0724999979
 74
         0
 49
0.125
 74
         0
 49
-0.0724999979
 74
         0
  0
LTYPE
  5
23
100
AcDbSymbolTableRecord
100
AcDbLinetypeTableRecord
  2
DASHDOT
 70
        64
  3
Dashdot
 72
        65
 73
         4
 40
0.6762499809
 49
0.5
 74
         0
 49
-0.0724999979
 74
         0
 49
0.03125
 74
         0
 49
-0.0724999979
 74
         0
  0
LTYPE
  5
24
100
AcDbSymbolTableRecord
100
AcDbLinetypeTableRecord
  2
BORDER
 70
        64
  3
Border
 72
        65
 73
         6
 40
1.2487499714
 49
0.5
 74
         0
 49
-0.0724999979
 74
         0
 49
0.5
 74
         0
 49
-0.0724999979
 74
         0
 49
0.03125
 74
         0
 49
-0.0724999979
 74
         0
  0
LTYPE
  5
25
100
AcDbSymbolTableRecord
100
AcDbLinetypeTableRecord
  2
DIVIDE
 70
        64
  3
Divide
 72
        65
 73
         6
 40
0.7799999714
 49
0.5
 74
         0
 49
-0.0724999979
 74
         0
 49
0.03125
 74
         0
 49
-0.0724999979
 74
         0
 49
0.03125
 74
         0
 49
-0.0724999979
 74
         0
  0
LTYPE
  5
26
100
AcDbSymbolTableRecord
100
AcDbLinetypeTableRecord
  2
CUTTING
 70
        64
  3
Cutting
 72
        65
 73
         6
 40
1.4674999714
 49
1.0
 74
         0
 49
-0.0724999979
 74
         0
 49
0.125
 74
         0
 49
-0.0724999979
 74
         0
 49
0.125
 74
         0
 49
-0.0724999979
 74
         0
  0
LTYPE
  5
27
100
AcDbSymbolTableRecord
100
AcDbLinetypeTableRecord
  2
STITCH
 70
        64
  3
Stitch
 72
        65
 73
         2
 40
0.1449999958
 49
0.0724999979
 74
         0
 49
-0.0724999979
 74
         0
  0
ENDTAB
  0
TABLE
  2
LAYER
  5
2
100
AcDbSymbolTable
 70
         6
  0
LAYER
  5
14
100
AcDbSymbolTableRecord
100
AcDbLayerTableRecord
  2
0
 70
         0
 62
         7
  6
CONTINUOUS
  0
LAYER
  5
28
100
AcDbSymbolTableRecord
100
AcDbLayerTableRecord
  2
DF250
 70
         0
 62
         3
  6
CONTINUOUS
  0
LAYER
  5
29
100
AcDbSymbolTableRecord
100
AcDbLayerTableRecord
  2
DF500
 70
         0
 62
         5
  6
CONTINUOUS
  0
LAYER
  5
2A
100
AcDbSymbolTableRecord
100
AcDbLayerTableRecord
  2
MIRCO_250
 70
         0
 62
         5
  6
CONTINUOUS
  0
LAYER
  5
2B
100
AcDbSymbolTableRecord
100
AcDbLayerTableRecord
  2
MIRCO_500
 70
         0
 62
         5
  6
CONTINUOUS
  0
LAYER
  5
2C
100
AcDbSymbolTableRecord
100
AcDbLayerTableRecord
  2
CONSTRUCTION
 70
         0
 62
         7
  6
CONTINUOUS
  0
ENDTAB
  0
TABLE
  2
STYLE
  5
3
100
AcDbSymbolTable
 70
         2
  0
STYLE
  5
17
100
AcDbSymbolTableRecord
100
AcDbTextStyleTableRecord
  2
STANDARD
 70
         0
 40
0.0
 41
1.0
 50
0.0
 71
         0
 42
0.0
  3
txt
  4

  0
STYLE
  5
1D
100
AcDbSymbolTableRecord
100
AcDbTextStyleTableRecord
  2
PLOTTER
 70
         0
 40
0.0
 41
0.98
 50
0.0
 71
         0
 42
0.0
  3
SIMPLEX
  4

  0
ENDTAB
  0
TABLE
  2
VIEW
  5
5
100
AcDbSymbolTable
 70
         0
  0
ENDTAB
  0
TABLE
  2
UCS
  5
6
100
AcDbSymbolTable
 70
         0
  0
ENDTAB
  0
TABLE
  2
APPID
  5
8
100
AcDbSymbolTable
 70
         1
  0
APPID
  5
16
100
AcDbSymbolTableRecord
100
AcDbRegAppTableRecord
  2
ACAD
 70
         0
  0
ENDTAB
  0
TABLE
  2
DIMSTYLE
  5
9
100
AcDbSymbolTable
 70
         1
  0
DIMSTYLE
105
18
100
AcDbSymbolTableRecord
100
AcDbDimStyleTableRecord
  2
STANDARD
 70
         0
  3

  4

  5

  6

  7

 40
1.0
 41
0.18
 42
0.0625
 43
0.38
 44
0.18
 45
0.0
 46
0.0
 47
0.0
 48
0.0
 71
         0
 72
         0
 73
         1
 74
         1
 75
         0
 76
         0
 77
         0
 78
         0
140
0.18
141
0.09
142
0.0
143
25.4
144
1.0
145
0.0
146
1.0
147
0.09
170
         0
171
         2
172
         0
173
         0
174
         0
175
         0
176
         0
177
         0
178
         0
270
         2
271
         4
272
         4
273
         2
274
         2
275
         0
280
         0
281
         0
282
         0
283
         1
284
         0
285
         0
286
         0
287
         0
288
         0
340
17
  0
ENDTAB
  0
TABLE
  2
BLOCK_RECORD
  5
1
100
AcDbSymbolTable
 70
         0
  0
BLOCK_RECORD
  5
A
100
AcDbSymbolTableRecord
100
AcDbBlockTableRecord
  2
*MODEL_SPACE
  0
BLOCK_RECORD
  5
B
100
AcDbSymbolTableRecord
100
AcDbBlockTableRecord
  2
*PAPER_SPACE
  0
ENDTAB
  0
ENDSEC
  0
SECTION
  2
BLOCKS
  0
BLOCK
  5
D
100
AcDbEntity
  8
0
100
AcDbBlockBegin
  2
*MODEL_SPACE
 70
         0
 10
0.0
 20
0.0
 30
0.0
  3
*MODEL_SPACE
  1

  0
ENDBLK
  5
E
100
AcDbEntity
  8
0
100
AcDbBlockEnd
  0
BLOCK
  5
F
100
AcDbEntity
 67
         1
  8
0
100
AcDbBlockBegin
  2
*PAPER_SPACE
 70
         0
 10
0.0
 20
0.0
 30
0.0
  3
*PAPER_SPACE
  1

  0
ENDBLK
  5
10
100
AcDbEntity
 67
         1
  8
0
100
AcDbBlockEnd
  0
ENDSEC
  0
SECTION
  2
ENTITIES
  0
LINE
  5
2D
100
AcDbEntity
  8
DF500
  6
CONTINUOUS
 62
         5
100
AcDbLine
 10
6.6475301046
 20
18.1110908287
 30
0.0
 11
7.6578240448
 21
21.8306425518
 31
0.0
  0
LINE
  5
2E
100
AcDbEntity
  8
DF500
  6
CONTINUOUS
 62
         5
100
AcDbLine
 10
11.7500861082
 20
21.8306425518
 30
0.0
 11
12.7603800484
 21
18.1110908287
 31
0.0
  0
ARC
  5
2F
100
AcDbEntity
  8
DF250
  6
CONTINUOUS
 62
         3
100
AcDbCircle
 10
9.7039550765
 20
21.2748783264
 30
0.0
 40
2.4952655666
100
AcDbArc
 50
15.1958987297
 51
164.8041012703
  0
CIRCLE
  5
30
100
AcDbEntity
  8
MIRCO_500
  6
CONTINUOUS
 62
         5
100
AcDbCircle
 10
1.4899833465
 20
21.4761721661
 30
0.0
 40
0.5325
  0
CIRCLE
  5
31
100
AcDbEntity
  8
MIRCO_250
  6
CONTINUOUS
 62
         3
100
AcDbCircle
 10
1.4899833465
 20
21.4761721661
 30
0.0
 40
0.587598
  0
LINE
  5
32
100
AcDbEntity
  8
MIRCO_250
  6
CONTINUOUS
 62
         3
100
AcDbLine
 10
16.8526381976
 20
21.7939390943
 30
0.0
 11
17.250227331
 21
22.4411637152
 31
0.0
  0
LINE
  5
33
100
AcDbEntity
  8
MIRCO_500
  6
CONTINUOUS
 62
         5
100
AcDbLine
 10
16.8880043834
 20
21.7348514989
 30
0.0
 11
17.3022228307
 21
22.4091469297
 31
0.0
  0
CIRCLE
  5
34
100
AcDbEntity
  8
MIRCO_500
  6
CONTINUOUS
 62
         5
100
AcDbCircle
 10
4.9095747723
 20
23.9999980465
 30
0.0
 40
0.302484
  0
ARC
  5
35
100
AcDbEntity
  8
DF500
  6
CONTINUOUS
 62
         5
100
AcDbCircle
 10
6.7555033346
 20
37.1873431611
 30
0.0
 40
1.625
100
AcDbArc
 50
89.4061258854
 51
-23.5497788619
  0
LINE
  5
36
100
AcDbEntity
  8
MIRCO_500
  6
CONTINUOUS
 62
         5
100
AcDbLine
 10
5.4882470459
 20
28.2650797779
 30
0.0
 11
5.3562790043
 21
27.485121647
 31
0.0
  0
LINE
  5
37
100
AcDbEntity
  8
MIRCO_250
  6
CONTINUOUS
 62
         3
100
AcDbLine
 10
5.4227168766
 20
28.243807356
 30
0.0
 11
5.2960740364
 21
27.4953219217
 31
0.0
  0
LINE
  5
38
100
AcDbEntity
  8
DF500
  6
CONTINUOUS
 62
         5
100
AcDbLine
 10
4.9333986987
 20
13.1693448754
 30
0.0
 11
4.3010785509
 21
12.7591051084
 31
0.0
  0
ARC
  5
39
100
AcDbEntity
  8
DF500
  6
CONTINUOUS
 62
         5
100
AcDbCircle
 10
4.8310716019
 20
13.3270659982
 30
0.0
 40
0.1880074129
100
AcDbArc
 50
-57.0250981459
 51
90.301500367
  0
CIRCLE
  5
3A
100
AcDbEntity
  8
DF500
  6
CONTINUOUS
 62
         5
100
AcDbCircle
 10
4.9271114489
 20
11.6070586905
 30
0.0
 40
0.0445
  0
SPLINE
  5
3B
100
AcDbEntity
  8
DF500
  6
CONTINUOUS
 62
         5
100
AcDbSpline
210
0.0
220
0.0
230
1.0
 70
         0
 71
         3
 72
        25
 73
        21
 74
         0
 42
0.000001
 43
0.000001
 40
0.0
 40
0.0
 40
0.0
 40
0.0
 40
0.0558218508874839
 40
0.1108448115806402
 40
0.1666666624681241
 40
0.2224885133556089
 40
0.2775114740487652
 40
0.3333333249362482
 40
0.3891551758237331
 40
0.4441781365168893
 40
0.4999999874043724
 40
0.5558218382918554
 40
0.6108447989850134
 40
0.6666666498724965
 40
0.7224885259512348
 40
0.7775114614531375
 40
0.8333333123406206
 40
0.8891551884193589
 40
0.9441781239212617
 40
1.0
 40
1.0
 40
1.0
 40
1.0
 10
4.7792695907063427
 20
12.502719836299176
 30
0.0
 10
4.7521199327294035
 20
12.491488965911222
 30
0.0
 10
4.6982091655141316
 20
12.469187924045146
 30
0.0
 10
4.6378968421677049
 20
12.403136743082451
 30
0.0
 10
4.6025519322054365
 20
12.322253928283692
 30
0.0
 10
4.5974635675913573
 20
12.233654809439239
 30
0.0
 10
4.6228125614059365
 20
12.14882992386279
 30
0.0
 10
4.6756455861718562
 20
12.077661901357308
 30
0.0
 10
4.7497073447679563
 20
12.02898709666395
 30
0.0
 10
4.8358749701408072
 20
12.00851919044829
 30
0.0
 10
4.9239159406312369
 20
12.01869221029135
 30
0.0
 10
5.0031028632317049
 20
12.058493404634937
 30
0.0
 10
5.0639115886187662
 20
12.122883600048686
 30
0.0
 10
5.0991228844493035
 20
12.204213459338087
 30
0.0
 10
5.1042446810889084
 20
12.292700606048593
 30
0.0
 10
5.0788956872743372
 20
12.377525491625043
 30
0.0
 10
5.0260292304828731
 20
12.448805486264474
 30
0.0
 10
4.9521010860184926
 20
12.497033246467193
 30
0.0
 10
4.8654370586050177
 20
12.519162138231803
 30
0.0
 10
4.8081297475181799
 20
12.508226905560067
 30
0.0
 10
4.7792695907063427
 20
12.502719836299176
 30
0.0
  0
LINE
  5
3C
100
AcDbEntity
  8
MIRCO_250
  6
CONTINUOUS
 62
         3
100
AcDbLine
 10
17.7763750134
 20
21.9311741041
 30
0.0
 11
18.1744959695
 21
22.5775254011
 31
0.0
  0
LINE
  5
3D
100
AcDbEntity
  8
MIRCO_500
  6
CONTINUOUS
 62
         5
100
AcDbLine
 10
17.7243770892
 20
21.9631875546
 30
0.0
 11
18.1392375948
 21
22.6367163297
 31
0.0
  0
LINE
  5
3E
100
AcDbEntity
  8
MIRCO_250
  6
CONTINUOUS
 62
         3
100
AcDbLine
 10
17.0119630146
 20
21.6039279108
 30
0.0
 11
17.7181582453
 21
21.8824187556
 31
0.0
  0
LINE
  5
3F
100
AcDbEntity
  8
MIRCO_500
  6
CONTINUOUS
 62
         5
100
AcDbLine
 10
16.9598796137
 20
21.6490282253
 30
0.0
 11
17.6957693313
 21
21.9392291445
 31
0.0
  0
ARC
  5
40
100
AcDbEntity
  8
MIRCO_250
  6
CONTINUOUS
 62
         3
100
AcDbCircle
 10
17.6741455919
 20
21.9941072709
 30
0.0
 40
0.1200473331
100
AcDbArc
 50
-68.4918306044
 51
-31.6172038045
  0
ARC
  5
41
100
AcDbEntity
  8
MIRCO_500
  6
CONTINUOUS
 62
         5
100
AcDbCircle
 10
17.6741394053
 20
21.9941154368
 30
0.0
 40
0.0589945657
100
AcDbArc
 50
-68.491288574
 51
-31.6177458349
  0
ARC
  5
42
100
AcDbEntity
  8
MIRCO_250
  6
CONTINUOUS
 62
         3
100
AcDbCircle
 10
16.9640111409
 20
21.7255228594
 30
0.0
 40
0.1307085066
100
AcDbArc
 50
148.4376551932
 51
-68.4778336554
  0
ARC
  5
43
100
AcDbEntity
  8
MIRCO_500
  6
CONTINUOUS
 62
         5
100
AcDbCircle
 10
16.938245536
 20
21.7039187812
 30
0.0
 40
0.0590000546
100
AcDbArc
 50
148.3800212753
 51
-68.4890556842
  0
CIRCLE
  5
44
100
AcDbEntity
  8
MIRCO_500
  6
CONTINUOUS
 62
         5
100
AcDbCircle
 10
18.8332788976
 20
21.41225
 30
0.0
 40
0.302484
  0
CIRCLE
  5
45
100
AcDbEntity
  8
MIRCO_250
  6
CONTINUOUS
 62
         3
100
AcDbCircle
 10
18.8332788976
 20
21.41225
 30
0.0
 40
0.369413
  0
CIRCLE
  5
46
100
AcDbEntity
  8
DF500
  6
CONTINUOUS
 62
         5
100
AcDbCircle
 10
11.9310302193
 20
21.8797900709
 30
0.0
 40
0.0445
  0
LINE
  5
47
100
AcDbEntity
  8
DF250
  6
CONTINUOUS
 62
         3
100
AcDbLine
 10
12.1119743305
 20
21.9289375899
 30
0.0
 11
13.1222682708
 21
18.2093858668
 31
0.0
  0
CIRCLE
  5
48
100
AcDbEntity
  8
DF500
  6
CONTINUOUS
 62
         5
100
AcDbCircle
 10
7.4768799337
 20
21.8797900709
 30
0.0
 40
0.0445
  0
LINE
  5
49
100
AcDbEntity
  8
DF250
  6
CONTINUOUS
 62
         3
100
AcDbLine
 10
6.2856418822
 20
18.2093858668
 30
0.0
 11
7.2959358225
 21
21.9289375899
 31
0.0
  0
CIRCLE
  5
4A
100
AcDbEntity
  8
DF500
  6
CONTINUOUS
 62
         5
100
AcDbCircle
 10
2.7537676875
 20
21.8364907087
 30
0.0
 40
0.0445
  0
LINE
  5
4B
100
AcDbEntity
  8
DF500
  6
CONTINUOUS
 62
         5
100
AcDbLine
 10
20.2499451074
 20
38.5
 30
0.0
 11
20.2499451074
 21
5.75
 31
0.0
  0
ARC
  5
4C
100
AcDbEntity
  8
DF500
  6
CONTINUOUS
 62
         5
100
AcDbCircle
 10
9.7039550765
 20
21.2748783264
 30
0.0
 40
2.1202655666
100
AcDbArc
 50
15.1958987297
 51
164.8041012703
  0
ARC
  5
4D
100
AcDbEntity
  8
DF500
  6
CONTINUOUS
 62
         5
100
AcDbCircle
 10
13.3504350162
 20
37.1944983682
 30
0.0
 40
1.625
100
AcDbArc
 50
-156.1747253705
 51
85.5136902936
  0
CIRCLE
  5
4E
100
AcDbEntity
  8
MIRCO_500
  6
CONTINUOUS
 62
         5
100
AcDbCircle
 10
13.2486679495
 20
25.5100370943
 30
0.0
 40
0.302484
  0
CIRCLE
  5
4F
100
AcDbEntity
  8
MIRCO_250
  6
CONTINUOUS
 62
         3
100
AcDbCircle
 10
13.2486679495
 20
25.5100370943
 30
0.0
 40
0.369413
  0
CIRCLE
  5
50
100
AcDbEntity
  8
MIRCO_500
  6
CONTINUOUS
 62
         5
100
AcDbCircle
 10
13.0320549291
 20
23.9999980465
 30
0.0
 40
0.302484
  0
CIRCLE
  5
51
100
AcDbEntity
  8
MIRCO_250
  6
CONTINUOUS
 62
         3
100
AcDbCircle
 10
13.0320549291
 20
23.9999980465
 30
0.0
 40
0.369413
  0
CIRCLE
  5
52
100
AcDbEntity
  8
DF500
  6
CONTINUOUS
 62
         5
100
AcDbCircle
 10
12.9413241596
 20
18.1602383478
 30
0.0
 40
0.0445
  0
CIRCLE
  5
53
100
AcDbEntity
  8
DF500
  6
CONTINUOUS
 62
         5
100
AcDbCircle
 10
12.6961006548
 20
15.7640628963
 30
0.0
 40
0.0445
  0
ARC
  5
54
100
AcDbEntity
  8
DF250
  6
CONTINUOUS
 62
         3
100
AcDbCircle
 10
9.7039550765
 20
17.2809134693
 30
0.0
 40
3.5421640401
100
AcDbArc
 50
164.8041012703
 51
15.1958987297
  0
ARC
  5
55
100
AcDbEntity
  8
DF500
  6
CONTINUOUS
 62
         5
100
AcDbCircle
 10
9.7039550765
 20
17.2809134693
 30
0.0
 40
3.1671640401
100
AcDbArc
 50
164.8041012703
 51
15.1958987297
  0
CIRCLE
  5
56
100
AcDbEntity
  8
DF500
  6
CONTINUOUS
 62
         5
100
AcDbCircle
 10
12.6779111024
 20
8.2755036794
 30
0.0
 40
0.25
  0
CIRCLE
  5
57
100
AcDbEntity
  8
DF500
  6
CONTINUOUS
 62
         5
100
AcDbCircle
 10
13.111562609
 20
5.884803527
 30
0.0
 40
0.062506752
  0
CIRCLE
  5
58
100
AcDbEntity
  8
DF500
  6
CONTINUOUS
 62
         5
100
AcDbCircle
 10
13.0840965387
 20
3.7165007759
 30
0.0
 40
0.0625
  0
LINE
  5
59
100
AcDbEntity
  8
DF500
  6
CONTINUOUS
 62
         5
100
AcDbLine
 10
16.9204966535
 20
10.7999994685
 30
0.0
 11
16.9204966535
 21
9.0999994685
 31
0.0
  0
LINE
  5
5A
100
AcDbEntity
  8
DF500
  6
CONTINUOUS
 62
         5
100
AcDbLine
 10
17.1004955906
 20
9.0999994685
 30
0.0
 11
17.1004955906
 21
10.7999994685
 31
0.0
  0
ARC
  5
5B
100
AcDbEntity
  8
DF500
  6
CONTINUOUS
 62
         5
100
AcDbCircle
 10
17.010496122
 20
10.7999994685
 30
0.0
 40
0.0899994685
100
AcDbArc
 50
0.0
 51
180.0
  0
LINE
  5
5C
100
AcDbEntity
  8
DF500
  6
CONTINUOUS
 62
         5
100
AcDbLine
 10
2.4999451074
 20
43.75
 30
0.0
 11
6.7723462533
 21
43.75
 31
0.0
  0
ARC
  5
5D
100
AcDbEntity
  8
MIRCO_250
  6
CONTINUOUS
 62
         3
100
AcDbCircle
 10
5.5515937103
 20
28.2220019569
 30
0.0
 40
0.1307085066
100
AcDbArc
 50
27.3122410869
 51
170.3967522383
  0
ARC
  5
5E
100
AcDbEntity
  8
MIRCO_500
  6
CONTINUOUS
 62
         5
100
AcDbCircle
 10
5.5464183791
 20
28.2552257215
 30
0.0
 40
0.0590000546
100
AcDbArc
 50
27.2546071691
 51
170.3855302095
  0
CIRCLE
  5
5F
100
AcDbEntity
  8
MIRCO_250
  6
CONTINUOUS
 62
         3
100
AcDbCircle
 10
5.21669
 20
31.2044898819
 30
0.0
 40
0.587598
  0
CIRCLE
  5
60
100
AcDbEntity
  8
MIRCO_500
  6
CONTINUOUS
 62
         5
100
AcDbCircle
 10
5.21669
 20
31.2044898819
 30
0.0
 40
0.5325
  0
LINE
  5
61
100
AcDbEntity
  8
MIRCO_500
  6
CONTINUOUS
 62
         5
100
AcDbLine
 10
5.3620005867
 20
27.4482479067
 30
0.0
 11
5.7241199128
 21
26.74495576
 31
0.0
  0
ARC
  5
62
100
AcDbEntity
  8
MIRCO_500
  6
CONTINUOUS
 62
         5
100
AcDbCircle
 10
5.4144445418
 20
27.4752662405
 30
0.0
 40
0.0589945657
100
AcDbArc
 50
170.3832973197
 51
-152.7431599412
  0
ARC
  5
63
100
AcDbEntity
  8
MIRCO_250
  6
CONTINUOUS
 62
         3
100
AcDbCircle
 10
5.4144343535
 20
27.4752651656
 30
0.0
 40
0.1200473331
100
AcDbArc
 50
170.3827552893
 51
-152.7426179108
  0
LINE
  5
64
100
AcDbEntity
  8
MIRCO_250
  6
CONTINUOUS
 62
         3
100
AcDbLine
 10
5.3077174528
 20
27.420283885
 30
0.0
 11
5.6552247202
 21
26.7453698209
 31
0.0
  0
CIRCLE
  5
65
100
AcDbEntity
  8
MIRCO_250
  6
CONTINUOUS
 62
         3
100
AcDbCircle
 10
4.9095747723
 20
23.9999980465
 30
0.0
 40
0.369413
  0
LINE
  5
66
100
AcDbEntity
  8
MIRCO_500
  6
CONTINUOUS
 62
         5
100
AcDbLine
 10
1.7105960361
 20
15.3898031079
 30
0.0
 11
2.4561197134
 21
15.6542737048
 31
0.0
  0
LINE
  5
67
100
AcDbEntity
  8
MIRCO_500
  6
CONTINUOUS
 62
         5
100
AcDbLine
 10
2.4855422211
 20
15.6772242007
 30
0.0
 11
2.923542168
 21
16.3359398423
 31
0.0
  0
ARC
  5
68
100
AcDbEntity
  8
MIRCO_250
  6
CONTINUOUS
 62
         3
100
AcDbCircle
 10
2.8478806323
 20
16.3479333525
 30
0.0
 40
0.1307084461
100
AcDbArc
 50
-33.6211625656
 51
109.463506634
  0
LINE
  5
69
100
AcDbEntity
  8
MIRCO_250
  6
CONTINUOUS
 62
         3
100
AcDbLine
 10
2.0881448455
 20
16.2180765958
 30
0.0
 11
2.8043277421
 21
16.4711723221
 31
0.0
  0
CIRCLE
  5
6A
100
AcDbEntity
  8
DF500
  6
CONTINUOUS
 62
         5
100
AcDbCircle
 10
2.149785
 20
10.4719588976
 30
0.0
 40
0.0575
  0
LINE
  5
6B
100
AcDbEntity
  8
DF500
  6
CONTINUOUS
 62
         5
100
AcDbLine
 10
2.0365649357
 20
7.2583694514
 30
0.0
 11
2.0365649357
 21
6.7583718757
 31
0.0
  0
CIRCLE
  5
6C
100
AcDbEntity
  8
DF500
  6
CONTINUOUS
 62
         5
100
AcDbCircle
 10
3.9698814739
 20
9.5
 30
0.0
 40
0.0445
  0
CIRCLE
  5
6D
100
AcDbEntity
  8
DF500
  6
CONTINUOUS
 62
         5
100
AcDbCircle
 10
2.5349861468
 20
7.6250000096
 30
0.0
 40
0.0445
  0
ARC
  5
6E
100
AcDbEntity
  8
DF500
  6
CONTINUOUS
 62
         5
100
AcDbCircle
 10
0.7881267832
 20
6.7583718757
 30
0.0
 40
0.25
100
AcDbArc
 50
180.0
 51
-90.0
  0
LINE
  5
6F
100
AcDbEntity
  8
DF500
  6
CONTINUOUS
 62
         5
100
AcDbLine
 10
1.7865649357
 20
6.5083718757
 30
0.0
 11
0.7881267832
 21
6.5083718757
 31
0.0
  0
LINE
  5
70
100
AcDbEntity
  8
DF500
  6
CONTINUOUS
 62
         5
100
AcDbLine
 10
0.5381267832
 20
6.7583718757
 30
0.0
 11
0.5381267832
 21
7.2583694514
 31
0.0
  0
ARC
  5
71
100
AcDbEntity
  8
DF500
  6
CONTINUOUS
 62
         5
100
AcDbCircle
 10
1.7865649357
 20
6.7583718757
 30
0.0
 40
0.25
100
AcDbArc
 50
-90.0
 51
0.0
  0
LINE
  5
72
100
AcDbEntity
  8
DF500
  6
CONTINUOUS
 62
         5
100
AcDbLine
 10
0.7881267832
 20
7.5083694514
 30
0.0
 11
1.7865649357
 21
7.5083694514
 31
0.0
  0
CIRCLE
  5
73
100
AcDbEntity
  8
DF500
  6
CONTINUOUS
 62
         5
100
AcDbCircle
 10
2.871951204
 20
7.426101897
 30
0.0
 40
0.0445
  0
ARC
  5
74
100
AcDbEntity
  8
DF500
  6
CONTINUOUS
 62
         5
100
AcDbCircle
 10
1.7865649357
 20
7.2583694514
 30
0.0
 40
0.25
100
AcDbArc
 50
0.0
 51
90.0
  0
ARC
  5
75
100
AcDbEntity
  8
DF500
  6
CONTINUOUS
 62
         5
100
AcDbCircle
 10
0.7881267832
 20
7.2583694514
 30
0.0
 40
0.25
100
AcDbArc
 50
90.0
 51
180.0
  0
LINE
  5
76
100
AcDbEntity
  8
DF500
  6
CONTINUOUS
 62
         5
100
AcDbLine
 10
2.7985095184
 20
10.0171981913
 30
0.0
 11
2.7985095184
 21
8.3171981913
 31
0.0
  0
LINE
  5
77
100
AcDbEntity
  8
DF500
  6
CONTINUOUS
 62
         5
100
AcDbLine
 10
2.9785084555
 20
8.3171981913
 30
0.0
 11
2.9785084555
 21
10.0171981913
 31
0.0
  0
ARC
  5
78
100
AcDbEntity
  8
DF500
  6
CONTINUOUS
 62
         5
100
AcDbCircle
 10
2.888508987
 20
10.0171981913
 30
0.0
 40
0.0899994685
100
AcDbArc
 50
0.0
 51
180.0
  0
ARC
  5
79
100
AcDbEntity
  8
DF500
  6
CONTINUOUS
 62
         5
100
AcDbCircle
 10
2.888508987
 20
8.3171981913
 30
0.0
 40
0.0899994685
100
AcDbArc
 50
180.0
 51
0.0
  0
CIRCLE
  5
7A
100
AcDbEntity
  8
DF500
  6
CONTINUOUS
 62
         5
100
AcDbCircle
 10
1.7836711162
 20
0.5224625937
 30
0.0
 40
0.0445
  0
CIRCLE
  5
7B
100
AcDbEntity
  8
DF500
  6
CONTINUOUS
 62
         5
100
AcDbCircle
 10
2.1790886225
 20
0.5135190545
 30
0.0
 40
0.0445
  0
ARC
  5
7C
100
AcDbEntity
  8
DF500
  6
CONTINUOUS
 62
         5
100
AcDbCircle
 10
1.25
 20
4.75
 30
0.0
 40
0.25
100
AcDbArc
 50
0.0
 51
90.0
  0
CIRCLE
  5
7D
100
AcDbEntity
  8
DF500
  6
CONTINUOUS
 62
         5
100
AcDbCircle
 10
2.0641797833
 20
5.5549831524
 30
0.0
 40
0.0445
  0
CIRCLE
  5
7E
100
AcDbEntity
  8
DF500
  6
CONTINUOUS
 62
         5
100
AcDbCircle
 10
3.1195993536
 20
5.5456736406
 30
0.0
 40
0.0445
  0
ARC
  5
7F
100
AcDbEntity
  8
DF500
  6
CONTINUOUS
 62
         5
100
AcDbCircle
 10
2.888508987
 20
14.4386325197
 30
0.0
 40
0.0899994685
100
AcDbArc
 50
0.0
 51
-180.0
  0
ARC
  5
80
100
AcDbEntity
  8
DF500
  6
CONTINUOUS
 62
         5
100
AcDbCircle
 10
2.888508987
 20
12.7386325197
 30
0.0
 40
0.0899994685
100
AcDbArc
 50
180.0
 51
0.0
  0
LINE
  5
81
100
AcDbEntity
  8
DF500
  6
CONTINUOUS
 62
         5
100
AcDbLine
 10
2.7985095184
 20
14.4386325197
 30
0.0
 11
2.7985095184
 21
12.7386325197
 31
0.0
  0
ARC
  5
82
100
AcDbEntity
  8
DF500
  6
CONTINUOUS
 62
         5
100
AcDbCircle
 10
4.0698077801
 20
13.3291858238
 30
0.0
 40
0.1820363497
100
AcDbArc
 50
87.9398342425
 51
-161.0
  0
ARC
  5
83
100
AcDbEntity
  8
DF500
  6
CONTINUOUS
 62
         5
100
AcDbCircle
 10
4.1990277583
 20
12.9164003718
 30
0.0
 40
0.1874997711
100
AcDbArc
 50
-163.3619533704
 51
-57.025101495
  0
LINE
  5
84
100
AcDbEntity
  8
DF500
  6
CONTINUOUS
 62
         5
100
AcDbLine
 10
4.8300822787
 20
13.5150708081
 30
0.0
 11
4.0763517917
 21
13.5111045104
 31
0.0
  0
LINE
  5
85
100
AcDbEntity
  8
DF500
  6
CONTINUOUS
 62
         5
100
AcDbLine
 10
4.0193781049
 20
12.8627145621
 30
0.0
 11
3.89768903
 21
13.2699205854
 31
0.0
  0
CIRCLE
  5
86
100
AcDbEntity
  8
DF500
  6
CONTINUOUS
 62
         5
100
AcDbCircle
 10
2.0298277124
 20
14.3236319882
 30
0.0
 40
0.0575
  0
CIRCLE
  5
87
100
AcDbEntity
  8
DF500
  6
CONTINUOUS
 62
         5
100
AcDbCircle
 10
2.0298277124
 20
14.0079296157
 30
0.0
 40
0.0445
  0
CIRCLE
  5
88
100
AcDbEntity
  8
DF500
  6
CONTINUOUS
 62
         5
100
AcDbCircle
 10
3.9698814739
 20
12.1464300504
 30
0.0
 40
0.0445
  0
CIRCLE
  5
89
100
AcDbEntity
  8
DF500
  6
CONTINUOUS
 62
         5
100
AcDbCircle
 10
3.968462555
 20
14.8182247499
 30
0.0
 40
0.0445
  0
CIRCLE
  5
8A
100
AcDbEntity
  8
DF500
  6
CONTINUOUS
 62
         5
100
AcDbCircle
 10
2.0298277124
 20
12.2579296157
 30
0.0
 40
0.0445
  0
SPLINE
  5
8B
100
AcDbEntity
  8
DF500
  6
CONTINUOUS
 62
         5
100
AcDbSpline
210
0.0
220
0.0
230
1.0
 70
         0
 71
         3
 72
        25
 73
        21
 74
         0
 42
0.000001
 43
0.000001
 40
0.0
 40
0.0
 40
0.0
 40
0.0
 40
0.0558218508874839
 40
0.1108448115806402
 40
0.1666666624681241
 40
0.2224885133556089
 40
0.2775114740487652
 40
0.3333333249362482
 40
0.3891551758237331
 40
0.4441781365168893
 40
0.4999999874043724
 40
0.5558218382918554
 40
0.6108447989850134
 40
0.6666666498724965
 40
0.7224885259512348
 40
0.7775114614531375
 40
0.8333333123406206
 40
0.8891551884193589
 40
0.9441781239212617
 40
1.0
 40
1.0
 40
1.0
 40
1.0
 10
4.1922987965020209
 20
14.466890259438218
 30
0.0
 10
4.1651491739106721
 20
14.455659371791555
 30
0.0
 10
4.1112384066954011
 20
14.433358329925484
 30
0.0
 10
4.0509260307046748
 20
14.367307130835913
 30
0.0
 10
4.0155811207424064
 20
14.286424316037142
 30
0.0
 10
4.010492791513915
 20
14.197825179933979
 30
0.0
 10
4.0358417853285005
 20
14.113000294357541
 30
0.0
 10
4.0886747747088279
 20
14.041832289110754
 30
0.0
 10
4.1627365505636451
 20
13.993157519802986
 30
0.0
 10
4.2489042113220785
 20
13.972689596328625
 30
0.0
 10
4.3369451645538
 20
13.982862580786088
 30
0.0
 10
4.4161320690273778
 20
14.022663827773984
 30
0.0
 10
4.4769408125413337
 20
14.087053970543439
 30
0.0
 10
4.5121521083718648
 20
14.16838382983283
 30
0.0
 10
4.5172739222701805
 20
14.25687101192894
 30
0.0
 10
4.4919249284556075
 20
14.341695897505382
 30
0.0
 10
4.4390584716641523
 20
14.412975892144811
 30
0.0
 10
4.3651302745554723
 20
14.461203634220647
 30
0.0
 10
4.278466282527587
 20
14.483332508726544
 30
0.0
 10
4.2211589714407376
 20
14.47239727605481
 30
0.0
 10
4.1922987965020209
 20
14.466890259438218
 30
0.0
  0
LINE
  5
8C
100
AcDbEntity
  8
MIRCO_250
  6
CONTINUOUS
 62
         3
100
AcDbLine
 10
1.6084516322
 20
15.5383507502
 30
0.0
 11
2.0282771585
 21
16.1713778872
 31
0.0
  0
ARC
  5
8D
100
AcDbEntity
  8
MIRCO_250
  6
CONTINUOUS
 62
         3
100
AcDbCircle
 10
1.7173815047
 20
15.4661081272
 30
0.0
 40
0.1307085066
100
AcDbArc
 50
146.4475413451
 51
-70.4679475036
  0
ARC
  5
8E
100
AcDbEntity
  8
MIRCO_250
  6
CONTINUOUS
 62
         3
100
AcDbCircle
 10
2.1282680919
 20
16.1049133253
 30
0.0
 40
0.120065818
100
AcDbArc
 50
109.5209962867
 51
146.3897416081
  0
ARC
  5
8F
100
AcDbEntity
  8
MIRCO_500
  6
CONTINUOUS
 62
         5
100
AcDbCircle
 10
2.8744149711
 20
16.3686060009
 30
0.0
 40
0.0589962659
100
AcDbArc
 50
-33.6211345141
 51
109.5318724089
  0
LINE
  5
90
100
AcDbEntity
  8
MIRCO_500
  6
CONTINUOUS
 62
         5
100
AcDbLine
 10
1.6417445481
 20
15.4780706309
 30
0.0
 11
2.0791294476
 21
16.1375747626
 31
0.0
  0
ARC
  5
91
100
AcDbEntity
  8
MIRCO_500
  6
CONTINUOUS
 62
         5
100
AcDbCircle
 10
2.1282747824
 20
16.1049055611
 30
0.0
 40
0.059013055
100
AcDbArc
 50
109.5245818575
 51
146.3861560373
  0
ARC
  5
92
100
AcDbEntity
  8
MIRCO_500
  6
CONTINUOUS
 62
         5
100
AcDbCircle
 10
1.6908811947
 20
15.4454118434
 30
0.0
 40
0.0590000546
100
AcDbArc
 50
146.3899074272
 51
-70.4791695324
  0
LINE
  5
93
100
AcDbEntity
  8
MIRCO_500
  6
CONTINUOUS
 62
         5
100
AcDbLine
 10
2.1085519553
 20
16.1605252586
 30
0.0
 11
2.85469068
 21
16.4242073654
 31
0.0
  0
ARC
  5
94
100
AcDbEntity
  8
MIRCO_250
  6
CONTINUOUS
 62
         3
100
AcDbCircle
 10
2.4364147724
 20
15.7098696593
 30
0.0
 40
0.1200473331
100
AcDbArc
 50
-70.4819444526
 51
-33.6073176526
  0
ARC
  5
95
100
AcDbEntity
  8
MIRCO_500
  6
CONTINUOUS
 62
         5
100
AcDbCircle
 10
2.4364088731
 20
15.7098780352
 30
0.0
 40
0.0589945657
100
AcDbArc
 50
-70.4814024222
 51
-33.607859683
  0
LINE
  5
96
100
AcDbEntity
  8
MIRCO_250
  6
CONTINUOUS
 62
         3
100
AcDbLine
 10
2.536397049
 20
15.6434243248
 30
0.0
 11
2.9567237494
 21
16.2755601961
 31
0.0
  0
LINE
  5
97
100
AcDbEntity
  8
MIRCO_250
  6
CONTINUOUS
 62
         3
100
AcDbLine
 10
1.761081821
 20
15.3429212932
 30
0.0
 11
2.4765222656
 21
15.5967200808
 31
0.0
  0
ARC
  5
98
100
AcDbEntity
  8
MIRCO_250
  6
CONTINUOUS
 62
         3
100
AcDbCircle
 10
2.8497457501
 20
18.2772190689
 30
0.0
 40
0.1307084461
100
AcDbArc
 50
-114.531926891
 51
28.5527423086
  0
LINE
  5
99
100
AcDbEntity
  8
MIRCO_250
  6
CONTINUOUS
 62
         3
100
AcDbLine
 10
1.854532902
 20
19.3731933493
 30
0.0
 11
2.5459323472
 21
19.0586402759
 31
0.0
  0
ARC
  5
9A
100
AcDbEntity
  8
MIRCO_250
  6
CONTINUOUS
 62
         3
100
AcDbCircle
 10
1.8004053237
 20
19.2542189026
 30
0.0
 40
0.1307085066
100
AcDbArc
 50
65.5367770196
 51
-151.378711829
  0
LINE
  5
9B
100
AcDbEntity
  8
MIRCO_250
  6
CONTINUOUS
 62
         3
100
AcDbLine
 10
2.6015021351
 20
19.0069014317
 30
0.0
 11
2.9645571086
 21
18.3396934624
 31
0.0
  0
ARC
  5
9C
100
AcDbEntity
  8
MIRCO_250
  6
CONTINUOUS
 62
         3
100
AcDbCircle
 10
2.4960981707
 20
18.9494053016
 30
0.0
 40
0.120065818
100
AcDbArc
 50
28.6102319612
 51
65.4789772827
  0
ARC
  5
9D
100
AcDbEntity
  8
MIRCO_500
  6
CONTINUOUS
 62
         5
100
AcDbCircle
 10
2.8743505198
 20
18.2542836196
 30
0.0
 40
0.0589962659
100
AcDbArc
 50
-114.5318988395
 51
28.6211080834
  0
LINE
  5
9E
100
AcDbEntity
  8
MIRCO_500
  6
CONTINUOUS
 62
         5
100
AcDbLine
 10
1.8002690569
 20
19.3307958713
 30
0.0
 11
2.5205869375
 21
19.0030865475
 31
0.0
  0
ARC
  5
9F
100
AcDbEntity
  8
MIRCO_500
  6
CONTINUOUS
 62
         5
100
AcDbCircle
 10
2.4960915609
 20
18.9493974687
 30
0.0
 40
0.059013055
100
AcDbArc
 50
28.613817532
 51
65.4753917119
  0
ARC
  5
A0
100
AcDbEntity
  8
MIRCO_500
  6
CONTINUOUS
 62
         5
100
AcDbCircle
 10
1.7757825911
 20
19.2771170167
 30
0.0
 40
0.0590000546
100
AcDbArc
 50
65.4791431017
 51
-151.3899338578
  0
LINE
  5
A1
100
AcDbEntity
  8
MIRCO_500
  6
CONTINUOUS
 62
         5
100
AcDbLine
 10
1.7239865103
 20
19.2488650706
 30
0.0
 11
2.1029085639
 21
18.5544816554
 31
0.0
  0
LINE
  5
A2
100
AcDbEntity
  8
MIRCO_500
  6
CONTINUOUS
 62
         5
100
AcDbLine
 10
2.5478972044
 20
18.977659032
 30
0.0
 11
2.9261378292
 21
18.2825437323
 31
0.0
  0
LINE
  5
A3
100
AcDbEntity
  8
MIRCO_500
  6
CONTINUOUS
 62
         5
100
AcDbLine
 10
2.1302188308
 20
18.5290541398
 30
0.0
 11
2.8498552826
 21
18.2006129316
 31
0.0
  0
ARC
  5
A4
100
AcDbEntity
  8
MIRCO_250
  6
CONTINUOUS
 62
         3
100
AcDbCircle
 10
2.1546935881
 20
18.5827218064
 30
0.0
 40
0.1200473331
100
AcDbArc
 50
-151.392708778
 51
-114.5180819781
  0
ARC
  5
A5
100
AcDbEntity
  8
MIRCO_500
  6
CONTINUOUS
 62
         5
100
AcDbCircle
 10
2.1547009269
 20
18.5827289548
 30
0.0
 40
0.0589945657
100
AcDbArc
 50
-151.3921667476
 51
-114.5186240085
  0
LINE
  5
A6
100
AcDbEntity
  8
MIRCO_250
  6
CONTINUOUS
 62
         3
100
AcDbLine
 10
2.1048770301
 20
18.4734984176
 30
0.0
 11
2.7954755725
 21
18.1583096676
 31
0.0
  0
LINE
  5
A7
100
AcDbEntity
  8
MIRCO_250
  6
CONTINUOUS
 62
         3
100
AcDbLine
 10
1.6856687355
 20
19.1916071702
 30
0.0
 11
2.0493006552
 21
18.5252433946
 31
0.0
  0
CIRCLE
  5
A8
100
AcDbEntity
  8
MIRCO_250
  6
CONTINUOUS
 62
         3
100
AcDbCircle
 10
4.1608634023
 20
20.9664345463
 30
0.0
 40
0.369413
  0
CIRCLE
  5
A9
100
AcDbEntity
  8
MIRCO_500
  6
CONTINUOUS
 62
         5
100
AcDbCircle
 10
4.1608634023
 20
20.9664345463
 30
0.0
 40
0.302484
  0
CIRCLE
  5
AA
100
AcDbEntity
  8
MIRCO_500
  6
CONTINUOUS
 62
         5
100
AcDbCircle
 10
1.4899833465
 20
20.2889221661
 30
0.0
 40
0.302484
  0
CIRCLE
  5
AB
100
AcDbEntity
  8
MIRCO_250
  6
CONTINUOUS
 62
         3
100
AcDbCircle
 10
1.4899833465
 20
20.2889221661
 30
0.0
 40
0.369413
  0
ARC
  5
AC
100
AcDbEntity
  8
DF500
  6
CONTINUOUS
 62
         5
100
AcDbCircle
 10
1.2428644488
 20
12.7386325197
 30
0.0
 40
0.0899994685
100
AcDbArc
 50
180.0
 51
0.0
  0
ARC
  5
AD
100
AcDbEntity
  8
DF500
  6
CONTINUOUS
 62
         5
100
AcDbCircle
 10
1.2428644488
 20
14.4386325197
 30
0.0
 40
0.0899994685
100
AcDbArc
 50
0.0
 51
180.0
  0
LINE
  5
AE
100
AcDbEntity
  8
DF500
  6
CONTINUOUS
 62
         5
100
AcDbLine
 10
1.1528649803
 20
14.4386325197
 30
0.0
 11
1.1528649803
 21
12.7386325197
 31
0.0
  0
LINE
  5
AF
100
AcDbEntity
  8
DF500
  6
CONTINUOUS
 62
         5
100
AcDbLine
 10
1.3328639173
 20
12.7386325197
 30
0.0
 11
1.3328639173
 21
14.4386325197
 31
0.0
  0
LINE
  5
B0
100
AcDbEntity
  8
DF500
  6
CONTINUOUS
 62
         5
100
AcDbLine
 10
2.9785084555
 20
12.7386325197
 30
0.0
 11
2.9785084555
 21
14.4386325197
 31
0.0
  0
LINE
  5
B1
100
AcDbEntity
  8
DF500
  6
CONTINUOUS
 62
         5
100
AcDbLine
 10
12.5773035953
 20
3.9035783949
 30
0.0
 11
12.0760404956
 21
4.800144426
 31
0.0
  0
ARC
  5
B2
100
AcDbEntity
  8
DF500
  6
CONTINUOUS
 62
         5
100
AcDbCircle
 10
11.8578295979
 20
4.6781444091
 30
0.0
 40
0.25
100
AcDbArc
 50
29.209216376
 51
119.2092162645
  0
ARC
  5
B3
100
AcDbEntity
  8
DF500
  6
CONTINUOUS
 62
         5
100
AcDbCircle
 10
12.3590926976
 20
3.781578378
 30
0.0
 40
0.25
100
AcDbArc
 50
-60.7907837355
 51
29.209216376
  0
CIRCLE
  5
B4
100
AcDbEntity
  8
DF500
  6
CONTINUOUS
 62
         5
100
AcDbCircle
 10
12.2909685744
 20
3.2690339595
 30
0.0
 40
0.062506752
  0
CIRCLE
  5
B5
100
AcDbEntity
  8
DF500
  6
CONTINUOUS
 62
         5
100
AcDbCircle
 10
10.5490626096
 20
2.2863012339
 30
0.0
 40
0.062506752
  0
CIRCLE
  5
B6
100
AcDbEntity
  8
DF500
  6
CONTINUOUS
 62
         5
100
AcDbCircle
 10
11.3696566442
 20
4.9020708015
 30
0.0
 40
0.062506752
  0
CIRCLE
  5
B7
100
AcDbEntity
  8
DF500
  6
CONTINUOUS
 62
         5
100
AcDbCircle
 10
5.8391811024
 20
8.297135
 30
0.0
 40
0.25
  0
ARC
  5
B8
100
AcDbEntity
  8
DF500
  6
CONTINUOUS
 62
         5
100
AcDbCircle
 10
9.5892612169
 20
3.4098054649
 30
0.0
 40
0.25
100
AcDbArc
 50
119.2092162645
 51
-150.790783624
  0
LINE
  5
B9
100
AcDbEntity
  8
DF500
  6
CONTINUOUS
 62
         5
100
AcDbLine
 10
9.3710503193
 20
3.287805448
 30
0.0
 11
9.872313419
 21
2.3912394169
 31
0.0
  0
CIRCLE
  5
BA
100
AcDbEntity
  8
DF500
  6
CONTINUOUS
 62
         5
100
AcDbCircle
 10
12.1627880198
 20
5.3495395424
 30
0.0
 40
0.0625
  0
CIRCLE
  5
BB
100
AcDbEntity
  8
DF500
  6
CONTINUOUS
 62
         5
100
AcDbCircle
 10
12.235670216
 20
5.496210096
 30
0.0
 40
0.0445
  0
CIRCLE
  5
BC
100
AcDbEntity
  8
DF500
  6
CONTINUOUS
 62
         5
100
AcDbCircle
 10
11.9038854086
 20
5.3170767809
 30
0.0
 40
0.0445
  0
CIRCLE
  5
BD
100
AcDbEntity
  8
DF500
  6
CONTINUOUS
 62
         5
100
AcDbCircle
 10
6.149836738
 20
5.5254148135
 30
0.0
 40
0.0445
  0
CIRCLE
  5
BE
100
AcDbEntity
  8
DF500
  6
CONTINUOUS
 62
         5
100
AcDbCircle
 10
6.4787793423
 20
5.3235326888
 30
0.0
 40
0.0445
  0
LINE
  5
BF
100
AcDbEntity
  8
DF500
  6
CONTINUOUS
 62
         5
100
AcDbLine
 10
11.7358295814
 20
4.896355307
 30
0.0
 11
9.4672612005
 21
3.6280163628
 31
0.0
  0
ARC
  5
C0
100
AcDbEntity
  8
DF500
  6
CONTINUOUS
 62
         5
100
AcDbCircle
 10
10.0905243167
 20
2.5132394338
 30
0.0
 40
0.25
100
AcDbArc
 50
-150.790783624
 51
-60.7907837355
  0
LINE
  5
C1
100
AcDbEntity
  8
DF500
  6
CONTINUOUS
 62
         5
100
AcDbLine
 10
10.2125243331
 20
2.2950285359
 30
0.0
 11
12.4810927141
 21
3.5633674801
 31
0.0
  0
CIRCLE
  5
C2
100
AcDbEntity
  8
DF500
  6
CONTINUOUS
 62
         5
100
AcDbCircle
 10
9.2504
 20
6.3157157874
 30
0.0
 40
0.7624869211
  0
ARC
  5
C3
100
AcDbEntity
  8
DF500
  6
CONTINUOUS
 62
         5
100
AcDbCircle
 10
2.8112676875
 20
21.2789345463
 30
0.0
 40
0.25
100
AcDbArc
 50
0.0
 51
-180.0
  0
LINE
  5
C4
100
AcDbEntity
  8
DF500
  6
CONTINUOUS
 62
         5
100
AcDbLine
 10
2.5612676875
 20
20.6539345463
 30
0.0
 11
2.5612676875
 21
21.2789345463
 31
0.0
  0
LINE
  5
C5
100
AcDbEntity
  8
DF500
  6
CONTINUOUS
 62
         5
100
AcDbLine
 10
3.0612676875
 20
21.2789345463
 30
0.0
 11
3.0612676875
 21
20.6539345463
 31
0.0
  0
ARC
  5
C6
100
AcDbEntity
  8
DF500
  6
CONTINUOUS
 62
         5
100
AcDbCircle
 10
2.8112676875
 20
20.6539345463
 30
0.0
 40
0.25
100
AcDbArc
 50
180.0
 51
0.0
  0
CIRCLE
  5
C7
100
AcDbEntity
  8
DF500
  6
CONTINUOUS
 62
         5
100
AcDbCircle
 10
2.7537676875
 20
20.0964345464
 30
0.0
 40
0.0445
  0
CIRCLE
  5
C8
100
AcDbEntity
  8
DF500
  6
CONTINUOUS
 62
         5
100
AcDbCircle
 10
1.5238323324
 20
16.8966359167
 30
0.0
 40
0.0445
  0
CIRCLE
  5
C9
100
AcDbEntity
  8
DF500
  6
CONTINUOUS
 62
         5
100
AcDbCircle
 10
1.5238323324
 20
17.6966359167
 30
0.0
 40
0.0445
  0
CIRCLE
  5
CA
100
AcDbEntity
  8
DF500
  6
CONTINUOUS
 62
         5
100
AcDbCircle
 10
15.165033759
 20
9.6786660064
 30
0.0
 40
0.0445
  0
CIRCLE
  5
CB
100
AcDbEntity
  8
DF500
  6
CONTINUOUS
 62
         5
100
AcDbCircle
 10
13.654359774
 20
8.8263876443
 30
0.0
 40
0.0445
  0
CIRCLE
  5
CC
100
AcDbEntity
  8
DF500
  6
CONTINUOUS
 62
         5
100
AcDbCircle
 10
19.9999451074
 20
6.5
 30
0.0
 40
0.0445
  0
CIRCLE
  5
CD
100
AcDbEntity
  8
DF500
  6
CONTINUOUS
 62
         5
100
AcDbCircle
 10
16.4113219898
 20
7.9406939558
 30
0.0
 40
0.0445
  0
CIRCLE
  5
CE
100
AcDbEntity
  8
DF500
  6
CONTINUOUS
 62
         5
100
AcDbCircle
 10
16.7339355597
 20
8.1259473722
 30
0.0
 40
0.0445
  0
ARC
  5
CF
100
AcDbEntity
  8
DF500
  6
CONTINUOUS
 62
         5
100
AcDbCircle
 10
17.010496122
 20
9.0999994685
 30
0.0
 40
0.0899994685
100
AcDbArc
 50
-180.0
 51
0.0
  0
ARC
  5
D0
100
AcDbEntity
  8
DF500
  6
CONTINUOUS
 62
         5
100
AcDbCircle
 10
19.035161194
 20
7.425
 30
0.0
 40
0.0899994685
100
AcDbArc
 50
0.0
 51
180.0
  0
LINE
  5
D1
100
AcDbEntity
  8
DF500
  6
CONTINUOUS
 62
         5
100
AcDbLine
 10
18.9451617255
 20
7.425
 30
0.0
 11
18.9451617255
 21
5.75
 31
0.0
  0
LINE
  5
D2
100
AcDbEntity
  8
DF500
  6
CONTINUOUS
 62
         5
100
AcDbLine
 10
18.035161194
 20
5.75
 30
0.0
 11
18.9451617255
 21
5.75
 31
0.0
  0
LINE
  5
D3
100
AcDbEntity
  8
DF500
  6
CONTINUOUS
 62
         5
100
AcDbLine
 10
19.1251606625
 20
5.75
 30
0.0
 11
20.2499451074
 21
5.75
 31
0.0
  0
LINE
  5
D4
100
AcDbEntity
  8
DF500
  6
CONTINUOUS
 62
         5
100
AcDbLine
 10
19.1251606625
 20
5.75
 30
0.0
 11
19.1251606625
 21
7.425
 31
0.0
  0
LINE
  5
D5
100
AcDbEntity
  8
DF500
  6
CONTINUOUS
 62
         5
100
AcDbLine
 10
15.2796383611
 20
6.6936697327
 30
0.0
 11
15.8427040408
 21
5.6865627677
 31
0.0
  0
ARC
  5
D6
100
AcDbEntity
  8
DF500
  6
CONTINUOUS
 62
         5
100
AcDbCircle
 10
15.4432965341
 20
6.7851697458
 30
0.0
 40
0.1875
100
AcDbArc
 50
119.2092164621
 51
-150.7907834933
  0
ARC
  5
D7
100
AcDbEntity
  8
DF500
  6
CONTINUOUS
 62
         5
100
AcDbCircle
 10
16.0063622138
 20
5.7780627808
 30
0.0
 40
0.1875
100
AcDbArc
 50
-150.7907834933
 51
-60.790783809
  0
LINE
  5
D8
100
AcDbEntity
  8
DF500
  6
CONTINUOUS
 62
         5
100
AcDbLine
 10
17.1456916885
 20
7.9517807679
 30
0.0
 11
15.3517965212
 21
6.9488279189
 31
0.0
  0
ARC
  5
D9
100
AcDbEntity
  8
DF500
  6
CONTINUOUS
 62
         5
100
AcDbCircle
 10
17.2371917014
 20
7.7881225948
 30
0.0
 40
0.1875
100
AcDbArc
 50
29.2092162689
 51
119.209216462
  0
LINE
  5
DA
100
AcDbEntity
  8
DF500
  6
CONTINUOUS
 62
         5
100
AcDbLine
 10
17.9639155551
 20
6.8725156313
 30
0.0
 11
17.4008498748
 21
7.8796226071
 31
0.0
  0
ARC
  5
DB
100
AcDbEntity
  8
DF500
  6
CONTINUOUS
 62
         5
100
AcDbCircle
 10
17.8002573817
 20
6.7810156189
 30
0.0
 40
0.1875
100
AcDbArc
 50
-60.790783809
 51
29.209216269
  0
LINE
  5
DC
100
AcDbEntity
  8
DF500
  6
CONTINUOUS
 62
         5
100
AcDbLine
 10
16.097862226
 20
5.6144046072
 30
0.0
 11
17.8917573938
 21
6.6173574454
 31
0.0
  0
CIRCLE
  5
DD
100
AcDbEntity
  8
DF500
  6
CONTINUOUS
 62
         5
100
AcDbCircle
 10
16.0828524731
 20
7.5606694342
 30
0.0
 40
0.0625
  0
CIRCLE
  5
DE
100
AcDbEntity
  8
DF500
  6
CONTINUOUS
 62
         5
100
AcDbCircle
 10
17.0034083151
 20
5.9276517873
 30
0.0
 40
0.0625
  0
CIRCLE
  5
DF
100
AcDbEntity
  8
DF500
  6
CONTINUOUS
 62
         5
100
AcDbCircle
 10
16.2022379463
 20
0.5525594496
 30
0.0
 40
0.0445
  0
CIRCLE
  5
E0
100
AcDbEntity
  8
DF500
  6
CONTINUOUS
 62
         5
100
AcDbCircle
 10
16.5708415357
 20
0.5475586122
 30
0.0
 40
0.0445
  0
CIRCLE
  5
E1
100
AcDbEntity
  8
DF500
  6
CONTINUOUS
 62
         5
100
AcDbCircle
 10
15.6969586549
 20
5.1905944569
 30
0.0
 40
0.0625
  0
ARC
  5
E2
100
AcDbEntity
  8
DF500
  6
CONTINUOUS
 62
         5
100
AcDbCircle
 10
18.035161194
 20
5.5
 30
0.0
 40
0.25
100
AcDbArc
 50
90.0
 51
-90.0
  0
ARC
  5
E3
100
AcDbEntity
  8
MIRCO_250
  6
CONTINUOUS
 62
         3
100
AcDbCircle
 10
17.8714195703
 20
15.6995282795
 30
0.0
 40
0.120065818
100
AcDbArc
 50
33.6011393172
 51
70.4698846387
  0
LINE
  5
E4
100
AcDbEntity
  8
MIRCO_250
  6
CONTINUOUS
 62
         3
100
AcDbLine
 10
17.0429918715
 20
15.8703063882
 30
0.0
 11
17.4632171688
 21
15.2381042418
 31
0.0
  0
ARC
  5
E5
100
AcDbEntity
  8
MIRCO_500
  6
CONTINUOUS
 62
         5
100
AcDbCircle
 10
18.3087117341
 20
15.0399492046
 30
0.0
 40
0.0589962659
100
AcDbArc
 50
-109.5409914835
 51
33.6120154394
  0
ARC
  5
E6
100
AcDbEntity
  8
MIRCO_500
  6
CONTINUOUS
 62
         5
100
AcDbCircle
 10
17.5632167085
 20
15.3045414222
 30
0.0
 40
0.0589945657
100
AcDbArc
 50
-146.4012593916
 51
-109.5277166525
  0
LINE
  5
E7
100
AcDbEntity
  8
MIRCO_500
  6
CONTINUOUS
 62
         5
100
AcDbLine
 10
17.145048598
 20
16.0189373163
 30
0.0
 11
17.8911453462
 21
15.7551364589
 31
0.0
  0
ARC
  5
E8
100
AcDbEntity
  8
MIRCO_500
  6
CONTINUOUS
 62
         5
100
AcDbCircle
 10
17.871413667
 20
15.6995199012
 30
0.0
 40
0.059013055
100
AcDbArc
 50
33.604724888
 51
70.4662990679
  0
ARC
  5
E9
100
AcDbEntity
  8
MIRCO_500
  6
CONTINUOUS
 62
         5
100
AcDbCircle
 10
17.1253249063
 20
15.9633317191
 30
0.0
 40
0.0590000546
100
AcDbArc
 50
70.4700504577
 51
-146.3990265018
  0
LINE
  5
EA
100
AcDbEntity
  8
MIRCO_500
  6
CONTINUOUS
 62
         5
100
AcDbLine
 10
17.0761830624
 20
15.9306807526
 30
0.0
 11
17.514078164
 21
15.2718954082
 31
0.0
  0
LINE
  5
EB
100
AcDbEntity
  8
MIRCO_500
  6
CONTINUOUS
 62
         5
100
AcDbLine
 10
17.9205642008
 20
15.7321812804
 30
0.0
 11
18.3578441294
 21
15.0726075438
 31
0.0
  0
LINE
  5
EC
100
AcDbEntity
  8
MIRCO_500
  6
CONTINUOUS
 62
         5
100
AcDbLine
 10
17.5434970186
 20
15.2489402296
 30
0.0
 11
18.2889785938
 21
14.9843509801
 31
0.0
  0
CIRCLE
  5
ED
100
AcDbEntity
  8
DF500
  6
CONTINUOUS
 62
         5
100
AcDbCircle
 10
18.5114426772
 20
16.3738965771
 30
0.0
 40
0.0445
  0
CIRCLE
  5
EE
100
AcDbEntity
  8
DF500
  6
CONTINUOUS
 62
         5
100
AcDbCircle
 10
12.4361771895
 20
20.0200142093
 30
0.0
 40
0.0445
  0
CIRCLE
  5
EF
100
AcDbEntity
  8
DF500
  6
CONTINUOUS
 62
         5
100
AcDbCircle
 10
10.9083004756
 20
14.149887602
 30
0.0
 40
0.0445
  0
CIRCLE
  5
F0
100
AcDbEntity
  8
MIRCO_500
  6
CONTINUOUS
 62
         5
100
AcDbCircle
 10
10.7172588043
 20
12.5769163436
 30
0.0
 40
0.302484
  0
CIRCLE
  5
F1
100
AcDbEntity
  8
MIRCO_250
  6
CONTINUOUS
 62
         3
100
AcDbCircle
 10
10.7172588043
 20
12.5769163436
 30
0.0
 40
0.369413
  0
CIRCLE
  5
F2
100
AcDbEntity
  8
DF500
  6
CONTINUOUS
 62
         5
100
AcDbCircle
 10
6.4665859934
 20
18.1602383478
 30
0.0
 40
0.0445
  0
CIRCLE
  5
F3
100
AcDbEntity
  8
DF500
  6
CONTINUOUS
 62
         5
100
AcDbCircle
 10
6.9717329635
 20
20.0200142093
 30
0.0
 40
0.0445
  0
CIRCLE
  5
F4
100
AcDbEntity
  8
DF500
  6
CONTINUOUS
 62
         5
100
AcDbCircle
 10
8.4996096774
 20
14.149887602
 30
0.0
 40
0.0445
  0
CIRCLE
  5
F5
100
AcDbEntity
  8
DF500
  6
CONTINUOUS
 62
         5
100
AcDbCircle
 10
6.7118094982
 20
15.7640628963
 30
0.0
 40
0.0445
  0
CIRCLE
  5
F6
100
AcDbEntity
  8
MIRCO_250
  6
CONTINUOUS
 62
         3
100
AcDbCircle
 10
9.4767545786
 20
12.5769163436
 30
0.0
 40
0.369413
  0
CIRCLE
  5
F7
100
AcDbEntity
  8
MIRCO_500
  6
CONTINUOUS
 62
         5
100
AcDbCircle
 10
9.4767545786
 20
12.5769163436
 30
0.0
 40
0.302484
  0
CIRCLE
  5
F8
100
AcDbEntity
  8
MIRCO_500
  6
CONTINUOUS
 62
         5
100
AcDbCircle
 10
8.2362517046
 20
12.5769163436
 30
0.0
 40
0.302484
  0
CIRCLE
  5
F9
100
AcDbEntity
  8
MIRCO_250
  6
CONTINUOUS
 62
         3
100
AcDbCircle
 10
8.2362517046
 20
12.5769163436
 30
0.0
 40
0.369413
  0
CIRCLE
  5
FA
100
AcDbEntity
  8
DF500
  6
CONTINUOUS
 62
         5
100
AcDbCircle
 10
14.7756501359
 20
6.8236332234
 30
0.0
 40
0.0625
  0
CIRCLE
  5
FB
100
AcDbEntity
  8
DF500
  6
CONTINUOUS
 62
         5
100
AcDbCircle
 10
15.9224569685
 20
10.254242642
 30
0.0
 40
0.0445
  0
CIRCLE
  5
FC
100
AcDbEntity
  8
MIRCO_250
  6
CONTINUOUS
 62
         3
100
AcDbCircle
 10
18.8332788976
 20
18.78775
 30
0.0
 40
0.369413
  0
LINE
  5
FD
100
AcDbEntity
  8
DF500
  6
CONTINUOUS
 62
         5
100
AcDbLine
 10
16.9204966535
 20
14.0108697952
 30
0.0
 11
16.9204966535
 21
12.3108697952
 31
0.0
  0
LINE
  5
FE
100
AcDbEntity
  8
DF500
  6
CONTINUOUS
 62
         5
100
AcDbLine
 10
17.1004955906
 20
12.3108697952
 30
0.0
 11
17.1004955906
 21
14.0108697952
 31
0.0
  0
ARC
  5
FF
100
AcDbEntity
  8
DF500
  6
CONTINUOUS
 62
         5
100
AcDbCircle
 10
17.010496122
 20
12.3108697952
 30
0.0
 40
0.0899994685
100
AcDbArc
 50
-180.0
 51
0.0
  0
ARC
  5
100
100
AcDbEntity
  8
DF500
  6
CONTINUOUS
 62
         5
100
AcDbCircle
 10
17.010496122
 20
14.0108697952
 30
0.0
 40
0.0899994685
100
AcDbArc
 50
0.0
 51
180.0
  0
ARC
  5
101
100
AcDbEntity
  8
DF500
  6
CONTINUOUS
 62
         5
100
AcDbCircle
 10
14.4711091682
 20
13.0719707154
 30
0.0
 40
0.1880074129
100
AcDbArc
 50
62.3749018541
 51
-150.298499633
  0
ARC
  5
102
100
AcDbEntity
  8
DF500
  6
CONTINUOUS
 62
         5
100
AcDbCircle
 10
14.8429696144
 20
12.4077065295
 30
0.0
 40
0.1820363497
100
AcDbArc
 50
-152.6601657575
 51
-41.6
  0
ARC
  5
103
100
AcDbEntity
  8
DF500
  6
CONTINUOUS
 62
         5
100
AcDbCircle
 10
15.1391594289
 20
12.7229226871
 30
0.0
 40
0.1874997711
100
AcDbArc
 50
-43.9619533704
 51
62.374898505
  0
LINE
  5
104
100
AcDbEntity
  8
DF500
  6
CONTINUOUS
 62
         5
100
AcDbLine
 10
14.3078024437
 20
12.9788165365
 30
0.0
 11
14.6812670623
 21
12.3241031967
 31
0.0
  0
LINE
  5
105
100
AcDbEntity
  8
DF500
  6
CONTINUOUS
 62
         5
100
AcDbLine
 10
15.274121937
 20
12.5927639933
 30
0.0
 11
14.9790960491
 21
12.2868478253
 31
0.0
  0
LINE
  5
106
100
AcDbEntity
  8
DF500
  6
CONTINUOUS
 62
         5
100
AcDbLine
 10
14.5582852328
 20
13.2385453865
 30
0.0
 11
15.2261001177
 21
12.8890475822
 31
0.0
  0
CIRCLE
  5
107
100
AcDbEntity
  8
DF500
  6
CONTINUOUS
 62
         5
100
AcDbCircle
 10
17.7707722286
 20
11.4910492909
 30
0.0
 40
0.0575
  0
CIRCLE
  5
108
100
AcDbEntity
  8
DF500
  6
CONTINUOUS
 62
         5
100
AcDbCircle
 10
18.0710117302
 20
13.6205055458
 30
0.0
 40
0.0575
  0
CIRCLE
  5
109
100
AcDbEntity
  8
DF500
  6
CONTINUOUS
 62
         5
100
AcDbCircle
 10
15.9224569685
 20
14.0
 30
0.0
 40
0.0445
  0
CIRCLE
  5
10A
100
AcDbEntity
  8
DF500
  6
CONTINUOUS
 62
         5
100
AcDbCircle
 10
15.9224569782
 20
12.9012686002
 30
0.0
 40
0.0445
  0
CIRCLE
  5
10B
100
AcDbEntity
  8
DF500
  6
CONTINUOUS
 62
         5
100
AcDbCircle
 10
19.9999451074
 20
12.5
 30
0.0
 40
0.0445
  0
CIRCLE
  5
10C
100
AcDbEntity
  8
DF500
  6
CONTINUOUS
 62
         5
100
AcDbCircle
 10
13.5954490882
 20
11.5884383716
 30
0.0
 40
0.0445
  0
SPLINE
  5
10D
100
AcDbEntity
  8
DF500
  6
CONTINUOUS
 62
         5
100
AcDbSpline
210
0.0
220
0.0
230
1.0
 70
         0
 71
         3
 72
        25
 73
        21
 74
         0
 42
0.000001
 43
0.000001
 40
0.0
 40
0.0
 40
0.0
 40
0.0
 40
0.0558218508874839
 40
0.1108448115806402
 40
0.1666666624681241
 40
0.2224885133556089
 40
0.2775114740487652
 40
0.3333333249362482
 40
0.3891551758237331
 40
0.4441781365168893
 40
0.4999999874043724
 40
0.5558218382918554
 40
0.6108447989850134
 40
0.6666666498724965
 40
0.7224885259512348
 40
0.7775114614531375
 40
0.8333333123406206
 40
0.8891551884193589
 40
0.9441781239212617
 40
1.0
 40
1.0
 40
1.0
 40
1.0
 10
13.791654497426409
 20
11.955919016790872
 30
0.0
 10
13.814766853494643
 20
11.937779175524765
 30
0.0
 10
13.860660827156986
 20
11.901759035720319
 30
0.0
 10
13.947813115808168
 20
11.881638842339578
 30
0.0
 10
14.035630290114792
 20
11.890551546015322
 30
0.0
 10
14.115316961059083
 20
11.929612171796036
 30
0.0
 10
14.17677365668602
 20
11.99333742003475
 30
0.0
 10
14.212840292965382
 20
12.074302890978608
 30
0.0
 10
14.218889220472864
 20
12.162721159938947
 30
0.0
 10
14.194421129982132
 20
12.247839396525885
 30
0.0
 10
14.142338651009171
 20
12.319547934669909
 30
0.0
 10
14.068790106290267
 20
12.368998077962226
 30
0.0
 10
13.982841284165898
 20
12.390366132367108
 30
0.0
 10
13.894700230203656
 20
12.381117566395952
 30
0.0
 10
13.815094657386419
 20
12.342141071564347
 30
0.0
 10
13.753637961759475
 20
12.278415823325641
 30
0.0
 10
13.717490188052288
 20
12.197366219097772
 30
0.0
 10
13.711765142535326
 20
12.109283773132063
 30
0.0
 10
13.735029840431004
 20
12.022917758792335
 30
0.0
 10
13.772689140284555
 20
11.97835898466052
 30
0.0
 10
13.791654497426409
 20
11.955919016790872
 30
0.0
  0
SPLINE
  5
10E
100
AcDbEntity
  8
DF500
  6
CONTINUOUS
 62
         5
100
AcDbSpline
210
0.0
220
0.0
230
1.0
 70
         0
 71
         3
 72
        25
 73
        21
 74
         0
 42
0.000001
 43
0.000001
 40
0.0
 40
0.0
 40
0.0
 40
0.0
 40
0.0558218508874839
 40
0.1108448115806402
 40
0.1666666624681241
 40
0.2224885133556089
 40
0.2775114740487652
 40
0.3333333249362482
 40
0.3891551758237331
 40
0.4441781365168893
 40
0.4999999874043724
 40
0.5558218382918554
 40
0.6108447989850134
 40
0.6666666498724965
 40
0.7224885259512348
 40
0.7775114614531375
 40
0.8333333123406206
 40
0.8891551884193589
 40
0.9441781239212617
 40
1.0
 40
1.0
 40
1.0
 40
1.0
 10
15.214720731321563
 20
13.43151471288466
 30
0.0
 10
15.237833089724697
 20
13.413374832317775
 30
0.0
 10
15.283727063387046
 20
13.377354692513329
 30
0.0
 10
15.370879310402549
 20
13.357234536098472
 30
0.0
 10
15.458696484709174
 20
13.366147239774216
 30
0.0
 10
15.538383157988354
 20
13.405207826254152
 30
0.0
 10
15.599839853615299
 20
13.468933074492865
 30
0.0
 10
15.63590648755976
 20
13.549898584737498
 30
0.0
 10
15.641955454368023
 20
13.638316856032723
 30
0.0
 10
15.617487366212186
 20
13.723435053318893
 30
0.0
 10
15.56540484793844
 20
13.795143589128017
 30
0.0
 10
15.491856340185425
 20
13.844593774056019
 30
0.0
 10
15.405907481095177
 20
13.865961786825222
 30
0.0
 10
15.317766427132929
 20
13.856713220854067
 30
0.0
 10
15.238160893616479
 20
13.817736728357357
 30
0.0
 10
15.176704197989528
 20
13.754011480118647
 30
0.0
 10
15.140556424282344
 20
13.672961875890772
 30
0.0
 10
15.134831337129707
 20
13.584879466890946
 30
0.0
 10
15.158096037360282
 20
13.498513413250443
 30
0.0
 10
15.19575533721383
 20
13.453954639118637
 30
0.0
 10
15.214720731321563
 20
13.43151471288466
 30
0.0
  0
ARC
  5
10F
100
AcDbEntity
  8
MIRCO_250
  6
CONTINUOUS
 62
         3
100
AcDbCircle
 10
18.2822049228
 20
15.0606571375
 30
0.0
 40
0.1307084461
100
AcDbArc
 50
-109.541019535
 51
33.5436496646
  0
LINE
  5
110
100
AcDbEntity
  8
MIRCO_250
  6
CONTINUOUS
 62
         3
100
AcDbLine
 10
17.1954182217
 20
16.0658948719
 30
0.0
 11
17.9115616154
 21
15.8126845474
 31
0.0
  0
ARC
  5
111
100
AcDbEntity
  8
MIRCO_250
  6
CONTINUOUS
 62
         3
100
AcDbCircle
 10
17.1518463643
 20
15.9426625428
 30
0.0
 40
0.1307085066
100
AcDbArc
 50
70.5276843756
 51
-146.387804473
  0
LINE
  5
112
100
AcDbEntity
  8
MIRCO_250
  6
CONTINUOUS
 62
         3
100
AcDbLine
 10
17.5230845181
 20
15.1913904689
 30
0.0
 11
18.238485348
 21
14.9374772013
 31
0.0
  0
LINE
  5
113
100
AcDbEntity
  8
MIRCO_250
  6
CONTINUOUS
 62
         3
100
AcDbLine
 10
17.9714218692
 20
15.765976311
 30
0.0
 11
18.3911458506
 21
15.1328829786
 31
0.0
  0
ARC
  5
114
100
AcDbEntity
  8
MIRCO_250
  6
CONTINUOUS
 62
         3
100
AcDbCircle
 10
17.5632100194
 20
15.3045336625
 30
0.0
 40
0.1200473331
100
AcDbArc
 50
-146.401801422
 51
-109.5271746221
  0
LINE
  5
115
100
AcDbEntity
  8
DF500
  6
CONTINUOUS
 62
         5
100
AcDbLine
 10
17.8562457217
 20
19.5785879238
 30
0.0
 11
17.8562457217
 21
18.9535879238
 31
0.0
  0
CIRCLE
  5
116
100
AcDbEntity
  8
DF500
  6
CONTINUOUS
 62
         5
100
AcDbCircle
 10
17.6637457217
 20
20.1360879238
 30
0.0
 40
0.0445
  0
CIRCLE
  5
117
100
AcDbEntity
  8
DF500
  6
CONTINUOUS
 62
         5
100
AcDbCircle
 10
19.9999451074
 20
18.5
 30
0.0
 40
0.0445
  0
CIRCLE
  5
118
100
AcDbEntity
  8
DF500
  6
CONTINUOUS
 62
         5
100
AcDbCircle
 10
17.6637457217
 20
18.3960317615
 30
0.0
 40
0.0445
  0
ARC
  5
119
100
AcDbEntity
  8
MIRCO_250
  6
CONTINUOUS
 62
         3
100
AcDbCircle
 10
18.2829352473
 20
17.6844029301
 30
0.0
 40
0.1307084461
100
AcDbArc
 50
-33.6302523167
 51
109.4544168829
  0
LINE
  5
11A
100
AcDbEntity
  8
MIRCO_250
  6
CONTINUOUS
 62
         3
100
AcDbLine
 10
17.0433778256
 20
16.8750169685
 30
0.0
 11
17.463303774
 21
17.507977494
 31
0.0
  0
ARC
  5
11B
100
AcDbEntity
  8
MIRCO_250
  6
CONTINUOUS
 62
         3
100
AcDbCircle
 10
17.1522962358
 20
16.8027570652
 30
0.0
 40
0.1307085066
100
AcDbArc
 50
146.4384515939
 51
-70.4770372547
  0
LINE
  5
11C
100
AcDbEntity
  8
MIRCO_250
  6
CONTINUOUS
 62
         3
100
AcDbLine
 10
17.9713399003
 20
16.979943327
 30
0.0
 11
18.3917668813
 21
17.6120125072
 31
0.0
  0
LINE
  5
11D
100
AcDbEntity
  8
MIRCO_250
  6
CONTINUOUS
 62
         3
100
AcDbLine
 10
17.5231788688
 20
17.5546667041
 30
0.0
 11
18.239401909
 21
17.8076488077
 31
0.0
  0
ARC
  5
11E
100
AcDbEntity
  8
MIRCO_250
  6
CONTINUOUS
 62
         3
100
AcDbCircle
 10
17.8713681662
 20
17.0464045224
 30
0.0
 40
0.1200473331
100
AcDbArc
 50
-70.4910342037
 51
-33.6164074038
  0
ARC
  5
11F
100
AcDbEntity
  8
MIRCO_250
  6
CONTINUOUS
 62
         3
100
AcDbCircle
 10
17.5632841618
 20
17.4414970697
 30
0.0
 40
0.120065818
100
AcDbArc
 50
109.5119065355
 51
146.380651857
  0
LINE
  5
120
100
AcDbEntity
  8
MIRCO_250
  6
CONTINUOUS
 62
         3
100
AcDbLine
 10
17.1959770084
 20
16.6795632999
 30
0.0
 11
17.9114577082
 21
16.9332485825
 31
0.0
  0
ARC
  5
121
100
AcDbEntity
  8
MIRCO_500
  6
CONTINUOUS
 62
         5
100
AcDbCircle
 10
18.3094728654
 20
17.7050713687
 30
0.0
 40
0.0589962659
100
AcDbArc
 50
-33.6302242652
 51
109.5227826577
  0
ARC
  5
122
100
AcDbEntity
  8
MIRCO_500
  6
CONTINUOUS
 62
         5
100
AcDbCircle
 10
17.8713622682
 20
17.0464128992
 30
0.0
 40
0.0589945657
100
AcDbArc
 50
-70.4904921733
 51
-33.6169494342
  0
LINE
  5
123
100
AcDbEntity
  8
MIRCO_500
  6
CONTINUOUS
 62
         5
100
AcDbLine
 10
17.0766611779
 20
16.8147315683
 30
0.0
 11
17.5141506997
 21
17.4741663023
 31
0.0
  0
ARC
  5
124
100
AcDbEntity
  8
MIRCO_500
  6
CONTINUOUS
 62
         5
100
AcDbCircle
 10
17.563290851
 20
17.4414893044
 30
0.0
 40
0.059013055
100
AcDbArc
 50
109.5154921063
 51
146.3770662862
  0
ARC
  5
125
100
AcDbEntity
  8
MIRCO_500
  6
CONTINUOUS
 62
         5
100
AcDbCircle
 10
17.1257926428
 20
16.7820649859
 30
0.0
 40
0.0590000546
100
AcDbArc
 50
146.380817676
 51
-70.4882592835
  0
LINE
  5
126
100
AcDbEntity
  8
MIRCO_500
  6
CONTINUOUS
 62
         5
100
AcDbLine
 10
17.1454986618
 20
16.7264531233
 30
0.0
 11
17.8910642869
 21
16.9908054424
 31
0.0
  0
LINE
  5
127
100
AcDbEntity
  8
MIRCO_500
  6
CONTINUOUS
 62
         5
100
AcDbLine
 10
17.543576848
 20
17.4971121302
 30
0.0
 11
18.2897573955
 21
17.7606758617
 31
0.0
  0
LINE
  5
128
100
AcDbEntity
  8
MIRCO_500
  6
CONTINUOUS
 62
         5
100
AcDbLine
 10
17.9204904352
 20
17.0137512704
 30
0.0
 11
18.3585948793
 21
17.6723974167
 31
0.0
  0
CIRCLE
  5
129
100
AcDbEntity
  8
MIRCO_250
  6
CONTINUOUS
 62
         3
100
AcDbCircle
 10
18.8332788976
 20
20.1
 30
0.0
 40
0.587598
  0
CIRCLE
  5
12A
100
AcDbEntity
  8
MIRCO_500
  6
CONTINUOUS
 62
         5
100
AcDbCircle
 10
18.8332788976
 20
20.1
 30
0.0
 40
0.5325
  0
CIRCLE
  5
12B
100
AcDbEntity
  8
MIRCO_500
  6
CONTINUOUS
 62
         5
100
AcDbCircle
 10
16.2566500069
 20
19.2660879238
 30
0.0
 40
0.302484
  0
CIRCLE
  5
12C
100
AcDbEntity
  8
MIRCO_250
  6
CONTINUOUS
 62
         3
100
AcDbCircle
 10
16.2566500069
 20
19.2660879238
 30
0.0
 40
0.369413
  0
CIRCLE
  5
12D
100
AcDbEntity
  8
MIRCO_500
  6
CONTINUOUS
 62
         5
100
AcDbCircle
 10
18.8332788976
 20
18.78775
 30
0.0
 40
0.302484
  0
ARC
  5
12E
100
AcDbEntity
  8
MIRCO_500
  6
CONTINUOUS
 62
         5
100
AcDbCircle
 10
2.0875820499
 20
23.680835564
 30
0.0
 40
0.0590000546
100
AcDbArc
 50
88.475551839
 51
-128.3935251205
  0
LINE
  5
12F
100
AcDbEntity
  8
MIRCO_500
  6
CONTINUOUS
 62
         5
100
AcDbLine
 10
2.0509395225
 20
23.6345934661
 30
0.0
 11
2.6710255426
 21
23.1434279362
 31
0.0
  0
LINE
  5
130
100
AcDbEntity
  8
MIRCO_500
  6
CONTINUOUS
 62
         5
100
AcDbLine
 10
2.9153264856
 20
23.7068203674
 30
0.0
 11
3.5350711583
 21
23.2147149004
 31
0.0
  0
LINE
  5
131
100
AcDbEntity
  8
MIRCO_500
  6
CONTINUOUS
 62
         5
100
AcDbLine
 10
2.7060992994
 20
23.1306905578
 30
0.0
 11
3.4968590228
 21
23.1094936301
 31
0.0
  0
ARC
  5
132
100
AcDbEntity
  8
MIRCO_250
  6
CONTINUOUS
 62
         3
100
AcDbCircle
 10
3.9773914748
 20
24.3217772209
 30
0.0
 40
0.1307084461
100
AcDbArc
 50
-126.3583389448
 51
16.7263302548
  0
LINE
  5
133
100
AcDbEntity
  8
MIRCO_250
  6
CONTINUOUS
 62
         3
100
AcDbLine
 10
3.2279209253
 20
25.5984534256
 30
0.0
 11
3.8401772537
 21
25.1488769392
 31
0.0
  0
ARC
  5
134
100
AcDbEntity
  8
MIRCO_250
  6
CONTINUOUS
 62
         3
100
AcDbCircle
 10
3.1505588247
 20
25.4930977467
 30
0.0
 40
0.1307085066
100
AcDbArc
 50
53.7103649658
 51
-163.2051238829
  0
LINE
  5
135
100
AcDbEntity
  8
MIRCO_250
  6
CONTINUOUS
 62
         3
100
AcDbLine
 10
3.2885609865
 20
24.6665489586
 30
0.0
 11
3.8999031327
 21
24.216514432
 31
0.0
  0
LINE
  5
136
100
AcDbEntity
  8
MIRCO_250
  6
CONTINUOUS
 62
         3
100
AcDbLine
 10
3.883963728
 20
25.0868474785
 30
0.0
 11
4.1025696907
 21
24.3593951975
 31
0.0
  0
ARC
  5
137
100
AcDbEntity
  8
MIRCO_250
  6
CONTINUOUS
 62
         3
100
AcDbCircle
 10
3.3597051242
 20
24.763244097
 30
0.0
 40
0.1200473331
100
AcDbArc
 50
-163.2191208318
 51
-126.3444940319
  0
ARC
  5
138
100
AcDbEntity
  8
MIRCO_250
  6
CONTINUOUS
 62
         3
100
AcDbCircle
 10
3.7690134972
 20
25.0521740721
 30
0.0
 40
0.120065818
100
AcDbArc
 50
16.7838199074
 51
53.6525652289
  0
LINE
  5
139
100
AcDbEntity
  8
MIRCO_250
  6
CONTINUOUS
 62
         3
100
AcDbLine
 10
3.0254256448
 20
25.4553300225
 30
0.0
 11
3.244769322
 21
24.728585772
 31
0.0
  0
ARC
  5
13A
100
AcDbEntity
  8
MIRCO_500
  6
CONTINUOUS
 62
         5
100
AcDbCircle
 10
3.9967734019
 20
24.2942859416
 30
0.0
 40
0.0589962659
100
AcDbArc
 50
-126.3583108933
 51
16.7946960296
  0
ARC
  5
13B
100
AcDbEntity
  8
MIRCO_500
  6
CONTINUOUS
 62
         5
100
AcDbCircle
 10
3.3597137722
 20
24.7632495896
 30
0.0
 40
0.0589945657
100
AcDbArc
 50
-163.2185788014
 51
-126.3450360623
  0
LINE
  5
13C
100
AcDbEntity
  8
MIRCO_500
  6
CONTINUOUS
 62
         5
100
AcDbLine
 10
3.1661196908
 20
25.5680771448
 30
0.0
 11
3.8039842659
 21
25.0996969213
 31
0.0
  0
ARC
  5
13D
100
AcDbEntity
  8
MIRCO_500
  6
CONTINUOUS
 62
         5
100
AcDbCircle
 10
3.7690054223
 20
25.0521677601
 30
0.0
 40
0.059013055
100
AcDbArc
 50
16.7874054782
 51
53.6489796581
  0
ARC
  5
13E
100
AcDbEntity
  8
MIRCO_500
  6
CONTINUOUS
 62
         5
100
AcDbCircle
 10
3.1311516643
 20
25.5205561646
 30
0.0
 40
0.0590000546
100
AcDbArc
 50
53.6527310479
 51
-163.2163459116
  0
LINE
  5
13F
100
AcDbEntity
  8
MIRCO_500
  6
CONTINUOUS
 62
         5
100
AcDbLine
 10
3.0746648989
 20
25.5035193872
 30
0.0
 11
3.3032315981
 21
24.7462165983
 31
0.0
  0
LINE
  5
140
100
AcDbEntity
  8
MIRCO_500
  6
CONTINUOUS
 62
         5
100
AcDbLine
 10
3.8255035184
 20
25.0692119906
 30
0.0
 11
4.0532532558
 21
24.31133251
 31
0.0
  0
LINE
  5
141
100
AcDbEntity
  8
MIRCO_500
  6
CONTINUOUS
 62
         5
100
AcDbLine
 10
3.3247508506
 20
24.7157316677
 30
0.0
 11
3.9617984639
 21
24.2467747524
 31
0.0
  0
CIRCLE
  5
142
100
AcDbEntity
  8
MIRCO_500
  6
CONTINUOUS
 62
         5
100
AcDbCircle
 10
1.4899833465
 20
22.6634221661
 30
0.0
 40
0.302484
  0
CIRCLE
  5
143
100
AcDbEntity
  8
MIRCO_250
  6
CONTINUOUS
 62
         3
100
AcDbCircle
 10
1.4899833465
 20
22.6634221661
 30
0.0
 40
0.369413
  0
LINE
  5
144
100
AcDbEntity
  8
DF500
  6
CONTINUOUS
 62
         5
100
AcDbLine
 10
17.3562457217
 20
18.9535879238
 30
0.0
 11
17.3562457217
 21
19.5785879238
 31
0.0
  0
ARC
  5
145
100
AcDbEntity
  8
DF500
  6
CONTINUOUS
 62
         5
100
AcDbCircle
 10
17.6062457217
 20
19.5785879238
 30
0.0
 40
0.25
100
AcDbArc
 50
0.0
 51
-180.0
  0
ARC
  5
146
100
AcDbEntity
  8
DF500
  6
CONTINUOUS
 62
         5
100
AcDbCircle
 10
17.6062457217
 20
18.9535879238
 30
0.0
 40
0.25
100
AcDbArc
 50
-180.0
 51
0.0
  0
CIRCLE
  5
147
100
AcDbEntity
  8
MIRCO_500
  6
CONTINUOUS
 62
         5
100
AcDbCircle
 10
10.1966977842
 20
32.3150406861
 30
0.0
 40
0.5325
  0
CIRCLE
  5
148
100
AcDbEntity
  8
MIRCO_500
  6
CONTINUOUS
 62
         5
100
AcDbCircle
 10
10.1737291538
 20
28.9710123115
 30
0.0
 40
0.302484
  0
CIRCLE
  5
149
100
AcDbEntity
  8
MIRCO_250
  6
CONTINUOUS
 62
         3
100
AcDbCircle
 10
10.1737291538
 20
28.9710123115
 30
0.0
 40
0.369413
  0
CIRCLE
  5
14A
100
AcDbEntity
  8
DF500
  6
CONTINUOUS
 62
         5
100
AcDbCircle
 10
4.25
 20
43.0
 30
0.0
 40
0.0445
  0
CIRCLE
  5
14B
100
AcDbEntity
  8
DF500
  6
CONTINUOUS
 62
         5
100
AcDbCircle
 10
3.1564539401
 20
42.1083275912
 30
0.0
 40
0.0625
  0
CIRCLE
  5
14C
100
AcDbEntity
  8
DF500
  6
CONTINUOUS
 62
         5
100
AcDbCircle
 10
4.25
 20
34.0
 30
0.0
 40
0.0445
  0
CIRCLE
  5
14D
100
AcDbEntity
  8
DF500
  6
CONTINUOUS
 62
         5
100
AcDbCircle
 10
1.1316832076
 20
38.0702950014
 30
0.0
 40
0.0625
  0
CIRCLE
  5
14E
100
AcDbEntity
  8
DF500
  6
CONTINUOUS
 62
         5
100
AcDbCircle
 10
4.25
 20
38.5
 30
0.0
 40
0.0445
  0
ARC
  5
14F
100
AcDbEntity
  8
DF500
  6
CONTINUOUS
 62
         5
100
AcDbCircle
 10
2.2499451074
 20
38.75
 30
0.0
 40
0.25
100
AcDbArc
 50
-90.0
 51
0.0
  0
LINE
  5
150
100
AcDbEntity
  8
DF500
  6
CONTINUOUS
 62
         5
100
AcDbLine
 10
2.4999451074
 20
43.75
 30
0.0
 11
2.4999451074
 21
38.75
 31
0.0
  0
CIRCLE
  5
151
100
AcDbEntity
  8
DF500
  6
CONTINUOUS
 62
         5
100
AcDbCircle
 10
3.84707897
 20
31.7671546598
 30
0.0
 40
0.0625
  0
CIRCLE
  5
152
100
AcDbEntity
  8
DF500
  6
CONTINUOUS
 62
         5
100
AcDbCircle
 10
1.6985000502
 20
24.9685138378
 30
0.0
 40
0.0445
  0
CIRCLE
  5
153
100
AcDbEntity
  8
DF500
  6
CONTINUOUS
 62
         5
100
AcDbCircle
 10
4.1313459148
 20
26.685456604
 30
0.0
 40
0.0445
  0
ARC
  5
154
100
AcDbEntity
  8
MIRCO_250
  6
CONTINUOUS
 62
         3
100
AcDbCircle
 10
3.4668302125
 20
23.1799690358
 30
0.0
 40
0.1307084461
100
AcDbArc
 50
-91.5355181537
 51
51.5491510459
  0
LINE
  5
155
100
AcDbEntity
  8
MIRCO_250
  6
CONTINUOUS
 62
         3
100
AcDbLine
 10
2.1225395513
 20
23.8000423015
 30
0.0
 11
2.8818805564
 21
23.7805983612
 31
0.0
  0
ARC
  5
156
100
AcDbEntity
  8
MIRCO_250
  6
CONTINUOUS
 62
         3
100
AcDbCircle
 10
2.1191936826
 20
23.6693766256
 30
0.0
 40
0.1307085066
100
AcDbArc
 50
88.5331857569
 51
-128.3823030917
  0
LINE
  5
157
100
AcDbEntity
  8
MIRCO_250
  6
CONTINUOUS
 62
         3
100
AcDbLine
 10
2.7044755729
 20
23.069649517
 30
0.0
 11
3.4633276653
 21
23.0493075264
 31
0.0
  0
LINE
  5
158
100
AcDbEntity
  8
MIRCO_250
  6
CONTINUOUS
 62
         3
100
AcDbLine
 10
2.9532471685
 20
23.7546808766
 30
0.0
 11
3.5481103511
 21
23.2823322955
 31
0.0
  0
ARC
  5
159
100
AcDbEntity
  8
MIRCO_250
  6
CONTINUOUS
 62
         3
100
AcDbCircle
 10
2.7076625002
 20
23.189654857
 30
0.0
 40
0.1200473331
100
AcDbArc
 50
-128.3963000407
 51
-91.5216732407
  0
ARC
  5
15A
100
AcDbEntity
  8
MIRCO_250
  6
CONTINUOUS
 62
         3
100
AcDbCircle
 10
2.8786819369
 20
23.6605754734
 30
0.0
 40
0.120065818
100
AcDbArc
 50
51.6066406985
 51
88.47538602
  0
LINE
  5
15B
100
AcDbEntity
  8
MIRCO_250
  6
CONTINUOUS
 62
         3
100
AcDbLine
 10
2.0380360269
 20
23.5669161521
 30
0.0
 11
2.6331005013
 21
23.0955700737
 31
0.0
  0
ARC
  5
15C
100
AcDbEntity
  8
MIRCO_500
  6
CONTINUOUS
 62
         5
100
AcDbCircle
 10
3.4984398956
 20
23.1684687115
 30
0.0
 40
0.0589962659
100
AcDbArc
 50
-91.5354901022
 51
51.6175168207
  0
ARC
  5
15D
100
AcDbEntity
  8
MIRCO_500
  6
CONTINUOUS
 62
         5
100
AcDbCircle
 10
2.7076664631
 20
23.1896643043
 30
0.0
 40
0.0589945657
100
AcDbArc
 50
-128.3957580103
 51
-91.5222152711
  0
LINE
  5
15E
100
AcDbEntity
  8
MIRCO_500
  6
CONTINUOUS
 62
         5
100
AcDbLine
 10
2.0891516579
 20
23.7398147364
 30
0.0
 11
2.8802527288
 21
23.7195577459
 31
0.0
  0
ARC
  5
15F
100
AcDbEntity
  8
MIRCO_500
  6
CONTINUOUS
 62
         5
100
AcDbCircle
 10
2.8786789125
 20
23.6605656806
 30
0.0
 40
0.059013055
100
AcDbArc
 50
51.6102262693
 51
88.4718004492
  0
LINE
  5
160
100
AcDbEntity
  8
MIRCO_250
  6
CONTINUOUS
 62
         3
100
AcDbLine
 10
5.667730731
 20
28.281976169
 30
0.0
 11
6.0162605029
 21
27.6070659327
 31
0.0
  0
CIRCLE
  5
161
100
AcDbEntity
  8
DF500
  6
CONTINUOUS
 62
         5
100
AcDbCircle
 10
8.7310355565
 20
23.3675344181
 30
0.0
 40
0.0445
  0
ARC
  5
162
100
AcDbEntity
  8
MIRCO_250
  6
CONTINUOUS
 62
         3
100
AcDbCircle
 10
5.7714335193
 20
26.8052047011
 30
0.0
 40
0.1307084461
100
AcDbArc
 50
-152.7564628237
 51
-9.6717936241
  0
ARC
  5
163
100
AcDbEntity
  8
MIRCO_500
  6
CONTINUOUS
 62
         5
100
AcDbCircle
 10
5.7765716379
 20
26.7719627207
 30
0.0
 40
0.0589962659
100
AcDbArc
 50
-152.7564347722
 51
-9.6034278493
  0
LINE
  5
164
100
AcDbEntity
  8
MIRCO_500
  6
CONTINUOUS
 62
         5
100
AcDbLine
 10
5.9676973499
 20
27.5422319701
 30
0.0
 11
5.8347411336
 21
26.7621205072
 31
0.0
  0
ARC
  5
165
100
AcDbEntity
  8
MIRCO_500
  6
CONTINUOUS
 62
         5
100
AcDbCircle
 10
5.9095125536
 20
27.5520843882
 30
0.0
 40
0.059013055
100
AcDbArc
 50
-9.6107184006
 51
27.2508557792
  0
ARC
  5
166
100
AcDbEntity
  8
MIRCO_250
  6
CONTINUOUS
 62
         3
100
AcDbCircle
 10
5.9095225928
 20
27.552086452
 30
0.0
 40
0.120065818
100
AcDbArc
 50
-9.6143039715
 51
27.25444135
  0
LINE
  5
167
100
AcDbEntity
  8
MIRCO_250
  6
CONTINUOUS
 62
         3
100
AcDbLine
 10
6.0279025393
 20
27.5320367896
 30
0.0
 11
5.9002841143
 21
26.7832451459
 31
0.0
  0
CIRCLE
  5
168
100
AcDbEntity
  8
MIRCO_500
  6
CONTINUOUS
 62
         5
100
AcDbCircle
 10
5.8838830648
 20
24.8486094989
 30
0.0
 40
0.302484
  0
CIRCLE
  5
169
100
AcDbEntity
  8
MIRCO_250
  6
CONTINUOUS
 62
         3
100
AcDbCircle
 10
5.8838830648
 20
24.8486094989
 30
0.0
 40
0.369413
  0
CIRCLE
  5
16A
100
AcDbEntity
  8
MIRCO_250
  6
CONTINUOUS
 62
         3
100
AcDbCircle
 10
6.9938071983
 20
25.5100370943
 30
0.0
 40
0.369413
  0
CIRCLE
  5
16B
100
AcDbEntity
  8
MIRCO_500
  6
CONTINUOUS
 62
         5
100
AcDbCircle
 10
6.9938071983
 20
25.5100370943
 30
0.0
 40
0.302484
  0
CIRCLE
  5
16C
100
AcDbEntity
  8
MIRCO_250
  6
CONTINUOUS
 62
         3
100
AcDbCircle
 10
8.2038242317
 20
25.96311195
 30
0.0
 40
0.369413
  0
CIRCLE
  5
16D
100
AcDbEntity
  8
MIRCO_500
  6
CONTINUOUS
 62
         5
100
AcDbCircle
 10
8.2038242317
 20
25.96311195
 30
0.0
 40
0.302484
  0
CIRCLE
  5
16E
100
AcDbEntity
  8
MIRCO_500
  6
CONTINUOUS
 62
         5
100
AcDbCircle
 10
7.1916987634
 20
23.9999980465
 30
0.0
 40
0.302484
  0
CIRCLE
  5
16F
100
AcDbEntity
  8
MIRCO_250
  6
CONTINUOUS
 62
         3
100
AcDbCircle
 10
7.1916987634
 20
23.9999980465
 30
0.0
 40
0.369413
  0
CIRCLE
  5
170
100
AcDbEntity
  8
MIRCO_500
  6
CONTINUOUS
 62
         5
100
AcDbCircle
 10
8.3045917149
 20
24.5085976942
 30
0.0
 40
0.302484
  0
CIRCLE
  5
171
100
AcDbEntity
  8
MIRCO_250
  6
CONTINUOUS
 62
         3
100
AcDbCircle
 10
8.3045917149
 20
24.5085976942
 30
0.0
 40
0.369413
  0
CIRCLE
  5
172
100
AcDbEntity
  8
MIRCO_500
  6
CONTINUOUS
 62
         5
100
AcDbCircle
 10
9.5001241864
 20
24.7687272463
 30
0.0
 40
0.302484
  0
CIRCLE
  5
173
100
AcDbEntity
  8
MIRCO_250
  6
CONTINUOUS
 62
         3
100
AcDbCircle
 10
9.5001241864
 20
24.7687272463
 30
0.0
 40
0.369413
  0
CIRCLE
  5
174
100
AcDbEntity
  8
MIRCO_500
  6
CONTINUOUS
 62
         5
100
AcDbCircle
 10
9.4752077669
 20
26.1933334791
 30
0.0
 40
0.302484
  0
CIRCLE
  5
175
100
AcDbEntity
  8
MIRCO_250
  6
CONTINUOUS
 62
         3
100
AcDbCircle
 10
9.4752077669
 20
26.1933334791
 30
0.0
 40
0.369413
  0
LINE
  5
176
100
AcDbEntity
  8
DF500
  6
CONTINUOUS
 62
         5
100
AcDbLine
 10
9.8629907307
 20
30.5713858069
 30
0.0
 11
10.4879907307
 21
30.5713857862
 31
0.0
  0
LINE
  5
177
100
AcDbEntity
  8
DF500
  6
CONTINUOUS
 62
         5
100
AcDbLine
 10
10.4879907142
 20
30.0713857862
 30
0.0
 11
9.8629907142
 21
30.0713858069
 31
0.0
  0
CIRCLE
  5
178
100
AcDbEntity
  8
MIRCO_250
  6
CONTINUOUS
 62
         3
100
AcDbCircle
 10
10.1966977842
 20
32.3150406861
 30
0.0
 40
0.587598
  0
ARC
  5
179
100
AcDbEntity
  8
MIRCO_500
  6
CONTINUOUS
 62
         5
100
AcDbCircle
 10
18.0890056303
 20
22.6676567423
 30
0.0
 40
0.0589962659
100
AcDbArc
 50
-31.6310206659
 51
111.521986257
  0
ARC
  5
17A
100
AcDbEntity
  8
MIRCO_500
  6
CONTINUOUS
 62
         5
100
AcDbCircle
 10
17.3524730278
 20
22.3782041059
 30
0.0
 40
0.059013055
100
AcDbArc
 50
111.5146957056
 51
148.3762698855
  0
LINE
  5
17B
100
AcDbEntity
  8
MIRCO_500
  6
CONTINUOUS
 62
         5
100
AcDbLine
 10
17.3308305885
 20
22.4331053398
 30
0.0
 11
18.0673623646
 21
22.7225396033
 31
0.0
  0
CIRCLE
  5
17C
100
AcDbEntity
  8
MIRCO_500
  6
CONTINUOUS
 62
         5
100
AcDbCircle
 10
14.358592083
 20
24.8486094989
 30
0.0
 40
0.302484
  0
CIRCLE
  5
17D
100
AcDbEntity
  8
MIRCO_250
  6
CONTINUOUS
 62
         3
100
AcDbCircle
 10
14.358592083
 20
24.8486094989
 30
0.0
 40
0.369413
  0
CIRCLE
  5
17E
100
AcDbEntity
  8
MIRCO_500
  6
CONTINUOUS
 62
         5
100
AcDbCircle
 10
15.3329003755
 20
23.9999980465
 30
0.0
 40
0.302484
  0
CIRCLE
  5
17F
100
AcDbEntity
  8
MIRCO_250
  6
CONTINUOUS
 62
         3
100
AcDbCircle
 10
15.3329003755
 20
23.9999980465
 30
0.0
 40
0.369413
  0
LINE
  5
180
100
AcDbEntity
  8
MIRCO_250
  6
CONTINUOUS
 62
         3
100
AcDbLine
 10
14.9537291865
 20
27.4988279945
 30
0.0
 11
14.8174624213
 21
28.2456222523
 31
0.0
  0
LINE
  5
181
100
AcDbEntity
  8
MIRCO_500
  6
CONTINUOUS
 62
         5
100
AcDbLine
 10
14.8936606458
 20
27.4878545923
 30
0.0
 11
14.7516638609
 21
28.2660494028
 31
0.0
  0
ARC
  5
182
100
AcDbEntity
  8
DF500
  6
CONTINUOUS
 62
         5
100
AcDbCircle
 10
10.4879907225
 20
30.3213857862
 30
0.0
 40
0.25
100
AcDbArc
 50
-90.0000018946
 51
89.9999981054
  0
CIRCLE
  5
183
100
AcDbEntity
  8
DF500
  6
CONTINUOUS
 62
         5
100
AcDbCircle
 10
11.0192407118
 20
30.3213940374
 30
0.0
 40
0.0575
  0
CIRCLE
  5
184
100
AcDbEntity
  8
DF500
  6
CONTINUOUS
 62
         5
100
AcDbCircle
 10
10.6768745965
 20
23.3675344181
 30
0.0
 40
0.0445
  0
CIRCLE
  5
185
100
AcDbEntity
  8
MIRCO_500
  6
CONTINUOUS
 62
         5
100
AcDbCircle
 10
10.7672673809
 20
26.1933334791
 30
0.0
 40
0.302484
  0
CIRCLE
  5
186
100
AcDbEntity
  8
MIRCO_250
  6
CONTINUOUS
 62
         3
100
AcDbCircle
 10
10.7672673809
 20
26.1933334791
 30
0.0
 40
0.369413
  0
CIRCLE
  5
187
100
AcDbEntity
  8
MIRCO_500
  6
CONTINUOUS
 62
         5
100
AcDbCircle
 10
10.7236294914
 20
24.7687272463
 30
0.0
 40
0.302484
  0
CIRCLE
  5
188
100
AcDbEntity
  8
MIRCO_250
  6
CONTINUOUS
 62
         3
100
AcDbCircle
 10
10.7236294914
 20
24.7687272463
 30
0.0
 40
0.369413
  0
CIRCLE
  5
189
100
AcDbEntity
  8
MIRCO_500
  6
CONTINUOUS
 62
         5
100
AcDbCircle
 10
12.0386509161
 20
25.96311195
 30
0.0
 40
0.302484
  0
CIRCLE
  5
18A
100
AcDbEntity
  8
MIRCO_250
  6
CONTINUOUS
 62
         3
100
AcDbCircle
 10
12.0386509161
 20
25.96311195
 30
0.0
 40
0.369413
  0
CIRCLE
  5
18B
100
AcDbEntity
  8
MIRCO_500
  6
CONTINUOUS
 62
         5
100
AcDbCircle
 10
11.9191619383
 20
24.5081274064
 30
0.0
 40
0.302484
  0
CIRCLE
  5
18C
100
AcDbEntity
  8
MIRCO_250
  6
CONTINUOUS
 62
         3
100
AcDbCircle
 10
11.9191619383
 20
24.5081274064
 30
0.0
 40
0.369413
  0
CIRCLE
  5
18D
100
AcDbEntity
  8
DF500
  6
CONTINUOUS
 62
         5
100
AcDbCircle
 10
9.3317407118
 20
30.3213861123
 30
0.0
 40
0.0575
  0
CIRCLE
  5
18E
100
AcDbEntity
  8
DF500
  6
CONTINUOUS
 62
         5
100
AcDbCircle
 10
6.6595052704
 20
30.1555555538
 30
0.0
 40
0.25
  0
CIRCLE
  5
18F
100
AcDbEntity
  8
DF500
  6
CONTINUOUS
 62
         5
100
AcDbCircle
 10
7.03846434
 20
29.1587899306
 30
0.0
 40
0.0445
  0
ARC
  5
190
100
AcDbEntity
  8
DF500
  6
CONTINUOUS
 62
         5
100
AcDbCircle
 10
9.8629907225
 20
30.3213858069
 30
0.0
 40
0.25
100
AcDbArc
 50
89.9999981054
 51
-90.0000018946
  0
LINE
  5
191
100
AcDbEntity
  8
MIRCO_500
  6
CONTINUOUS
 62
         5
100
AcDbLine
 10
5.5988682666
 20
28.2822445251
 30
0.0
 11
5.9619757675
 21
27.5791057104
 31
0.0
  0
ARC
  5
192
100
AcDbEntity
  8
MIRCO_500
  6
CONTINUOUS
 62
         5
100
AcDbCircle
 10
14.4825843504
 20
26.769356579
 30
0.0
 40
0.0590000546
100
AcDbArc
 50
-169.6479944819
 51
-26.5170714414
  0
LINE
  5
193
100
AcDbEntity
  8
MIRCO_500
  6
CONTINUOUS
 62
         5
100
AcDbLine
 10
14.5353776804
 20
26.7430151526
 30
0.0
 11
14.8884141788
 21
27.4509102584
 31
0.0
  0
LINE
  5
194
100
AcDbEntity
  8
MIRCO_250
  6
CONTINUOUS
 62
         3
100
AcDbLine
 10
14.3587350696
 20
26.779032778
 30
0.0
 11
14.2214888588
 21
27.5261206621
 31
0.0
  0
ARC
  5
195
100
AcDbEntity
  8
MIRCO_250
  6
CONTINUOUS
 62
         3
100
AcDbCircle
 10
14.3396007764
 20
27.5476914684
 30
0.0
 40
0.120065818
100
AcDbArc
 50
153.4830943776
 51
-169.6481603009
  0
ARC
  5
196
100
AcDbEntity
  8
MIRCO_500
  6
CONTINUOUS
 62
         5
100
AcDbCircle
 10
14.3396109819
 20
27.5476905241
 30
0.0
 40
0.059013055
100
AcDbArc
 50
153.4866799484
 51
-169.6517458718
  0
LINE
  5
197
100
AcDbEntity
  8
MIRCO_500
  6
CONTINUOUS
 62
         5
100
AcDbLine
 10
14.4245446786
 20
26.7587545535
 30
0.0
 11
14.2815578272
 21
27.5370899634
 31
0.0
  0
ARC
  5
198
100
AcDbEntity
  8
MIRCO_250
  6
CONTINUOUS
 62
         3
100
AcDbCircle
 10
17.0921313174
 20
25.4924518092
 30
0.0
 40
0.1307084461
100
AcDbArc
 50
-16.8276684661
 51
126.2570007335
  0
LINE
  5
199
100
AcDbEntity
  8
MIRCO_250
  6
CONTINUOUS
 62
         3
100
AcDbLine
 10
16.1394682089
 20
24.359296375
 30
0.0
 11
16.3584929888
 21
25.0866236566
 31
0.0
  0
ARC
  5
19A
100
AcDbEntity
  8
MIRCO_250
  6
CONTINUOUS
 62
         3
100
AcDbCircle
 10
16.264625036
 20
24.3216070885
 30
0.0
 40
0.1307085066
100
AcDbArc
 50
163.2410354446
 51
-53.6744534041
  0
LINE
  5
19B
100
AcDbEntity
  8
MIRCO_250
  6
CONTINUOUS
 62
         3
100
AcDbLine
 10
16.9974807158
 20
24.7279936636
 30
0.0
 11
17.2172428032
 21
25.4546124906
 31
0.0
  0
LINE
  5
19C
100
AcDbEntity
  8
MIRCO_250
  6
CONTINUOUS
 62
         3
100
AcDbLine
 10
16.4023151221
 20
25.1486279304
 30
0.0
 11
17.0148292732
 21
25.5978514858
 31
0.0
  0
ARC
  5
19D
100
AcDbEntity
  8
MIRCO_250
  6
CONTINUOUS
 62
         3
100
AcDbCircle
 10
16.8825648608
 20
24.7627180696
 30
0.0
 40
0.1200473331
100
AcDbArc
 50
-53.6884503531
 51
-16.8138235531
  0
ARC
  5
19E
100
AcDbEntity
  8
MIRCO_250
  6
CONTINUOUS
 62
         3
100
AcDbCircle
 10
16.4734226867
 20
25.0518833443
 30
0.0
 40
0.120065818
100
AcDbArc
 50
126.3144903862
 51
163.1832357076
  0
LINE
  5
19F
100
AcDbEntity
  8
MIRCO_250
  6
CONTINUOUS
 62
         3
100
AcDbLine
 10
16.3420531558
 20
24.2162999189
 30
0.0
 11
16.9536533882
 21
24.6659820401
 31
0.0
  0
ARC
  5
1A0
100
AcDbEntity
  8
MIRCO_500
  6
CONTINUOUS
 62
         5
100
AcDbCircle
 10
17.1115612225
 20
25.5199092001
 30
0.0
 40
0.0589962659
100
AcDbArc
 50
-16.8276404146
 51
126.3253665084
  0
ARC
  5
1A1
100
AcDbEntity
  8
MIRCO_500
  6
CONTINUOUS
 62
         5
100
AcDbCircle
 10
16.8825567931
 20
24.7627243838
 30
0.0
 40
0.0589945657
100
AcDbArc
 50
-53.6879083227
 51
-16.8143655835
  0
LINE
  5
1A2
100
AcDbEntity
  8
MIRCO_500
  6
CONTINUOUS
 62
         5
100
AcDbLine
 10
16.1887575773
 20
24.3112061558
 30
0.0
 11
16.4169430486
 21
25.0689545578
 31
0.0
  0
ARC
  5
1A3
100
AcDbEntity
  8
MIRCO_500
  6
CONTINUOUS
 62
         5
100
AcDbCircle
 10
16.4734313351
 20
25.0518778443
 30
0.0
 40
0.059013055
100
AcDbArc
 50
126.318075957
 51
163.1796501368
  0
ARC
  5
1A4
100
AcDbEntity
  8
MIRCO_500
  6
CONTINUOUS
 62
         5
100
AcDbCircle
 10
16.2452345374
 20
24.294136902
 30
0.0
 40
0.0590000546
100
AcDbArc
 50
163.1834015267
 51
-53.6856754329
  0
LINE
  5
1A5
100
AcDbEntity
  8
MIRCO_500
  6
CONTINUOUS
 62
         5
100
AcDbLine
 10
16.2801752341
 20
24.2465958234
 30
0.0
 11
16.9174923867
 21
24.7151863665
 31
0.0
  0
LINE
  5
1A6
100
AcDbEntity
  8
MIRCO_500
  6
CONTINUOUS
 62
         5
100
AcDbLine
 10
16.438479826
 20
25.09942711
 30
0.0
 11
17.0766136087
 21
25.5674404917
 31
0.0
  0
LINE
  5
1A7
100
AcDbEntity
  8
MIRCO_500
  6
CONTINUOUS
 62
         5
100
AcDbLine
 10
16.9390291641
 20
24.7456589188
 30
0.0
 11
17.1680312655
 21
25.5028301593
 31
0.0
  0
ARC
  5
1A8
100
AcDbEntity
  8
MIRCO_250
  6
CONTINUOUS
 62
         3
100
AcDbCircle
 10
18.0632051963
 20
22.6460751034
 30
0.0
 40
0.1307084461
100
AcDbArc
 50
-31.6310487174
 51
111.4536204822
  0
LINE
  5
1A9
100
AcDbEntity
  8
MIRCO_250
  6
CONTINUOUS
 62
         3
100
AcDbLine
 10
17.3084371992
 20
22.4899132851
 30
0.0
 11
18.0153988492
 21
22.7677272759
 31
0.0
  0
ARC
  5
1AA
100
AcDbEntity
  8
MIRCO_250
  6
CONTINUOUS
 62
         3
100
AcDbCircle
 10
17.3524660718
 20
22.3782116331
 30
0.0
 40
0.120065818
100
AcDbArc
 50
111.5111101348
 51
148.3798554563
  0
LINE
  5
1AB
100
AcDbEntity
  8
DF500
  6
CONTINUOUS
 62
         5
100
AcDbLine
 10
11.0266223842
 20
34.8509783929
 30
0.0
 11
10.7181259847
 21
34.8290540901
 31
0.0
  0
LINE
  5
1AC
100
AcDbEntity
  8
DF500
  6
CONTINUOUS
 62
         5
100
AcDbLine
 10
6.7723462533
 20
38.8122558714
 30
0.0
 11
6.7723462533
 21
43.75
 31
0.0
  0
LINE
  5
1AD
100
AcDbEntity
  8
DF500
  6
CONTINUOUS
 62
         5
100
AcDbLine
 10
9.258900055
 20
34.8509783918
 30
0.0
 11
9.5673964396
 21
34.8290540901
 31
0.0
  0
LINE
  5
1AE
100
AcDbEntity
  8
DF500
  6
CONTINUOUS
 62
         5
100
AcDbLine
 10
9.2589000546
 20
35.1003494398
 30
0.0
 11
9.5673964396
 21
35.1222737416
 31
0.0
  0
ARC
  5
1AF
100
AcDbEntity
  8
DF500
  6
CONTINUOUS
 62
         5
100
AcDbCircle
 10
9.267761238
 20
34.9756639158
 30
0.0
 40
0.1250000018
100
AcDbArc
 50
94.06507682
 51
-94.0650765913
  0
ARC
  5
1B0
100
AcDbEntity
  8
DF500
  6
CONTINUOUS
 62
         5
100
AcDbCircle
 10
10.1427612122
 20
34.9756639158
 30
0.0
 40
0.59375
100
AcDbArc
 50
14.2954353275
 51
165.7045646725
  0
ARC
  5
1B1
100
AcDbEntity
  8
DF500
  6
CONTINUOUS
 62
         5
100
AcDbCircle
 10
10.1427612122
 20
34.9756639158
 30
0.0
 40
0.59375
100
AcDbArc
 50
-165.7045646725
 51
-14.2954353275
  0
LINE
  5
1B2
100
AcDbEntity
  8
DF500
  6
CONTINUOUS
 62
         5
100
AcDbLine
 10
8.2451624359
 20
36.5380814559
 30
0.0
 11
11.8639149736
 21
36.5380814559
 31
0.0
  0
CIRCLE
  5
1B3
100
AcDbEntity
  8
DF500
  6
CONTINUOUS
 62
         5
100
AcDbCircle
 10
19.9999451074
 20
30.5
 30
0.0
 40
0.0445
  0
CIRCLE
  5
1B4
100
AcDbEntity
  8
DF500
  6
CONTINUOUS
 62
         5
100
AcDbCircle
 10
13.5718206585
 20
30.154166663
 30
0.0
 40
0.25
  0
CIRCLE
  5
1B5
100
AcDbEntity
  8
DF500
  6
CONTINUOUS
 62
         5
100
AcDbCircle
 10
13.2712028434
 20
29.1583724362
 30
0.0
 40
0.0445
  0
CIRCLE
  5
1B6
100
AcDbEntity
  8
DF500
  6
CONTINUOUS
 62
         5
100
AcDbCircle
 10
16.3842227523
 20
31.8211966934
 30
0.0
 40
0.0625
  0
ARC
  5
1B7
100
AcDbEntity
  8
MIRCO_250
  6
CONTINUOUS
 62
         3
100
AcDbCircle
 10
14.6888770672
 20
28.2221594176
 30
0.0
 40
0.1307084461
100
AcDbArc
 50
10.3409355254
 51
153.425604725
  0
ARC
  5
1B8
100
AcDbEntity
  8
MIRCO_500
  6
CONTINUOUS
 62
         5
100
AcDbCircle
 10
14.6936258742
 20
28.2554592429
 30
0.0
 40
0.0589962659
100
AcDbArc
 50
10.3409635769
 51
153.4939704998
  0
LINE
  5
1B9
100
AcDbEntity
  8
MIRCO_250
  6
CONTINUOUS
 62
         3
100
AcDbLine
 10
14.2321641502
 20
27.6012934462
 30
0.0
 11
14.5719774135
 21
28.2806330772
 31
0.0
  0
LINE
  5
1BA
100
AcDbEntity
  8
MIRCO_500
  6
CONTINUOUS
 62
         5
100
AcDbLine
 10
14.2868042942
 20
27.5740342973
 30
0.0
 11
14.6408308591
 21
28.2817888037
 31
0.0
  0
CIRCLE
  5
1BB
100
AcDbEntity
  8
MIRCO_250
  6
CONTINUOUS
 62
         3
100
AcDbCircle
 10
15.08956
 20
31.0837832283
 30
0.0
 40
0.587598
  0
CIRCLE
  5
1BC
100
AcDbEntity
  8
MIRCO_500
  6
CONTINUOUS
 62
         5
100
AcDbCircle
 10
15.08956
 20
31.0837832283
 30
0.0
 40
0.5325
  0
CIRCLE
  5
1BD
100
AcDbEntity
  8
DF500
  6
CONTINUOUS
 62
         5
100
AcDbCircle
 10
17.7232888976
 20
23.9819522047
 30
0.0
 40
0.0575
  0
CIRCLE
  5
1BE
100
AcDbEntity
  8
DF500
  6
CONTINUOUS
 62
         5
100
AcDbCircle
 10
19.9999451074
 20
24.5
 30
0.0
 40
0.0445
  0
CIRCLE
  5
1BF
100
AcDbEntity
  8
DF500
  6
CONTINUOUS
 62
         5
100
AcDbCircle
 10
16.111220351
 20
26.6852994854
 30
0.0
 40
0.0445
  0
ARC
  5
1C0
100
AcDbEntity
  8
MIRCO_250
  6
CONTINUOUS
 62
         3
100
AcDbCircle
 10
14.4872922562
 20
26.8026497947
 30
0.0
 40
0.1307085066
100
AcDbArc
 50
-169.590360564
 51
-26.5058494126
  0
ARC
  5
1C1
100
AcDbEntity
  8
MIRCO_250
  6
CONTINUOUS
 62
         3
100
AcDbCircle
 10
14.8356368474
 20
27.4772493577
 30
0.0
 40
0.1200473331
100
AcDbArc
 50
-26.5198463616
 51
10.3547804383
  0
LINE
  5
1C2
100
AcDbEntity
  8
MIRCO_250
  6
CONTINUOUS
 62
         3
100
AcDbLine
 10
14.6042618354
 20
26.744316003
 30
0.0
 11
14.9430526297
 21
27.4236462997
 31
0.0
  0
ARC
  5
1C3
100
AcDbEntity
  8
MIRCO_500
  6
CONTINUOUS
 62
         5
100
AcDbCircle
 10
14.8356267867
 20
27.4772512914
 30
0.0
 40
0.0589945657
100
AcDbArc
 50
-26.5193043313
 51
10.3542384079
  0
CIRCLE
  5
1C4
100
AcDbEntity
  8
DF500
  6
CONTINUOUS
 62
         5
100
AcDbCircle
 10
0.25
 20
36.5
 30
0.0
 40
0.0445
  0
LINE
  5
1C5
100
AcDbEntity
  8
DF500
  6
CONTINUOUS
 62
         5
100
AcDbLine
 10
2.2499451074
 20
38.5
 30
0.0
 11
-0.0000548926
 21
38.5
 31
0.0
  0
CIRCLE
  5
1C6
100
AcDbEntity
  8
DF500
  6
CONTINUOUS
 62
         5
100
AcDbCircle
 10
0.25
 20
30.5
 30
0.0
 40
0.0445
  0
CIRCLE
  5
1C7
100
AcDbEntity
  8
DF500
  6
CONTINUOUS
 62
         5
100
AcDbCircle
 10
0.25
 20
24.5
 30
0.0
 40
0.0445
  0
CIRCLE
  5
1C8
100
AcDbEntity
  8
DF500
  6
CONTINUOUS
 62
         5
100
AcDbCircle
 10
0.25
 20
18.5
 30
0.0
 40
0.0445
  0
CIRCLE
  5
1C9
100
AcDbEntity
  8
DF500
  6
CONTINUOUS
 62
         5
100
AcDbCircle
 10
0.25
 20
12.5
 30
0.0
 40
0.0445
  0
CIRCLE
  5
1CA
100
AcDbEntity
  8
DF500
  6
CONTINUOUS
 62
         5
100
AcDbCircle
 10
0.25
 20
6.5
 30
0.0
 40
0.0445
  0
LINE
  5
1CB
100
AcDbEntity
  8
DF500
  6
CONTINUOUS
 62
         5
100
AcDbLine
 10
1.25
 20
5.0
 30
0.0
 11
-0.0
 21
5.0
 31
0.0
  0
LINE
  5
1CC
100
AcDbEntity
  8
DF500
  6
CONTINUOUS
 62
         5
100
AcDbLine
 10
-0.0000548926
 20
38.5
 30
0.0
 11
-0.0
 21
5.0
 31
0.0
  0
LINE
  5
1CD
100
AcDbEntity
  8
DF500
  6
CONTINUOUS
 62
         5
100
AcDbLine
 10
18.035161194
 20
5.25
 30
0.0
 11
18.035161194
 21
0.0
 31
0.0
  0
LINE
  5
1CE
100
AcDbEntity
  8
DF500
  6
CONTINUOUS
 62
         5
100
AcDbLine
 10
1.5
 20
0.0
 30
0.0
 11
1.5
 21
4.75
 31
0.0
  0
LINE
  5
1CF
100
AcDbEntity
  8
DF500
  6
CONTINUOUS
 62
         5
100
AcDbLine
 10
1.5
 20
0.0
 30
0.0
 11
18.035161194
 21
0.0
 31
0.0
  0
LINE
  5
1D0
100
AcDbEntity
  8
DF500
  6
CONTINUOUS
 62
         5
100
AcDbLine
 10
17.7499451074
 20
43.75
 30
0.0
 11
13.4775439614
 21
43.75
 31
0.0
  0
CIRCLE
  5
1D1
100
AcDbEntity
  8
DF500
  6
CONTINUOUS
 62
         5
100
AcDbCircle
 10
16.0
 20
43.0
 30
0.0
 40
0.0445
  0
CIRCLE
  5
1D2
100
AcDbEntity
  8
DF500
  6
CONTINUOUS
 62
         5
100
AcDbCircle
 10
17.0934362746
 20
42.1083275912
 30
0.0
 40
0.0625
  0
LINE
  5
1D3
100
AcDbEntity
  8
DF500
  6
CONTINUOUS
 62
         5
100
AcDbLine
 10
13.4775439614
 20
38.8145194533
 30
0.0
 11
13.4775439614
 21
43.75
 31
0.0
  0
CIRCLE
  5
1D4
100
AcDbEntity
  8
DF500
  6
CONTINUOUS
 62
         5
100
AcDbCircle
 10
16.0
 20
34.0
 30
0.0
 40
0.0445
  0
CIRCLE
  5
1D5
100
AcDbEntity
  8
DF500
  6
CONTINUOUS
 62
         5
100
AcDbCircle
 10
19.1208759763
 20
38.0752125845
 30
0.0
 40
0.0625
  0
CIRCLE
  5
1D6
100
AcDbEntity
  8
DF500
  6
CONTINUOUS
 62
         5
100
AcDbCircle
 10
19.9999451074
 20
36.5
 30
0.0
 40
0.0445
  0
LINE
  5
1D7
100
AcDbEntity
  8
DF500
  6
CONTINUOUS
 62
         5
100
AcDbLine
 10
17.9999451074
 20
38.5
 30
0.0
 11
20.2499451074
 21
38.5
 31
0.0
  0
CIRCLE
  5
1D8
100
AcDbEntity
  8
DF500
  6
CONTINUOUS
 62
         5
100
AcDbCircle
 10
16.0
 20
38.5
 30
0.0
 40
0.0445
  0
ARC
  5
1D9
100
AcDbEntity
  8
DF500
  6
CONTINUOUS
 62
         5
100
AcDbCircle
 10
17.9999451074
 20
38.75
 30
0.0
 40
0.25
100
AcDbArc
 50
180.0
 51
-90.0
  0
LINE
  5
1DA
100
AcDbEntity
  8
DF500
  6
CONTINUOUS
 62
         5
100
AcDbLine
 10
17.7499451074
 20
43.75
 30
0.0
 11
17.7499451074
 21
38.75
 31
0.0
  0
ARC
  5
1DB
100
AcDbEntity
  8
DF500
  6
CONTINUOUS
 62
         5
100
AcDbCircle
 10
11.0177611829
 20
34.9756639158
 30
0.0
 40
0.1250000021
100
AcDbArc
 50
-85.9349149576
 51
85.93492318
  0
LINE
  5
1DC
100
AcDbEntity
  8
DF500
  6
CONTINUOUS
 62
         5
100
AcDbLine
 10
10.7181259847
 20
35.1222737416
 30
0.0
 11
11.0266223663
 21
35.10034944
 31
0.0
  0
ENDSEC
  0
SECTION
  2
OBJECTS
  0
DICTIONARY
  5
19
100
AcDbDictionary
  3
ACAD_GROUP
350
1A
  3
ACAD_MLINESTYLE
350
1B
  0
DICTIONARY
  5
1A
102
{ACAD_REACTORS
330
19
102
}
100
AcDbDictionary
  0
DICTIONARY
  5
1B
102
{ACAD_REACTORS
330
19
102
}
100
AcDbDictionary
  3
STANDARD
350
1C
  0
MLINESTYLE
  5
1C
102
{ACAD_REACTORS
330
1B
102
}
100
AcDbMlineStyle
  2
STANDARD
 70
         0
  3

 62
         0
 51
90.0
 52
90.0
 71
         2
 49
0.5
 62
       256
  6
BYLAYER
 49
-0.5
 62
       256
  6
BYLAYER
  0
ENDSEC
  0
EOF
