<?xml version="1.0" encoding="UTF-8" standalone="no"?>
<svg
   xmlns:dc="http://purl.org/dc/elements/1.1/"
   xmlns:cc="http://creativecommons.org/ns#"
   xmlns:rdf="http://www.w3.org/1999/02/22-rdf-syntax-ns#"
   xmlns:svg="http://www.w3.org/2000/svg"
   xmlns="http://www.w3.org/2000/svg"
   xmlns:sodipodi="http://sodipodi.sourceforge.net/DTD/sodipodi-0.dtd"
   xmlns:inkscape="http://www.inkscape.org/namespaces/inkscape"
   width="1823.5143"
   height="3781.0142"
   id="svg2"
   version="1.1"
   inkscape:version="0.91 r13725"
   sodipodi:docname="181109_ModPlay_Sec_C-M_3.svg">
  <metadata
     id="metadata288">
    <rdf:RDF>
      <cc:Work
         rdf:about="">
        <dc:format>image/svg+xml</dc:format>
        <dc:type
           rdf:resource="http://purl.org/dc/dcmitype/StillImage" />
        <dc:title></dc:title>
      </cc:Work>
    </rdf:RDF>
  </metadata>
  <sodipodi:namedview
     pagecolor="#ffffff"
     bordercolor="#666666"
     borderopacity="1"
     objecttolerance="10"
     gridtolerance="10"
     guidetolerance="10"
     inkscape:pageopacity="0"
     inkscape:pageshadow="2"
     inkscape:window-width="1339"
     inkscape:window-height="784"
     id="namedview286"
     showgrid="false"
     fit-margin-top="0"
     fit-margin-left="0"
     fit-margin-right="0"
     fit-margin-bottom="0"
     inkscape:zoom="0.15392695"
     inkscape:cx="911.75712"
     inkscape:cy="1890.5071"
     inkscape:window-x="18"
     inkscape:window-y="7"
     inkscape:window-maximized="0"
     inkscape:current-layer="g84" />
  <desc
     id="desc4">/Users/briancox/Documents/Win_Para_Share/VEL270/2018/181109_ModPlay_Sec_C-M_3.dxf - scale = 25.400000, origin = (0.000000, 0.000000), auto = False</desc>
  <defs
     id="defs6">
    <marker
       id="DistanceX"
       orient="auto"
       refX="0"
       refY="0"
       style="overflow:visible">
      <path
         d="M 3,-3 -3,3 M 0,-5 0,5"
         style="stroke:#000000;stroke-width:0.5"
         id="path9"
         inkscape:connector-curvature="0" />
    </marker>
    <pattern
       height="8"
       id="Hatch"
       patternUnits="userSpaceOnUse"
       width="8"
       x="0"
       y="0">
      <path
         d="M8 4 l-4,4"
         linecap="square"
         stroke="#000000"
         stroke-width="0.25"
         id="path12" />
      <path
         d="M6 2 l-4,4"
         linecap="square"
         stroke="#000000"
         stroke-width="0.25"
         id="path14" />
      <path
         d="M4 0 l-4,4"
         linecap="square"
         stroke="#000000"
         stroke-width="0.25"
         id="path16" />
    </pattern>
    <symbol
       id="*MODEL_SPACE" />
    <symbol
       id="*PAPER_SPACE" />
  </defs>
  <g
     inkscape:groupmode="layer"
     inkscape:label="Z0_BOTCOMP"
     id="g84"
     transform="translate(-50039.488,43768.145)">
    <path
       d="m 50823.798,-42135.202 a 7.515,7.515 0 1 0 -15.03,0 7.515,7.515 0 1 0 15.03,0 z"
       style="fill:none;stroke:#00ffff;stroke-linecap:round"
       id="path86"
       inkscape:connector-curvature="0" />
    <path
       d="m 50786.726,-42151.495 a 33.75,33.75 0 0 0 15.842,47.13"
       style="fill:none;stroke:#00ffff;stroke-linecap:round"
       id="path88"
       inkscape:connector-curvature="0" />
    <path
       d="m 50816.952,-42101.459 a 33.75,33.75 0 0 0 32.895,-37.285"
       style="fill:none;stroke:#00ffff;stroke-linecap:round"
       id="path90"
       inkscape:connector-curvature="0" />
    <path
       d="m 50845.171,-42152.653 a 33.75,33.75 0 0 0 -48.737,-9.846"
       style="fill:none;stroke:#00ffff;stroke-linecap:round"
       id="path92"
       inkscape:connector-curvature="0" />
    <path
       d="m 50827.195,-42135.202 a 10.9125,10.9125 0 1 0 -21.825,0 10.9125,10.9125 0 1 0 21.825,0 z"
       style="fill:none;stroke:#00ffff;stroke-linecap:round"
       id="path94"
       inkscape:connector-curvature="0" />
    <path
       d="m 50786.726,-42151.495 7.534,1.329"
       style="fill:none;stroke:#00ffff;stroke-linecap:round"
       id="path96"
       inkscape:connector-curvature="0" />
    <path
       d="m 50794.26,-42150.166 2.174,-12.333"
       style="fill:none;stroke:#00ffff;stroke-linecap:round"
       id="path98"
       inkscape:connector-curvature="0" />
    <path
       d="m 50840.254,-42146.793 9.593,8.049"
       style="fill:none;stroke:#00ffff;stroke-linecap:round"
       id="path100"
       inkscape:connector-curvature="0" />
    <path
       d="m 50845.171,-42152.653 -4.917,5.86"
       style="fill:none;stroke:#00ffff;stroke-linecap:round"
       id="path102"
       inkscape:connector-curvature="0" />
    <path
       d="m 50814.335,-42108.647 -11.767,4.282"
       style="fill:none;stroke:#00ffff;stroke-linecap:round"
       id="path104"
       inkscape:connector-curvature="0" />
    <path
       d="m 50816.952,-42101.459 -2.617,-7.188"
       style="fill:none;stroke:#00ffff;stroke-linecap:round"
       id="path106"
       inkscape:connector-curvature="0" />
    <path
       d="m 51019.123,-42215.619 a 25.65,25.65 0 0 0 -24.726,18.825"
       style="fill:none;stroke:#00ffff;stroke-linecap:round"
       id="path108"
       inkscape:connector-curvature="0" />
    <path
       d="m 50996.909,-42177.144 a 25.65,25.65 0 0 0 28.665,12"
       style="fill:none;stroke:#00ffff;stroke-linecap:round"
       id="path110"
       inkscape:connector-curvature="0" />
    <path
       d="m 51041.336,-42177.144 a 25.65,25.65 0 0 0 -3.94,-30.825"
       style="fill:none;stroke:#00ffff;stroke-linecap:round"
       id="path112"
       inkscape:connector-curvature="0" />
    <path
       d="m 50996.909,-42177.144 6.625,-3.825"
       style="fill:none;stroke:#00ffff;stroke-linecap:round"
       id="path114"
       inkscape:connector-curvature="0" />
    <path
       d="m 51003.534,-42180.969 -9.137,-15.825"
       style="fill:none;stroke:#00ffff;stroke-linecap:round"
       id="path116"
       inkscape:connector-curvature="0" />
    <path
       d="m 51041.336,-42177.144 -6.625,-3.825"
       style="fill:none;stroke:#00ffff;stroke-linecap:round"
       id="path118"
       inkscape:connector-curvature="0" />
    <path
       d="m 51034.711,-42180.969 -9.137,15.825"
       style="fill:none;stroke:#00ffff;stroke-linecap:round"
       id="path120"
       inkscape:connector-curvature="0" />
    <path
       d="m 51019.123,-42207.969 18.273,0"
       style="fill:none;stroke:#00ffff;stroke-linecap:round"
       id="path122"
       inkscape:connector-curvature="0" />
    <path
       d="m 51019.123,-42215.619 0,7.65"
       style="fill:none;stroke:#00ffff;stroke-linecap:round"
       id="path124"
       inkscape:connector-curvature="0" />
    <path
       d="m 51024.433,-42189.969 a 5.31,5.31 0 1 0 -10.62,0 5.31,5.31 0 1 0 10.62,0 z"
       style="fill:none;stroke:#00ffff;stroke-linecap:round"
       id="path126"
       inkscape:connector-curvature="0" />
    <path
       d="m 51026.773,-42189.969 a 7.65,7.65 0 1 0 -15.3,0 7.65,7.65 0 1 0 15.3,0 z"
       style="fill:none;stroke:#00ffff;stroke-linecap:round"
       id="path128"
       inkscape:connector-curvature="0" />
    <path
       d="m 50849.618,-42215.619 a 25.65,25.65 0 0 0 -24.726,18.825"
       style="fill:none;stroke:#00ffff;stroke-linecap:round"
       id="path130"
       inkscape:connector-curvature="0" />
    <path
       d="m 50827.404,-42177.144 a 25.65,25.65 0 0 0 28.665,12"
       style="fill:none;stroke:#00ffff;stroke-linecap:round"
       id="path132"
       inkscape:connector-curvature="0" />
    <path
       d="m 50871.831,-42177.144 a 25.65,25.65 0 0 0 -3.94,-30.825"
       style="fill:none;stroke:#00ffff;stroke-linecap:round"
       id="path134"
       inkscape:connector-curvature="0" />
    <path
       d="m 50827.404,-42177.144 6.625,-3.825"
       style="fill:none;stroke:#00ffff;stroke-linecap:round"
       id="path136"
       inkscape:connector-curvature="0" />
    <path
       d="m 50834.029,-42180.969 -9.137,-15.825"
       style="fill:none;stroke:#00ffff;stroke-linecap:round"
       id="path138"
       inkscape:connector-curvature="0" />
    <path
       d="m 50871.831,-42177.144 -6.625,-3.825"
       style="fill:none;stroke:#00ffff;stroke-linecap:round"
       id="path140"
       inkscape:connector-curvature="0" />
    <path
       d="m 50865.206,-42180.969 -9.137,15.825"
       style="fill:none;stroke:#00ffff;stroke-linecap:round"
       id="path142"
       inkscape:connector-curvature="0" />
    <path
       d="m 50849.618,-42207.969 18.273,0"
       style="fill:none;stroke:#00ffff;stroke-linecap:round"
       id="path144"
       inkscape:connector-curvature="0" />
    <path
       d="m 50849.618,-42215.619 0,7.65"
       style="fill:none;stroke:#00ffff;stroke-linecap:round"
       id="path146"
       inkscape:connector-curvature="0" />
    <path
       d="m 50854.928,-42189.969 a 5.31,5.31 0 1 0 -10.62,0 5.31,5.31 0 1 0 10.62,0 z"
       style="fill:none;stroke:#00ffff;stroke-linecap:round"
       id="path148"
       inkscape:connector-curvature="0" />
    <path
       d="m 50857.268,-42189.969 a 7.65,7.65 0 1 0 -15.3,0 7.65,7.65 0 1 0 15.3,0 z"
       style="fill:none;stroke:#00ffff;stroke-linecap:round"
       id="path150"
       inkscape:connector-curvature="0" />
    <path
       d="m 51059.962,-42135.202 a 7.515,7.515 0 1 0 -15.03,0 7.515,7.515 0 1 0 15.03,0 z"
       style="fill:none;stroke:#00ffff;stroke-linecap:round"
       id="path152"
       inkscape:connector-curvature="0" />
    <path
       d="m 51022.89,-42151.495 a 33.75,33.75 0 0 0 15.842,47.13"
       style="fill:none;stroke:#00ffff;stroke-linecap:round"
       id="path154"
       inkscape:connector-curvature="0" />
    <path
       d="m 51053.116,-42101.459 a 33.75,33.75 0 0 0 32.895,-37.285"
       style="fill:none;stroke:#00ffff;stroke-linecap:round"
       id="path156"
       inkscape:connector-curvature="0" />
    <path
       d="m 51081.335,-42152.653 a 33.75,33.75 0 0 0 -48.737,-9.846"
       style="fill:none;stroke:#00ffff;stroke-linecap:round"
       id="path158"
       inkscape:connector-curvature="0" />
    <path
       d="m 51063.36,-42135.202 a 10.9125,10.9125 0 1 0 -21.825,0 10.9125,10.9125 0 1 0 21.825,0 z"
       style="fill:none;stroke:#00ffff;stroke-linecap:round"
       id="path160"
       inkscape:connector-curvature="0" />
    <path
       d="m 51022.89,-42151.495 7.534,1.329"
       style="fill:none;stroke:#00ffff;stroke-linecap:round"
       id="path162"
       inkscape:connector-curvature="0" />
    <path
       d="m 51030.424,-42150.166 2.174,-12.333"
       style="fill:none;stroke:#00ffff;stroke-linecap:round"
       id="path164"
       inkscape:connector-curvature="0" />
    <path
       d="m 51076.418,-42146.793 9.593,8.049"
       style="fill:none;stroke:#00ffff;stroke-linecap:round"
       id="path166"
       inkscape:connector-curvature="0" />
    <path
       d="m 51081.335,-42152.653 -4.917,5.86"
       style="fill:none;stroke:#00ffff;stroke-linecap:round"
       id="path168"
       inkscape:connector-curvature="0" />
    <path
       d="m 51050.499,-42108.648 -11.767,4.283"
       style="fill:none;stroke:#00ffff;stroke-linecap:round"
       id="path170"
       inkscape:connector-curvature="0" />
    <path
       d="m 51053.116,-42101.459 -2.617,-7.189"
       style="fill:none;stroke:#00ffff;stroke-linecap:round"
       id="path172"
       inkscape:connector-curvature="0" />
  </g>
  <g
     inkscape:groupmode="layer"
     inkscape:label="Z0_TOPCOMP"
     id="g174"
     transform="translate(-50039.488,43768.145)">
    <path
       d="m 50881.118,-42189.969 a 31.5,31.5 0 1 0 -63,0 31.5,31.5 0 1 0 63,0 z"
       style="fill:none;stroke:#ff00ff;stroke-linecap:round"
       id="path176"
       inkscape:connector-curvature="0" />
    <path
       d="m 50916.37,-42149.469 0,-40.5"
       style="fill:none;stroke:#ff00ff;stroke-linecap:round"
       id="path178"
       inkscape:connector-curvature="0" />
    <path
       d="m 50952.37,-42189.969 0,40.5"
       style="fill:none;stroke:#ff00ff;stroke-linecap:round"
       id="path180"
       inkscape:connector-curvature="0" />
    <path
       d="m 50889.37,-42158.469 0,9"
       style="fill:none;stroke:#ff00ff;stroke-linecap:round"
       id="path182"
       inkscape:connector-curvature="0" />
    <path
       d="m 50979.37,-42158.469 -90,0"
       style="fill:none;stroke:#ff00ff;stroke-linecap:round"
       id="path184"
       inkscape:connector-curvature="0" />
    <path
       d="m 50889.37,-42149.469 90,0"
       style="fill:none;stroke:#ff00ff;stroke-linecap:round"
       id="path186"
       inkscape:connector-curvature="0" />
    <path
       d="m 50883.745,-42163.531 0,0"
       style="fill:none;stroke:#ff00ff;stroke-linecap:round"
       id="path188"
       inkscape:connector-curvature="0" />
    <path
       d="m 50984.995,-42163.531 0,0"
       style="fill:none;stroke:#ff00ff;stroke-linecap:round"
       id="path190"
       inkscape:connector-curvature="0" />
    <path
       d="m 50979.37,-42149.469 0,-9"
       style="fill:none;stroke:#ff00ff;stroke-linecap:round"
       id="path192"
       inkscape:connector-curvature="0" />
    <path
       d="m 50952.37,-42149.469 -36,0"
       style="fill:none;stroke:#ff00ff;stroke-linecap:round"
       id="path194"
       inkscape:connector-curvature="0" />
    <path
       d="m 50928.745,-42163.531 0,0"
       style="fill:none;stroke:#ff00ff;stroke-linecap:round"
       id="path196"
       inkscape:connector-curvature="0" />
    <path
       d="m 50924.47,-42189.969 0,-9"
       style="fill:none;stroke:#ff00ff;stroke-linecap:round"
       id="path198"
       inkscape:connector-curvature="0" />
    <path
       d="m 50944.27,-42198.969 0,9"
       style="fill:none;stroke:#ff00ff;stroke-linecap:round"
       id="path200"
       inkscape:connector-curvature="0" />
    <path
       d="m 50924.47,-42198.969 19.8,0"
       style="fill:none;stroke:#ff00ff;stroke-linecap:round"
       id="path202"
       inkscape:connector-curvature="0" />
    <path
       d="m 50916.37,-42180.406 0,-5.625"
       style="fill:none;stroke:#ff00ff;stroke-linecap:round"
       id="path204"
       inkscape:connector-curvature="0" />
    <path
       d="m 50952.37,-42180.406 -36,0"
       style="fill:none;stroke:#ff00ff;stroke-linecap:round"
       id="path206"
       inkscape:connector-curvature="0" />
    <path
       d="m 50952.37,-42186.031 0,5.625"
       style="fill:none;stroke:#ff00ff;stroke-linecap:round"
       id="path208"
       inkscape:connector-curvature="0" />
    <path
       d="m 50916.37,-42186.031 36,0"
       style="fill:none;stroke:#ff00ff;stroke-linecap:round"
       id="path210"
       inkscape:connector-curvature="0" />
    <path
       d="m 50944.27,-42189.969 -19.8,0"
       style="fill:none;stroke:#ff00ff;stroke-linecap:round"
       id="path212"
       inkscape:connector-curvature="0" />
    <path
       d="m 50916.37,-42189.969 36,0"
       style="fill:none;stroke:#ff00ff;stroke-linecap:round"
       id="path214"
       inkscape:connector-curvature="0" />
    <path
       d="m 50984.995,-42163.531 0,0"
       style="fill:none;stroke:#ff00ff;stroke-linecap:round"
       id="path216"
       inkscape:connector-curvature="0" />
    <path
       d="m 51050.623,-42189.969 a 31.5,31.5 0 1 0 -63,0 31.5,31.5 0 1 0 63,0 z"
       style="fill:none;stroke:#ff00ff;stroke-linecap:round"
       id="path218"
       inkscape:connector-curvature="0" />
  </g>
  <g
     inkscape:groupmode="layer"
     inkscape:label="Z0_CUT250"
     id="g220"
     transform="translate(-50039.488,43768.145)" />
  <g
     inkscape:groupmode="layer"
     inkscape:label="Z0_CUT500"
     id="g222"
     transform="translate(-50039.488,43768.145)">
    <path
       d="m 51026.548,-42189.969 a 7.425,7.425 0 1 0 -14.85,0 7.425,7.425 0 1 0 14.85,0 z"
       style="fill:none;stroke:#0000ff;stroke-linecap:round"
       id="path224"
       inkscape:connector-curvature="0" />
    <path
       d="m 50906.24,-42186.031 a 22.5,22.5 0 0 0 0,45"
       style="fill:none;stroke:#0000ff;stroke-linecap:round"
       id="path226"
       inkscape:connector-curvature="0" />
    <path
       d="m 50906.24,-42186.031 56.25,0"
       style="fill:none;stroke:#0000ff;stroke-linecap:round"
       id="path228"
       inkscape:connector-curvature="0" />
    <path
       d="m 50962.49,-42141.031 -56.25,0"
       style="fill:none;stroke:#0000ff;stroke-linecap:round"
       id="path230"
       inkscape:connector-curvature="0" />
    <path
       d="m 50962.49,-42141.031 a 22.5,22.5 0 0 0 0,-45"
       style="fill:none;stroke:#0000ff;stroke-linecap:round"
       id="path232"
       inkscape:connector-curvature="0" />
    <path
       d="m 51063.472,-42135.202 a 11.025,11.025 0 1 0 -22.05,0 11.025,11.025 0 1 0 22.05,0 z"
       style="fill:none;stroke:#0000ff;stroke-linecap:round"
       id="path234"
       inkscape:connector-curvature="0" />
    <path
       d="m 50857.043,-42189.969 a 7.425,7.425 0 1 0 -14.85,0 7.425,7.425 0 1 0 14.85,0 z"
       style="fill:none;stroke:#0000ff;stroke-linecap:round"
       id="path236"
       inkscape:connector-curvature="0" />
    <path
       d="m 50827.308,-42135.202 a 11.025,11.025 0 1 0 -22.05,0 11.025,11.025 0 1 0 22.05,0 z"
       style="fill:none;stroke:#0000ff;stroke-linecap:round"
       id="path238"
       inkscape:connector-curvature="0" />
  </g>
  <g
     inkscape:groupmode="layer"
     inkscape:label="Z0_PLASTICS"
     id="g240"
     transform="translate(-50039.488,43768.145)" />
  <g
     inkscape:groupmode="layer"
     inkscape:label="Z0_RUBBER"
     id="g242"
     transform="translate(-50039.488,43768.145)">
    <path
       d="m 51071.797,-42135.202 a 19.35,19.35 0 1 0 -38.7,0 19.35,19.35 0 1 0 38.7,0 z"
       style="fill:none;stroke:#ffff00;stroke-linecap:round"
       id="path244"
       inkscape:connector-curvature="0" />
    <path
       d="m 51058.747,-42135.202 a 6.3,6.3 0 1 0 -12.6,0 6.3,6.3 0 1 0 12.6,0 z"
       style="fill:none;stroke:#ffff00;stroke-linecap:round"
       id="path246"
       inkscape:connector-curvature="0" />
    <path
       d="m 50885.618,-42189.969 a 36,36 0 1 0 -72,0 36,36 0 1 0 72,0 z"
       style="fill:none;stroke:#ffff00;stroke-linecap:round"
       id="path248"
       inkscape:connector-curvature="0" />
    <path
       d="m 50868.968,-42189.969 a 19.35,19.35 0 1 0 -38.7,0 19.35,19.35 0 1 0 38.7,0 z"
       style="fill:none;stroke:#ffff00;stroke-linecap:round"
       id="path250"
       inkscape:connector-curvature="0" />
    <path
       d="m 51055.123,-42189.969 a 36,36 0 1 0 -72,0 36,36 0 1 0 72,0 z"
       style="fill:none;stroke:#ffff00;stroke-linecap:round"
       id="path252"
       inkscape:connector-curvature="0" />
    <path
       d="m 51038.473,-42189.969 a 19.35,19.35 0 1 0 -38.7,0 19.35,19.35 0 1 0 38.7,0 z"
       style="fill:none;stroke:#ffff00;stroke-linecap:round"
       id="path254"
       inkscape:connector-curvature="0" />
    <path
       d="m 50835.633,-42135.202 a 19.35,19.35 0 1 0 -38.7,0 19.35,19.35 0 1 0 38.7,0 z"
       style="fill:none;stroke:#ffff00;stroke-linecap:round"
       id="path256"
       inkscape:connector-curvature="0" />
    <path
       d="m 50822.583,-42135.202 a 6.3,6.3 0 1 0 -12.6,0 6.3,6.3 0 1 0 12.6,0 z"
       style="fill:none;stroke:#ffff00;stroke-linecap:round"
       id="path258"
       inkscape:connector-curvature="0" />
  </g>
  <g
     inkscape:groupmode="layer"
     inkscape:label="Z0_ZONES"
     id="g260"
     transform="translate(-50039.488,43768.145)" />
  <g
     inkscape:groupmode="layer"
     inkscape:label="Z0_WOODOUTLINE"
     id="g262"
     transform="translate(-50039.488,43768.145)">
    <path
       d="m 51862.485,-43767.638 0.01,3405.152"
       style="fill:none;stroke:#0000ff;stroke-linecap:round"
       id="path264"
       inkscape:connector-curvature="0" />
    <path
       d="m 50039.995,-43767.638 0,3455.777"
       style="fill:none;stroke:#0000ff;stroke-linecap:round"
       id="path266"
       inkscape:connector-curvature="0" />
    <path
       d="m 50039.995,-43767.638 1822.49,0"
       style="fill:none;stroke:#0000ff;stroke-linecap:round"
       id="path268"
       inkscape:connector-curvature="0" />
    <path
       d="m 50175,-39987.638 1518.745,0"
       style="fill:none;stroke:#0000ff;stroke-linecap:round"
       id="path270"
       inkscape:connector-curvature="0" />
    <path
       d="m 50152.5,-40311.861 -112.5,0"
       style="fill:none;stroke:#0000ff;stroke-linecap:round"
       id="path272"
       inkscape:connector-curvature="0" />
    <path
       d="m 50175,-39987.638 0,-301.723"
       style="fill:none;stroke:#0000ff;stroke-linecap:round"
       id="path274"
       inkscape:connector-curvature="0" />
    <path
       d="m 50175,-40289.361 a 22.5,22.5 0 0 0 -22.5,-22.5"
       style="fill:none;stroke:#0000ff;stroke-linecap:round"
       id="path276"
       inkscape:connector-curvature="0" />
    <path
       d="m 51693.745,-40362.486 168.75,0"
       style="fill:none;stroke:#0000ff;stroke-linecap:round"
       id="path278"
       inkscape:connector-curvature="0" />
    <path
       d="m 51693.745,-40317.486 0,329.848"
       style="fill:none;stroke:#0000ff;stroke-linecap:round"
       id="path280"
       inkscape:connector-curvature="0" />
    <path
       d="m 51693.745,-40362.486 a 22.5,22.5 0 0 0 0,45"
       style="fill:none;stroke:#0000ff;stroke-linecap:round"
       id="path282"
       inkscape:connector-curvature="0" />
  </g>
  <g
     inkscape:groupmode="layer"
     inkscape:label="Z0_LOWERTHIRD"
     id="g284"
     transform="translate(-50039.488,43768.145)" />
</svg>
