<?xml version="1.0" encoding="UTF-8" standalone="no"?>
<svg
   xmlns:dc="http://purl.org/dc/elements/1.1/"
   xmlns:cc="http://creativecommons.org/ns#"
   xmlns:rdf="http://www.w3.org/1999/02/22-rdf-syntax-ns#"
   xmlns:svg="http://www.w3.org/2000/svg"
   xmlns="http://www.w3.org/2000/svg"
   xmlns:sodipodi="http://sodipodi.sourceforge.net/DTD/sodipodi-0.dtd"
   xmlns:inkscape="http://www.inkscape.org/namespaces/inkscape"
   width="1823.5143"
   height="3781.0142"
   id="svg2"
   version="1.1"
   inkscape:version="0.91 r13725"
   sodipodi:docname="181109_ModPlay_Sec_A-3_1.svg">
  <metadata
     id="metadata276">
    <rdf:RDF>
      <cc:Work
         rdf:about="">
        <dc:format>image/svg+xml</dc:format>
        <dc:type
           rdf:resource="http://purl.org/dc/dcmitype/StillImage" />
        <dc:title></dc:title>
      </cc:Work>
    </rdf:RDF>
  </metadata>
  <sodipodi:namedview
     pagecolor="#ffffff"
     bordercolor="#666666"
     borderopacity="1"
     objecttolerance="10"
     gridtolerance="10"
     guidetolerance="10"
     inkscape:pageopacity="0"
     inkscape:pageshadow="2"
     inkscape:window-width="1383"
     inkscape:window-height="817"
     id="namedview274"
     showgrid="false"
     fit-margin-top="0"
     fit-margin-left="0"
     fit-margin-right="0"
     fit-margin-bottom="0"
     inkscape:zoom="0.16265477"
     inkscape:cx="911.757"
     inkscape:cy="1890.5072"
     inkscape:window-x="11"
     inkscape:window-y="16"
     inkscape:window-maximized="0"
     inkscape:current-layer="g84" />
  <desc
     id="desc4">/Users/briancox/Documents/Win_Para_Share/VEL270/2018/181109_ModPlay_Sec_A-3_1.dxf - scale = 25.400000, origin = (0.000000, 0.000000), auto = False</desc>
  <defs
     id="defs6">
    <marker
       id="DistanceX"
       orient="auto"
       refX="0"
       refY="0"
       style="overflow:visible">
      <path
         d="M 3,-3 -3,3 M 0,-5 0,5"
         style="stroke:#000000;stroke-width:0.5"
         id="path9"
         inkscape:connector-curvature="0" />
    </marker>
    <pattern
       height="8"
       id="Hatch"
       patternUnits="userSpaceOnUse"
       width="8"
       x="0"
       y="0">
      <path
         d="M8 4 l-4,4"
         linecap="square"
         stroke="#000000"
         stroke-width="0.25"
         id="path12" />
      <path
         d="M6 2 l-4,4"
         linecap="square"
         stroke="#000000"
         stroke-width="0.25"
         id="path14" />
      <path
         d="M4 0 l-4,4"
         linecap="square"
         stroke="#000000"
         stroke-width="0.25"
         id="path16" />
    </pattern>
    <symbol
       id="*MODEL_SPACE" />
    <symbol
       id="*PAPER_SPACE" />
  </defs>
  <g
     inkscape:groupmode="layer"
     inkscape:label="Z0_BOTCOMP"
     id="g84"
     transform="translate(-38069.488,43768.145)">
    <path
       d="m 38601.558,-43221.131 a 25.65,25.65 0 0 0 -24.726,18.825"
       style="fill:none;stroke:#00ffff;stroke-linecap:round"
       id="path86"
       inkscape:connector-curvature="0" />
    <path
       d="m 38579.344,-43182.656 a 25.65,25.65 0 0 0 28.665,12"
       style="fill:none;stroke:#00ffff;stroke-linecap:round"
       id="path88"
       inkscape:connector-curvature="0" />
    <path
       d="m 38623.771,-43182.656 a 25.65,25.65 0 0 0 -3.94,-30.825"
       style="fill:none;stroke:#00ffff;stroke-linecap:round"
       id="path90"
       inkscape:connector-curvature="0" />
    <path
       d="m 38579.344,-43182.656 6.625,-3.825"
       style="fill:none;stroke:#00ffff;stroke-linecap:round"
       id="path92"
       inkscape:connector-curvature="0" />
    <path
       d="m 38585.969,-43186.481 -9.137,-15.825"
       style="fill:none;stroke:#00ffff;stroke-linecap:round"
       id="path94"
       inkscape:connector-curvature="0" />
    <path
       d="m 38623.771,-43182.656 -6.625,-3.825"
       style="fill:none;stroke:#00ffff;stroke-linecap:round"
       id="path96"
       inkscape:connector-curvature="0" />
    <path
       d="m 38617.146,-43186.481 -9.137,15.825"
       style="fill:none;stroke:#00ffff;stroke-linecap:round"
       id="path98"
       inkscape:connector-curvature="0" />
    <path
       d="m 38601.558,-43213.481 18.273,0"
       style="fill:none;stroke:#00ffff;stroke-linecap:round"
       id="path100"
       inkscape:connector-curvature="0" />
    <path
       d="m 38601.558,-43221.131 0,7.65"
       style="fill:none;stroke:#00ffff;stroke-linecap:round"
       id="path102"
       inkscape:connector-curvature="0" />
    <path
       d="m 38606.868,-43195.481 a 5.31,5.31 0 1 0 -10.62,0 5.31,5.31 0 1 0 10.62,0 z"
       style="fill:none;stroke:#00ffff;stroke-linecap:round"
       id="path104"
       inkscape:connector-curvature="0" />
    <path
       d="m 38609.208,-43195.481 a 7.65,7.65 0 1 0 -15.3,0 7.65,7.65 0 1 0 15.3,0 z"
       style="fill:none;stroke:#00ffff;stroke-linecap:round"
       id="path106"
       inkscape:connector-curvature="0" />
    <path
       d="m 38601.558,-43086.788 a 25.65,25.65 0 0 0 -24.726,18.825"
       style="fill:none;stroke:#00ffff;stroke-linecap:round"
       id="path108"
       inkscape:connector-curvature="0" />
    <path
       d="m 38579.344,-43048.313 a 25.65,25.65 0 0 0 28.665,12.001"
       style="fill:none;stroke:#00ffff;stroke-linecap:round"
       id="path110"
       inkscape:connector-curvature="0" />
    <path
       d="m 38623.771,-43048.313 a 25.65,25.65 0 0 0 -3.94,-30.825"
       style="fill:none;stroke:#00ffff;stroke-linecap:round"
       id="path112"
       inkscape:connector-curvature="0" />
    <path
       d="m 38579.344,-43048.313 6.625,-3.825"
       style="fill:none;stroke:#00ffff;stroke-linecap:round"
       id="path114"
       inkscape:connector-curvature="0" />
    <path
       d="m 38585.969,-43052.138 -9.137,-15.825"
       style="fill:none;stroke:#00ffff;stroke-linecap:round"
       id="path116"
       inkscape:connector-curvature="0" />
    <path
       d="m 38623.771,-43048.313 -6.625,-3.825"
       style="fill:none;stroke:#00ffff;stroke-linecap:round"
       id="path118"
       inkscape:connector-curvature="0" />
    <path
       d="m 38617.146,-43052.138 -9.137,15.826"
       style="fill:none;stroke:#00ffff;stroke-linecap:round"
       id="path120"
       inkscape:connector-curvature="0" />
    <path
       d="m 38601.558,-43079.138 18.273,0"
       style="fill:none;stroke:#00ffff;stroke-linecap:round"
       id="path122"
       inkscape:connector-curvature="0" />
    <path
       d="m 38601.558,-43086.788 0,7.65"
       style="fill:none;stroke:#00ffff;stroke-linecap:round"
       id="path124"
       inkscape:connector-curvature="0" />
    <path
       d="m 38606.868,-43061.138 a 5.31,5.31 0 1 0 -10.62,0 5.31,5.31 0 1 0 10.62,0 z"
       style="fill:none;stroke:#00ffff;stroke-linecap:round"
       id="path126"
       inkscape:connector-curvature="0" />
    <path
       d="m 38609.208,-43061.138 a 7.65,7.65 0 1 0 -15.3,0 7.65,7.65 0 1 0 15.3,0 z"
       style="fill:none;stroke:#00ffff;stroke-linecap:round"
       id="path128"
       inkscape:connector-curvature="0" />
    <path
       d="m 38798.433,-43221.459 a 25.65,25.65 0 0 0 -24.726,18.824"
       style="fill:none;stroke:#00ffff;stroke-linecap:round"
       id="path130"
       inkscape:connector-curvature="0" />
    <path
       d="m 38776.219,-43182.984 a 25.65,25.65 0 0 0 28.665,12"
       style="fill:none;stroke:#00ffff;stroke-linecap:round"
       id="path132"
       inkscape:connector-curvature="0" />
    <path
       d="m 38820.646,-43182.984 a 25.65,25.65 0 0 0 -3.94,-30.825"
       style="fill:none;stroke:#00ffff;stroke-linecap:round"
       id="path134"
       inkscape:connector-curvature="0" />
    <path
       d="m 38776.219,-43182.984 6.625,-3.825"
       style="fill:none;stroke:#00ffff;stroke-linecap:round"
       id="path136"
       inkscape:connector-curvature="0" />
    <path
       d="m 38782.844,-43186.809 -9.137,-15.826"
       style="fill:none;stroke:#00ffff;stroke-linecap:round"
       id="path138"
       inkscape:connector-curvature="0" />
    <path
       d="m 38820.646,-43182.984 -6.625,-3.825"
       style="fill:none;stroke:#00ffff;stroke-linecap:round"
       id="path140"
       inkscape:connector-curvature="0" />
    <path
       d="m 38814.021,-43186.809 -9.137,15.825"
       style="fill:none;stroke:#00ffff;stroke-linecap:round"
       id="path142"
       inkscape:connector-curvature="0" />
    <path
       d="m 38798.433,-43213.809 18.273,0"
       style="fill:none;stroke:#00ffff;stroke-linecap:round"
       id="path144"
       inkscape:connector-curvature="0" />
    <path
       d="m 38798.433,-43221.459 0,7.65"
       style="fill:none;stroke:#00ffff;stroke-linecap:round"
       id="path146"
       inkscape:connector-curvature="0" />
    <path
       d="m 38803.743,-43195.809 a 5.31,5.31 0 1 0 -10.62,0 5.31,5.31 0 1 0 10.62,0 z"
       style="fill:none;stroke:#00ffff;stroke-linecap:round"
       id="path148"
       inkscape:connector-curvature="0" />
    <path
       d="m 38806.083,-43195.809 a 7.65,7.65 0 1 0 -15.3,0 7.65,7.65 0 1 0 15.3,0 z"
       style="fill:none;stroke:#00ffff;stroke-linecap:round"
       id="path150"
       inkscape:connector-curvature="0" />
    <path
       d="m 38798.433,-43086.459 a 25.65,25.65 0 0 0 -24.726,18.824"
       style="fill:none;stroke:#00ffff;stroke-linecap:round"
       id="path152"
       inkscape:connector-curvature="0" />
    <path
       d="m 38776.219,-43047.984 a 25.65,25.65 0 0 0 28.665,12"
       style="fill:none;stroke:#00ffff;stroke-linecap:round"
       id="path154"
       inkscape:connector-curvature="0" />
    <path
       d="m 38820.646,-43047.984 a 25.65,25.65 0 0 0 -3.94,-30.825"
       style="fill:none;stroke:#00ffff;stroke-linecap:round"
       id="path156"
       inkscape:connector-curvature="0" />
    <path
       d="m 38776.219,-43047.984 6.625,-3.825"
       style="fill:none;stroke:#00ffff;stroke-linecap:round"
       id="path158"
       inkscape:connector-curvature="0" />
    <path
       d="m 38782.844,-43051.809 -9.137,-15.826"
       style="fill:none;stroke:#00ffff;stroke-linecap:round"
       id="path160"
       inkscape:connector-curvature="0" />
    <path
       d="m 38820.646,-43047.984 -6.625,-3.825"
       style="fill:none;stroke:#00ffff;stroke-linecap:round"
       id="path162"
       inkscape:connector-curvature="0" />
    <path
       d="m 38814.021,-43051.809 -9.137,15.825"
       style="fill:none;stroke:#00ffff;stroke-linecap:round"
       id="path164"
       inkscape:connector-curvature="0" />
    <path
       d="m 38798.433,-43078.809 18.273,0"
       style="fill:none;stroke:#00ffff;stroke-linecap:round"
       id="path166"
       inkscape:connector-curvature="0" />
    <path
       d="m 38798.433,-43086.459 0,7.65"
       style="fill:none;stroke:#00ffff;stroke-linecap:round"
       id="path168"
       inkscape:connector-curvature="0" />
    <path
       d="m 38803.743,-43060.809 a 5.31,5.31 0 1 0 -10.62,0 5.31,5.31 0 1 0 10.62,0 z"
       style="fill:none;stroke:#00ffff;stroke-linecap:round"
       id="path170"
       inkscape:connector-curvature="0" />
    <path
       d="m 38806.083,-43060.809 a 7.65,7.65 0 1 0 -15.3,0 7.65,7.65 0 1 0 15.3,0 z"
       style="fill:none;stroke:#00ffff;stroke-linecap:round"
       id="path172"
       inkscape:connector-curvature="0" />
  </g>
  <g
     inkscape:groupmode="layer"
     inkscape:label="Z0_TOPCOMP"
     id="g174"
     transform="translate(-38069.488,43768.145)">
    <path
       d="m 38633.058,-43195.481 a 31.5,31.5 0 1 0 -63,0 31.5,31.5 0 1 0 63,0 z"
       style="fill:none;stroke:#ff00ff;stroke-linecap:round"
       id="path176"
       inkscape:connector-curvature="0" />
    <path
       d="m 38633.058,-43061.138 a 31.5,31.5 0 1 0 -63,0 31.5,31.5 0 1 0 63,0 z"
       style="fill:none;stroke:#ff00ff;stroke-linecap:round"
       id="path178"
       inkscape:connector-curvature="0" />
    <path
       d="m 38829.933,-43195.809 a 31.5,31.5 0 1 0 -63,0 31.5,31.5 0 1 0 63,0 z"
       style="fill:none;stroke:#ff00ff;stroke-linecap:round"
       id="path180"
       inkscape:connector-curvature="0" />
    <path
       d="m 38829.933,-43060.809 a 31.5,31.5 0 1 0 -63,0 31.5,31.5 0 1 0 63,0 z"
       style="fill:none;stroke:#ff00ff;stroke-linecap:round"
       id="path182"
       inkscape:connector-curvature="0" />
  </g>
  <g
     inkscape:groupmode="layer"
     inkscape:label="Z0_CUT250"
     id="g184"
     transform="translate(-38069.488,43768.145)" />
  <g
     inkscape:groupmode="layer"
     inkscape:label="Z0_CUT500"
     id="g186"
     transform="translate(-38069.488,43768.145)">
    <path
       d="m 38622.651,-43128.309 a 21.09375,21.09375 0 1 0 -42.187,0 21.09375,21.09375 0 1 0 42.187,0 z"
       style="fill:none;stroke:#0000ff;stroke-linecap:round"
       id="path188"
       inkscape:connector-curvature="0" />
    <path
       d="m 38608.983,-43195.481 a 7.425,7.425 0 1 0 -14.85,0 7.425,7.425 0 1 0 14.85,0 z"
       style="fill:none;stroke:#0000ff;stroke-linecap:round"
       id="path190"
       inkscape:connector-curvature="0" />
    <path
       d="m 38608.983,-43061.138 a 7.425,7.425 0 1 0 -14.85,0 7.425,7.425 0 1 0 14.85,0 z"
       style="fill:none;stroke:#0000ff;stroke-linecap:round"
       id="path192"
       inkscape:connector-curvature="0" />
    <path
       d="m 38691.895,-43204.809 0,153"
       style="fill:none;stroke:#0000ff;stroke-linecap:round"
       id="path194"
       inkscape:connector-curvature="0" />
    <path
       d="m 38708.095,-43204.809 a 8.1,8.1 0 0 0 -16.2,0"
       style="fill:none;stroke:#0000ff;stroke-linecap:round"
       id="path196"
       inkscape:connector-curvature="0" />
    <path
       d="m 38691.895,-43051.809 a 8.1,8.1 0 0 0 16.2,0"
       style="fill:none;stroke:#0000ff;stroke-linecap:round"
       id="path198"
       inkscape:connector-curvature="0" />
    <path
       d="m 38708.095,-43204.809 0,153"
       style="fill:none;stroke:#0000ff;stroke-linecap:round"
       id="path200"
       inkscape:connector-curvature="0" />
    <path
       d="m 38805.858,-43195.809 a 7.425,7.425 0 1 0 -14.85,0 7.425,7.425 0 1 0 14.85,0 z"
       style="fill:none;stroke:#0000ff;stroke-linecap:round"
       id="path202"
       inkscape:connector-curvature="0" />
    <path
       d="m 38805.858,-43060.809 a 7.425,7.425 0 1 0 -14.85,0 7.425,7.425 0 1 0 14.85,0 z"
       style="fill:none;stroke:#0000ff;stroke-linecap:round"
       id="path204"
       inkscape:connector-curvature="0" />
    <path
       d="m 38819.526,-43128.309 a 21.09375,21.09375 0 1 0 -42.187,0 21.09375,21.09375 0 1 0 42.187,0 z"
       style="fill:none;stroke:#0000ff;stroke-linecap:round"
       id="path206"
       inkscape:connector-curvature="0" />
  </g>
  <g
     inkscape:groupmode="layer"
     inkscape:label="Z0_PLASTICS"
     id="g208"
     transform="translate(-38069.488,43768.145)">
    <path
       d="m 38805.183,-43060.809 a 6.75,6.75 0 1 0 -13.5,0 6.75,6.75 0 1 0 13.5,0 z"
       style="fill:none;stroke:#000000;stroke-linecap:round"
       id="path210"
       inkscape:connector-curvature="0" />
    <path
       d="m 38805.183,-43195.809 a 6.75,6.75 0 1 0 -13.5,0 6.75,6.75 0 1 0 13.5,0 z"
       style="fill:none;stroke:#000000;stroke-linecap:round"
       id="path212"
       inkscape:connector-curvature="0" />
    <path
       d="m 38766.933,-43195.809 -4.5,0"
       style="fill:none;stroke:#000000;stroke-linecap:round"
       id="path214"
       inkscape:connector-curvature="0" />
    <path
       d="m 38762.433,-43195.809 0,135"
       style="fill:none;stroke:#000000;stroke-linecap:round"
       id="path216"
       inkscape:connector-curvature="0" />
    <path
       d="m 38762.433,-43060.809 4.5,0"
       style="fill:none;stroke:#000000;stroke-linecap:round"
       id="path218"
       inkscape:connector-curvature="0" />
    <path
       d="m 38829.933,-43195.809 4.5,0"
       style="fill:none;stroke:#000000;stroke-linecap:round"
       id="path220"
       inkscape:connector-curvature="0" />
    <path
       d="m 38834.433,-43195.809 0,135"
       style="fill:none;stroke:#000000;stroke-linecap:round"
       id="path222"
       inkscape:connector-curvature="0" />
    <path
       d="m 38834.433,-43060.809 -4.5,0"
       style="fill:none;stroke:#000000;stroke-linecap:round"
       id="path224"
       inkscape:connector-curvature="0" />
    <path
       d="m 38829.933,-43195.809 a 31.5,31.5 0 0 0 -63,0"
       style="fill:none;stroke:#000000;stroke-linecap:round"
       id="path226"
       inkscape:connector-curvature="0" />
    <path
       d="m 38766.933,-43060.809 a 31.5,31.5 0 0 0 63,0"
       style="fill:none;stroke:#000000;stroke-linecap:round"
       id="path228"
       inkscape:connector-curvature="0" />
  </g>
  <g
     inkscape:groupmode="layer"
     inkscape:label="Z0_RUBBER"
     id="g230"
     transform="translate(-38069.488,43768.145)">
    <path
       d="m 38637.558,-43195.481 a 36,36 0 1 0 -72,0 36,36 0 1 0 72,0 z"
       style="fill:none;stroke:#ffff00;stroke-linecap:round"
       id="path232"
       inkscape:connector-curvature="0" />
    <path
       d="m 38620.908,-43195.481 a 19.35,19.35 0 1 0 -38.7,0 19.35,19.35 0 1 0 38.7,0 z"
       style="fill:none;stroke:#ffff00;stroke-linecap:round"
       id="path234"
       inkscape:connector-curvature="0" />
    <path
       d="m 38637.558,-43061.138 a 36,36 0 1 0 -72,0 36,36 0 1 0 72,0 z"
       style="fill:none;stroke:#ffff00;stroke-linecap:round"
       id="path236"
       inkscape:connector-curvature="0" />
    <path
       d="m 38620.908,-43061.138 a 19.35,19.35 0 1 0 -38.7,0 19.35,19.35 0 1 0 38.7,0 z"
       style="fill:none;stroke:#ffff00;stroke-linecap:round"
       id="path238"
       inkscape:connector-curvature="0" />
    <path
       d="m 38834.433,-43060.809 a 36,36 0 1 0 -72,0 36,36 0 1 0 72,0 z"
       style="fill:none;stroke:#ffff00;stroke-linecap:round"
       id="path240"
       inkscape:connector-curvature="0" />
    <path
       d="m 38817.783,-43060.809 a 19.35,19.35 0 1 0 -38.7,0 19.35,19.35 0 1 0 38.7,0 z"
       style="fill:none;stroke:#ffff00;stroke-linecap:round"
       id="path242"
       inkscape:connector-curvature="0" />
    <path
       d="m 38834.433,-43195.809 a 36,36 0 1 0 -72,0 36,36 0 1 0 72,0 z"
       style="fill:none;stroke:#ffff00;stroke-linecap:round"
       id="path244"
       inkscape:connector-curvature="0" />
    <path
       d="m 38817.783,-43195.809 a 19.35,19.35 0 1 0 -38.7,0 19.35,19.35 0 1 0 38.7,0 z"
       style="fill:none;stroke:#ffff00;stroke-linecap:round"
       id="path246"
       inkscape:connector-curvature="0" />
  </g>
  <g
     inkscape:groupmode="layer"
     inkscape:label="Z0_ZONES"
     id="g248"
     transform="translate(-38069.488,43768.145)" />
  <g
     inkscape:groupmode="layer"
     inkscape:label="Z0_WOODOUTLINE"
     id="g250"
     transform="translate(-38069.488,43768.145)">
    <path
       d="m 39892.485,-43767.638 0.01,3405.152"
       style="fill:none;stroke:#0000ff;stroke-linecap:round"
       id="path252"
       inkscape:connector-curvature="0" />
    <path
       d="m 38069.995,-43767.638 0,3455.777"
       style="fill:none;stroke:#0000ff;stroke-linecap:round"
       id="path254"
       inkscape:connector-curvature="0" />
    <path
       d="m 38069.995,-43767.638 1822.49,0"
       style="fill:none;stroke:#0000ff;stroke-linecap:round"
       id="path256"
       inkscape:connector-curvature="0" />
    <path
       d="m 38205,-39987.638 1518.745,0"
       style="fill:none;stroke:#0000ff;stroke-linecap:round"
       id="path258"
       inkscape:connector-curvature="0" />
    <path
       d="m 38182.5,-40311.861 -112.5,0"
       style="fill:none;stroke:#0000ff;stroke-linecap:round"
       id="path260"
       inkscape:connector-curvature="0" />
    <path
       d="m 38205,-39987.638 0,-301.723"
       style="fill:none;stroke:#0000ff;stroke-linecap:round"
       id="path262"
       inkscape:connector-curvature="0" />
    <path
       d="m 38205,-40289.361 a 22.5,22.5 0 0 0 -22.5,-22.5"
       style="fill:none;stroke:#0000ff;stroke-linecap:round"
       id="path264"
       inkscape:connector-curvature="0" />
    <path
       d="m 39723.745,-40362.486 168.75,0"
       style="fill:none;stroke:#0000ff;stroke-linecap:round"
       id="path266"
       inkscape:connector-curvature="0" />
    <path
       d="m 39723.745,-40317.486 0,329.848"
       style="fill:none;stroke:#0000ff;stroke-linecap:round"
       id="path268"
       inkscape:connector-curvature="0" />
    <path
       d="m 39723.745,-40362.486 a 22.5,22.5 0 0 0 0,45"
       style="fill:none;stroke:#0000ff;stroke-linecap:round"
       id="path270"
       inkscape:connector-curvature="0" />
  </g>
  <g
     inkscape:groupmode="layer"
     inkscape:label="Z0_LOWERTHIRD"
     id="g272"
     transform="translate(-38069.488,43768.145)" />
</svg>
