<?xml version="1.0" encoding="UTF-8" standalone="no"?>
<svg
   xmlns:dc="http://purl.org/dc/elements/1.1/"
   xmlns:cc="http://creativecommons.org/ns#"
   xmlns:rdf="http://www.w3.org/1999/02/22-rdf-syntax-ns#"
   xmlns:svg="http://www.w3.org/2000/svg"
   xmlns="http://www.w3.org/2000/svg"
   xmlns:sodipodi="http://sodipodi.sourceforge.net/DTD/sodipodi-0.dtd"
   xmlns:inkscape="http://www.inkscape.org/namespaces/inkscape"
   width="1823.5143"
   height="3781.0142"
   id="svg2"
   version="1.1"
   inkscape:version="0.91 r13725"
   sodipodi:docname="181109_ModPlay_Sec_C-5_2.svg">
  <metadata
     id="metadata232">
    <rdf:RDF>
      <cc:Work
         rdf:about="">
        <dc:format>image/svg+xml</dc:format>
        <dc:type
           rdf:resource="http://purl.org/dc/dcmitype/StillImage" />
        <dc:title></dc:title>
      </cc:Work>
    </rdf:RDF>
  </metadata>
  <sodipodi:namedview
     pagecolor="#ffffff"
     bordercolor="#666666"
     borderopacity="1"
     objecttolerance="10"
     gridtolerance="10"
     guidetolerance="10"
     inkscape:pageopacity="0"
     inkscape:pageshadow="2"
     inkscape:window-width="1225"
     inkscape:window-height="754"
     id="namedview230"
     showgrid="false"
     fit-margin-top="0"
     fit-margin-left="0"
     fit-margin-right="0"
     fit-margin-bottom="0"
     inkscape:zoom="0.14599257"
     inkscape:cx="911.75712"
     inkscape:cy="1890.5071"
     inkscape:window-x="35"
     inkscape:window-y="14"
     inkscape:window-maximized="0"
     inkscape:current-layer="g84" />
  <desc
     id="desc4">/Users/briancox/Documents/Win_Para_Share/VEL270/2018/181109_ModPlay_Sec_C-5_2.dxf - scale = 25.400000, origin = (0.000000, 0.000000), auto = False</desc>
  <defs
     id="defs6">
    <marker
       id="DistanceX"
       orient="auto"
       refX="0"
       refY="0"
       style="overflow:visible">
      <path
         d="M 3,-3 -3,3 M 0,-5 0,5"
         style="stroke:#000000;stroke-width:0.5"
         id="path9"
         inkscape:connector-curvature="0" />
    </marker>
    <pattern
       height="8"
       id="Hatch"
       patternUnits="userSpaceOnUse"
       width="8"
       x="0"
       y="0">
      <path
         d="M8 4 l-4,4"
         linecap="square"
         stroke="#000000"
         stroke-width="0.25"
         id="path12" />
      <path
         d="M6 2 l-4,4"
         linecap="square"
         stroke="#000000"
         stroke-width="0.25"
         id="path14" />
      <path
         d="M4 0 l-4,4"
         linecap="square"
         stroke="#000000"
         stroke-width="0.25"
         id="path16" />
    </pattern>
    <symbol
       id="*MODEL_SPACE" />
    <symbol
       id="*PAPER_SPACE" />
  </defs>
  <g
     inkscape:groupmode="layer"
     inkscape:label="Z0_BOTCOMP"
     id="g84"
     transform="translate(-45989.493,35758.145)">
    <path
       d="m 47411.124,-34242.615 a 25.65,25.65 0 0 0 -24.725,18.825"
       style="fill:none;stroke:#00ffff;stroke-linecap:round"
       id="path86"
       inkscape:connector-curvature="0" />
    <path
       d="m 47388.911,-34204.14 a 25.65,25.65 0 0 0 28.665,12"
       style="fill:none;stroke:#00ffff;stroke-linecap:round"
       id="path88"
       inkscape:connector-curvature="0" />
    <path
       d="m 47433.338,-34204.14 a 25.65,25.65 0 0 0 -3.94,-30.825"
       style="fill:none;stroke:#00ffff;stroke-linecap:round"
       id="path90"
       inkscape:connector-curvature="0" />
    <path
       d="m 47388.911,-34204.14 6.625,-3.825"
       style="fill:none;stroke:#00ffff;stroke-linecap:round"
       id="path92"
       inkscape:connector-curvature="0" />
    <path
       d="m 47395.536,-34207.965 -9.137,-15.825"
       style="fill:none;stroke:#00ffff;stroke-linecap:round"
       id="path94"
       inkscape:connector-curvature="0" />
    <path
       d="m 47433.338,-34204.14 -6.625,-3.825"
       style="fill:none;stroke:#00ffff;stroke-linecap:round"
       id="path96"
       inkscape:connector-curvature="0" />
    <path
       d="m 47426.713,-34207.965 -9.137,15.825"
       style="fill:none;stroke:#00ffff;stroke-linecap:round"
       id="path98"
       inkscape:connector-curvature="0" />
    <path
       d="m 47411.124,-34234.965 18.274,0"
       style="fill:none;stroke:#00ffff;stroke-linecap:round"
       id="path100"
       inkscape:connector-curvature="0" />
    <path
       d="m 47411.124,-34242.615 0,7.65"
       style="fill:none;stroke:#00ffff;stroke-linecap:round"
       id="path102"
       inkscape:connector-curvature="0" />
    <path
       d="m 47416.434,-34216.965 a 5.31,5.31 0 1 0 -10.62,0 5.31,5.31 0 1 0 10.62,0 z"
       style="fill:none;stroke:#00ffff;stroke-linecap:round"
       id="path104"
       inkscape:connector-curvature="0" />
    <path
       d="m 47418.774,-34216.965 a 7.65,7.65 0 1 0 -15.3,0 7.65,7.65 0 1 0 15.3,0 z"
       style="fill:none;stroke:#00ffff;stroke-linecap:round"
       id="path106"
       inkscape:connector-curvature="0" />
    <path
       d="m 47371.914,-34384.511 a 25.65,25.65 0 0 0 -24.725,18.825"
       style="fill:none;stroke:#00ffff;stroke-linecap:round"
       id="path108"
       inkscape:connector-curvature="0" />
    <path
       d="m 47349.701,-34346.036 a 25.65,25.65 0 0 0 28.665,12"
       style="fill:none;stroke:#00ffff;stroke-linecap:round"
       id="path110"
       inkscape:connector-curvature="0" />
    <path
       d="m 47394.128,-34346.036 a 25.65,25.65 0 0 0 -3.94,-30.825"
       style="fill:none;stroke:#00ffff;stroke-linecap:round"
       id="path112"
       inkscape:connector-curvature="0" />
    <path
       d="m 47349.701,-34346.036 6.625,-3.825"
       style="fill:none;stroke:#00ffff;stroke-linecap:round"
       id="path114"
       inkscape:connector-curvature="0" />
    <path
       d="m 47356.326,-34349.861 -9.137,-15.825"
       style="fill:none;stroke:#00ffff;stroke-linecap:round"
       id="path116"
       inkscape:connector-curvature="0" />
    <path
       d="m 47394.128,-34346.036 -6.625,-3.825"
       style="fill:none;stroke:#00ffff;stroke-linecap:round"
       id="path118"
       inkscape:connector-curvature="0" />
    <path
       d="m 47387.503,-34349.861 -9.137,15.825"
       style="fill:none;stroke:#00ffff;stroke-linecap:round"
       id="path120"
       inkscape:connector-curvature="0" />
    <path
       d="m 47371.914,-34376.861 18.274,0"
       style="fill:none;stroke:#00ffff;stroke-linecap:round"
       id="path122"
       inkscape:connector-curvature="0" />
    <path
       d="m 47371.914,-34384.511 0,7.65"
       style="fill:none;stroke:#00ffff;stroke-linecap:round"
       id="path124"
       inkscape:connector-curvature="0" />
    <path
       d="m 47377.224,-34358.861 a 5.31,5.31 0 1 0 -10.62,0 5.31,5.31 0 1 0 10.62,0 z"
       style="fill:none;stroke:#00ffff;stroke-linecap:round"
       id="path126"
       inkscape:connector-curvature="0" />
    <path
       d="m 47379.564,-34358.861 a 7.65,7.65 0 1 0 -15.3,0 7.65,7.65 0 1 0 15.3,0 z"
       style="fill:none;stroke:#00ffff;stroke-linecap:round"
       id="path128"
       inkscape:connector-curvature="0" />
  </g>
  <g
     inkscape:groupmode="layer"
     inkscape:label="Z0_TOPCOMP"
     id="g130"
     transform="translate(-45989.493,35758.145)">
    <path
       d="m 47442.624,-34216.965 a 31.5,31.5 0 1 0 -63,0 31.5,31.5 0 1 0 63,0 z"
       style="fill:none;stroke:#ff00ff;stroke-linecap:round"
       id="path132"
       inkscape:connector-curvature="0" />
    <path
       d="m 47403.414,-34358.861 a 31.5,31.5 0 1 0 -63,0 31.5,31.5 0 1 0 63,0 z"
       style="fill:none;stroke:#ff00ff;stroke-linecap:round"
       id="path134"
       inkscape:connector-curvature="0" />
    <path
       d="m 47341.831,-34292.958 39.021,-10.844"
       style="fill:none;stroke:#ff00ff;stroke-linecap:round"
       id="path136"
       inkscape:connector-curvature="0" />
    <path
       d="m 47390.491,-34269.116 -39.022,10.843"
       style="fill:none;stroke:#ff00ff;stroke-linecap:round"
       id="path138"
       inkscape:connector-curvature="0" />
    <path
       d="m 47343.274,-34321.382 -8.672,2.409"
       style="fill:none;stroke:#ff00ff;stroke-linecap:round"
       id="path140"
       inkscape:connector-curvature="0" />
    <path
       d="m 47367.37,-34234.668 -24.096,-86.714"
       style="fill:none;stroke:#ff00ff;stroke-linecap:round"
       id="path142"
       inkscape:connector-curvature="0" />
    <path
       d="m 47334.602,-34318.973 24.096,86.715"
       style="fill:none;stroke:#ff00ff;stroke-linecap:round"
       id="path144"
       inkscape:connector-curvature="0" />
    <path
       d="m 47346.645,-34328.157 0,0"
       style="fill:none;stroke:#ff00ff;stroke-linecap:round"
       id="path146"
       inkscape:connector-curvature="0" />
    <path
       d="m 47373.753,-34230.604 0,0"
       style="fill:none;stroke:#ff00ff;stroke-linecap:round"
       id="path148"
       inkscape:connector-curvature="0" />
    <path
       d="m 47358.698,-34232.258 8.672,-2.41"
       style="fill:none;stroke:#ff00ff;stroke-linecap:round"
       id="path150"
       inkscape:connector-curvature="0" />
    <path
       d="m 47351.469,-34258.273 -9.638,-34.685"
       style="fill:none;stroke:#ff00ff;stroke-linecap:round"
       id="path152"
       inkscape:connector-curvature="0" />
    <path
       d="m 47358.693,-34284.8 0,0"
       style="fill:none;stroke:#ff00ff;stroke-linecap:round"
       id="path154"
       inkscape:connector-curvature="0" />
    <path
       d="m 47383.021,-34295.997 8.671,-2.41"
       style="fill:none;stroke:#ff00ff;stroke-linecap:round"
       id="path156"
       inkscape:connector-curvature="0" />
    <path
       d="m 47396.994,-34279.33 -8.672,2.41"
       style="fill:none;stroke:#ff00ff;stroke-linecap:round"
       id="path158"
       inkscape:connector-curvature="0" />
    <path
       d="m 47391.692,-34298.407 5.302,19.077"
       style="fill:none;stroke:#ff00ff;stroke-linecap:round"
       id="path160"
       inkscape:connector-curvature="0" />
    <path
       d="m 47371.639,-34301.241 5.42,-1.506"
       style="fill:none;stroke:#ff00ff;stroke-linecap:round"
       id="path162"
       inkscape:connector-curvature="0" />
    <path
       d="m 47381.277,-34266.556 -9.638,-34.685"
       style="fill:none;stroke:#ff00ff;stroke-linecap:round"
       id="path164"
       inkscape:connector-curvature="0" />
    <path
       d="m 47386.697,-34268.062 -5.42,1.506"
       style="fill:none;stroke:#ff00ff;stroke-linecap:round"
       id="path166"
       inkscape:connector-curvature="0" />
    <path
       d="m 47377.059,-34302.747 9.638,34.685"
       style="fill:none;stroke:#ff00ff;stroke-linecap:round"
       id="path168"
       inkscape:connector-curvature="0" />
    <path
       d="m 47388.322,-34276.92 -5.301,-19.077"
       style="fill:none;stroke:#ff00ff;stroke-linecap:round"
       id="path170"
       inkscape:connector-curvature="0" />
    <path
       d="m 47380.852,-34303.802 9.639,34.686"
       style="fill:none;stroke:#ff00ff;stroke-linecap:round"
       id="path172"
       inkscape:connector-curvature="0" />
    <path
       d="m 47373.753,-34230.604 0,0"
       style="fill:none;stroke:#ff00ff;stroke-linecap:round"
       id="path174"
       inkscape:connector-curvature="0" />
  </g>
  <g
     inkscape:groupmode="layer"
     inkscape:label="Z0_CUT250"
     id="g176"
     transform="translate(-45989.493,35758.145)" />
  <g
     inkscape:groupmode="layer"
     inkscape:label="Z0_CUT500"
     id="g178"
     transform="translate(-45989.493,35758.145)">
    <path
       d="m 47418.549,-34216.965 a 7.425,7.425 0 1 0 -14.85,0 7.425,7.425 0 1 0 14.85,0 z"
       style="fill:none;stroke:#0000ff;stroke-linecap:round"
       id="path180"
       inkscape:connector-curvature="0" />
    <path
       d="m 47379.339,-34358.861 a 7.425,7.425 0 1 0 -14.85,0 7.425,7.425 0 1 0 14.85,0 z"
       style="fill:none;stroke:#0000ff;stroke-linecap:round"
       id="path182"
       inkscape:connector-curvature="0" />
    <path
       d="m 47374.346,-34312.508 a 22.5,22.5 0 0 0 -43.357,12.048"
       style="fill:none;stroke:#0000ff;stroke-linecap:round"
       id="path184"
       inkscape:connector-curvature="0" />
    <path
       d="m 47374.346,-34312.508 15.06,54.197"
       style="fill:none;stroke:#0000ff;stroke-linecap:round"
       id="path186"
       inkscape:connector-curvature="0" />
    <path
       d="m 47346.049,-34246.263 -15.06,-54.197"
       style="fill:none;stroke:#0000ff;stroke-linecap:round"
       id="path188"
       inkscape:connector-curvature="0" />
    <path
       d="m 47346.049,-34246.263 a 22.5,22.5 0 1 0 43.357,-12.048"
       style="fill:none;stroke:#0000ff;stroke-linecap:round"
       id="path190"
       inkscape:connector-curvature="0" />
  </g>
  <g
     inkscape:groupmode="layer"
     inkscape:label="Z0_PLASTICS"
     id="g192"
     transform="translate(-45989.493,35758.145)" />
  <g
     inkscape:groupmode="layer"
     inkscape:label="Z0_RUBBER"
     id="g194"
     transform="translate(-45989.493,35758.145)">
    <path
       d="m 47447.124,-34216.965 a 36,36 0 1 0 -72,0 36,36 0 1 0 72,0 z"
       style="fill:none;stroke:#ffff00;stroke-linecap:round"
       id="path196"
       inkscape:connector-curvature="0" />
    <path
       d="m 47430.474,-34216.965 a 19.35,19.35 0 1 0 -38.7,0 19.35,19.35 0 1 0 38.7,0 z"
       style="fill:none;stroke:#ffff00;stroke-linecap:round"
       id="path198"
       inkscape:connector-curvature="0" />
    <path
       d="m 47407.914,-34358.861 a 36,36 0 1 0 -72,0 36,36 0 1 0 72,0 z"
       style="fill:none;stroke:#ffff00;stroke-linecap:round"
       id="path200"
       inkscape:connector-curvature="0" />
    <path
       d="m 47391.264,-34358.861 a 19.35,19.35 0 1 0 -38.7,0 19.35,19.35 0 1 0 38.7,0 z"
       style="fill:none;stroke:#ffff00;stroke-linecap:round"
       id="path202"
       inkscape:connector-curvature="0" />
  </g>
  <g
     inkscape:groupmode="layer"
     inkscape:label="Z0_ZONES"
     id="g204"
     transform="translate(-45989.493,35758.145)" />
  <g
     inkscape:groupmode="layer"
     inkscape:label="Z0_WOODOUTLINE"
     id="g206"
     transform="translate(-45989.493,35758.145)">
    <path
       d="m 47812.49,-35757.638 0.01,3405.152"
       style="fill:none;stroke:#0000ff;stroke-linecap:round"
       id="path208"
       inkscape:connector-curvature="0" />
    <path
       d="m 45990,-35757.638 0,3455.777"
       style="fill:none;stroke:#0000ff;stroke-linecap:round"
       id="path210"
       inkscape:connector-curvature="0" />
    <path
       d="m 45990,-35757.638 1822.49,0"
       style="fill:none;stroke:#0000ff;stroke-linecap:round"
       id="path212"
       inkscape:connector-curvature="0" />
    <path
       d="m 46125.005,-31977.638 1518.745,0"
       style="fill:none;stroke:#0000ff;stroke-linecap:round"
       id="path214"
       inkscape:connector-curvature="0" />
    <path
       d="m 46102.505,-32301.861 -112.5,0"
       style="fill:none;stroke:#0000ff;stroke-linecap:round"
       id="path216"
       inkscape:connector-curvature="0" />
    <path
       d="m 46125.005,-31977.638 0,-301.723"
       style="fill:none;stroke:#0000ff;stroke-linecap:round"
       id="path218"
       inkscape:connector-curvature="0" />
    <path
       d="m 46125.005,-32279.361 a 22.5,22.5 0 0 0 -22.5,-22.5"
       style="fill:none;stroke:#0000ff;stroke-linecap:round"
       id="path220"
       inkscape:connector-curvature="0" />
    <path
       d="m 47643.75,-32352.486 168.75,0"
       style="fill:none;stroke:#0000ff;stroke-linecap:round"
       id="path222"
       inkscape:connector-curvature="0" />
    <path
       d="m 47643.75,-32307.486 0,329.848"
       style="fill:none;stroke:#0000ff;stroke-linecap:round"
       id="path224"
       inkscape:connector-curvature="0" />
    <path
       d="m 47643.75,-32352.486 a 22.5,22.5 0 0 0 0,45"
       style="fill:none;stroke:#0000ff;stroke-linecap:round"
       id="path226"
       inkscape:connector-curvature="0" />
  </g>
  <g
     inkscape:groupmode="layer"
     inkscape:label="Z0_LOWERTHIRD"
     id="g228"
     transform="translate(-45989.493,35758.145)" />
</svg>
