<?xml version="1.0" encoding="UTF-8" standalone="no"?>
<svg
   xmlns:dc="http://purl.org/dc/elements/1.1/"
   xmlns:cc="http://creativecommons.org/ns#"
   xmlns:rdf="http://www.w3.org/1999/02/22-rdf-syntax-ns#"
   xmlns:svg="http://www.w3.org/2000/svg"
   xmlns="http://www.w3.org/2000/svg"
   xmlns:sodipodi="http://sodipodi.sourceforge.net/DTD/sodipodi-0.dtd"
   xmlns:inkscape="http://www.inkscape.org/namespaces/inkscape"
   width="1823.5143"
   height="3781.0142"
   id="svg2"
   version="1.1"
   inkscape:version="0.91 r13725"
   sodipodi:docname="181109_ModPlay_Sec_C-M_4.svg">
  <metadata
     id="metadata262">
    <rdf:RDF>
      <cc:Work
         rdf:about="">
        <dc:format>image/svg+xml</dc:format>
        <dc:type
           rdf:resource="http://purl.org/dc/dcmitype/StillImage" />
        <dc:title></dc:title>
      </cc:Work>
    </rdf:RDF>
  </metadata>
  <sodipodi:namedview
     pagecolor="#ffffff"
     bordercolor="#666666"
     borderopacity="1"
     objecttolerance="10"
     gridtolerance="10"
     guidetolerance="10"
     inkscape:pageopacity="0"
     inkscape:pageshadow="2"
     inkscape:window-width="1203"
     inkscape:window-height="762"
     id="namedview260"
     showgrid="false"
     fit-margin-top="0"
     fit-margin-left="0"
     fit-margin-right="0"
     fit-margin-bottom="0"
     inkscape:zoom="0.14810841"
     inkscape:cx="911.75712"
     inkscape:cy="1890.5071"
     inkscape:window-x="0"
     inkscape:window-y="0"
     inkscape:window-maximized="0"
     inkscape:current-layer="g84" />
  <desc
     id="desc4">/Users/briancox/Documents/Win_Para_Share/VEL270/2018/181109_ModPlay_Sec_C-M_4.dxf - scale = 25.400000, origin = (0.000000, 0.000000), auto = False</desc>
  <defs
     id="defs6">
    <marker
       id="DistanceX"
       orient="auto"
       refX="0"
       refY="0"
       style="overflow:visible">
      <path
         d="M 3,-3 -3,3 M 0,-5 0,5"
         style="stroke:#000000;stroke-width:0.5"
         id="path9"
         inkscape:connector-curvature="0" />
    </marker>
    <pattern
       height="8"
       id="Hatch"
       patternUnits="userSpaceOnUse"
       width="8"
       x="0"
       y="0">
      <path
         d="M8 4 l-4,4"
         linecap="square"
         stroke="#000000"
         stroke-width="0.25"
         id="path12" />
      <path
         d="M6 2 l-4,4"
         linecap="square"
         stroke="#000000"
         stroke-width="0.25"
         id="path14" />
      <path
         d="M4 0 l-4,4"
         linecap="square"
         stroke="#000000"
         stroke-width="0.25"
         id="path16" />
    </pattern>
    <symbol
       id="*MODEL_SPACE" />
    <symbol
       id="*PAPER_SPACE" />
  </defs>
  <g
     inkscape:groupmode="layer"
     inkscape:label="Z0_BOTCOMP"
     id="g84"
     transform="translate(-52019.488,43768.145)">
    <path
       d="m 52782.475,-42261.576 a 25.65,25.65 0 0 0 -24.725,18.825"
       style="fill:none;stroke:#00ffff;stroke-linecap:round"
       id="path86"
       inkscape:connector-curvature="0" />
    <path
       d="m 52760.262,-42223.101 a 25.65,25.65 0 0 0 28.665,12"
       style="fill:none;stroke:#00ffff;stroke-linecap:round"
       id="path88"
       inkscape:connector-curvature="0" />
    <path
       d="m 52804.689,-42223.101 a 25.65,25.65 0 0 0 -3.94,-30.825"
       style="fill:none;stroke:#00ffff;stroke-linecap:round"
       id="path90"
       inkscape:connector-curvature="0" />
    <path
       d="m 52760.262,-42223.101 6.625,-3.825"
       style="fill:none;stroke:#00ffff;stroke-linecap:round"
       id="path92"
       inkscape:connector-curvature="0" />
    <path
       d="m 52766.887,-42226.926 -9.137,-15.825"
       style="fill:none;stroke:#00ffff;stroke-linecap:round"
       id="path94"
       inkscape:connector-curvature="0" />
    <path
       d="m 52804.689,-42223.101 -6.625,-3.825"
       style="fill:none;stroke:#00ffff;stroke-linecap:round"
       id="path96"
       inkscape:connector-curvature="0" />
    <path
       d="m 52798.064,-42226.926 -9.137,15.825"
       style="fill:none;stroke:#00ffff;stroke-linecap:round"
       id="path98"
       inkscape:connector-curvature="0" />
    <path
       d="m 52782.475,-42253.926 18.274,0"
       style="fill:none;stroke:#00ffff;stroke-linecap:round"
       id="path100"
       inkscape:connector-curvature="0" />
    <path
       d="m 52782.475,-42261.576 0,7.65"
       style="fill:none;stroke:#00ffff;stroke-linecap:round"
       id="path102"
       inkscape:connector-curvature="0" />
    <path
       d="m 52787.785,-42235.926 a 5.31,5.31 0 1 0 -10.62,0 5.31,5.31 0 1 0 10.62,0 z"
       style="fill:none;stroke:#00ffff;stroke-linecap:round"
       id="path104"
       inkscape:connector-curvature="0" />
    <path
       d="m 52790.125,-42235.926 a 7.65,7.65 0 1 0 -15.3,0 7.65,7.65 0 1 0 15.3,0 z"
       style="fill:none;stroke:#00ffff;stroke-linecap:round"
       id="path106"
       inkscape:connector-curvature="0" />
    <path
       d="m 53038.12,-42482.865 0,270"
       style="fill:none;stroke:#00ffff;stroke-linecap:round"
       id="path108"
       inkscape:connector-curvature="0" />
    <path
       d="m 52925.62,-42263.49 a 11.25,11.25 0 1 0 -22.5,0 11.25,11.25 0 1 0 22.5,0 z"
       style="fill:none;stroke:#00ffff;stroke-linecap:round"
       id="path110"
       inkscape:connector-curvature="0" />
    <path
       d="m 52918.375,-42263.49 a 4.005,4.005 0 1 0 -8.01,0 4.005,4.005 0 1 0 8.01,0 z"
       style="fill:none;stroke:#00ffff;stroke-linecap:round"
       id="path112"
       inkscape:connector-curvature="0" />
    <path
       d="m 52979.921,-42347.865 a 65.551181,65.551181 0 1 0 -131.102,0 65.551181,65.551181 0 1 0 131.102,0 z"
       style="fill:none;stroke:#00ffff;stroke-linecap:round"
       id="path114"
       inkscape:connector-curvature="0" />
    <path
       d="m 52914.37,-42282.314 0,-131.102"
       style="fill:none;stroke:#00ffff;stroke-linecap:round"
       id="path116"
       inkscape:connector-curvature="0" />
    <path
       d="m 53038.12,-42212.865 -247.5,0"
       style="fill:none;stroke:#00ffff;stroke-linecap:round"
       id="path118"
       inkscape:connector-curvature="0" />
    <path
       d="m 53017.87,-42244.365 -207,0"
       style="fill:none;stroke:#00ffff;stroke-linecap:round"
       id="path120"
       inkscape:connector-curvature="0" />
    <path
       d="m 52818.295,-42244.365 a 7.425,7.425 0 1 0 -14.85,0 7.425,7.425 0 1 0 14.85,0 z"
       style="fill:none;stroke:#00ffff;stroke-linecap:round"
       id="path122"
       inkscape:connector-curvature="0" />
    <path
       d="m 53025.295,-42244.365 a 7.425,7.425 0 1 0 -14.85,0 7.425,7.425 0 1 0 14.85,0 z"
       style="fill:none;stroke:#00ffff;stroke-linecap:round"
       id="path124"
       inkscape:connector-curvature="0" />
    <path
       d="m 53038.12,-42347.865 -247.5,0"
       style="fill:none;stroke:#00ffff;stroke-linecap:round"
       id="path126"
       inkscape:connector-curvature="0" />
    <path
       d="m 53000.77,-42347.865 a 24.75,24.75 0 1 0 -49.5,0 24.75,24.75 0 1 0 49.5,0 z"
       style="fill:none;stroke:#00ffff;stroke-linecap:round"
       id="path128"
       inkscape:connector-curvature="0" />
    <path
       d="m 52790.62,-42482.865 247.5,0"
       style="fill:none;stroke:#00ffff;stroke-linecap:round"
       id="path130"
       inkscape:connector-curvature="0" />
    <path
       d="m 53017.87,-42347.865 -207,0"
       style="fill:none;stroke:#00ffff;stroke-linecap:round"
       id="path132"
       inkscape:connector-curvature="0" />
    <path
       d="m 52810.87,-42451.365 207,0"
       style="fill:none;stroke:#00ffff;stroke-linecap:round"
       id="path134"
       inkscape:connector-curvature="0" />
    <path
       d="m 52976.02,-42347.865 -123.3,0"
       style="fill:none;stroke:#00ffff;stroke-linecap:round"
       id="path136"
       inkscape:connector-curvature="0" />
    <path
       d="m 52987.27,-42347.865 a 11.25,11.25 0 1 0 -22.5,0 11.25,11.25 0 1 0 22.5,0 z"
       style="fill:none;stroke:#00ffff;stroke-linecap:round"
       id="path138"
       inkscape:connector-curvature="0" />
    <path
       d="m 52979.921,-42347.865 -131.102,0"
       style="fill:none;stroke:#00ffff;stroke-linecap:round"
       id="path140"
       inkscape:connector-curvature="0" />
    <path
       d="m 52948.57,-42587.265 0,104.4"
       style="fill:none;stroke:#00ffff;stroke-linecap:round"
       id="path142"
       inkscape:connector-curvature="0" />
    <path
       d="m 52880.17,-42482.865 0,-104.4"
       style="fill:none;stroke:#00ffff;stroke-linecap:round"
       id="path144"
       inkscape:connector-curvature="0" />
    <path
       d="m 52880.17,-42587.265 68.4,0"
       style="fill:none;stroke:#00ffff;stroke-linecap:round"
       id="path146"
       inkscape:connector-curvature="0" />
    <path
       d="m 52863.97,-42347.865 a 11.25,11.25 0 1 0 -22.5,0 11.25,11.25 0 1 0 22.5,0 z"
       style="fill:none;stroke:#00ffff;stroke-linecap:round"
       id="path148"
       inkscape:connector-curvature="0" />
    <path
       d="m 52955.118,-42347.865 a 40.748031,40.748031 0 1 0 -81.496,0 40.748031,40.748031 0 1 0 81.496,0 z"
       style="fill:none;stroke:#00ffff;stroke-linecap:round"
       id="path150"
       inkscape:connector-curvature="0" />
    <path
       d="m 52877.47,-42347.865 a 24.75,24.75 0 1 0 -49.5,0 24.75,24.75 0 1 0 49.5,0 z"
       style="fill:none;stroke:#00ffff;stroke-linecap:round"
       id="path152"
       inkscape:connector-curvature="0" />
    <path
       d="m 52818.295,-42451.365 a 7.425,7.425 0 1 0 -14.85,0 7.425,7.425 0 1 0 14.85,0 z"
       style="fill:none;stroke:#00ffff;stroke-linecap:round"
       id="path154"
       inkscape:connector-curvature="0" />
    <path
       d="m 52925.62,-42432.24 a 11.25,11.25 0 1 0 -22.5,0 11.25,11.25 0 1 0 22.5,0 z"
       style="fill:none;stroke:#00ffff;stroke-linecap:round"
       id="path156"
       inkscape:connector-curvature="0" />
    <path
       d="m 52918.375,-42432.24 a 4.005,4.005 0 1 0 -8.01,0 4.005,4.005 0 1 0 8.01,0 z"
       style="fill:none;stroke:#00ffff;stroke-linecap:round"
       id="path158"
       inkscape:connector-curvature="0" />
    <path
       d="m 52948.57,-42482.865 -68.4,0"
       style="fill:none;stroke:#00ffff;stroke-linecap:round"
       id="path160"
       inkscape:connector-curvature="0" />
    <path
       d="m 53025.295,-42451.365 a 7.425,7.425 0 1 0 -14.85,0 7.425,7.425 0 1 0 14.85,0 z"
       style="fill:none;stroke:#00ffff;stroke-linecap:round"
       id="path162"
       inkscape:connector-curvature="0" />
    <path
       d="m 53026.87,-42347.865 a 112.5,112.5 0 1 0 -225,0 112.5,112.5 0 1 0 225,0 z"
       style="fill:none;stroke:#00ffff;stroke-linecap:round"
       id="path164"
       inkscape:connector-curvature="0" />
    <path
       d="m 53016.52,-42347.865 a 102.15,102.15 0 1 0 -204.3,0 102.15,102.15 0 1 0 204.3,0 z"
       style="fill:none;stroke:#00ffff;stroke-linecap:round"
       id="path166"
       inkscape:connector-curvature="0" />
    <path
       d="m 53004.37,-42347.865 a 90,90 0 1 0 -180,0 90,90 0 1 0 180,0 z"
       style="fill:none;stroke:#00ffff;stroke-linecap:round"
       id="path168"
       inkscape:connector-curvature="0" />
    <path
       d="m 52987.495,-42347.865 a 73.125,73.125 0 1 0 -146.25,0 73.125,73.125 0 1 0 146.25,0 z"
       style="fill:none;stroke:#00ffff;stroke-linecap:round"
       id="path170"
       inkscape:connector-curvature="0" />
    <path
       d="m 52790.62,-42212.865 0,-270"
       style="fill:none;stroke:#00ffff;stroke-linecap:round"
       id="path172"
       inkscape:connector-curvature="0" />
    <path
       d="m 52810.87,-42244.365 0,-207"
       style="fill:none;stroke:#00ffff;stroke-linecap:round"
       id="path174"
       inkscape:connector-curvature="0" />
    <path
       d="m 52914.37,-42244.365 0,-207"
       style="fill:none;stroke:#00ffff;stroke-linecap:round"
       id="path176"
       inkscape:connector-curvature="0" />
    <path
       d="m 52914.37,-42212.865 0,-270"
       style="fill:none;stroke:#00ffff;stroke-linecap:round"
       id="path178"
       inkscape:connector-curvature="0" />
    <path
       d="m 52914.37,-42432.24 0,168.75"
       style="fill:none;stroke:#00ffff;stroke-linecap:round"
       id="path180"
       inkscape:connector-curvature="0" />
    <path
       d="m 53017.87,-42451.365 0,207"
       style="fill:none;stroke:#00ffff;stroke-linecap:round"
       id="path182"
       inkscape:connector-curvature="0" />
    <path
       d="m 53047.12,-42261.576 a 25.65,25.65 0 0 0 -24.725,18.825"
       style="fill:none;stroke:#00ffff;stroke-linecap:round"
       id="path184"
       inkscape:connector-curvature="0" />
    <path
       d="m 53024.907,-42223.101 a 25.65,25.65 0 0 0 28.665,12"
       style="fill:none;stroke:#00ffff;stroke-linecap:round"
       id="path186"
       inkscape:connector-curvature="0" />
    <path
       d="m 53069.334,-42223.101 a 25.65,25.65 0 0 0 -3.94,-30.825"
       style="fill:none;stroke:#00ffff;stroke-linecap:round"
       id="path188"
       inkscape:connector-curvature="0" />
    <path
       d="m 53024.907,-42223.101 6.625,-3.825"
       style="fill:none;stroke:#00ffff;stroke-linecap:round"
       id="path190"
       inkscape:connector-curvature="0" />
    <path
       d="m 53031.532,-42226.926 -9.137,-15.825"
       style="fill:none;stroke:#00ffff;stroke-linecap:round"
       id="path192"
       inkscape:connector-curvature="0" />
    <path
       d="m 53069.334,-42223.101 -6.625,-3.825"
       style="fill:none;stroke:#00ffff;stroke-linecap:round"
       id="path194"
       inkscape:connector-curvature="0" />
    <path
       d="m 53062.709,-42226.926 -9.137,15.825"
       style="fill:none;stroke:#00ffff;stroke-linecap:round"
       id="path196"
       inkscape:connector-curvature="0" />
    <path
       d="m 53047.12,-42253.926 18.274,0"
       style="fill:none;stroke:#00ffff;stroke-linecap:round"
       id="path198"
       inkscape:connector-curvature="0" />
    <path
       d="m 53047.12,-42261.576 0,7.65"
       style="fill:none;stroke:#00ffff;stroke-linecap:round"
       id="path200"
       inkscape:connector-curvature="0" />
    <path
       d="m 53052.43,-42235.926 a 5.31,5.31 0 1 0 -10.62,0 5.31,5.31 0 1 0 10.62,0 z"
       style="fill:none;stroke:#00ffff;stroke-linecap:round"
       id="path202"
       inkscape:connector-curvature="0" />
    <path
       d="m 53054.77,-42235.926 a 7.65,7.65 0 1 0 -15.3,0 7.65,7.65 0 1 0 15.3,0 z"
       style="fill:none;stroke:#00ffff;stroke-linecap:round"
       id="path204"
       inkscape:connector-curvature="0" />
  </g>
  <g
     inkscape:groupmode="layer"
     inkscape:label="Z0_TOPCOMP"
     id="g206"
     transform="translate(-52019.488,43768.145)">
    <path
       d="m 52813.975,-42235.926 a 31.5,31.5 0 1 0 -63,0 31.5,31.5 0 1 0 63,0 z"
       style="fill:none;stroke:#ff00ff;stroke-linecap:round"
       id="path208"
       inkscape:connector-curvature="0" />
    <path
       d="m 53078.62,-42235.926 a 31.5,31.5 0 1 0 -63,0 31.5,31.5 0 1 0 63,0 z"
       style="fill:none;stroke:#ff00ff;stroke-linecap:round"
       id="path210"
       inkscape:connector-curvature="0" />
  </g>
  <g
     inkscape:groupmode="layer"
     inkscape:label="Z0_CUT250"
     id="g212"
     transform="translate(-52019.488,43768.145)" />
  <g
     inkscape:groupmode="layer"
     inkscape:label="Z0_CUT500"
     id="g214"
     transform="translate(-52019.488,43768.145)">
    <path
       d="m 52789.9,-42235.926 a 7.425,7.425 0 1 0 -14.85,0 7.425,7.425 0 1 0 14.85,0 z"
       style="fill:none;stroke:#0000ff;stroke-linecap:round"
       id="path216"
       inkscape:connector-curvature="0" />
    <path
       d="m 53027.77,-42347.865 a 113.4,113.4 0 1 0 -226.8,0 113.4,113.4 0 1 0 226.8,0 z"
       style="fill:none;stroke:#0000ff;stroke-linecap:round"
       id="path218"
       inkscape:connector-curvature="0" />
    <path
       d="m 53054.545,-42235.926 a 7.425,7.425 0 1 0 -14.85,0 7.425,7.425 0 1 0 14.85,0 z"
       style="fill:none;stroke:#0000ff;stroke-linecap:round"
       id="path220"
       inkscape:connector-curvature="0" />
  </g>
  <g
     inkscape:groupmode="layer"
     inkscape:label="Z0_PLASTICS"
     id="g222"
     transform="translate(-52019.488,43768.145)" />
  <g
     inkscape:groupmode="layer"
     inkscape:label="Z0_RUBBER"
     id="g224"
     transform="translate(-52019.488,43768.145)">
    <path
       d="m 52818.475,-42235.926 a 36,36 0 1 0 -72,0 36,36 0 1 0 72,0 z"
       style="fill:none;stroke:#ffff00;stroke-linecap:round"
       id="path226"
       inkscape:connector-curvature="0" />
    <path
       d="m 52801.825,-42235.926 a 19.35,19.35 0 1 0 -38.7,0 19.35,19.35 0 1 0 38.7,0 z"
       style="fill:none;stroke:#ffff00;stroke-linecap:round"
       id="path228"
       inkscape:connector-curvature="0" />
    <path
       d="m 53083.12,-42235.926 a 36,36 0 1 0 -72,0 36,36 0 1 0 72,0 z"
       style="fill:none;stroke:#ffff00;stroke-linecap:round"
       id="path230"
       inkscape:connector-curvature="0" />
    <path
       d="m 53066.47,-42235.926 a 19.35,19.35 0 1 0 -38.7,0 19.35,19.35 0 1 0 38.7,0 z"
       style="fill:none;stroke:#ffff00;stroke-linecap:round"
       id="path232"
       inkscape:connector-curvature="0" />
  </g>
  <g
     inkscape:groupmode="layer"
     inkscape:label="Z0_ZONES"
     id="g234"
     transform="translate(-52019.488,43768.145)" />
  <g
     inkscape:groupmode="layer"
     inkscape:label="Z0_WOODOUTLINE"
     id="g236"
     transform="translate(-52019.488,43768.145)">
    <path
       d="m 53842.485,-43767.638 0.01,3405.152"
       style="fill:none;stroke:#0000ff;stroke-linecap:round"
       id="path238"
       inkscape:connector-curvature="0" />
    <path
       d="m 52019.995,-43767.638 0,3455.777"
       style="fill:none;stroke:#0000ff;stroke-linecap:round"
       id="path240"
       inkscape:connector-curvature="0" />
    <path
       d="m 52019.995,-43767.638 1822.49,0"
       style="fill:none;stroke:#0000ff;stroke-linecap:round"
       id="path242"
       inkscape:connector-curvature="0" />
    <path
       d="m 52155,-39987.638 1518.745,0"
       style="fill:none;stroke:#0000ff;stroke-linecap:round"
       id="path244"
       inkscape:connector-curvature="0" />
    <path
       d="m 52132.5,-40311.861 -112.5,0"
       style="fill:none;stroke:#0000ff;stroke-linecap:round"
       id="path246"
       inkscape:connector-curvature="0" />
    <path
       d="m 52155,-39987.638 0,-301.723"
       style="fill:none;stroke:#0000ff;stroke-linecap:round"
       id="path248"
       inkscape:connector-curvature="0" />
    <path
       d="m 52155,-40289.361 a 22.5,22.5 0 0 0 -22.5,-22.5"
       style="fill:none;stroke:#0000ff;stroke-linecap:round"
       id="path250"
       inkscape:connector-curvature="0" />
    <path
       d="m 53673.745,-40362.486 168.75,0"
       style="fill:none;stroke:#0000ff;stroke-linecap:round"
       id="path252"
       inkscape:connector-curvature="0" />
    <path
       d="m 53673.745,-40317.486 0,329.848"
       style="fill:none;stroke:#0000ff;stroke-linecap:round"
       id="path254"
       inkscape:connector-curvature="0" />
    <path
       d="m 53673.745,-40362.486 a 22.5,22.5 0 0 0 0,45"
       style="fill:none;stroke:#0000ff;stroke-linecap:round"
       id="path256"
       inkscape:connector-curvature="0" />
  </g>
  <g
     inkscape:groupmode="layer"
     inkscape:label="Z0_LOWERTHIRD"
     id="g258"
     transform="translate(-52019.488,43768.145)" />
</svg>
