<?xml version="1.0" encoding="UTF-8" standalone="no"?>
<svg
   xmlns:dc="http://purl.org/dc/elements/1.1/"
   xmlns:cc="http://creativecommons.org/ns#"
   xmlns:rdf="http://www.w3.org/1999/02/22-rdf-syntax-ns#"
   xmlns:svg="http://www.w3.org/2000/svg"
   xmlns="http://www.w3.org/2000/svg"
   xmlns:sodipodi="http://sodipodi.sourceforge.net/DTD/sodipodi-0.dtd"
   xmlns:inkscape="http://www.inkscape.org/namespaces/inkscape"
   width="1823.5143"
   height="3781.0142"
   id="svg2"
   version="1.1"
   inkscape:version="0.91 r13725"
   sodipodi:docname="181109_ModPlay_Sec_C-1_2.svg">
  <metadata
     id="metadata202">
    <rdf:RDF>
      <cc:Work
         rdf:about="">
        <dc:format>image/svg+xml</dc:format>
        <dc:type
           rdf:resource="http://purl.org/dc/dcmitype/StillImage" />
        <dc:title></dc:title>
      </cc:Work>
    </rdf:RDF>
  </metadata>
  <sodipodi:namedview
     pagecolor="#ffffff"
     bordercolor="#666666"
     borderopacity="1"
     objecttolerance="10"
     gridtolerance="10"
     guidetolerance="10"
     inkscape:pageopacity="0"
     inkscape:pageshadow="2"
     inkscape:window-width="1076"
     inkscape:window-height="742"
     id="namedview200"
     showgrid="false"
     fit-margin-top="0"
     fit-margin-left="0"
     fit-margin-right="0"
     fit-margin-bottom="0"
     inkscape:zoom="0.14281882"
     inkscape:cx="911.75712"
     inkscape:cy="1890.5071"
     inkscape:window-x="0"
     inkscape:window-y="0"
     inkscape:window-maximized="0"
     inkscape:current-layer="g84" />
  <desc
     id="desc4">/Users/briancox/Documents/Win_Para_Share/VEL270/2018/181109_ModPlay_Sec_C-1_2.dxf - scale = 25.400000, origin = (0.000000, 0.000000), auto = False</desc>
  <defs
     id="defs6">
    <marker
       id="DistanceX"
       orient="auto"
       refX="0"
       refY="0"
       style="overflow:visible">
      <path
         d="M 3,-3 -3,3 M 0,-5 0,5"
         style="stroke:#000000;stroke-width:0.5"
         id="path9"
         inkscape:connector-curvature="0" />
    </marker>
    <pattern
       height="8"
       id="Hatch"
       patternUnits="userSpaceOnUse"
       width="8"
       x="0"
       y="0">
      <path
         d="M8 4 l-4,4"
         linecap="square"
         stroke="#000000"
         stroke-width="0.25"
         id="path12" />
      <path
         d="M6 2 l-4,4"
         linecap="square"
         stroke="#000000"
         stroke-width="0.25"
         id="path14" />
      <path
         d="M4 0 l-4,4"
         linecap="square"
         stroke="#000000"
         stroke-width="0.25"
         id="path16" />
    </pattern>
    <symbol
       id="*MODEL_SPACE" />
    <symbol
       id="*PAPER_SPACE" />
  </defs>
  <g
     inkscape:groupmode="layer"
     inkscape:label="Z0_BOTCOMP"
     id="g84"
     transform="translate(-40139.493,39808.145)">
    <path
       d="m 40323.002,-38439.829 a 25.65,25.65 0 0 0 -24.725,18.825"
       style="fill:none;stroke:#00ffff;stroke-linecap:round"
       id="path86"
       inkscape:connector-curvature="0" />
    <path
       d="m 40300.789,-38401.354 a 25.65,25.65 0 0 0 28.665,12.001"
       style="fill:none;stroke:#00ffff;stroke-linecap:round"
       id="path88"
       inkscape:connector-curvature="0" />
    <path
       d="m 40345.216,-38401.354 a 25.65,25.65 0 0 0 -3.94,-30.825"
       style="fill:none;stroke:#00ffff;stroke-linecap:round"
       id="path90"
       inkscape:connector-curvature="0" />
    <path
       d="m 40300.789,-38401.354 6.625,-3.825"
       style="fill:none;stroke:#00ffff;stroke-linecap:round"
       id="path92"
       inkscape:connector-curvature="0" />
    <path
       d="m 40307.414,-38405.179 -9.137,-15.825"
       style="fill:none;stroke:#00ffff;stroke-linecap:round"
       id="path94"
       inkscape:connector-curvature="0" />
    <path
       d="m 40345.216,-38401.354 -6.625,-3.825"
       style="fill:none;stroke:#00ffff;stroke-linecap:round"
       id="path96"
       inkscape:connector-curvature="0" />
    <path
       d="m 40338.591,-38405.179 -9.137,15.826"
       style="fill:none;stroke:#00ffff;stroke-linecap:round"
       id="path98"
       inkscape:connector-curvature="0" />
    <path
       d="m 40323.002,-38432.179 18.274,0"
       style="fill:none;stroke:#00ffff;stroke-linecap:round"
       id="path100"
       inkscape:connector-curvature="0" />
    <path
       d="m 40323.002,-38439.829 0,7.65"
       style="fill:none;stroke:#00ffff;stroke-linecap:round"
       id="path102"
       inkscape:connector-curvature="0" />
    <path
       d="m 40328.312,-38414.179 a 5.31,5.31 0 1 0 -10.62,0 5.31,5.31 0 1 0 10.62,0 z"
       style="fill:none;stroke:#00ffff;stroke-linecap:round"
       id="path104"
       inkscape:connector-curvature="0" />
    <path
       d="m 40330.652,-38414.179 a 7.65,7.65 0 1 0 -15.3,0 7.65,7.65 0 1 0 15.3,0 z"
       style="fill:none;stroke:#00ffff;stroke-linecap:round"
       id="path106"
       inkscape:connector-curvature="0" />
  </g>
  <g
     inkscape:groupmode="layer"
     inkscape:label="Z0_TOPCOMP"
     id="g108"
     transform="translate(-40139.493,39808.145)">
    <path
       d="m 40354.502,-38414.179 a 31.5,31.5 0 1 0 -63,0 31.5,31.5 0 1 0 63,0 z"
       style="fill:none;stroke:#ff00ff;stroke-linecap:round"
       id="path110"
       inkscape:connector-curvature="0" />
    <path
       d="m 40369.633,-38322.747 -40.5,0"
       style="fill:none;stroke:#ff00ff;stroke-linecap:round"
       id="path112"
       inkscape:connector-curvature="0" />
    <path
       d="m 40329.133,-38358.747 40.5,0"
       style="fill:none;stroke:#ff00ff;stroke-linecap:round"
       id="path114"
       inkscape:connector-curvature="0" />
    <path
       d="m 40360.633,-38295.747 9,0"
       style="fill:none;stroke:#ff00ff;stroke-linecap:round"
       id="path116"
       inkscape:connector-curvature="0" />
    <path
       d="m 40360.633,-38385.747 0,90"
       style="fill:none;stroke:#ff00ff;stroke-linecap:round"
       id="path118"
       inkscape:connector-curvature="0" />
    <path
       d="m 40369.633,-38295.747 0,-90"
       style="fill:none;stroke:#ff00ff;stroke-linecap:round"
       id="path120"
       inkscape:connector-curvature="0" />
    <path
       d="m 40355.571,-38290.122 0,0"
       style="fill:none;stroke:#ff00ff;stroke-linecap:round"
       id="path122"
       inkscape:connector-curvature="0" />
    <path
       d="m 40355.571,-38391.372 0,0"
       style="fill:none;stroke:#ff00ff;stroke-linecap:round"
       id="path124"
       inkscape:connector-curvature="0" />
    <path
       d="m 40369.633,-38385.747 -9,0"
       style="fill:none;stroke:#ff00ff;stroke-linecap:round"
       id="path126"
       inkscape:connector-curvature="0" />
    <path
       d="m 40369.633,-38358.747 0,36"
       style="fill:none;stroke:#ff00ff;stroke-linecap:round"
       id="path128"
       inkscape:connector-curvature="0" />
    <path
       d="m 40355.571,-38335.122 0,0"
       style="fill:none;stroke:#ff00ff;stroke-linecap:round"
       id="path130"
       inkscape:connector-curvature="0" />
    <path
       d="m 40329.133,-38330.847 -9,0"
       style="fill:none;stroke:#ff00ff;stroke-linecap:round"
       id="path132"
       inkscape:connector-curvature="0" />
    <path
       d="m 40320.133,-38350.647 9,0"
       style="fill:none;stroke:#ff00ff;stroke-linecap:round"
       id="path134"
       inkscape:connector-curvature="0" />
    <path
       d="m 40320.133,-38330.847 0,-19.8"
       style="fill:none;stroke:#ff00ff;stroke-linecap:round"
       id="path136"
       inkscape:connector-curvature="0" />
    <path
       d="m 40338.696,-38322.747 -5.625,0"
       style="fill:none;stroke:#ff00ff;stroke-linecap:round"
       id="path138"
       inkscape:connector-curvature="0" />
    <path
       d="m 40338.696,-38358.747 0,36"
       style="fill:none;stroke:#ff00ff;stroke-linecap:round"
       id="path140"
       inkscape:connector-curvature="0" />
    <path
       d="m 40333.071,-38358.747 5.625,0"
       style="fill:none;stroke:#ff00ff;stroke-linecap:round"
       id="path142"
       inkscape:connector-curvature="0" />
    <path
       d="m 40333.071,-38322.747 0,-36"
       style="fill:none;stroke:#ff00ff;stroke-linecap:round"
       id="path144"
       inkscape:connector-curvature="0" />
    <path
       d="m 40329.133,-38350.647 0,19.8"
       style="fill:none;stroke:#ff00ff;stroke-linecap:round"
       id="path146"
       inkscape:connector-curvature="0" />
    <path
       d="m 40329.133,-38322.747 0,-36"
       style="fill:none;stroke:#ff00ff;stroke-linecap:round"
       id="path148"
       inkscape:connector-curvature="0" />
    <path
       d="m 40355.571,-38391.372 0,0"
       style="fill:none;stroke:#ff00ff;stroke-linecap:round"
       id="path150"
       inkscape:connector-curvature="0" />
  </g>
  <g
     inkscape:groupmode="layer"
     inkscape:label="Z0_CUT250"
     id="g152"
     transform="translate(-40139.493,39808.145)" />
  <g
     inkscape:groupmode="layer"
     inkscape:label="Z0_CUT500"
     id="g154"
     transform="translate(-40139.493,39808.145)">
    <path
       d="m 40330.427,-38414.179 a 7.425,7.425 0 1 0 -14.85,0 7.425,7.425 0 1 0 14.85,0 z"
       style="fill:none;stroke:#0000ff;stroke-linecap:round"
       id="path156"
       inkscape:connector-curvature="0" />
    <path
       d="m 40333.071,-38312.617 a 22.5,22.5 0 0 0 45,0"
       style="fill:none;stroke:#0000ff;stroke-linecap:round"
       id="path158"
       inkscape:connector-curvature="0" />
    <path
       d="m 40333.071,-38312.617 0,-56.25"
       style="fill:none;stroke:#0000ff;stroke-linecap:round"
       id="path160"
       inkscape:connector-curvature="0" />
    <path
       d="m 40378.071,-38368.867 0,56.25"
       style="fill:none;stroke:#0000ff;stroke-linecap:round"
       id="path162"
       inkscape:connector-curvature="0" />
    <path
       d="m 40378.071,-38368.867 a 22.5,22.5 0 0 0 -45,0"
       style="fill:none;stroke:#0000ff;stroke-linecap:round"
       id="path164"
       inkscape:connector-curvature="0" />
  </g>
  <g
     inkscape:groupmode="layer"
     inkscape:label="Z0_PLASTICS"
     id="g166"
     transform="translate(-40139.493,39808.145)" />
  <g
     inkscape:groupmode="layer"
     inkscape:label="Z0_RUBBER"
     id="g168"
     transform="translate(-40139.493,39808.145)">
    <path
       d="m 40359.002,-38414.179 a 36,36 0 1 0 -72,0 36,36 0 1 0 72,0 z"
       style="fill:none;stroke:#ffff00;stroke-linecap:round"
       id="path170"
       inkscape:connector-curvature="0" />
    <path
       d="m 40342.352,-38414.179 a 19.35,19.35 0 1 0 -38.7,0 19.35,19.35 0 1 0 38.7,0 z"
       style="fill:none;stroke:#ffff00;stroke-linecap:round"
       id="path172"
       inkscape:connector-curvature="0" />
  </g>
  <g
     inkscape:groupmode="layer"
     inkscape:label="Z0_ZONES"
     id="g174"
     transform="translate(-40139.493,39808.145)" />
  <g
     inkscape:groupmode="layer"
     inkscape:label="Z0_WOODOUTLINE"
     id="g176"
     transform="translate(-40139.493,39808.145)">
    <path
       d="m 41962.49,-39807.638 0.01,3405.152"
       style="fill:none;stroke:#0000ff;stroke-linecap:round"
       id="path178"
       inkscape:connector-curvature="0" />
    <path
       d="m 40140,-39807.638 0,3455.777"
       style="fill:none;stroke:#0000ff;stroke-linecap:round"
       id="path180"
       inkscape:connector-curvature="0" />
    <path
       d="m 40140,-39807.638 1822.49,0"
       style="fill:none;stroke:#0000ff;stroke-linecap:round"
       id="path182"
       inkscape:connector-curvature="0" />
    <path
       d="m 40275.005,-36027.638 1518.745,0"
       style="fill:none;stroke:#0000ff;stroke-linecap:round"
       id="path184"
       inkscape:connector-curvature="0" />
    <path
       d="m 40252.505,-36351.861 -112.5,0"
       style="fill:none;stroke:#0000ff;stroke-linecap:round"
       id="path186"
       inkscape:connector-curvature="0" />
    <path
       d="m 40275.005,-36027.638 0,-301.723"
       style="fill:none;stroke:#0000ff;stroke-linecap:round"
       id="path188"
       inkscape:connector-curvature="0" />
    <path
       d="m 40275.005,-36329.361 a 22.5,22.5 0 0 0 -22.5,-22.5"
       style="fill:none;stroke:#0000ff;stroke-linecap:round"
       id="path190"
       inkscape:connector-curvature="0" />
    <path
       d="m 41793.75,-36402.486 168.75,0"
       style="fill:none;stroke:#0000ff;stroke-linecap:round"
       id="path192"
       inkscape:connector-curvature="0" />
    <path
       d="m 41793.75,-36357.486 0,329.848"
       style="fill:none;stroke:#0000ff;stroke-linecap:round"
       id="path194"
       inkscape:connector-curvature="0" />
    <path
       d="m 41793.75,-36402.486 a 22.5,22.5 0 0 0 0,45"
       style="fill:none;stroke:#0000ff;stroke-linecap:round"
       id="path196"
       inkscape:connector-curvature="0" />
  </g>
  <g
     inkscape:groupmode="layer"
     inkscape:label="Z0_LOWERTHIRD"
     id="g198"
     transform="translate(-40139.493,39808.145)" />
</svg>
