<?xml version="1.0" encoding="UTF-8" standalone="no"?>
<svg
   xmlns:dc="http://purl.org/dc/elements/1.1/"
   xmlns:cc="http://creativecommons.org/ns#"
   xmlns:rdf="http://www.w3.org/1999/02/22-rdf-syntax-ns#"
   xmlns:svg="http://www.w3.org/2000/svg"
   xmlns="http://www.w3.org/2000/svg"
   xmlns:sodipodi="http://sodipodi.sourceforge.net/DTD/sodipodi-0.dtd"
   xmlns:inkscape="http://www.inkscape.org/namespaces/inkscape"
   width="1823.5143"
   height="3781.0142"
   id="svg2"
   version="1.1"
   inkscape:version="0.91 r13725"
   sodipodi:docname="181109_ModPlay_Sec_B-M_1.svg">
  <metadata
     id="metadata280">
    <rdf:RDF>
      <cc:Work
         rdf:about="">
        <dc:format>image/svg+xml</dc:format>
        <dc:type
           rdf:resource="http://purl.org/dc/dcmitype/StillImage" />
        <dc:title></dc:title>
      </cc:Work>
    </rdf:RDF>
  </metadata>
  <sodipodi:namedview
     pagecolor="#ffffff"
     bordercolor="#666666"
     borderopacity="1"
     objecttolerance="10"
     gridtolerance="10"
     guidetolerance="10"
     inkscape:pageopacity="0"
     inkscape:pageshadow="2"
     inkscape:window-width="1174"
     inkscape:window-height="726"
     id="namedview278"
     showgrid="false"
     fit-margin-top="0"
     fit-margin-left="0"
     fit-margin-right="0"
     fit-margin-bottom="0"
     inkscape:zoom="0.13858715"
     inkscape:cx="911.75712"
     inkscape:cy="1890.5071"
     inkscape:window-x="0"
     inkscape:window-y="0"
     inkscape:window-maximized="0"
     inkscape:current-layer="g84" />
  <desc
     id="desc4">/Users/briancox/Documents/Win_Para_Share/VEL270/2018/181109_ModPlay_Sec_B-M_1.dxf - scale = 25.400000, origin = (0.000000, 0.000000), auto = False</desc>
  <defs
     id="defs6">
    <marker
       id="DistanceX"
       orient="auto"
       refX="0"
       refY="0"
       style="overflow:visible">
      <path
         d="M 3,-3 -3,3 M 0,-5 0,5"
         style="stroke:#000000;stroke-width:0.5"
         id="path9"
         inkscape:connector-curvature="0" />
    </marker>
    <pattern
       height="8"
       id="Hatch"
       patternUnits="userSpaceOnUse"
       width="8"
       x="0"
       y="0">
      <path
         d="M8 4 l-4,4"
         linecap="square"
         stroke="#000000"
         stroke-width="0.25"
         id="path12" />
      <path
         d="M6 2 l-4,4"
         linecap="square"
         stroke="#000000"
         stroke-width="0.25"
         id="path14" />
      <path
         d="M4 0 l-4,4"
         linecap="square"
         stroke="#000000"
         stroke-width="0.25"
         id="path16" />
    </pattern>
    <symbol
       id="*MODEL_SPACE" />
    <symbol
       id="*PAPER_SPACE" />
  </defs>
  <g
     inkscape:groupmode="layer"
     inkscape:label="Z0_BOTCOMP"
     id="g84"
     transform="translate(-36089.493,35758.145)">
    <path
       d="m 37307.745,-34854.441 0,270"
       style="fill:none;stroke:#00ffff;stroke-linecap:round"
       id="path86"
       inkscape:connector-curvature="0" />
    <path
       d="m 37195.245,-34635.066 a 11.25,11.25 0 1 0 -22.5,0 11.25,11.25 0 1 0 22.5,0 z"
       style="fill:none;stroke:#00ffff;stroke-linecap:round"
       id="path88"
       inkscape:connector-curvature="0" />
    <path
       d="m 37188,-34635.066 a 4.005,4.005 0 1 0 -8.01,0 4.005,4.005 0 1 0 8.01,0 z"
       style="fill:none;stroke:#00ffff;stroke-linecap:round"
       id="path90"
       inkscape:connector-curvature="0" />
    <path
       d="m 37249.546,-34719.441 a 65.551181,65.551181 0 1 0 -131.102,0 65.551181,65.551181 0 1 0 131.102,0 z"
       style="fill:none;stroke:#00ffff;stroke-linecap:round"
       id="path92"
       inkscape:connector-curvature="0" />
    <path
       d="m 37183.995,-34653.89 0,-131.102"
       style="fill:none;stroke:#00ffff;stroke-linecap:round"
       id="path94"
       inkscape:connector-curvature="0" />
    <path
       d="m 37307.745,-34584.441 -247.5,0"
       style="fill:none;stroke:#00ffff;stroke-linecap:round"
       id="path96"
       inkscape:connector-curvature="0" />
    <path
       d="m 37287.495,-34615.941 -207,0"
       style="fill:none;stroke:#00ffff;stroke-linecap:round"
       id="path98"
       inkscape:connector-curvature="0" />
    <path
       d="m 37087.92,-34615.941 a 7.425,7.425 0 1 0 -14.85,0 7.425,7.425 0 1 0 14.85,0 z"
       style="fill:none;stroke:#00ffff;stroke-linecap:round"
       id="path100"
       inkscape:connector-curvature="0" />
    <path
       d="m 37294.92,-34615.941 a 7.425,7.425 0 1 0 -14.85,0 7.425,7.425 0 1 0 14.85,0 z"
       style="fill:none;stroke:#00ffff;stroke-linecap:round"
       id="path102"
       inkscape:connector-curvature="0" />
    <path
       d="m 37307.745,-34719.441 -247.5,0"
       style="fill:none;stroke:#00ffff;stroke-linecap:round"
       id="path104"
       inkscape:connector-curvature="0" />
    <path
       d="m 37270.395,-34719.441 a 24.75,24.75 0 1 0 -49.5,0 24.75,24.75 0 1 0 49.5,0 z"
       style="fill:none;stroke:#00ffff;stroke-linecap:round"
       id="path106"
       inkscape:connector-curvature="0" />
    <path
       d="m 37060.245,-34854.441 247.5,0"
       style="fill:none;stroke:#00ffff;stroke-linecap:round"
       id="path108"
       inkscape:connector-curvature="0" />
    <path
       d="m 37287.495,-34719.441 -207,0"
       style="fill:none;stroke:#00ffff;stroke-linecap:round"
       id="path110"
       inkscape:connector-curvature="0" />
    <path
       d="m 37080.495,-34822.941 207,0"
       style="fill:none;stroke:#00ffff;stroke-linecap:round"
       id="path112"
       inkscape:connector-curvature="0" />
    <path
       d="m 37245.645,-34719.441 -123.3,0"
       style="fill:none;stroke:#00ffff;stroke-linecap:round"
       id="path114"
       inkscape:connector-curvature="0" />
    <path
       d="m 37256.895,-34719.441 a 11.25,11.25 0 1 0 -22.5,0 11.25,11.25 0 1 0 22.5,0 z"
       style="fill:none;stroke:#00ffff;stroke-linecap:round"
       id="path116"
       inkscape:connector-curvature="0" />
    <path
       d="m 37249.546,-34719.441 -131.102,0"
       style="fill:none;stroke:#00ffff;stroke-linecap:round"
       id="path118"
       inkscape:connector-curvature="0" />
    <path
       d="m 37218.195,-34958.841 0,104.4"
       style="fill:none;stroke:#00ffff;stroke-linecap:round"
       id="path120"
       inkscape:connector-curvature="0" />
    <path
       d="m 37149.795,-34854.441 0,-104.4"
       style="fill:none;stroke:#00ffff;stroke-linecap:round"
       id="path122"
       inkscape:connector-curvature="0" />
    <path
       d="m 37149.795,-34958.841 68.4,0"
       style="fill:none;stroke:#00ffff;stroke-linecap:round"
       id="path124"
       inkscape:connector-curvature="0" />
    <path
       d="m 37133.595,-34719.441 a 11.25,11.25 0 1 0 -22.5,0 11.25,11.25 0 1 0 22.5,0 z"
       style="fill:none;stroke:#00ffff;stroke-linecap:round"
       id="path126"
       inkscape:connector-curvature="0" />
    <path
       d="m 37224.743,-34719.441 a 40.748031,40.748031 0 1 0 -81.496,0 40.748031,40.748031 0 1 0 81.496,0 z"
       style="fill:none;stroke:#00ffff;stroke-linecap:round"
       id="path128"
       inkscape:connector-curvature="0" />
    <path
       d="m 37147.095,-34719.441 a 24.75,24.75 0 1 0 -49.5,0 24.75,24.75 0 1 0 49.5,0 z"
       style="fill:none;stroke:#00ffff;stroke-linecap:round"
       id="path130"
       inkscape:connector-curvature="0" />
    <path
       d="m 37087.92,-34822.941 a 7.425,7.425 0 1 0 -14.85,0 7.425,7.425 0 1 0 14.85,0 z"
       style="fill:none;stroke:#00ffff;stroke-linecap:round"
       id="path132"
       inkscape:connector-curvature="0" />
    <path
       d="m 37195.245,-34803.816 a 11.25,11.25 0 1 0 -22.5,0 11.25,11.25 0 1 0 22.5,0 z"
       style="fill:none;stroke:#00ffff;stroke-linecap:round"
       id="path134"
       inkscape:connector-curvature="0" />
    <path
       d="m 37188,-34803.816 a 4.005,4.005 0 1 0 -8.01,0 4.005,4.005 0 1 0 8.01,0 z"
       style="fill:none;stroke:#00ffff;stroke-linecap:round"
       id="path136"
       inkscape:connector-curvature="0" />
    <path
       d="m 37218.195,-34854.441 -68.4,0"
       style="fill:none;stroke:#00ffff;stroke-linecap:round"
       id="path138"
       inkscape:connector-curvature="0" />
    <path
       d="m 37294.92,-34822.941 a 7.425,7.425 0 1 0 -14.85,0 7.425,7.425 0 1 0 14.85,0 z"
       style="fill:none;stroke:#00ffff;stroke-linecap:round"
       id="path140"
       inkscape:connector-curvature="0" />
    <path
       d="m 37296.495,-34719.441 a 112.5,112.5 0 1 0 -225,0 112.5,112.5 0 1 0 225,0 z"
       style="fill:none;stroke:#00ffff;stroke-linecap:round"
       id="path142"
       inkscape:connector-curvature="0" />
    <path
       d="m 37286.145,-34719.441 a 102.15,102.15 0 1 0 -204.3,0 102.15,102.15 0 1 0 204.3,0 z"
       style="fill:none;stroke:#00ffff;stroke-linecap:round"
       id="path144"
       inkscape:connector-curvature="0" />
    <path
       d="m 37273.995,-34719.441 a 90,90 0 1 0 -180,0 90,90 0 1 0 180,0 z"
       style="fill:none;stroke:#00ffff;stroke-linecap:round"
       id="path146"
       inkscape:connector-curvature="0" />
    <path
       d="m 37257.12,-34719.441 a 73.125,73.125 0 1 0 -146.25,0 73.125,73.125 0 1 0 146.25,0 z"
       style="fill:none;stroke:#00ffff;stroke-linecap:round"
       id="path148"
       inkscape:connector-curvature="0" />
    <path
       d="m 37060.245,-34584.441 0,-270"
       style="fill:none;stroke:#00ffff;stroke-linecap:round"
       id="path150"
       inkscape:connector-curvature="0" />
    <path
       d="m 37080.495,-34615.941 0,-207"
       style="fill:none;stroke:#00ffff;stroke-linecap:round"
       id="path152"
       inkscape:connector-curvature="0" />
    <path
       d="m 37183.995,-34615.941 0,-207"
       style="fill:none;stroke:#00ffff;stroke-linecap:round"
       id="path154"
       inkscape:connector-curvature="0" />
    <path
       d="m 37183.995,-34584.441 0,-270"
       style="fill:none;stroke:#00ffff;stroke-linecap:round"
       id="path156"
       inkscape:connector-curvature="0" />
    <path
       d="m 37183.995,-34803.816 0,168.75"
       style="fill:none;stroke:#00ffff;stroke-linecap:round"
       id="path158"
       inkscape:connector-curvature="0" />
    <path
       d="m 37287.495,-34822.941 0,207"
       style="fill:none;stroke:#00ffff;stroke-linecap:round"
       id="path160"
       inkscape:connector-curvature="0" />
    <path
       d="m 36908.505,-34854.441 0,270"
       style="fill:none;stroke:#00ffff;stroke-linecap:round"
       id="path162"
       inkscape:connector-curvature="0" />
    <path
       d="m 36796.005,-34635.066 a 11.25,11.25 0 1 0 -22.5,0 11.25,11.25 0 1 0 22.5,0 z"
       style="fill:none;stroke:#00ffff;stroke-linecap:round"
       id="path164"
       inkscape:connector-curvature="0" />
    <path
       d="m 36788.76,-34635.066 a 4.005,4.005 0 1 0 -8.01,0 4.005,4.005 0 1 0 8.01,0 z"
       style="fill:none;stroke:#00ffff;stroke-linecap:round"
       id="path166"
       inkscape:connector-curvature="0" />
    <path
       d="m 36850.306,-34719.441 a 65.551181,65.551181 0 1 0 -131.102,0 65.551181,65.551181 0 1 0 131.102,0 z"
       style="fill:none;stroke:#00ffff;stroke-linecap:round"
       id="path168"
       inkscape:connector-curvature="0" />
    <path
       d="m 36784.755,-34653.89 0,-131.102"
       style="fill:none;stroke:#00ffff;stroke-linecap:round"
       id="path170"
       inkscape:connector-curvature="0" />
    <path
       d="m 36908.505,-34584.441 -247.5,0"
       style="fill:none;stroke:#00ffff;stroke-linecap:round"
       id="path172"
       inkscape:connector-curvature="0" />
    <path
       d="m 36888.255,-34615.941 -207,0"
       style="fill:none;stroke:#00ffff;stroke-linecap:round"
       id="path174"
       inkscape:connector-curvature="0" />
    <path
       d="m 36688.68,-34615.941 a 7.425,7.425 0 1 0 -14.85,0 7.425,7.425 0 1 0 14.85,0 z"
       style="fill:none;stroke:#00ffff;stroke-linecap:round"
       id="path176"
       inkscape:connector-curvature="0" />
    <path
       d="m 36895.68,-34615.941 a 7.425,7.425 0 1 0 -14.85,0 7.425,7.425 0 1 0 14.85,0 z"
       style="fill:none;stroke:#00ffff;stroke-linecap:round"
       id="path178"
       inkscape:connector-curvature="0" />
    <path
       d="m 36908.505,-34719.441 -247.5,0"
       style="fill:none;stroke:#00ffff;stroke-linecap:round"
       id="path180"
       inkscape:connector-curvature="0" />
    <path
       d="m 36871.155,-34719.441 a 24.75,24.75 0 1 0 -49.5,0 24.75,24.75 0 1 0 49.5,0 z"
       style="fill:none;stroke:#00ffff;stroke-linecap:round"
       id="path182"
       inkscape:connector-curvature="0" />
    <path
       d="m 36661.005,-34854.441 247.5,0"
       style="fill:none;stroke:#00ffff;stroke-linecap:round"
       id="path184"
       inkscape:connector-curvature="0" />
    <path
       d="m 36888.255,-34719.441 -207,0"
       style="fill:none;stroke:#00ffff;stroke-linecap:round"
       id="path186"
       inkscape:connector-curvature="0" />
    <path
       d="m 36681.255,-34822.941 207,0"
       style="fill:none;stroke:#00ffff;stroke-linecap:round"
       id="path188"
       inkscape:connector-curvature="0" />
    <path
       d="m 36846.405,-34719.441 -123.3,0"
       style="fill:none;stroke:#00ffff;stroke-linecap:round"
       id="path190"
       inkscape:connector-curvature="0" />
    <path
       d="m 36857.655,-34719.441 a 11.25,11.25 0 1 0 -22.5,0 11.25,11.25 0 1 0 22.5,0 z"
       style="fill:none;stroke:#00ffff;stroke-linecap:round"
       id="path192"
       inkscape:connector-curvature="0" />
    <path
       d="m 36850.306,-34719.441 -131.102,0"
       style="fill:none;stroke:#00ffff;stroke-linecap:round"
       id="path194"
       inkscape:connector-curvature="0" />
    <path
       d="m 36818.955,-34958.841 0,104.4"
       style="fill:none;stroke:#00ffff;stroke-linecap:round"
       id="path196"
       inkscape:connector-curvature="0" />
    <path
       d="m 36750.555,-34854.441 0,-104.4"
       style="fill:none;stroke:#00ffff;stroke-linecap:round"
       id="path198"
       inkscape:connector-curvature="0" />
    <path
       d="m 36750.555,-34958.841 68.4,0"
       style="fill:none;stroke:#00ffff;stroke-linecap:round"
       id="path200"
       inkscape:connector-curvature="0" />
    <path
       d="m 36734.355,-34719.441 a 11.25,11.25 0 1 0 -22.5,0 11.25,11.25 0 1 0 22.5,0 z"
       style="fill:none;stroke:#00ffff;stroke-linecap:round"
       id="path202"
       inkscape:connector-curvature="0" />
    <path
       d="m 36825.503,-34719.441 a 40.748031,40.748031 0 1 0 -81.496,0 40.748031,40.748031 0 1 0 81.496,0 z"
       style="fill:none;stroke:#00ffff;stroke-linecap:round"
       id="path204"
       inkscape:connector-curvature="0" />
    <path
       d="m 36747.855,-34719.441 a 24.75,24.75 0 1 0 -49.5,0 24.75,24.75 0 1 0 49.5,0 z"
       style="fill:none;stroke:#00ffff;stroke-linecap:round"
       id="path206"
       inkscape:connector-curvature="0" />
    <path
       d="m 36688.68,-34822.941 a 7.425,7.425 0 1 0 -14.85,0 7.425,7.425 0 1 0 14.85,0 z"
       style="fill:none;stroke:#00ffff;stroke-linecap:round"
       id="path208"
       inkscape:connector-curvature="0" />
    <path
       d="m 36796.005,-34803.816 a 11.25,11.25 0 1 0 -22.5,0 11.25,11.25 0 1 0 22.5,0 z"
       style="fill:none;stroke:#00ffff;stroke-linecap:round"
       id="path210"
       inkscape:connector-curvature="0" />
    <path
       d="m 36788.76,-34803.816 a 4.005,4.005 0 1 0 -8.01,0 4.005,4.005 0 1 0 8.01,0 z"
       style="fill:none;stroke:#00ffff;stroke-linecap:round"
       id="path212"
       inkscape:connector-curvature="0" />
    <path
       d="m 36818.955,-34854.441 -68.4,0"
       style="fill:none;stroke:#00ffff;stroke-linecap:round"
       id="path214"
       inkscape:connector-curvature="0" />
    <path
       d="m 36895.68,-34822.941 a 7.425,7.425 0 1 0 -14.85,0 7.425,7.425 0 1 0 14.85,0 z"
       style="fill:none;stroke:#00ffff;stroke-linecap:round"
       id="path216"
       inkscape:connector-curvature="0" />
    <path
       d="m 36897.255,-34719.441 a 112.5,112.5 0 1 0 -225,0 112.5,112.5 0 1 0 225,0 z"
       style="fill:none;stroke:#00ffff;stroke-linecap:round"
       id="path218"
       inkscape:connector-curvature="0" />
    <path
       d="m 36886.905,-34719.441 a 102.15,102.15 0 1 0 -204.3,0 102.15,102.15 0 1 0 204.3,0 z"
       style="fill:none;stroke:#00ffff;stroke-linecap:round"
       id="path220"
       inkscape:connector-curvature="0" />
    <path
       d="m 36874.755,-34719.441 a 90,90 0 1 0 -180,0 90,90 0 1 0 180,0 z"
       style="fill:none;stroke:#00ffff;stroke-linecap:round"
       id="path222"
       inkscape:connector-curvature="0" />
    <path
       d="m 36857.88,-34719.441 a 73.125,73.125 0 1 0 -146.25,0 73.125,73.125 0 1 0 146.25,0 z"
       style="fill:none;stroke:#00ffff;stroke-linecap:round"
       id="path224"
       inkscape:connector-curvature="0" />
    <path
       d="m 36661.005,-34584.441 0,-270"
       style="fill:none;stroke:#00ffff;stroke-linecap:round"
       id="path226"
       inkscape:connector-curvature="0" />
    <path
       d="m 36681.255,-34615.941 0,-207"
       style="fill:none;stroke:#00ffff;stroke-linecap:round"
       id="path228"
       inkscape:connector-curvature="0" />
    <path
       d="m 36784.755,-34615.941 0,-207"
       style="fill:none;stroke:#00ffff;stroke-linecap:round"
       id="path230"
       inkscape:connector-curvature="0" />
    <path
       d="m 36784.755,-34584.441 0,-270"
       style="fill:none;stroke:#00ffff;stroke-linecap:round"
       id="path232"
       inkscape:connector-curvature="0" />
    <path
       d="m 36784.755,-34803.816 0,168.75"
       style="fill:none;stroke:#00ffff;stroke-linecap:round"
       id="path234"
       inkscape:connector-curvature="0" />
    <path
       d="m 36888.255,-34822.941 0,207"
       style="fill:none;stroke:#00ffff;stroke-linecap:round"
       id="path236"
       inkscape:connector-curvature="0" />
  </g>
  <g
     inkscape:groupmode="layer"
     inkscape:label="Z0_TOPCOMP"
     id="g238"
     transform="translate(-36089.493,35758.145)" />
  <g
     inkscape:groupmode="layer"
     inkscape:label="Z0_CUT250"
     id="g240"
     transform="translate(-36089.493,35758.145)" />
  <g
     inkscape:groupmode="layer"
     inkscape:label="Z0_CUT500"
     id="g242"
     transform="translate(-36089.493,35758.145)">
    <path
       d="m 37297.395,-34719.441 a 113.4,113.4 0 1 0 -226.8,0 113.4,113.4 0 1 0 226.8,0 z"
       style="fill:none;stroke:#0000ff;stroke-linecap:round"
       id="path244"
       inkscape:connector-curvature="0" />
    <path
       d="m 36898.155,-34719.441 a 113.4,113.4 0 1 0 -226.8,0 113.4,113.4 0 1 0 226.8,0 z"
       style="fill:none;stroke:#0000ff;stroke-linecap:round"
       id="path246"
       inkscape:connector-curvature="0" />
  </g>
  <g
     inkscape:groupmode="layer"
     inkscape:label="Z0_PLASTICS"
     id="g248"
     transform="translate(-36089.493,35758.145)" />
  <g
     inkscape:groupmode="layer"
     inkscape:label="Z0_RUBBER"
     id="g250"
     transform="translate(-36089.493,35758.145)" />
  <g
     inkscape:groupmode="layer"
     inkscape:label="Z0_ZONES"
     id="g252"
     transform="translate(-36089.493,35758.145)" />
  <g
     inkscape:groupmode="layer"
     inkscape:label="Z0_WOODOUTLINE"
     id="g254"
     transform="translate(-36089.493,35758.145)">
    <path
       d="m 37912.49,-35757.638 0.01,3405.152"
       style="fill:none;stroke:#0000ff;stroke-linecap:round"
       id="path256"
       inkscape:connector-curvature="0" />
    <path
       d="m 36090,-35757.638 0,3455.777"
       style="fill:none;stroke:#0000ff;stroke-linecap:round"
       id="path258"
       inkscape:connector-curvature="0" />
    <path
       d="m 36090,-35757.638 1822.49,0"
       style="fill:none;stroke:#0000ff;stroke-linecap:round"
       id="path260"
       inkscape:connector-curvature="0" />
    <path
       d="m 36225.005,-31977.638 1518.745,0"
       style="fill:none;stroke:#0000ff;stroke-linecap:round"
       id="path262"
       inkscape:connector-curvature="0" />
    <path
       d="m 36202.505,-32301.861 -112.5,0"
       style="fill:none;stroke:#0000ff;stroke-linecap:round"
       id="path264"
       inkscape:connector-curvature="0" />
    <path
       d="m 36225.005,-31977.638 0,-301.723"
       style="fill:none;stroke:#0000ff;stroke-linecap:round"
       id="path266"
       inkscape:connector-curvature="0" />
    <path
       d="m 36225.005,-32279.361 a 22.5,22.5 0 0 0 -22.5,-22.5"
       style="fill:none;stroke:#0000ff;stroke-linecap:round"
       id="path268"
       inkscape:connector-curvature="0" />
    <path
       d="m 37743.75,-32352.486 168.75,0"
       style="fill:none;stroke:#0000ff;stroke-linecap:round"
       id="path270"
       inkscape:connector-curvature="0" />
    <path
       d="m 37743.75,-32307.486 0,329.848"
       style="fill:none;stroke:#0000ff;stroke-linecap:round"
       id="path272"
       inkscape:connector-curvature="0" />
    <path
       d="m 37743.75,-32352.486 a 22.5,22.5 0 0 0 0,45"
       style="fill:none;stroke:#0000ff;stroke-linecap:round"
       id="path274"
       inkscape:connector-curvature="0" />
  </g>
  <g
     inkscape:groupmode="layer"
     inkscape:label="Z0_LOWERTHIRD"
     id="g276"
     transform="translate(-36089.493,35758.145)" />
</svg>
