<?xml version="1.0" encoding="UTF-8" standalone="no"?>
<svg
   xmlns:dc="http://purl.org/dc/elements/1.1/"
   xmlns:cc="http://creativecommons.org/ns#"
   xmlns:rdf="http://www.w3.org/1999/02/22-rdf-syntax-ns#"
   xmlns:svg="http://www.w3.org/2000/svg"
   xmlns="http://www.w3.org/2000/svg"
   xmlns:sodipodi="http://sodipodi.sourceforge.net/DTD/sodipodi-0.dtd"
   xmlns:inkscape="http://www.inkscape.org/namespaces/inkscape"
   width="0.81126934in"
   height="2.3111107in"
   id="svg2"
   version="1.1"
   inkscape:version="0.91 r13725"
   sodipodi:docname="Generic_Part_LaneGuide_1500.svg">
  <metadata
     id="metadata1254">
    <rdf:RDF>
      <cc:Work
         rdf:about="">
        <dc:format>image/svg+xml</dc:format>
        <dc:type
           rdf:resource="http://purl.org/dc/dcmitype/StillImage" />
        <dc:title></dc:title>
      </cc:Work>
    </rdf:RDF>
  </metadata>
  <sodipodi:namedview
     pagecolor="#ffffff"
     bordercolor="#666666"
     borderopacity="1"
     objecttolerance="10"
     gridtolerance="10"
     guidetolerance="10"
     inkscape:pageopacity="0"
     inkscape:pageshadow="2"
     inkscape:window-width="1193"
     inkscape:window-height="772"
     id="namedview1252"
     showgrid="false"
     inkscape:zoom="0.67745677"
     inkscape:cx="39.778603"
     inkscape:cy="66.424724"
     inkscape:window-x="74"
     inkscape:window-y="31"
     inkscape:window-maximized="0"
     inkscape:current-layer="layer1"
     units="in"
     fit-margin-top="0"
     fit-margin-left="0"
     fit-margin-right="0"
     fit-margin-bottom="0" />
  <desc
     id="desc4">/Users/briancox/Documents/Win_Para_Share/VEL270/2018/181110_GenericParts_3.dxf - scale = 25.400000, origin = (0.000000, 0.000000), auto = False</desc>
  <defs
     id="defs6">
    <marker
       id="DistanceX"
       orient="auto"
       refX="0"
       refY="0"
       style="overflow:visible">
      <path
         d="M 3,-3 -3,3 M 0,-5 0,5"
         style="stroke:#000000;stroke-width:0.5"
         id="path9"
         inkscape:connector-curvature="0" />
    </marker>
    <pattern
       height="8"
       id="Hatch"
       patternUnits="userSpaceOnUse"
       width="8"
       x="0"
       y="0">
      <path
         d="M8 4 l-4,4"
         linecap="square"
         stroke="#000000"
         stroke-width="0.25"
         id="path12" />
      <path
         d="M6 2 l-4,4"
         linecap="square"
         stroke="#000000"
         stroke-width="0.25"
         id="path14" />
      <path
         d="M4 0 l-4,4"
         linecap="square"
         stroke="#000000"
         stroke-width="0.25"
         id="path16" />
    </pattern>
    <symbol
       id="*MODEL_SPACE" />
    <symbol
       id="*PAPER_SPACE" />
  </defs>
  <g
     inkscape:groupmode="layer"
     inkscape:label="Z0_BOTCOMP"
     id="g84"
     transform="translate(-32072.399,49001.638)">
    <path
       d="m 32108.906,-48990.788 a 25.65,25.65 0 0 0 -24.725,18.825"
       style="fill:none;stroke:#00ffff;stroke-linecap:round"
       id="path900"
       inkscape:connector-curvature="0" />
    <path
       d="m 32086.693,-48952.313 a 25.65,25.65 0 0 0 28.665,12.001"
       style="fill:none;stroke:#00ffff;stroke-linecap:round"
       id="path902"
       inkscape:connector-curvature="0" />
    <path
       d="m 32131.12,-48952.313 a 25.65,25.65 0 0 0 -3.94,-30.825"
       style="fill:none;stroke:#00ffff;stroke-linecap:round"
       id="path904"
       inkscape:connector-curvature="0" />
    <path
       d="m 32086.693,-48952.313 6.625,-3.825"
       style="fill:none;stroke:#00ffff;stroke-linecap:round"
       id="path906"
       inkscape:connector-curvature="0" />
    <path
       d="m 32093.318,-48956.138 -9.137,-15.825"
       style="fill:none;stroke:#00ffff;stroke-linecap:round"
       id="path908"
       inkscape:connector-curvature="0" />
    <path
       d="m 32131.12,-48952.313 -6.625,-3.825"
       style="fill:none;stroke:#00ffff;stroke-linecap:round"
       id="path910"
       inkscape:connector-curvature="0" />
    <path
       d="m 32124.495,-48956.138 -9.137,15.826"
       style="fill:none;stroke:#00ffff;stroke-linecap:round"
       id="path912"
       inkscape:connector-curvature="0" />
    <path
       d="m 32108.906,-48983.138 18.274,0"
       style="fill:none;stroke:#00ffff;stroke-linecap:round"
       id="path914"
       inkscape:connector-curvature="0" />
    <path
       d="m 32108.906,-48990.788 0,7.65"
       style="fill:none;stroke:#00ffff;stroke-linecap:round"
       id="path916"
       inkscape:connector-curvature="0" />
    <path
       d="m 32114.216,-48965.138 a 5.31,5.31 0 1 0 -10.62,0 5.31,5.31 0 1 0 10.62,0 z"
       style="fill:none;stroke:#00ffff;stroke-linecap:round"
       id="path918"
       inkscape:connector-curvature="0" />
    <path
       d="m 32116.556,-48965.138 a 7.65,7.65 0 1 0 -15.3,0 7.65,7.65 0 1 0 15.3,0 z"
       style="fill:none;stroke:#00ffff;stroke-linecap:round"
       id="path920"
       inkscape:connector-curvature="0" />
    <path
       d="m 32108.906,-48855.788 a 25.65,25.65 0 0 0 -24.725,18.825"
       style="fill:none;stroke:#00ffff;stroke-linecap:round"
       id="path922"
       inkscape:connector-curvature="0" />
    <path
       d="m 32086.693,-48817.313 a 25.65,25.65 0 0 0 28.665,12.001"
       style="fill:none;stroke:#00ffff;stroke-linecap:round"
       id="path924"
       inkscape:connector-curvature="0" />
    <path
       d="m 32131.12,-48817.313 a 25.65,25.65 0 0 0 -3.94,-30.825"
       style="fill:none;stroke:#00ffff;stroke-linecap:round"
       id="path926"
       inkscape:connector-curvature="0" />
    <path
       d="m 32086.693,-48817.313 6.625,-3.825"
       style="fill:none;stroke:#00ffff;stroke-linecap:round"
       id="path928"
       inkscape:connector-curvature="0" />
    <path
       d="m 32093.318,-48821.138 -9.137,-15.825"
       style="fill:none;stroke:#00ffff;stroke-linecap:round"
       id="path930"
       inkscape:connector-curvature="0" />
    <path
       d="m 32131.12,-48817.313 -6.625,-3.825"
       style="fill:none;stroke:#00ffff;stroke-linecap:round"
       id="path932"
       inkscape:connector-curvature="0" />
    <path
       d="m 32124.495,-48821.138 -9.137,15.826"
       style="fill:none;stroke:#00ffff;stroke-linecap:round"
       id="path934"
       inkscape:connector-curvature="0" />
    <path
       d="m 32108.906,-48848.138 18.274,0"
       style="fill:none;stroke:#00ffff;stroke-linecap:round"
       id="path936"
       inkscape:connector-curvature="0" />
    <path
       d="m 32108.906,-48855.788 0,7.65"
       style="fill:none;stroke:#00ffff;stroke-linecap:round"
       id="path938"
       inkscape:connector-curvature="0" />
    <path
       d="m 32114.216,-48830.138 a 5.31,5.31 0 1 0 -10.62,0 5.31,5.31 0 1 0 10.62,0 z"
       style="fill:none;stroke:#00ffff;stroke-linecap:round"
       id="path940"
       inkscape:connector-curvature="0" />
    <path
       d="m 32116.556,-48830.138 a 7.65,7.65 0 1 0 -15.3,0 7.65,7.65 0 1 0 15.3,0 z"
       style="fill:none;stroke:#00ffff;stroke-linecap:round"
       id="path942"
       inkscape:connector-curvature="0" />
  </g>
  <g
     inkscape:groupmode="layer"
     inkscape:label="Z0_TOPCOMP"
     id="g944"
     transform="translate(-32072.399,49001.638)">
    <path
       d="m 32140.406,-48965.138 a 31.5,31.5 0 1 0 -63,0 31.5,31.5 0 1 0 63,0 z"
       style="fill:none;stroke:#ff00ff;stroke-linecap:round"
       id="path1094"
       inkscape:connector-curvature="0" />
    <path
       d="m 32140.406,-48830.138 a 31.5,31.5 0 1 0 -63,0 31.5,31.5 0 1 0 63,0 z"
       style="fill:none;stroke:#ff00ff;stroke-linecap:round"
       id="path1096"
       inkscape:connector-curvature="0" />
  </g>
  <g
     inkscape:groupmode="layer"
     inkscape:label="Z0_CUT250"
     id="g1098"
     transform="translate(-32072.399,49001.638)" />
  <g
     inkscape:groupmode="layer"
     inkscape:label="Z0_CUT500"
     id="g1116"
     transform="translate(-32072.399,49001.638)">
    <path
       d="m 32116.331,-48965.138 a 7.425,7.425 0 1 0 -14.85,0 7.425,7.425 0 1 0 14.85,0 z"
       style="fill:none;stroke:#0000ff;stroke-linecap:round"
       id="path1184"
       inkscape:connector-curvature="0" />
    <path
       d="m 32116.331,-48830.138 a 7.425,7.425 0 1 0 -14.85,0 7.425,7.425 0 1 0 14.85,0 z"
       style="fill:none;stroke:#0000ff;stroke-linecap:round"
       id="path1186"
       inkscape:connector-curvature="0" />
    <path
       d="m 32130,-48897.638 a 21.094,21.094 0 1 0 -42.188,0 21.094,21.094 0 1 0 42.188,0 z"
       style="fill:none;stroke:#0000ff;stroke-linecap:round"
       id="path1188"
       inkscape:connector-curvature="0" />
  </g>
  <g
     inkscape:groupmode="layer"
     inkscape:label="Z0_PLASTICS"
     id="g1190"
     transform="translate(-32072.399,49001.638)">
    <path
       d="m 32115.656,-48830.138 a 6.75,6.75 0 1 0 -13.5,0 6.75,6.75 0 1 0 13.5,0 z"
       style="fill:none;stroke:#000000;stroke-linecap:round"
       id="path1192"
       inkscape:connector-curvature="0" />
    <path
       d="m 32115.656,-48965.138 a 6.75,6.75 0 1 0 -13.5,0 6.75,6.75 0 1 0 13.5,0 z"
       style="fill:none;stroke:#000000;stroke-linecap:round"
       id="path1194"
       inkscape:connector-curvature="0" />
    <path
       d="m 32077.406,-48965.138 -4.5,0"
       style="fill:none;stroke:#000000;stroke-linecap:round"
       id="path1196"
       inkscape:connector-curvature="0" />
    <path
       d="m 32072.906,-48965.138 0,135"
       style="fill:none;stroke:#000000;stroke-linecap:round"
       id="path1198"
       inkscape:connector-curvature="0" />
    <path
       d="m 32072.906,-48830.138 4.5,0"
       style="fill:none;stroke:#000000;stroke-linecap:round"
       id="path1200"
       inkscape:connector-curvature="0" />
    <path
       d="m 32140.406,-48965.138 4.5,0"
       style="fill:none;stroke:#000000;stroke-linecap:round"
       id="path1202"
       inkscape:connector-curvature="0" />
    <path
       d="m 32144.906,-48965.138 0,135"
       style="fill:none;stroke:#000000;stroke-linecap:round"
       id="path1204"
       inkscape:connector-curvature="0" />
    <path
       d="m 32144.906,-48830.138 -4.5,0"
       style="fill:none;stroke:#000000;stroke-linecap:round"
       id="path1206"
       inkscape:connector-curvature="0" />
    <path
       d="m 32140.406,-48965.138 a 31.5,31.5 0 0 0 -63,0"
       style="fill:none;stroke:#000000;stroke-linecap:round"
       id="path1208"
       inkscape:connector-curvature="0" />
    <path
       d="m 32077.406,-48830.138 a 31.5,31.5 0 0 0 63,0"
       style="fill:none;stroke:#000000;stroke-linecap:round"
       id="path1210"
       inkscape:connector-curvature="0" />
  </g>
  <g
     inkscape:groupmode="layer"
     inkscape:label="Z0_RUBBER"
     id="g1212"
     transform="translate(-32072.399,49001.638)">
    <path
       d="m 32144.906,-48965.138 a 36,36 0 1 0 -72,0 36,36 0 1 0 72,0 z"
       style="fill:none;stroke:#ffff00;stroke-linecap:round"
       id="path1214"
       inkscape:connector-curvature="0" />
    <path
       d="m 32128.256,-48965.138 a 19.35,19.35 0 1 0 -38.7,0 19.35,19.35 0 1 0 38.7,0 z"
       style="fill:none;stroke:#ffff00;stroke-linecap:round"
       id="path1216"
       inkscape:connector-curvature="0" />
    <path
       d="m 32144.906,-48830.138 a 36,36 0 1 0 -72,0 36,36 0 1 0 72,0 z"
       style="fill:none;stroke:#ffff00;stroke-linecap:round"
       id="path1242"
       inkscape:connector-curvature="0" />
    <path
       d="m 32128.256,-48830.138 a 19.35,19.35 0 1 0 -38.7,0 19.35,19.35 0 1 0 38.7,0 z"
       style="fill:none;stroke:#ffff00;stroke-linecap:round"
       id="path1244"
       inkscape:connector-curvature="0" />
  </g>
  <g
     inkscape:groupmode="layer"
     inkscape:label="Z0_ZONES"
     id="g1246"
     transform="translate(-32072.399,49001.638)" />
  <g
     inkscape:groupmode="layer"
     inkscape:label="Z0_WOODOUTLINE"
     id="g1248"
     transform="translate(-32072.399,49001.638)" />
  <g
     inkscape:groupmode="layer"
     inkscape:label="Z0_LOWERTHIRD"
     id="g1250"
     transform="translate(-32072.399,49001.638)" />
  <g
     inkscape:groupmode="layer"
     id="layer1"
     inkscape:label="Z0_CENTROID"
     transform="translate(-22.499879,-22.500016)" />
</svg>
