<?xml version="1.0" encoding="UTF-8" standalone="no"?>
<svg
   xmlns:dc="http://purl.org/dc/elements/1.1/"
   xmlns:cc="http://creativecommons.org/ns#"
   xmlns:rdf="http://www.w3.org/1999/02/22-rdf-syntax-ns#"
   xmlns:svg="http://www.w3.org/2000/svg"
   xmlns="http://www.w3.org/2000/svg"
   xmlns:sodipodi="http://sodipodi.sourceforge.net/DTD/sodipodi-0.dtd"
   xmlns:inkscape="http://www.inkscape.org/namespaces/inkscape"
   width="3.9077125in"
   height="5.7529283in"
   id="svg4155"
   version="1.1"
   inkscape:version="0.91 r13725"
   sodipodi:docname="Generic_Part_Flipper_Left.svg">
  <metadata
     id="metadata4943">
    <rdf:RDF>
      <cc:Work
         rdf:about="">
        <dc:format>image/svg+xml</dc:format>
        <dc:type
           rdf:resource="http://purl.org/dc/dcmitype/StillImage" />
        <dc:title></dc:title>
      </cc:Work>
    </rdf:RDF>
  </metadata>
  <sodipodi:namedview
     pagecolor="#ffffff"
     bordercolor="#666666"
     borderopacity="1"
     objecttolerance="10"
     gridtolerance="10"
     guidetolerance="10"
     inkscape:pageopacity="0"
     inkscape:pageshadow="2"
     inkscape:window-width="958"
     inkscape:window-height="708"
     id="namedview4941"
     showgrid="false"
     inkscape:zoom="0.60681407"
     inkscape:cx="88.773839"
     inkscape:cy="203.85"
     inkscape:window-x="141"
     inkscape:window-y="120"
     inkscape:window-maximized="0"
     inkscape:current-layer="layer1"
     units="in"
     fit-margin-top="0"
     fit-margin-left="0"
     fit-margin-right="0"
     fit-margin-bottom="0" />
  <desc
     id="desc4157">/Users/briancox/Documents/Win_Para_Share/VEL270/2018/181029_PlayfieldParts_2.dxf - scale = 25.400000, origin = (0.000000, 0.000000), auto = False</desc>
  <defs
     id="defs4159">
    <marker
       id="DistanceX"
       orient="auto"
       refX="0"
       refY="0"
       style="overflow:visible">
      <path
         d="M 3,-3 -3,3 M 0,-5 0,5"
         style="stroke:#000000;stroke-width:0.5"
         id="path4162"
         inkscape:connector-curvature="0" />
    </marker>
    <pattern
       height="8"
       id="Hatch"
       patternUnits="userSpaceOnUse"
       width="8"
       x="0"
       y="0">
      <path
         d="M8 4 l-4,4"
         linecap="square"
         stroke="#000000"
         stroke-width="0.25"
         id="path4165" />
      <path
         d="M6 2 l-4,4"
         linecap="square"
         stroke="#000000"
         stroke-width="0.25"
         id="path4167" />
      <path
         d="M4 0 l-4,4"
         linecap="square"
         stroke="#000000"
         stroke-width="0.25"
         id="path4169" />
    </pattern>
    <symbol
       id="*MODEL_SPACE" />
    <symbol
       id="*PAPER_SPACE" />
  </defs>
  <g
     inkscape:groupmode="layer"
     inkscape:label="Z0_TOPCOMP"
     id="g4223"
     style="display:inline"
     transform="translate(-30640.445,46202.498)">
    <path
       d="m 30791.25,-45837.638 a 11.25,11.25 0 1 0 -22.5,0 11.25,11.25 0 1 0 22.5,0 z"
       style="fill:none;stroke:#ff00ff;stroke-linecap:round"
       id="path4269"
       inkscape:connector-curvature="0" />
    <path
       d="m 30763.999,-45809.841 194.604,113.245"
       style="fill:none;stroke:#ff00ff;stroke-linecap:round"
       id="path4271"
       inkscape:connector-curvature="0" />
    <path
       d="m 30766.768,-45814.652 194.009,114.279"
       style="fill:none;stroke:#ff00ff;stroke-linecap:round"
       id="path4273"
       inkscape:connector-curvature="0" />
    <path
       d="m 30796.58,-45858.338 177.141,138.997"
       style="fill:none;stroke:#ff00ff;stroke-linecap:round"
       id="path4275"
       inkscape:connector-curvature="0" />
    <path
       d="m 30800.05,-45862.671 176.396,139.928"
       style="fill:none;stroke:#ff00ff;stroke-linecap:round"
       id="path4277"
       inkscape:connector-curvature="0" />
    <path
       d="m 30960.777,-45700.373 a 11.51543,11.51543 0 0 0 12.944,-18.968"
       style="fill:none;stroke:#ff00ff;stroke-linecap:round"
       id="path4279"
       inkscape:connector-curvature="0" />
    <path
       d="m 30958.603,-45696.596 a 15.873976,15.873976 0 0 0 17.843,-26.147"
       style="fill:none;stroke:#ff00ff;stroke-linecap:round"
       id="path4281"
       inkscape:connector-curvature="0" />
    <path
       d="m 30953.991,-45688.585 a 25.117065,25.117065 0 0 0 28.233,-41.372"
       style="fill:none;stroke:#ff00ff;stroke-linecap:round"
       id="path4283"
       inkscape:connector-curvature="0" />
    <path
       d="m 30796.58,-45858.338 a 26.521737,26.521737 0 1 0 -29.812,43.686"
       style="fill:none;stroke:#ff00ff;stroke-linecap:round"
       id="path4285"
       inkscape:connector-curvature="0" />
    <path
       d="m 30800.05,-45862.671 a 32.073103,32.073103 0 1 0 -36.051,52.83"
       style="fill:none;stroke:#ff00ff;stroke-linecap:round"
       id="path4287"
       inkscape:connector-curvature="0" />
    <path
       d="m 30806.49,-45870.711 a 42.374301,42.374301 0 1 0 -47.63,69.797"
       style="fill:none;stroke:#ff00ff;stroke-linecap:round"
       id="path4289"
       inkscape:connector-curvature="0" />
    <path
       d="m 30953.991,-45688.585 -195.131,-112.329"
       style="fill:none;stroke:#ff00ff;stroke-linecap:round"
       id="path4291"
       inkscape:connector-curvature="0" />
    <path
       d="m 30982.224,-45729.957 -175.734,-140.754"
       style="fill:none;stroke:#ff00ff;stroke-linecap:round"
       id="path4293"
       inkscape:connector-curvature="0" />
  </g>
  <g
     inkscape:groupmode="layer"
     inkscape:label="Z0_BOTCOMP"
     id="g4295"
     style="display:inline"
     transform="translate(-30640.445,46202.498)">
    <path
       d="m 30640.952,-45773.181 0,-68.015"
       style="fill:none;stroke:#00ffff;stroke-linecap:round"
       id="path4783"
       inkscape:connector-curvature="0" />
    <path
       d="m 30640.952,-45841.196 49.998,0"
       style="fill:none;stroke:#00ffff;stroke-linecap:round"
       id="path4785"
       inkscape:connector-curvature="0" />
    <path
       d="m 30928.777,-45850.205 0,-212.603"
       style="fill:none;stroke:#00ffff;stroke-linecap:round"
       id="path4787"
       inkscape:connector-curvature="0" />
    <path
       d="m 30640.952,-46139.832 142.787,0"
       style="fill:none;stroke:#00ffff;stroke-linecap:round"
       id="path4789"
       inkscape:connector-curvature="0" />
    <path
       d="m 30928.777,-45764.173 0,18.919"
       style="fill:none;stroke:#00ffff;stroke-linecap:round"
       id="path4791"
       inkscape:connector-curvature="0" />
    <path
       d="m 30987.784,-45773.181 -49.998,0"
       style="fill:none;stroke:#00ffff;stroke-linecap:round"
       id="path4793"
       inkscape:connector-curvature="0" />
    <path
       d="m 30937.786,-45841.196 49.998,0"
       style="fill:none;stroke:#00ffff;stroke-linecap:round"
       id="path4795"
       inkscape:connector-curvature="0" />
    <path
       d="m 30751.848,-45837.638 56.304,0"
       style="fill:none;stroke:#00ffff;stroke-linecap:round"
       id="path4797"
       inkscape:connector-curvature="0" />
    <path
       d="m 30784.639,-45773.181 -143.687,0"
       style="fill:none;stroke:#00ffff;stroke-linecap:round"
       id="path4799"
       inkscape:connector-curvature="0" />
    <path
       d="m 30793.648,-45745.254 0,-18.919"
       style="fill:none;stroke:#00ffff;stroke-linecap:round"
       id="path4801"
       inkscape:connector-curvature="0" />
    <path
       d="m 30792.747,-46201.991 0,53.151"
       style="fill:none;stroke:#00ffff;stroke-linecap:round"
       id="path4803"
       inkscape:connector-curvature="0" />
    <path
       d="m 30699.958,-45850.205 0,-212.603"
       style="fill:none;stroke:#00ffff;stroke-linecap:round"
       id="path4805"
       inkscape:connector-curvature="0" />
    <path
       d="m 30780,-45809.486 0,-56.304"
       style="fill:none;stroke:#00ffff;stroke-linecap:round"
       id="path4807"
       inkscape:connector-curvature="0" />
    <path
       d="m 30928.777,-46201.991 -136.03,0"
       style="fill:none;stroke:#00ffff;stroke-linecap:round"
       id="path4809"
       inkscape:connector-curvature="0" />
    <path
       d="m 30928.777,-45745.254 -135.129,0"
       style="fill:none;stroke:#00ffff;stroke-linecap:round"
       id="path4811"
       inkscape:connector-curvature="0" />
    <path
       d="m 30928.777,-45753.633 -135.129,0"
       style="fill:none;stroke:#00ffff;stroke-linecap:round"
       id="path4813"
       inkscape:connector-curvature="0" />
    <path
       d="m 30640.952,-46139.832 0,68.015"
       style="fill:none;stroke:#00ffff;stroke-linecap:round"
       id="path4815"
       inkscape:connector-curvature="0" />
    <path
       d="m 30690.95,-46071.817 -49.998,0"
       style="fill:none;stroke:#00ffff;stroke-linecap:round"
       id="path4817"
       inkscape:connector-curvature="0" />
    <path
       d="m 30970.667,-45797.183 a 6.21,6.21 -90 1 0 0,12.42 6.21,6.21 -90 1 0 0,-12.42 z"
       style="fill:none;stroke:#00ffff;stroke-linecap:round"
       id="path4819"
       inkscape:connector-curvature="0" />
    <path
       d="m 30970.673,-46094.467 a 6.21,6.21 -90 1 0 0,12.42 6.21,6.21 -90 1 0 0,-12.42 z"
       style="fill:none;stroke:#00ffff;stroke-linecap:round"
       id="path4821"
       inkscape:connector-curvature="0" />
    <path
       d="m 30970.673,-46128.25 a 6.21,6.21 -90 1 0 0,12.42 6.21,6.21 -90 1 0 0,-12.42 z"
       style="fill:none;stroke:#00ffff;stroke-linecap:round"
       id="path4823"
       inkscape:connector-curvature="0" />
    <path
       d="m 30664.273,-46122.04 a 6.21,6.21 0 1 0 -12.42,0 6.21,6.21 0 1 0 12.42,0 z"
       style="fill:none;stroke:#00ffff;stroke-linecap:round"
       id="path4825"
       inkscape:connector-curvature="0" />
    <path
       d="m 30970.667,-45830.965 a 6.21,6.21 -90 1 0 0,12.42 6.21,6.21 -90 1 0 0,-12.42 z"
       style="fill:none;stroke:#00ffff;stroke-linecap:round"
       id="path4827"
       inkscape:connector-curvature="0" />
    <path
       d="m 30658.063,-46094.467 a 6.21,6.21 -90 1 0 0,12.42 6.21,6.21 -90 1 0 0,-12.42 z"
       style="fill:none;stroke:#00ffff;stroke-linecap:round"
       id="path4829"
       inkscape:connector-curvature="0" />
    <path
       d="m 30664.273,-45790.973 a 6.21,6.21 0 1 0 -12.42,0 6.21,6.21 0 1 0 12.42,0 z"
       style="fill:none;stroke:#00ffff;stroke-linecap:round"
       id="path4831"
       inkscape:connector-curvature="0" />
    <path
       d="m 30664.273,-45824.755 a 6.21,6.21 0 1 0 -12.42,0 6.21,6.21 0 1 0 12.42,0 z"
       style="fill:none;stroke:#00ffff;stroke-linecap:round"
       id="path4833"
       inkscape:connector-curvature="0" />
    <path
       d="m 30690.95,-46071.817 c 2.389,0 4.68,0.949 6.37,2.639"
       style="fill:none;stroke:#00ffff;stroke-linecap:round"
       id="path4835"
       inkscape:connector-curvature="0" />
    <path
       d="m 30697.32,-45843.835 c -1.69,1.69 -3.981,2.639 -6.37,2.639"
       style="fill:none;stroke:#00ffff;stroke-linecap:round"
       id="path4837"
       inkscape:connector-curvature="0" />
    <path
       d="m 30784.639,-45773.181 c 2.39,0 4.681,0.949 6.37,2.638"
       style="fill:none;stroke:#00ffff;stroke-linecap:round"
       id="path4839"
       inkscape:connector-curvature="0" />
    <path
       d="m 30697.32,-46069.178 c 1.689,1.689 2.638,3.981 2.638,6.37"
       style="fill:none;stroke:#00ffff;stroke-linecap:round"
       id="path4841"
       inkscape:connector-curvature="0" />
    <path
       d="m 30792.747,-46148.84 c 0,2.389 -0.949,4.68 -2.638,6.37"
       style="fill:none;stroke:#00ffff;stroke-linecap:round"
       id="path4843"
       inkscape:connector-curvature="0" />
    <path
       d="m 30790.109,-46142.47 c -1.69,1.689 -3.981,2.638 -6.37,2.638"
       style="fill:none;stroke:#00ffff;stroke-linecap:round"
       id="path4845"
       inkscape:connector-curvature="0" />
    <path
       d="m 30699.958,-45850.205 c 0,2.389 -0.949,4.681 -2.638,6.37"
       style="fill:none;stroke:#00ffff;stroke-linecap:round"
       id="path4847"
       inkscape:connector-curvature="0" />
    <path
       d="m 30931.416,-45843.835 c -1.69,-1.689 -2.639,-3.981 -2.639,-6.37"
       style="fill:none;stroke:#00ffff;stroke-linecap:round"
       id="path4849"
       inkscape:connector-curvature="0" />
    <path
       d="m 30791.009,-45770.543 c 1.69,1.69 2.639,3.981 2.639,6.37"
       style="fill:none;stroke:#00ffff;stroke-linecap:round"
       id="path4851"
       inkscape:connector-curvature="0" />
    <path
       d="m 30928.777,-46062.808 c 0,-2.389 0.949,-4.681 2.639,-6.37"
       style="fill:none;stroke:#00ffff;stroke-linecap:round"
       id="path4853"
       inkscape:connector-curvature="0" />
    <path
       d="m 30931.416,-46069.178 c 1.689,-1.69 3.981,-2.639 6.37,-2.639"
       style="fill:none;stroke:#00ffff;stroke-linecap:round"
       id="path4855"
       inkscape:connector-curvature="0" />
    <path
       d="m 30937.786,-46139.832 c -2.389,0 -4.681,-0.949 -6.37,-2.638"
       style="fill:none;stroke:#00ffff;stroke-linecap:round"
       id="path4857"
       inkscape:connector-curvature="0" />
    <path
       d="m 30931.416,-46142.47 c -1.69,-1.69 -2.639,-3.981 -2.639,-6.37"
       style="fill:none;stroke:#00ffff;stroke-linecap:round"
       id="path4859"
       inkscape:connector-curvature="0" />
    <path
       d="m 30928.777,-45764.173 c 0,-2.389 0.949,-4.68 2.639,-6.37"
       style="fill:none;stroke:#00ffff;stroke-linecap:round"
       id="path4861"
       inkscape:connector-curvature="0" />
    <path
       d="m 30931.416,-45770.543 c 1.689,-1.689 3.981,-2.638 6.37,-2.638"
       style="fill:none;stroke:#00ffff;stroke-linecap:round"
       id="path4863"
       inkscape:connector-curvature="0" />
    <path
       d="m 30937.786,-45841.196 c -2.389,0 -4.681,-0.949 -6.37,-2.639"
       style="fill:none;stroke:#00ffff;stroke-linecap:round"
       id="path4865"
       inkscape:connector-curvature="0" />
    <path
       d="m 30802.5,-45837.638 a 22.5,22.5 0 1 0 -45,0 22.5,22.5 0 1 0 45,0 z"
       style="fill:none;stroke:#00ffff;stroke-linecap:round"
       id="path4867"
       inkscape:connector-curvature="0" />
    <path
       d="m 30987.784,-46071.817 0,-68.015"
       style="fill:none;stroke:#00ffff;stroke-linecap:round"
       id="path4869"
       inkscape:connector-curvature="0" />
    <path
       d="m 30987.784,-46071.817 -49.998,0"
       style="fill:none;stroke:#00ffff;stroke-linecap:round"
       id="path4871"
       inkscape:connector-curvature="0" />
    <path
       d="m 30937.786,-46139.832 49.998,0"
       style="fill:none;stroke:#00ffff;stroke-linecap:round"
       id="path4873"
       inkscape:connector-curvature="0" />
    <path
       d="m 30928.777,-46148.84 0,-53.151"
       style="fill:none;stroke:#00ffff;stroke-linecap:round"
       id="path4875"
       inkscape:connector-curvature="0" />
    <path
       d="m 30987.784,-45773.181 0,-68.015"
       style="fill:none;stroke:#00ffff;stroke-linecap:round"
       id="path4877"
       inkscape:connector-curvature="0" />
  </g>
  <g
     inkscape:groupmode="layer"
     inkscape:label="Z0_CUT500"
     id="g4879"
     style="display:inline"
     transform="translate(-30640.445,46202.498)">
    <path
       d="m 30802.5,-45837.638 a 22.5,22.5 0 1 0 -45,0 22.5,22.5 0 1 0 45,0 z"
       style="fill:none;stroke:#0000ff;stroke-linecap:round"
       id="path4881"
       inkscape:connector-curvature="0" />
  </g>
  <g
     inkscape:groupmode="layer"
     inkscape:label="Z0_RUBBER"
     id="g4917"
     style="display:inline"
     transform="translate(-30640.445,46202.498)" />
  <g
     inkscape:groupmode="layer"
     inkscape:label="Z0_CUT250"
     id="g4923"
     style="display:inline"
     transform="translate(-30640.445,46202.498)" />
  <g
     inkscape:groupmode="layer"
     id="layer1"
     inkscape:label="Z0_CENTROID"
     transform="translate(-22.499879,-22.499879)" />
</svg>
