<?xml version="1.0" encoding="UTF-8" standalone="no"?>
<svg
   xmlns:dc="http://purl.org/dc/elements/1.1/"
   xmlns:cc="http://creativecommons.org/ns#"
   xmlns:rdf="http://www.w3.org/1999/02/22-rdf-syntax-ns#"
   xmlns:svg="http://www.w3.org/2000/svg"
   xmlns="http://www.w3.org/2000/svg"
   xmlns:sodipodi="http://sodipodi.sourceforge.net/DTD/sodipodi-0.dtd"
   xmlns:inkscape="http://www.inkscape.org/namespaces/inkscape"
   width="3.0962694in"
   height="1.9936908in"
   id="svg4155"
   version="1.1"
   inkscape:version="0.91 r13725"
   sodipodi:docname="Generic_Part_VUK.svg">
  <metadata
     id="metadata4275">
    <rdf:RDF>
      <cc:Work
         rdf:about="">
        <dc:format>image/svg+xml</dc:format>
        <dc:type
           rdf:resource="http://purl.org/dc/dcmitype/StillImage" />
        <dc:title></dc:title>
      </cc:Work>
    </rdf:RDF>
  </metadata>
  <sodipodi:namedview
     pagecolor="#ffffff"
     bordercolor="#666666"
     borderopacity="1"
     objecttolerance="10"
     gridtolerance="10"
     guidetolerance="10"
     inkscape:pageopacity="0"
     inkscape:pageshadow="2"
     inkscape:window-width="1385"
     inkscape:window-height="785"
     id="namedview4273"
     showgrid="false"
     inkscape:zoom="3.2491386"
     inkscape:cx="139.33173"
     inkscape:cy="89.716138"
     inkscape:window-x="0"
     inkscape:window-y="0"
     inkscape:window-maximized="0"
     inkscape:current-layer="g4175"
     units="in"
     fit-margin-top="0"
     fit-margin-left="0"
     fit-margin-right="0"
     fit-margin-bottom="0" />
  <desc
     id="desc4157">/Users/briancox/Documents/Win_Para_Share/VEL270/2018/181127_Playfield_VUK_1.dxf - scale = 25.400000, origin = (0.000000, 0.000000), auto = False</desc>
  <defs
     id="defs4159">
    <marker
       id="DistanceX"
       orient="auto"
       refX="0"
       refY="0"
       style="overflow:visible">
      <path
         d="M 3,-3 -3,3 M 0,-5 0,5"
         style="stroke:#000000;stroke-width:0.5"
         id="path4162"
         inkscape:connector-curvature="0" />
    </marker>
    <pattern
       height="8"
       id="Hatch"
       patternUnits="userSpaceOnUse"
       width="8"
       x="0"
       y="0">
      <path
         d="M8 4 l-4,4"
         linecap="square"
         stroke="#000000"
         stroke-width="0.25"
         id="path4165" />
      <path
         d="M6 2 l-4,4"
         linecap="square"
         stroke="#000000"
         stroke-width="0.25"
         id="path4167" />
      <path
         d="M4 0 l-4,4"
         linecap="square"
         stroke="#000000"
         stroke-width="0.25"
         id="path4169" />
    </pattern>
    <symbol
       id="*MODEL_SPACE" />
    <symbol
       id="*PAPER_SPACE" />
  </defs>
  <g
     inkscape:groupmode="layer"
     inkscape:label="Z0_TOPCOMP"
     id="g4175"
     transform="translate(-31248.928,48408.517)" />
  <g
     inkscape:groupmode="layer"
     inkscape:label="Z0_BOTCOMP"
     id="g4177"
     transform="translate(-31248.928,48408.517)">
    <path
       d="m 31448.335,-48280.217 -120.15,0"
       style="fill:none;stroke:#00ffff;stroke-linecap:round"
       id="path4179"
       inkscape:connector-curvature="0" />
    <path
       d="m 31448.335,-48280.217 a 5.625,5.625 0 0 0 5.625,-5.625"
       style="fill:none;stroke:#00ffff;stroke-linecap:round"
       id="path4181"
       inkscape:connector-curvature="0" />
    <path
       d="m 31388.26,-48314.785 12.26,-12.26"
       style="fill:none;stroke:#00ffff;stroke-linecap:round"
       id="path4183"
       inkscape:connector-curvature="0" />
    <path
       d="m 31388.26,-48314.785 -12.261,-12.26"
       style="fill:none;stroke:#00ffff;stroke-linecap:round"
       id="path4185"
       inkscape:connector-curvature="0" />
    <path
       d="m 31388.26,-48386.864 0,72.079"
       style="fill:none;stroke:#00ffff;stroke-linecap:round"
       id="path4187"
       inkscape:connector-curvature="0" />
    <path
       d="m 31328.185,-48402.392 0,0"
       style="fill:none;stroke:#00ffff;stroke-linecap:round"
       id="path4189"
       inkscape:connector-curvature="0" />
    <path
       d="m 31328.185,-48285.842 0,0"
       style="fill:none;stroke:#00ffff;stroke-linecap:round"
       id="path4191"
       inkscape:connector-curvature="0" />
    <path
       d="m 31322.56,-48285.842 a 5.625,5.625 0 0 0 5.625,5.625"
       style="fill:none;stroke:#00ffff;stroke-linecap:round"
       id="path4193"
       inkscape:connector-curvature="0" />
    <path
       d="m 31328.185,-48408.017 a 5.625,5.625 0 0 0 -5.625,5.625"
       style="fill:none;stroke:#00ffff;stroke-linecap:round"
       id="path4195"
       inkscape:connector-curvature="0" />
    <path
       d="m 31448.335,-48285.842 -120.15,0"
       style="fill:none;stroke:#00ffff;stroke-linecap:round"
       id="path4197"
       inkscape:connector-curvature="0" />
    <path
       d="m 31328.185,-48285.842 0,-116.55"
       style="fill:none;stroke:#00ffff;stroke-linecap:round"
       id="path4199"
       inkscape:connector-curvature="0" />
    <path
       d="m 31328.185,-48402.392 120.15,0"
       style="fill:none;stroke:#00ffff;stroke-linecap:round"
       id="path4201"
       inkscape:connector-curvature="0" />
    <path
       d="m 31448.335,-48402.392 0,116.55"
       style="fill:none;stroke:#00ffff;stroke-linecap:round"
       id="path4203"
       inkscape:connector-curvature="0" />
    <path
       d="m 31448.335,-48402.392 0,0"
       style="fill:none;stroke:#00ffff;stroke-linecap:round"
       id="path4205"
       inkscape:connector-curvature="0" />
    <path
       d="M 31448.335,-48285.842 Z"
       style="fill:none;stroke:#00ffff;stroke-linecap:round"
       id="path4207"
       inkscape:connector-curvature="0" />
    <path
       d="m 31396.697,-48246.467 a 8.4375,8.4375 0 1 0 -16.875,0 8.4375,8.4375 0 1 0 16.875,0 z"
       style="fill:none;stroke:#00ffff;stroke-linecap:round"
       id="path4209"
       inkscape:connector-curvature="0" />
    <path
       d="m 31365.76,-48229.592 0,-50.625"
       style="fill:none;stroke:#00ffff;stroke-linecap:round"
       id="path4211"
       inkscape:connector-curvature="0" />
    <path
       d="m 31410.76,-48229.592 0,-50.625"
       style="fill:none;stroke:#00ffff;stroke-linecap:round"
       id="path4213"
       inkscape:connector-curvature="0" />
    <path
       d="m 31527.085,-48321.617 -74.154,0"
       style="fill:none;stroke:#00ffff;stroke-linecap:round"
       id="path4215"
       inkscape:connector-curvature="0" />
    <path
       d="m 31410.76,-48229.592 -45,0"
       style="fill:none;stroke:#00ffff;stroke-linecap:round"
       id="path4217"
       inkscape:connector-curvature="0" />
    <path
       d="m 31513.022,-48344.117 a 8.4375,8.4375 0 1 0 -16.875,0 8.4375,8.4375 0 1 0 16.875,0 z"
       style="fill:none;stroke:#00ffff;stroke-linecap:round"
       id="path4219"
       inkscape:connector-curvature="0" />
    <path
       d="m 31527.085,-48366.617 -73.125,0"
       style="fill:none;stroke:#00ffff;stroke-linecap:round"
       id="path4221"
       inkscape:connector-curvature="0" />
    <path
       d="m 31527.085,-48321.617 0,-45"
       style="fill:none;stroke:#00ffff;stroke-linecap:round"
       id="path4223"
       inkscape:connector-curvature="0" />
    <path
       d="m 31249.435,-48321.617 0,-45"
       style="fill:none;stroke:#00ffff;stroke-linecap:round"
       id="path4225"
       inkscape:connector-curvature="0" />
    <path
       d="m 31274.747,-48344.117 a 8.4375,8.4375 0 1 0 -16.875,0 8.4375,8.4375 0 1 0 16.875,0 z"
       style="fill:none;stroke:#00ffff;stroke-linecap:round"
       id="path4227"
       inkscape:connector-curvature="0" />
    <path
       d="m 31249.435,-48321.617 73.125,0"
       style="fill:none;stroke:#00ffff;stroke-linecap:round"
       id="path4229"
       inkscape:connector-curvature="0" />
    <path
       d="m 31249.435,-48366.617 73.125,0"
       style="fill:none;stroke:#00ffff;stroke-linecap:round"
       id="path4231"
       inkscape:connector-curvature="0" />
    <path
       d="m 31436.608,-48314.785 a 47.8125,47.8125 0 1 0 -95.625,0 47.8125,47.8125 0 1 0 95.625,0 z"
       style="fill:none;stroke:#00ffff;stroke-linecap:round"
       id="path4233"
       inkscape:connector-curvature="0" />
    <path
       d="m 31453.96,-48402.392 a 5.625,5.625 0 0 0 -5.625,-5.625"
       style="fill:none;stroke:#00ffff;stroke-linecap:round"
       id="path4235"
       inkscape:connector-curvature="0" />
    <path
       d="m 31453.96,-48402.392 0,116.55"
       style="fill:none;stroke:#00ffff;stroke-linecap:round"
       id="path4237"
       inkscape:connector-curvature="0" />
    <path
       d="m 31328.185,-48408.017 120.15,0"
       style="fill:none;stroke:#00ffff;stroke-linecap:round"
       id="path4239"
       inkscape:connector-curvature="0" />
    <path
       d="m 31322.56,-48285.842 0,-116.55"
       style="fill:none;stroke:#00ffff;stroke-linecap:round"
       id="path4241"
       inkscape:connector-curvature="0" />
  </g>
  <g
     inkscape:groupmode="layer"
     inkscape:label="Z0_CUT500"
     id="g4243"
     style="display:inline"
     transform="translate(-31248.928,48408.517)">
    <path
       d="m 31322.56,-48285.842 a 5.625,5.625 0 0 0 5.625,5.625"
       style="fill:none;stroke:#0000ff;stroke-linecap:round"
       id="path4245"
       inkscape:connector-curvature="0" />
    <path
       d="m 31328.185,-48408.017 a 5.625,5.625 0 0 0 -5.625,5.625"
       style="fill:none;stroke:#0000ff;stroke-linecap:round"
       id="path4247"
       inkscape:connector-curvature="0" />
    <path
       d="m 31448.335,-48280.217 -120.15,0"
       style="fill:none;stroke:#0000ff;stroke-linecap:round"
       id="path4249"
       inkscape:connector-curvature="0" />
    <path
       d="m 31448.335,-48280.217 a 5.625,5.625 0 0 0 5.625,-5.625"
       style="fill:none;stroke:#0000ff;stroke-linecap:round"
       id="path4251"
       inkscape:connector-curvature="0" />
    <path
       d="m 31453.96,-48402.392 a 5.625,5.625 0 0 0 -5.625,-5.625"
       style="fill:none;stroke:#0000ff;stroke-linecap:round"
       id="path4253"
       inkscape:connector-curvature="0" />
    <path
       d="m 31453.96,-48402.392 0,116.55"
       style="fill:none;stroke:#0000ff;stroke-linecap:round"
       id="path4255"
       inkscape:connector-curvature="0" />
    <path
       d="m 31328.185,-48408.017 120.15,0"
       style="fill:none;stroke:#0000ff;stroke-linecap:round"
       id="path4257"
       inkscape:connector-curvature="0" />
    <path
       d="m 31322.56,-48285.842 0,-116.55"
       style="fill:none;stroke:#0000ff;stroke-linecap:round"
       id="path4259"
       inkscape:connector-curvature="0" />
  </g>
  <g
     inkscape:groupmode="layer"
     inkscape:label="Z0_CUT250"
     id="g4261"
     transform="translate(-31248.928,48408.517)" />
  <g
     inkscape:groupmode="layer"
     inkscape:label="Z0_RUBBER"
     id="g4263"
     transform="translate(-31248.928,48408.517)" />
  <g
     inkscape:groupmode="layer"
     inkscape:label="Z0_PLASTICS"
     id="g4265"
     transform="translate(-31248.928,48408.517)" />
  <g
     inkscape:groupmode="layer"
     inkscape:label="Z0_CENTROID"
     id="g4271"
     transform="translate(-31248.928,48408.517)" />
</svg>
