<?xml version="1.0" encoding="UTF-8" standalone="no"?>
<svg
   xmlns:dc="http://purl.org/dc/elements/1.1/"
   xmlns:cc="http://creativecommons.org/ns#"
   xmlns:rdf="http://www.w3.org/1999/02/22-rdf-syntax-ns#"
   xmlns:svg="http://www.w3.org/2000/svg"
   xmlns="http://www.w3.org/2000/svg"
   xmlns:sodipodi="http://sodipodi.sourceforge.net/DTD/sodipodi-0.dtd"
   xmlns:inkscape="http://www.inkscape.org/namespaces/inkscape"
   width="1.3111111in"
   height="1.3111107in"
   id="svg4155"
   version="1.1"
   inkscape:version="0.91 r13725"
   sodipodi:docname="181101_PlasticsPost_1.svg">
  <metadata
     id="metadata4943">
    <rdf:RDF>
      <cc:Work
         rdf:about="">
        <dc:format>image/svg+xml</dc:format>
        <dc:type
           rdf:resource="http://purl.org/dc/dcmitype/StillImage" />
        <dc:title></dc:title>
      </cc:Work>
    </rdf:RDF>
  </metadata>
  <sodipodi:namedview
     pagecolor="#ffffff"
     bordercolor="#666666"
     borderopacity="1"
     objecttolerance="10"
     gridtolerance="10"
     guidetolerance="10"
     inkscape:pageopacity="0"
     inkscape:pageshadow="2"
     inkscape:window-width="845"
     inkscape:window-height="645"
     id="namedview4941"
     showgrid="false"
     inkscape:zoom="2.7415297"
     inkscape:cx="32.538579"
     inkscape:cy="16.886999"
     inkscape:window-x="85"
     inkscape:window-y="71"
     inkscape:window-maximized="0"
     inkscape:current-layer="g4879"
     units="in"
     fit-margin-top="0.25"
     fit-margin-left="0.25"
     fit-margin-right="0.25"
     fit-margin-bottom="0.25" />
  <desc
     id="desc4157">/Users/briancox/Documents/Win_Para_Share/VEL270/2018/181029_PlayfieldParts_2.dxf - scale = 25.400000, origin = (0.000000, 0.000000), auto = False</desc>
  <defs
     id="defs4159">
    <marker
       id="DistanceX"
       orient="auto"
       refX="0"
       refY="0"
       style="overflow:visible">
      <path
         d="M 3,-3 -3,3 M 0,-5 0,5"
         style="stroke:#000000;stroke-width:0.5"
         id="path4162"
         inkscape:connector-curvature="0" />
    </marker>
    <pattern
       height="8"
       id="Hatch"
       patternUnits="userSpaceOnUse"
       width="8"
       x="0"
       y="0">
      <path
         d="M8 4 l-4,4"
         linecap="square"
         stroke="#000000"
         stroke-width="0.25"
         id="path4165" />
      <path
         d="M6 2 l-4,4"
         linecap="square"
         stroke="#000000"
         stroke-width="0.25"
         id="path4167" />
      <path
         d="M4 0 l-4,4"
         linecap="square"
         stroke="#000000"
         stroke-width="0.25"
         id="path4169" />
    </pattern>
    <symbol
       id="*MODEL_SPACE" />
    <symbol
       id="*PAPER_SPACE" />
  </defs>
  <g
     inkscape:groupmode="layer"
     inkscape:label="Z0_TOPCOMP"
     id="g4223"
     style="display:inline"
     transform="translate(-30901,46796.638)">
    <path
       d="m 30991.5,-46737.638 a 31.5,31.5 0 1 0 -63,0 31.5,31.5 0 1 0 63,0 z"
       style="fill:none;stroke:#ff00ff;stroke-linecap:round"
       id="path4225"
       inkscape:connector-curvature="0" />
  </g>
  <g
     inkscape:groupmode="layer"
     inkscape:label="Z0_BOTCOMP"
     id="g4295"
     style="display:inline"
     transform="translate(-30901,46796.638)">
    <path
       d="m 30960,-46763.288 a 25.65,25.65 0 0 0 -24.725,18.825"
       style="fill:none;stroke:#00ffff;stroke-linecap:round"
       id="path4313"
       inkscape:connector-curvature="0" />
    <path
       d="m 30937.786,-46724.813 a 25.65,25.65 0 0 0 28.666,12.001"
       style="fill:none;stroke:#00ffff;stroke-linecap:round"
       id="path4315"
       inkscape:connector-curvature="0" />
    <path
       d="m 30982.214,-46724.813 a 25.65,25.65 0 0 0 -3.94,-30.825"
       style="fill:none;stroke:#00ffff;stroke-linecap:round"
       id="path4317"
       inkscape:connector-curvature="0" />
    <path
       d="m 30937.786,-46724.813 6.626,-3.825"
       style="fill:none;stroke:#00ffff;stroke-linecap:round"
       id="path4319"
       inkscape:connector-curvature="0" />
    <path
       d="m 30944.412,-46728.638 -9.137,-15.825"
       style="fill:none;stroke:#00ffff;stroke-linecap:round"
       id="path4321"
       inkscape:connector-curvature="0" />
    <path
       d="m 30982.214,-46724.813 -6.626,-3.825"
       style="fill:none;stroke:#00ffff;stroke-linecap:round"
       id="path4323"
       inkscape:connector-curvature="0" />
    <path
       d="m 30975.588,-46728.638 -9.136,15.826"
       style="fill:none;stroke:#00ffff;stroke-linecap:round"
       id="path4325"
       inkscape:connector-curvature="0" />
    <path
       d="m 30960,-46755.638 18.274,0"
       style="fill:none;stroke:#00ffff;stroke-linecap:round"
       id="path4327"
       inkscape:connector-curvature="0" />
    <path
       d="m 30960,-46763.288 0,7.65"
       style="fill:none;stroke:#00ffff;stroke-linecap:round"
       id="path4329"
       inkscape:connector-curvature="0" />
    <path
       d="m 30965.31,-46737.638 a 5.31,5.31 0 1 0 -10.62,0 5.31,5.31 0 1 0 10.62,0 z"
       style="fill:none;stroke:#00ffff;stroke-linecap:round"
       id="path4331"
       inkscape:connector-curvature="0" />
    <path
       d="m 30967.65,-46737.638 a 7.65,7.65 0 1 0 -15.3,0 7.65,7.65 0 1 0 15.3,0 z"
       style="fill:none;stroke:#00ffff;stroke-linecap:round"
       id="path4333"
       inkscape:connector-curvature="0" />
  </g>
  <g
     inkscape:groupmode="layer"
     inkscape:label="Z0_CUT500"
     id="g4879"
     style="display:inline"
     transform="translate(-30901,46796.638)">
    <path
       d="m 30967.425,-46737.638 a 7.425,7.425 0 1 0 -14.85,0 7.425,7.425 0 1 0 14.85,0 z"
       style="fill:none;stroke:#0000ff;stroke-linecap:round"
       id="path4899"
       inkscape:connector-curvature="0" />
  </g>
  <g
     inkscape:groupmode="layer"
     inkscape:label="Z0_RUBBER"
     id="g4917"
     style="display:inline"
     transform="translate(-30901,46796.638)">
    <path
       d="m 30996,-46737.638 a 36,36 0 1 0 -72,0 36,36 0 1 0 72,0 z"
       style="fill:none;stroke:#ffff00;stroke-linecap:round"
       id="path4919"
       inkscape:connector-curvature="0" />
    <path
       d="m 30979.35,-46737.638 a 19.35,19.35 0 1 0 -38.7,0 19.35,19.35 0 1 0 38.7,0 z"
       style="fill:none;stroke:#ffff00;stroke-linecap:round"
       id="path4921"
       inkscape:connector-curvature="0" />
  </g>
  <g
     inkscape:groupmode="layer"
     inkscape:label="Z0_CUT250"
     id="g4923"
     style="display:inline"
     transform="translate(-30901,46796.638)" />
</svg>
