<?xml version="1.0" encoding="UTF-8" standalone="no"?>
<svg
   xmlns:dc="http://purl.org/dc/elements/1.1/"
   xmlns:cc="http://creativecommons.org/ns#"
   xmlns:rdf="http://www.w3.org/1999/02/22-rdf-syntax-ns#"
   xmlns:svg="http://www.w3.org/2000/svg"
   xmlns="http://www.w3.org/2000/svg"
   xmlns:sodipodi="http://sodipodi.sourceforge.net/DTD/sodipodi-0.dtd"
   xmlns:inkscape="http://www.inkscape.org/namespaces/inkscape"
   width="2.8861122in"
   height="1.6360989in"
   id="svg4294"
   version="1.1"
   inkscape:version="0.91 r13725"
   sodipodi:docname="Generic_Part_Saucer.svg">
  <metadata
     id="metadata4402">
    <rdf:RDF>
      <cc:Work
         rdf:about="">
        <dc:format>image/svg+xml</dc:format>
        <dc:type
           rdf:resource="http://purl.org/dc/dcmitype/StillImage" />
        <dc:title></dc:title>
      </cc:Work>
    </rdf:RDF>
  </metadata>
  <sodipodi:namedview
     pagecolor="#ffffff"
     bordercolor="#666666"
     borderopacity="1"
     objecttolerance="10"
     gridtolerance="10"
     guidetolerance="10"
     inkscape:pageopacity="0"
     inkscape:pageshadow="2"
     inkscape:window-width="1146"
     inkscape:window-height="709"
     id="namedview4400"
     showgrid="false"
     inkscape:zoom="0.90856558"
     inkscape:cx="129.87555"
     inkscape:cy="73.624798"
     inkscape:window-x="136"
     inkscape:window-y="82"
     inkscape:window-maximized="0"
     inkscape:current-layer="layer2"
     units="in"
     fit-margin-top="0"
     fit-margin-left="0"
     fit-margin-right="0"
     fit-margin-bottom="0" />
  <desc
     id="desc4296">/Users/briancox/Documents/Win_Para_Share/VEL270/2018/181127_Playfield_Saucer_1.dxf - scale = 25.400000, origin = (0.000000, 0.000000), auto = False</desc>
  <defs
     id="defs4298">
    <marker
       id="DistanceX"
       orient="auto"
       refX="0"
       refY="0"
       style="overflow:visible">
      <path
         d="M 3,-3 -3,3 M 0,-5 0,5"
         style="stroke:#000000;stroke-width:0.5"
         id="path4301"
         inkscape:connector-curvature="0" />
    </marker>
    <pattern
       height="8"
       id="Hatch"
       patternUnits="userSpaceOnUse"
       width="8"
       x="0"
       y="0">
      <path
         d="M8 4 l-4,4"
         linecap="square"
         stroke="#000000"
         stroke-width="0.25"
         id="path4304" />
      <path
         d="M6 2 l-4,4"
         linecap="square"
         stroke="#000000"
         stroke-width="0.25"
         id="path4306" />
      <path
         d="M4 0 l-4,4"
         linecap="square"
         stroke="#000000"
         stroke-width="0.25"
         id="path4308" />
    </pattern>
    <symbol
       id="*MODEL_SPACE" />
    <symbol
       id="*PAPER_SPACE" />
  </defs>
  <g
     inkscape:groupmode="layer"
     inkscape:label="Z0_TOPCOMP"
     id="g4314"
     transform="translate(-31114.187,47925.687)">
    <path
       d="m 31258.462,-47868.938 a 14.4,14.4 0 1 0 -28.8,0 14.4,14.4 0 1 0 28.8,0 z"
       style="fill:none;stroke:#00ffff;stroke-linecap:round"
       id="path4316"
       inkscape:connector-curvature="0" />
  </g>
  <g
     inkscape:groupmode="layer"
     inkscape:label="Z0_BOTCOMP"
     id="g4318"
     transform="translate(-31114.187,47925.687)">
    <path
       d="m 31244.062,-47902.013 0,66.15"
       style="fill:none;stroke:#00ffff;stroke-linecap:round"
       id="path4320"
       inkscape:connector-curvature="0" />
    <path
       d="m 31214.902,-47868.938 58.32,0"
       style="fill:none;stroke:#00ffff;stroke-linecap:round"
       id="path4322"
       inkscape:connector-curvature="0" />
    <path
       d="m 31273.222,-47902.013 0,66.15"
       style="fill:none;stroke:#00ffff;stroke-linecap:round"
       id="path4324"
       inkscape:connector-curvature="0" />
    <path
       d="m 31214.902,-47902.013 58.32,0"
       style="fill:none;stroke:#00ffff;stroke-linecap:round"
       id="path4326"
       inkscape:connector-curvature="0" />
    <path
       d="m 31214.902,-47835.863 0,-66.15"
       style="fill:none;stroke:#00ffff;stroke-linecap:round"
       id="path4328"
       inkscape:connector-curvature="0" />
    <path
       d="m 31214.902,-47835.863 58.32,0"
       style="fill:none;stroke:#00ffff;stroke-linecap:round"
       id="path4330"
       inkscape:connector-curvature="0" />
    <path
       d="m 31221.562,-47868.938 45,0"
       style="fill:none;stroke:#00ffff;stroke-linecap:round"
       id="path4332"
       inkscape:connector-curvature="0" />
    <path
       d="m 31244.062,-47891.438 0,45"
       style="fill:none;stroke:#00ffff;stroke-linecap:round"
       id="path4334"
       inkscape:connector-curvature="0" />
    <path
       d="m 31144.387,-47801.438 a 7.2,7.2 0 1 0 -14.4,0 7.2,7.2 0 1 0 14.4,0 z"
       style="fill:none;stroke:#00ffff;stroke-linecap:round"
       id="path4336"
       inkscape:connector-curvature="0" />
    <path
       d="m 31144.387,-47868.938 a 7.2,7.2 0 1 0 -14.4,0 7.2,7.2 0 1 0 14.4,0 z"
       style="fill:none;stroke:#00ffff;stroke-linecap:round"
       id="path4338"
       inkscape:connector-curvature="0" />
    <path
       d="m 31358.137,-47868.938 a 7.2,7.2 0 1 0 -14.4,0 7.2,7.2 0 1 0 14.4,0 z"
       style="fill:none;stroke:#00ffff;stroke-linecap:round"
       id="path4340"
       inkscape:connector-curvature="0" />
    <path
       d="m 31266.562,-47868.938 a 22.5,22.5 0 1 0 -45,0 22.5,22.5 0 1 0 45,0 z"
       style="fill:none;stroke:#00ffff;stroke-linecap:round"
       id="path4342"
       inkscape:connector-curvature="0" />
    <path
       d="m 31300.312,-47801.438 -112.5,0"
       style="fill:none;stroke:#00ffff;stroke-linecap:round"
       id="path4344"
       inkscape:connector-curvature="0" />
    <path
       d="m 31373.437,-47868.938 0,67.5"
       style="fill:none;stroke:#00ffff;stroke-linecap:round"
       id="path4346"
       inkscape:connector-curvature="0" />
    <path
       d="m 31114.687,-47868.938 0,67.5"
       style="fill:none;stroke:#00ffff;stroke-linecap:round"
       id="path4348"
       inkscape:connector-curvature="0" />
    <path
       d="m 31295.616,-47891.438 a 56.25,56.25 0 0 0 -103.107,0"
       style="fill:none;stroke:#00ffff;stroke-linecap:round"
       id="path4350"
       inkscape:connector-curvature="0" />
    <path
       d="m 31350.937,-47891.438 -55.321,0"
       style="fill:none;stroke:#00ffff;stroke-linecap:round"
       id="path4352"
       inkscape:connector-curvature="0" />
    <path
       d="m 31192.509,-47891.438 -55.322,0"
       style="fill:none;stroke:#00ffff;stroke-linecap:round"
       id="path4354"
       inkscape:connector-curvature="0" />
    <path
       d="m 31328.437,-47801.438 a 22.5,22.5 0 0 0 45,0"
       style="fill:none;stroke:#00ffff;stroke-linecap:round"
       id="path4356"
       inkscape:connector-curvature="0" />
    <path
       d="m 31114.687,-47801.438 a 22.5,22.5 0 0 0 45,0"
       style="fill:none;stroke:#00ffff;stroke-linecap:round"
       id="path4358"
       inkscape:connector-curvature="0" />
    <path
       d="m 31373.437,-47868.938 a 22.5,22.5 0 0 0 -22.5,-22.5"
       style="fill:none;stroke:#00ffff;stroke-linecap:round"
       id="path4360"
       inkscape:connector-curvature="0" />
    <path
       d="m 31137.187,-47891.438 a 22.5,22.5 0 0 0 -22.5,22.5"
       style="fill:none;stroke:#00ffff;stroke-linecap:round"
       id="path4362"
       inkscape:connector-curvature="0" />
    <path
       d="m 31328.437,-47801.438 0,-7.762"
       style="fill:none;stroke:#00ffff;stroke-linecap:round"
       id="path4364"
       inkscape:connector-curvature="0" />
    <path
       d="m 31328.437,-47809.2 a 8.4375,8.4375 0 0 0 -8.437,-8.438"
       style="fill:none;stroke:#00ffff;stroke-linecap:round"
       id="path4366"
       inkscape:connector-curvature="0" />
    <path
       d="m 31308.75,-47817.638 11.25,0"
       style="fill:none;stroke:#00ffff;stroke-linecap:round"
       id="path4368"
       inkscape:connector-curvature="0" />
    <path
       d="m 31300.312,-47801.438 0,-7.762"
       style="fill:none;stroke:#00ffff;stroke-linecap:round"
       id="path4370"
       inkscape:connector-curvature="0" />
    <path
       d="m 31308.75,-47817.638 a 8.4375,8.4375 0 0 0 -8.438,8.438"
       style="fill:none;stroke:#00ffff;stroke-linecap:round"
       id="path4372"
       inkscape:connector-curvature="0" />
    <path
       d="m 31187.812,-47801.438 0,-7.762"
       style="fill:none;stroke:#00ffff;stroke-linecap:round"
       id="path4374"
       inkscape:connector-curvature="0" />
    <path
       d="m 31187.812,-47809.2 a 8.4375,8.4375 0 0 0 -8.437,-8.438"
       style="fill:none;stroke:#00ffff;stroke-linecap:round"
       id="path4376"
       inkscape:connector-curvature="0" />
    <path
       d="m 31179.375,-47817.638 -11.25,0"
       style="fill:none;stroke:#00ffff;stroke-linecap:round"
       id="path4378"
       inkscape:connector-curvature="0" />
    <path
       d="m 31159.687,-47801.438 0,-7.762"
       style="fill:none;stroke:#00ffff;stroke-linecap:round"
       id="path4380"
       inkscape:connector-curvature="0" />
    <path
       d="m 31168.125,-47817.638 a 8.4375,8.4375 0 0 0 -8.438,8.438"
       style="fill:none;stroke:#00ffff;stroke-linecap:round"
       id="path4382"
       inkscape:connector-curvature="0" />
    <path
       d="m 31358.137,-47801.438 a 7.2,7.2 0 1 0 -14.4,0 7.2,7.2 0 1 0 14.4,0 z"
       style="fill:none;stroke:#00ffff;stroke-linecap:round"
       id="path4384"
       inkscape:connector-curvature="0" />
  </g>
  <g
     inkscape:groupmode="layer"
     inkscape:label="Z0_CUT500"
     id="g4386"
     transform="translate(-31114.187,47925.687)">
    <path
       d="m 31297.5,-47868.938 a 53.4375,53.4375 0 1 0 -106.875,0 53.4375,53.4375 0 1 0 106.875,0 z"
       style="fill:none;stroke:#0000ff;stroke-linecap:round"
       id="path4388"
       inkscape:connector-curvature="0" />
  </g>
  <g
     inkscape:groupmode="layer"
     inkscape:label="Z0_CUT250"
     id="g4390"
     transform="translate(-31114.187,47925.687)" />
  <g
     inkscape:groupmode="layer"
     inkscape:label="Z0_RUBBER"
     id="g4392"
     transform="translate(-31114.187,47925.687)" />
  <g
     inkscape:groupmode="layer"
     inkscape:label="Z0_PLASTICS"
     id="g4394"
     transform="translate(-31114.187,47925.687)" />
  <g
     inkscape:groupmode="layer"
     id="layer2"
     inkscape:label="Z0_CENTROID"
     transform="translate(-31114.187,47925.687)" />
</svg>
