<?xml version="1.0" encoding="UTF-8" standalone="no"?>
<svg
   xmlns:dc="http://purl.org/dc/elements/1.1/"
   xmlns:cc="http://creativecommons.org/ns#"
   xmlns:rdf="http://www.w3.org/1999/02/22-rdf-syntax-ns#"
   xmlns:svg="http://www.w3.org/2000/svg"
   xmlns="http://www.w3.org/2000/svg"
   xmlns:sodipodi="http://sodipodi.sourceforge.net/DTD/sodipodi-0.dtd"
   xmlns:inkscape="http://www.inkscape.org/namespaces/inkscape"
   width="4.4077125in"
   height="6.2529283in"
   id="svg4155"
   version="1.1"
   inkscape:version="0.91 r13725"
   sodipodi:docname="181101_PartFlipperRight_2.svg">
  <metadata
     id="metadata4943">
    <rdf:RDF>
      <cc:Work
         rdf:about="">
        <dc:format>image/svg+xml</dc:format>
        <dc:type
           rdf:resource="http://purl.org/dc/dcmitype/StillImage" />
        <dc:title></dc:title>
      </cc:Work>
    </rdf:RDF>
  </metadata>
  <sodipodi:namedview
     pagecolor="#ffffff"
     bordercolor="#666666"
     borderopacity="1"
     objecttolerance="10"
     gridtolerance="10"
     guidetolerance="10"
     inkscape:pageopacity="0"
     inkscape:pageshadow="2"
     inkscape:window-width="1240"
     inkscape:window-height="799"
     id="namedview4941"
     showgrid="false"
     inkscape:zoom="0.85560295"
     inkscape:cx="153.3495"
     inkscape:cy="281.38223"
     inkscape:window-x="84"
     inkscape:window-y="11"
     inkscape:window-maximized="0"
     inkscape:current-layer="g4879"
     units="in"
     fit-margin-top="0.25"
     fit-margin-left="0.25"
     fit-margin-right="0.25"
     fit-margin-bottom="0.25" />
  <desc
     id="desc4157">/Users/briancox/Documents/Win_Para_Share/VEL270/2018/181029_PlayfieldParts_2.dxf - scale = 25.400000, origin = (0.000000, 0.000000), auto = False</desc>
  <defs
     id="defs4159">
    <marker
       id="DistanceX"
       orient="auto"
       refX="0"
       refY="0"
       style="overflow:visible">
      <path
         d="M 3,-3 -3,3 M 0,-5 0,5"
         style="stroke:#000000;stroke-width:0.5"
         id="path4162"
         inkscape:connector-curvature="0" />
    </marker>
    <pattern
       height="8"
       id="Hatch"
       patternUnits="userSpaceOnUse"
       width="8"
       x="0"
       y="0">
      <path
         d="M8 4 l-4,4"
         linecap="square"
         stroke="#000000"
         stroke-width="0.25"
         id="path4165" />
      <path
         d="M6 2 l-4,4"
         linecap="square"
         stroke="#000000"
         stroke-width="0.25"
         id="path4167" />
      <path
         d="M4 0 l-4,4"
         linecap="square"
         stroke="#000000"
         stroke-width="0.25"
         id="path4169" />
    </pattern>
    <symbol
       id="*MODEL_SPACE" />
    <symbol
       id="*PAPER_SPACE" />
  </defs>
  <g
     inkscape:groupmode="layer"
     inkscape:label="Z0_TOPCOMP"
     id="g4223"
     style="display:inline"
     transform="translate(-31175.361,46224.998)">
    <path
       d="m 31421.25,-45837.638 a 11.25,11.25 0 1 0 -22.5,0 11.25,11.25 0 1 0 22.5,0 z"
       style="fill:none;stroke:#ff00ff;stroke-linecap:round"
       id="path4243"
       inkscape:connector-curvature="0" />
    <path
       d="m 31426.001,-45809.841 -194.604,113.245"
       style="fill:none;stroke:#ff00ff;stroke-linecap:round"
       id="path4245"
       inkscape:connector-curvature="0" />
    <path
       d="m 31423.232,-45814.652 -194.009,114.279"
       style="fill:none;stroke:#ff00ff;stroke-linecap:round"
       id="path4247"
       inkscape:connector-curvature="0" />
    <path
       d="m 31393.42,-45858.338 -177.141,138.997"
       style="fill:none;stroke:#ff00ff;stroke-linecap:round"
       id="path4249"
       inkscape:connector-curvature="0" />
    <path
       d="m 31389.95,-45862.671 -176.396,139.928"
       style="fill:none;stroke:#ff00ff;stroke-linecap:round"
       id="path4251"
       inkscape:connector-curvature="0" />
    <path
       d="m 31216.279,-45719.341 a 11.51543,11.51543 0 0 0 12.944,18.968"
       style="fill:none;stroke:#ff00ff;stroke-linecap:round"
       id="path4253"
       inkscape:connector-curvature="0" />
    <path
       d="m 31213.554,-45722.743 a 15.873976,15.873976 0 0 0 17.843,26.147"
       style="fill:none;stroke:#ff00ff;stroke-linecap:round"
       id="path4255"
       inkscape:connector-curvature="0" />
    <path
       d="m 31207.776,-45729.957 a 25.117065,25.117065 0 0 0 28.233,41.372"
       style="fill:none;stroke:#ff00ff;stroke-linecap:round"
       id="path4257"
       inkscape:connector-curvature="0" />
    <path
       d="m 31423.232,-45814.652 a 26.521737,26.521737 0 1 0 -29.812,-43.686"
       style="fill:none;stroke:#ff00ff;stroke-linecap:round"
       id="path4259"
       inkscape:connector-curvature="0" />
    <path
       d="m 31426.001,-45809.841 a 32.073103,32.073103 0 1 0 -36.051,-52.83"
       style="fill:none;stroke:#ff00ff;stroke-linecap:round"
       id="path4261"
       inkscape:connector-curvature="0" />
    <path
       d="m 31431.14,-45800.914 a 42.374301,42.374301 0 1 0 -47.63,-69.797"
       style="fill:none;stroke:#ff00ff;stroke-linecap:round"
       id="path4263"
       inkscape:connector-curvature="0" />
    <path
       d="m 31236.009,-45688.585 195.131,-112.329"
       style="fill:none;stroke:#ff00ff;stroke-linecap:round"
       id="path4265"
       inkscape:connector-curvature="0" />
    <path
       d="m 31207.776,-45729.957 175.734,-140.754"
       style="fill:none;stroke:#ff00ff;stroke-linecap:round"
       id="path4267"
       inkscape:connector-curvature="0" />
  </g>
  <g
     inkscape:groupmode="layer"
     inkscape:label="Z0_BOTCOMP"
     id="g4295"
     style="display:inline"
     transform="translate(-31175.361,46224.998)">
    <path
       d="m 31549.048,-45773.181 0,-68.015"
       style="fill:none;stroke:#00ffff;stroke-linecap:round"
       id="path4687"
       inkscape:connector-curvature="0" />
    <path
       d="m 31549.048,-45841.196 -49.998,0"
       style="fill:none;stroke:#00ffff;stroke-linecap:round"
       id="path4689"
       inkscape:connector-curvature="0" />
    <path
       d="m 31261.223,-45850.205 0,-212.603"
       style="fill:none;stroke:#00ffff;stroke-linecap:round"
       id="path4691"
       inkscape:connector-curvature="0" />
    <path
       d="m 31549.048,-46139.832 -142.787,0"
       style="fill:none;stroke:#00ffff;stroke-linecap:round"
       id="path4693"
       inkscape:connector-curvature="0" />
    <path
       d="m 31261.223,-45764.173 0,18.919"
       style="fill:none;stroke:#00ffff;stroke-linecap:round"
       id="path4695"
       inkscape:connector-curvature="0" />
    <path
       d="m 31202.216,-45773.181 49.998,0"
       style="fill:none;stroke:#00ffff;stroke-linecap:round"
       id="path4697"
       inkscape:connector-curvature="0" />
    <path
       d="m 31252.214,-45841.196 -49.998,0"
       style="fill:none;stroke:#00ffff;stroke-linecap:round"
       id="path4699"
       inkscape:connector-curvature="0" />
    <path
       d="m 31438.152,-45837.638 -56.304,0"
       style="fill:none;stroke:#00ffff;stroke-linecap:round"
       id="path4701"
       inkscape:connector-curvature="0" />
    <path
       d="m 31405.361,-45773.181 143.687,0"
       style="fill:none;stroke:#00ffff;stroke-linecap:round"
       id="path4703"
       inkscape:connector-curvature="0" />
    <path
       d="m 31396.352,-45745.254 0,-18.919"
       style="fill:none;stroke:#00ffff;stroke-linecap:round"
       id="path4705"
       inkscape:connector-curvature="0" />
    <path
       d="m 31397.253,-46201.991 0,53.151"
       style="fill:none;stroke:#00ffff;stroke-linecap:round"
       id="path4707"
       inkscape:connector-curvature="0" />
    <path
       d="m 31490.042,-45850.205 0,-212.603"
       style="fill:none;stroke:#00ffff;stroke-linecap:round"
       id="path4709"
       inkscape:connector-curvature="0" />
    <path
       d="m 31410,-45809.486 0,-56.304"
       style="fill:none;stroke:#00ffff;stroke-linecap:round"
       id="path4711"
       inkscape:connector-curvature="0" />
    <path
       d="m 31261.223,-46201.991 136.03,0"
       style="fill:none;stroke:#00ffff;stroke-linecap:round"
       id="path4713"
       inkscape:connector-curvature="0" />
    <path
       d="m 31261.223,-45745.254 135.129,0"
       style="fill:none;stroke:#00ffff;stroke-linecap:round"
       id="path4715"
       inkscape:connector-curvature="0" />
    <path
       d="m 31261.223,-45753.633 135.129,0"
       style="fill:none;stroke:#00ffff;stroke-linecap:round"
       id="path4717"
       inkscape:connector-curvature="0" />
    <path
       d="m 31549.048,-46139.832 0,68.015"
       style="fill:none;stroke:#00ffff;stroke-linecap:round"
       id="path4719"
       inkscape:connector-curvature="0" />
    <path
       d="m 31499.05,-46071.817 49.998,0"
       style="fill:none;stroke:#00ffff;stroke-linecap:round"
       id="path4721"
       inkscape:connector-curvature="0" />
    <path
       d="m 31219.333,-45797.183 a 6.21,6.21 -90 1 0 0,12.42 6.21,6.21 -90 1 0 0,-12.42 z"
       style="fill:none;stroke:#00ffff;stroke-linecap:round"
       id="path4723"
       inkscape:connector-curvature="0" />
    <path
       d="m 31219.327,-46094.467 a 6.21,6.21 -90 1 0 0,12.42 6.21,6.21 -90 1 0 0,-12.42 z"
       style="fill:none;stroke:#00ffff;stroke-linecap:round"
       id="path4725"
       inkscape:connector-curvature="0" />
    <path
       d="m 31219.327,-46128.25 a 6.21,6.21 -90 1 0 0,12.42 6.21,6.21 -90 1 0 0,-12.42 z"
       style="fill:none;stroke:#00ffff;stroke-linecap:round"
       id="path4727"
       inkscape:connector-curvature="0" />
    <path
       d="m 31525.727,-46122.04 a 6.21,6.21 -180 1 0 12.42,0 6.21,6.21 -180 1 0 -12.42,0 z"
       style="fill:none;stroke:#00ffff;stroke-linecap:round"
       id="path4729"
       inkscape:connector-curvature="0" />
    <path
       d="m 31219.333,-45830.965 a 6.21,6.21 -90 1 0 0,12.42 6.21,6.21 -90 1 0 0,-12.42 z"
       style="fill:none;stroke:#00ffff;stroke-linecap:round"
       id="path4731"
       inkscape:connector-curvature="0" />
    <path
       d="m 31531.937,-46094.467 a 6.21,6.21 -90 1 0 0,12.42 6.21,6.21 -90 1 0 0,-12.42 z"
       style="fill:none;stroke:#00ffff;stroke-linecap:round"
       id="path4733"
       inkscape:connector-curvature="0" />
    <path
       d="m 31525.727,-45790.973 a 6.21,6.21 -180 1 0 12.42,0 6.21,6.21 -180 1 0 -12.42,0 z"
       style="fill:none;stroke:#00ffff;stroke-linecap:round"
       id="path4735"
       inkscape:connector-curvature="0" />
    <path
       d="m 31525.727,-45824.755 a 6.21,6.21 -180 1 0 12.42,0 6.21,6.21 -180 1 0 -12.42,0 z"
       style="fill:none;stroke:#00ffff;stroke-linecap:round"
       id="path4737"
       inkscape:connector-curvature="0" />
    <path
       d="m 31499.05,-46071.817 c -2.389,0 -4.68,0.949 -6.37,2.639"
       style="fill:none;stroke:#00ffff;stroke-linecap:round"
       id="path4739"
       inkscape:connector-curvature="0" />
    <path
       d="m 31492.68,-45843.835 c 1.69,1.69 3.981,2.639 6.37,2.639"
       style="fill:none;stroke:#00ffff;stroke-linecap:round"
       id="path4741"
       inkscape:connector-curvature="0" />
    <path
       d="m 31405.361,-45773.181 c -2.39,0 -4.681,0.949 -6.37,2.638"
       style="fill:none;stroke:#00ffff;stroke-linecap:round"
       id="path4743"
       inkscape:connector-curvature="0" />
    <path
       d="m 31492.68,-46069.178 c -1.689,1.689 -2.638,3.981 -2.638,6.37"
       style="fill:none;stroke:#00ffff;stroke-linecap:round"
       id="path4745"
       inkscape:connector-curvature="0" />
    <path
       d="m 31397.253,-46148.84 c 0,2.389 0.949,4.68 2.638,6.37"
       style="fill:none;stroke:#00ffff;stroke-linecap:round"
       id="path4747"
       inkscape:connector-curvature="0" />
    <path
       d="m 31399.891,-46142.47 c 1.69,1.689 3.981,2.638 6.37,2.638"
       style="fill:none;stroke:#00ffff;stroke-linecap:round"
       id="path4749"
       inkscape:connector-curvature="0" />
    <path
       d="m 31490.042,-45850.205 c 0,2.389 0.949,4.681 2.638,6.37"
       style="fill:none;stroke:#00ffff;stroke-linecap:round"
       id="path4751"
       inkscape:connector-curvature="0" />
    <path
       d="m 31258.584,-45843.835 c 1.69,-1.689 2.639,-3.981 2.639,-6.37"
       style="fill:none;stroke:#00ffff;stroke-linecap:round"
       id="path4753"
       inkscape:connector-curvature="0" />
    <path
       d="m 31398.991,-45770.543 c -1.69,1.69 -2.639,3.981 -2.639,6.37"
       style="fill:none;stroke:#00ffff;stroke-linecap:round"
       id="path4755"
       inkscape:connector-curvature="0" />
    <path
       d="m 31261.223,-46062.808 c 0,-2.389 -0.949,-4.681 -2.639,-6.37"
       style="fill:none;stroke:#00ffff;stroke-linecap:round"
       id="path4757"
       inkscape:connector-curvature="0" />
    <path
       d="m 31258.584,-46069.178 c -1.689,-1.69 -3.981,-2.639 -6.37,-2.639"
       style="fill:none;stroke:#00ffff;stroke-linecap:round"
       id="path4759"
       inkscape:connector-curvature="0" />
    <path
       d="m 31252.214,-46139.832 c 2.389,0 4.681,-0.949 6.37,-2.638"
       style="fill:none;stroke:#00ffff;stroke-linecap:round"
       id="path4761"
       inkscape:connector-curvature="0" />
    <path
       d="m 31258.584,-46142.47 c 1.69,-1.69 2.639,-3.981 2.639,-6.37"
       style="fill:none;stroke:#00ffff;stroke-linecap:round"
       id="path4763"
       inkscape:connector-curvature="0" />
    <path
       d="m 31261.223,-45764.173 c 0,-2.389 -0.949,-4.68 -2.639,-6.37"
       style="fill:none;stroke:#00ffff;stroke-linecap:round"
       id="path4765"
       inkscape:connector-curvature="0" />
    <path
       d="m 31258.584,-45770.543 c -1.689,-1.689 -3.981,-2.638 -6.37,-2.638"
       style="fill:none;stroke:#00ffff;stroke-linecap:round"
       id="path4767"
       inkscape:connector-curvature="0" />
    <path
       d="m 31252.214,-45841.196 c 2.389,0 4.681,-0.949 6.37,-2.639"
       style="fill:none;stroke:#00ffff;stroke-linecap:round"
       id="path4769"
       inkscape:connector-curvature="0" />
    <path
       d="m 31387.5,-45837.638 a 22.5,22.5 -180 1 0 45,0 22.5,22.5 -180 1 0 -45,0 z"
       style="fill:none;stroke:#00ffff;stroke-linecap:round"
       id="path4771"
       inkscape:connector-curvature="0" />
    <path
       d="m 31202.216,-46071.817 0,-68.015"
       style="fill:none;stroke:#00ffff;stroke-linecap:round"
       id="path4773"
       inkscape:connector-curvature="0" />
    <path
       d="m 31202.216,-46071.817 49.998,0"
       style="fill:none;stroke:#00ffff;stroke-linecap:round"
       id="path4775"
       inkscape:connector-curvature="0" />
    <path
       d="m 31252.214,-46139.832 -49.998,0"
       style="fill:none;stroke:#00ffff;stroke-linecap:round"
       id="path4777"
       inkscape:connector-curvature="0" />
    <path
       d="m 31261.223,-46148.84 0,-53.151"
       style="fill:none;stroke:#00ffff;stroke-linecap:round"
       id="path4779"
       inkscape:connector-curvature="0" />
    <path
       d="m 31202.216,-45773.181 0,-68.015"
       style="fill:none;stroke:#00ffff;stroke-linecap:round"
       id="path4781"
       inkscape:connector-curvature="0" />
  </g>
  <g
     inkscape:groupmode="layer"
     inkscape:label="Z0_CUT500"
     id="g4879"
     style="display:inline"
     transform="translate(-31175.361,46224.998)">
    <path
       d="m 31432.5,-45837.638 a 22.5,22.5 0 1 0 -45,0 22.5,22.5 0 1 0 45,0 z"
       style="fill:none;stroke:#0000ff;stroke-linecap:round"
       id="path4915"
       inkscape:connector-curvature="0" />
  </g>
  <g
     inkscape:groupmode="layer"
     inkscape:label="Z0_RUBBER"
     id="g4917"
     style="display:inline"
     transform="translate(-31175.361,46224.998)" />
  <g
     inkscape:groupmode="layer"
     inkscape:label="Z0_CUT250"
     id="g4923"
     style="display:inline"
     transform="translate(-31175.361,46224.998)" />
</svg>
