  0
SECTION
  2
HEADER
  9
$ACADVER
  1
AC1014
  9
$ACADMAINTVER
 70
         0
  9
$DWGCODEPAGE
  3
ANSI_1252
  9
$INSBASE
 10
0.0
 20
0.0
 30
0.0
  9
$EXTMIN
 10
-0.93969262
 20
-0.98480775
 30
0.0
  9
$EXTMAX
 10
13.0
 20
12.98480775
 30
0.0
  9
$LIMMIN
 10
0.0
 20
0.0
  9
$LIMMAX
 10
0.0
 20
0.0
  9
$ORTHOMODE
 70
         0
  9
$REGENMODE
 70
         1
  9
$FILLMODE
 70
         1
  9
$QTEXTMODE
 70
         0
  9
$MIRRTEXT
 70
         1
  9
$DRAGMODE
 70
         2
  9
$LTSCALE
 40
1.0
  9
$OSMODE
 70
         0
  9
$ATTMODE
 70
         1
  9
$TEXTSIZE
 40
0.2
  9
$TRACEWID
 40
0.05
  9
$TEXTSTYLE
  7
STANDARD
  9
$CLAYER
  8
0
  9
$CELTYPE
  6
CONTINUOUS
  9
$CECOLOR
 62
       256
  9
$CELTSCALE
 40
1.0
  9
$DELOBJ
 70
         1
  9
$DISPSILH
 70
         0
  9
$DIMSCALE
 40
1.0
  9
$DIMASZ
 40
0.18
  9
$DIMEXO
 40
0.0625
  9
$DIMDLI
 40
0.38
  9
$DIMRND
 40
0.0
  9
$DIMDLE
 40
0.0
  9
$DIMEXE
 40
0.18
  9
$DIMTP
 40
0.0
  9
$DIMTM
 40
0.0
  9
$DIMTXT
 40
0.18
  9
$DIMCEN
 40
0.09
  9
$DIMTSZ
 40
0.0
  9
$DIMTOL
 70
         0
  9
$DIMLIM
 70
         0
  9
$DIMTIH
 70
         1
  9
$DIMTOH
 70
         1
  9
$DIMSE1
 70
         0
  9
$DIMSE2
 70
         0
  9
$DIMTAD
 70
         0
  9
$DIMZIN
 70
         0
  9
$DIMBLK
  1

  9
$DIMASO
 70
         1
  9
$DIMSHO
 70
         1
  9
$DIMPOST
  1

  9
$DIMAPOST
  1

  9
$DIMALT
 70
         0
  9
$DIMALTD
 70
         2
  9
$DIMALTF
 40
25.4
  9
$DIMLFAC
 40
1.0
  9
$DIMTOFL
 70
         0
  9
$DIMTVP
 40
0.0
  9
$DIMTIX
 70
         0
  9
$DIMSOXD
 70
         0
  9
$DIMSAH
 70
         0
  9
$DIMBLK1
  1

  9
$DIMBLK2
  1

  9
$DIMSTYLE
  2
STANDARD
  9
$DIMCLRD
 70
         0
  9
$DIMCLRE
 70
         0
  9
$DIMCLRT
 70
         0
  9
$DIMTFAC
 40
1.0
  9
$DIMGAP
 40
0.09
  9
$DIMJUST
 70
         0
  9
$DIMSD1
 70
         0
  9
$DIMSD2
 70
         0
  9
$DIMTOLJ
 70
         1
  9
$DIMTZIN
 70
         0
  9
$DIMALTZ
 70
         0
  9
$DIMALTTZ
 70
         0
  9
$DIMFIT
 70
         3
  9
$DIMUPT
 70
         0
  9
$DIMUNIT
 70
         2
  9
$DIMDEC
 70
         4
  9
$DIMTDEC
 70
         4
  9
$DIMALTU
 70
         2
  9
$DIMALTTD
 70
         2
  9
$DIMTXSTY
  7
STANDARD
  9
$DIMAUNIT
 70
         0
  9
$LUNITS
 70
         2
  9
$LUPREC
 70
         4
  9
$SKETCHINC
 40
0.1
  9
$FILLETRAD
 40
0.0
  9
$AUNITS
 70
         0
  9
$AUPREC
 70
         0
  9
$MENU
  1
acad
  9
$ELEVATION
 40
0.0
  9
$PELEVATION
 40
0.0
  9
$THICKNESS
 40
0.0
  9
$LIMCHECK
 70
         0
  9
$BLIPMODE
 70
         1
  9
$CHAMFERA
 40
0.0
  9
$CHAMFERB
 40
0.0
  9
$CHAMFERC
 40
0.0
  9
$CHAMFERD
 40
0.0
  9
$SKPOLY
 70
         0
  9
$TDCREATE
 40
2457742.646076389
  9
$TDUPDATE
 40
2457742.646076389
  9
$TDINDWG
 40
0.0000000000
  9
$TDUSRTIMER
 40
0.0000000000
  9
$USRTIMER
 70
         1
  9
$ANGBASE
 50
0.0
  9
$ANGDIR
 70
         0
  9
$PDMODE
 70
         0
  9
$PDSIZE
 40
0.0
  9
$PLINEWID
 40
0.0
  9
$COORDS
 70
         0
  9
$SPLFRAME
 70
         0
  9
$SPLINETYPE
 70
         6
  9
$SPLINESEGS
 70
         8
  9
$ATTDIA
 70
         0
  9
$ATTREQ
 70
         1
  9
$HANDLING
 70
         1
  9
$HANDSEED
  5
229
  9
$SURFTAB1
 70
         6
  9
$SURFTAB2
 70
         6
  9
$SURFTYPE
 70
         6
  9
$SURFU
 70
         6
  9
$SURFV
 70
         6
  9
$UCSNAME
  2

  9
$UCSORG
 10
0.0
 20
0.0
 30
0.0
  9
$UCSXDIR
 10
1.0
 20
0.0
 30
0.0
  9
$UCSYDIR
 10
0.0
 20
1.0
 30
0.0
  9
$PUCSNAME
  2

  9
$PUCSORG
 10
0.0
 20
0.0
 30
0.0
  9
$PUCSXDIR
 10
1.0
 20
0.0
 30
0.0
  9
$PUCSYDIR
 10
0.0
 20
1.0
 30
0.0
  9
$USERI1
 70
         0
  9
$USERI2
 70
         0
  9
$USERI3
 70
         0
  9
$USERI4
 70
         0
  9
$USERI5
 70
         0
  9
$USERR1
 40
0.0
  9
$USERR2
 40
0.0
  9
$USERR3
 40
0.0
  9
$USERR4
 40
0.0
  9
$USERR5
 40
0.0
  9
$WORLDVIEW
 70
         1
  9
$SHADEDGE
 70
         3
  9
$SHADEDIF
 70
        70
  9
$TILEMODE
 70
         1
  9
$MAXACTVP
 70
        16
  9
$PINSBASE
 10
0.0
 20
0.0
 30
0.0
  9
$PLIMCHECK
 70
         0
  9
$PEXTMIN
 10
1.0000000000E+20
 20
1.0000000000E+20
 30
1.0000000000E+20
  9
$PEXTMAX
 10
-1.0000000000E+20
 20
-1.0000000000E+20
 30
-1.0000000000E+20
  9
$PLIMMIN
 10
0.0
 20
0.0
  9
$PLIMMAX
 10
12.0
 20
9.0
  9
$UNITMODE
 70
         0
  9
$VISRETAIN
 70
         0
  9
$PLINEGEN
 70
         1
  9
$PSLTSCALE
 70
         0
  9
$TREEDEPTH
 70
      3020
  9
$PICKSTYLE
 70
         1
  9
$CMLSTYLE
  2
STANDARD
  9
$CMLJUST
 70
         0
  9
$CMLSCALE
 40
1.0
  9
$PROXYGRAPHICS
 70
         0
  9
$MEASUREMENT
 70
         0
  0
ENDSEC
  0
SECTION
  2
CLASSES
  0
CLASS
  1
LWPOLYLINE
  2
AcDbPolyline
  3
"AutoCAD"
 90
        0
280
         0
281
         1
  0
CLASS
  1
IMAGE
  2
AcDbRasterImage
  3
ISM
 90
      127
280
         0
281
         1
  0
CLASS
  1
OLE2FRAME
  2
AcDbOle2Frame
  3
""
 90
        0
280
         0
281
         1
  0
CLASS
  1
HATCH
  2
AcDbHatch
  3
"ACAD_SEDONA"
 90
        0
280
         0
281
         1
  0
CLASS
  1
DICTIONARYVAR
  2
AcDbDictionaryVar
  3
"AutoCAD"
 90
        0
280
         0
281
         0
  0
CLASS
  1
RASTERVARIABLES
  2
AcDbRasterVariables
  3
ISM
 90
        0
280
         0
281
         0
  0
CLASS
  1
IMAGEDEF
  2
AcDbRasterImageDef
  3
ISM
 90
        0
280
         0
281
         0
  0
CLASS
  1
IMAGEDEF_REACTOR
  2
AcDbRasterImageDefReactor
  3
ISM
 90
        1
280
         0
281
         0
  0
CLASS
  1
IDBUFFER
  2
AcDbIdBuffer
  3
"Acad"
 90
        0
280
         0
281
         0
  0
CLASS
  1
SPATIAL_FILTER
  2
AcDbSpatialFilter
  3
"Acad"
 90
        0
280
         0
281
         0
  0
CLASS
  1
XRECORD
  2
AcDbXrecord
  3
"<Built In>"
 90
        0
280
         0
281
         0
  0
CLASS
  1
SORTENTSTABLE
  2
AcDbSortentsTable
  3
"AutoCAD"
 90
        0
280
         0
281
         0
  0
CLASS
  1
LAYER_INDEX
  2
AcDbLayerIndex
  3
"Acad"
 90
        0
280
         0
281
         0
  0
CLASS
  1
SPATIAL_INDEX
  2
AcDbSpatialIndex
  3
"Acad"
 90
        0
280
         0
281
         0
  0
CLASS
  1
OBJECT_PTR
  2
CAseDLPNTableRecord
  3
"ASE-LPNTableRecord"
 90
        1
280
         0
281
         0
  0
CLASS
  1
LAYOUT
  2
AcDbLayout
  3
"AutoCAD 2000"
 90
        1
280
         0
281
         0
  0
CLASS
  1
PLOTSETTINGS
  2
AcDbPlotSettings
  3
"AutoCAD 2000"
 90
        1
280
         0
281
         0
  0
CLASS
  1
ACDBDICTIONARYWDFLT
  2
AcDbDictionaryWithDefault
  3
"AutoCAD 2000"
 90
        1
280
         0
281
         0
  0
CLASS
  1
ACDBPLACEHOLDER
  2
AcDbPlaceHolder
  3
"AutoCAD 2000"
 90
        1
280
         0
281
         0
  0
CLASS
  1
VBA_PROJECT
  2
AcDbVbaProject
  3
"acadvba"
 90
        1
280
         0
281
         0
  0
CLASS
  1
WIPEOUT
  2
AcDbWipeout
  3
WipeOut|AutoCAD Express Tool|expresstools@autodesk.com
 90
      127
280
         0
281
         1
  0
CLASS
  1
WIPEOUTVARIABLES
  2
AcDbWipeoutVariables
  3
WipeOut|AutoCAD Express Tool|expresstools@autodesk.com
 90
        0
280
         0
281
         0
  0
CLASS
  1
RTEXT
  2
RText
  3
RText|AutoCAD Express Tool|expresstools@autodesk.com
 90
        0
280
         0
281
         1
  0
CLASS
  1
ARCALIGNEDTEXT
  2
AcDbArcAlignedText
  3
ATEXT|AutoCAD Express Tool|expresstools@autodesk.com
 90
        0
280
         0
281
         1
  0
ENDSEC
  0
SECTION
  2
TABLES
  0
TABLE
  2
VPORT
  5
7
100
AcDbSymbolTable
 70
         1
  0
VPORT
  5
15
100
AcDbSymbolTableRecord
100
AcDbViewportTableRecord
  2
*ACTIVE
 70
         0
 10
0.0
 20
0.0
 11
1.0
 21
1.0
 12
6.591288
 22
4.579184
 13
0.0
 23
0.0
 14
1.0
 24
1.0
 15
0.0
 25
0.0
 16
0.0
 26
0.0
 36
1.0
 17
0.0
 27
0.0
 37
0.0
 40
9.158369
 41
0.688564
 42
50.0
 43
0.0
 44
0.0
 50
0.0
 51
0.0
 71
         0
 72
       100
 73
         1
 74
         1
 75
         0
 76
         0
 77
         0
 78
         0
  0
ENDTAB
  0
TABLE
  2
LTYPE
  5
4
100
AcDbSymbolTable
 70
        13
  0
LTYPE
  5
11
100
AcDbSymbolTableRecord
100
AcDbLinetypeTableRecord
  2
BYBLOCK
 70
        64
  3

 72
        65
 73
         0
 40
0.0
  0
LTYPE
  5
12
100
AcDbSymbolTableRecord
100
AcDbLinetypeTableRecord
  2
BYLAYER
 70
        64
  3

 72
        65
 73
         0
 40
0.0
  0
LTYPE
  5
13
100
AcDbSymbolTableRecord
100
AcDbLinetypeTableRecord
  2
CONTINUOUS
 70
        64
  3
Solid line
 72
        65
 73
         0
 40
0.0
  0
LTYPE
  5
1E
100
AcDbSymbolTableRecord
100
AcDbLinetypeTableRecord
  2
DOTTED
 70
        64
  3
Dotted
 72
        65
 73
         2
 40
0.125
 49
0.0
 74
         0
 49
-0.125
 74
         0
  0
LTYPE
  5
1F
100
AcDbSymbolTableRecord
100
AcDbLinetypeTableRecord
  2
CENTER
 70
        64
  3
Center
 72
        65
 73
         4
 40
0.7699999809
 49
0.5
 74
         0
 49
-0.0724999979
 74
         0
 49
0.125
 74
         0
 49
-0.0724999979
 74
         0
  0
LTYPE
  5
20
100
AcDbSymbolTableRecord
100
AcDbLinetypeTableRecord
  2
DASHED
 70
        64
  3
Dashed
 72
        65
 73
         2
 40
0.375
 49
0.25
 74
         0
 49
-0.125
 74
         0
  0
LTYPE
  5
21
100
AcDbSymbolTableRecord
100
AcDbLinetypeTableRecord
  2
HIDDEN
 70
        64
  3
Hidden
 72
        65
 73
         2
 40
0.1974999905
 49
0.125
 74
         0
 49
-0.0724999979
 74
         0
  0
LTYPE
  5
22
100
AcDbSymbolTableRecord
100
AcDbLinetypeTableRecord
  2
PHANTOM
 70
        64
  3
Phantom
 72
        65
 73
         6
 40
0.9674999714
 49
0.5
 74
         0
 49
-0.0724999979
 74
         0
 49
0.125
 74
         0
 49
-0.0724999979
 74
         0
 49
0.125
 74
         0
 49
-0.0724999979
 74
         0
  0
LTYPE
  5
23
100
AcDbSymbolTableRecord
100
AcDbLinetypeTableRecord
  2
DASHDOT
 70
        64
  3
Dashdot
 72
        65
 73
         4
 40
0.6762499809
 49
0.5
 74
         0
 49
-0.0724999979
 74
         0
 49
0.03125
 74
         0
 49
-0.0724999979
 74
         0
  0
LTYPE
  5
24
100
AcDbSymbolTableRecord
100
AcDbLinetypeTableRecord
  2
BORDER
 70
        64
  3
Border
 72
        65
 73
         6
 40
1.2487499714
 49
0.5
 74
         0
 49
-0.0724999979
 74
         0
 49
0.5
 74
         0
 49
-0.0724999979
 74
         0
 49
0.03125
 74
         0
 49
-0.0724999979
 74
         0
  0
LTYPE
  5
25
100
AcDbSymbolTableRecord
100
AcDbLinetypeTableRecord
  2
DIVIDE
 70
        64
  3
Divide
 72
        65
 73
         6
 40
0.7799999714
 49
0.5
 74
         0
 49
-0.0724999979
 74
         0
 49
0.03125
 74
         0
 49
-0.0724999979
 74
         0
 49
0.03125
 74
         0
 49
-0.0724999979
 74
         0
  0
LTYPE
  5
26
100
AcDbSymbolTableRecord
100
AcDbLinetypeTableRecord
  2
CUTTING
 70
        64
  3
Cutting
 72
        65
 73
         6
 40
1.4674999714
 49
1.0
 74
         0
 49
-0.0724999979
 74
         0
 49
0.125
 74
         0
 49
-0.0724999979
 74
         0
 49
0.125
 74
         0
 49
-0.0724999979
 74
         0
  0
LTYPE
  5
27
100
AcDbSymbolTableRecord
100
AcDbLinetypeTableRecord
  2
STITCH
 70
        64
  3
Stitch
 72
        65
 73
         2
 40
0.1449999958
 49
0.0724999979
 74
         0
 49
-0.0724999979
 74
         0
  0
ENDTAB
  0
TABLE
  2
LAYER
  5
2
100
AcDbSymbolTable
 70
         9
  0
LAYER
  5
14
100
AcDbSymbolTableRecord
100
AcDbLayerTableRecord
  2
0
 70
         0
 62
         7
  6
CONTINUOUS
  0
LAYER
  5
28
100
AcDbSymbolTableRecord
100
AcDbLayerTableRecord
  2
DF500
 70
         0
 62
         5
  6
CONTINUOUS
  0
LAYER
  5
29
100
AcDbSymbolTableRecord
100
AcDbLayerTableRecord
  2
DF250
 70
         0
 62
         3
  6
CONTINUOUS
  0
LAYER
  5
2A
100
AcDbSymbolTableRecord
100
AcDbLayerTableRecord
  2
DR250
 70
         0
 62
        -6
  6
CONTINUOUS
  0
LAYER
  5
2B
100
AcDbSymbolTableRecord
100
AcDbLayerTableRecord
  2
DF_COMP
 70
         0
 62
        -4
  6
CONTINUOUS
  0
LAYER
  5
2C
100
AcDbSymbolTableRecord
100
AcDbLayerTableRecord
  2
CONSTRUCTION
 70
         0
 62
        -4
  6
CONTINUOUS
  0
LAYER
  5
2D
100
AcDbSymbolTableRecord
100
AcDbLayerTableRecord
  2
MIRCO500
 70
         0
 62
        -4
  6
CONTINUOUS
  0
LAYER
  5
2E
100
AcDbSymbolTableRecord
100
AcDbLayerTableRecord
  2
MIRCO250
 70
         0
 62
        -4
  6
CONTINUOUS
  0
LAYER
  5
2F
100
AcDbSymbolTableRecord
100
AcDbLayerTableRecord
  2
MIRCOCOMP
 70
         0
 62
        -4
  6
CONTINUOUS
  0
ENDTAB
  0
TABLE
  2
STYLE
  5
3
100
AcDbSymbolTable
 70
         2
  0
STYLE
  5
17
100
AcDbSymbolTableRecord
100
AcDbTextStyleTableRecord
  2
STANDARD
 70
         0
 40
0.0
 41
1.0
 50
0.0
 71
         0
 42
0.0
  3
txt
  4

  0
STYLE
  5
1D
100
AcDbSymbolTableRecord
100
AcDbTextStyleTableRecord
  2
PLOTTER
 70
         0
 40
0.0
 41
0.98
 50
0.0
 71
         0
 42
0.0
  3
SIMPLEX
  4

  0
ENDTAB
  0
TABLE
  2
VIEW
  5
5
100
AcDbSymbolTable
 70
         0
  0
ENDTAB
  0
TABLE
  2
UCS
  5
6
100
AcDbSymbolTable
 70
         0
  0
ENDTAB
  0
TABLE
  2
APPID
  5
8
100
AcDbSymbolTable
 70
         1
  0
APPID
  5
16
100
AcDbSymbolTableRecord
100
AcDbRegAppTableRecord
  2
ACAD
 70
         0
  0
ENDTAB
  0
TABLE
  2
DIMSTYLE
  5
9
100
AcDbSymbolTable
 70
         1
  0
DIMSTYLE
105
18
100
AcDbSymbolTableRecord
100
AcDbDimStyleTableRecord
  2
STANDARD
 70
         0
  3

  4

  5

  6

  7

 40
1.0
 41
0.18
 42
0.0625
 43
0.38
 44
0.18
 45
0.0
 46
0.0
 47
0.0
 48
0.0
 71
         0
 72
         0
 73
         1
 74
         1
 75
         0
 76
         0
 77
         0
 78
         0
140
0.18
141
0.09
142
0.0
143
25.4
144
1.0
145
0.0
146
1.0
147
0.09
170
         0
171
         2
172
         0
173
         0
174
         0
175
         0
176
         0
177
         0
178
         0
270
         2
271
         4
272
         4
273
         2
274
         2
275
         0
280
         0
281
         0
282
         0
283
         1
284
         0
285
         0
286
         0
287
         0
288
         0
340
17
  0
ENDTAB
  0
TABLE
  2
BLOCK_RECORD
  5
1
100
AcDbSymbolTable
 70
         0
  0
BLOCK_RECORD
  5
A
100
AcDbSymbolTableRecord
100
AcDbBlockTableRecord
  2
*MODEL_SPACE
  0
BLOCK_RECORD
  5
B
100
AcDbSymbolTableRecord
100
AcDbBlockTableRecord
  2
*PAPER_SPACE
  0
ENDTAB
  0
ENDSEC
  0
SECTION
  2
BLOCKS
  0
BLOCK
  5
D
100
AcDbEntity
  8
0
100
AcDbBlockBegin
  2
*MODEL_SPACE
 70
         0
 10
0.0
 20
0.0
 30
0.0
  3
*MODEL_SPACE
  1

  0
ENDBLK
  5
E
100
AcDbEntity
  8
0
100
AcDbBlockEnd
  0
BLOCK
  5
F
100
AcDbEntity
 67
         1
  8
0
100
AcDbBlockBegin
  2
*PAPER_SPACE
 70
         0
 10
0.0
 20
0.0
 30
0.0
  3
*PAPER_SPACE
  1

  0
ENDBLK
  5
10
100
AcDbEntity
 67
         1
  8
0
100
AcDbBlockEnd
  0
ENDSEC
  0
SECTION
  2
ENTITIES
  0
CIRCLE
  5
30
100
AcDbEntity
  8
DF500
  6
CONTINUOUS
 62
         5
100
AcDbCircle
 10
267.0555556014
 20
551.3827342711
 30
0.0
 40
0.0445
  0
CIRCLE
  5
31
100
AcDbEntity
  8
DF500
  6
CONTINUOUS
 62
         5
100
AcDbCircle
 10
261.9852684109
 20
553.0196253049
 30
0.0
 40
0.0445
  0
CIRCLE
  5
32
100
AcDbEntity
  8
DF500
  6
CONTINUOUS
 62
         5
100
AcDbCircle
 10
261.0305556014
 20
554.1327342711
 30
0.0
 40
0.0445
  0
CIRCLE
  5
33
100
AcDbEntity
  8
DF500
  6
CONTINUOUS
 62
         5
100
AcDbCircle
 10
265.4073146329
 20
552.3342007511
 30
0.0
 40
0.25
  0
CIRCLE
  5
34
100
AcDbEntity
  8
DF500
  6
CONTINUOUS
 62
         5
100
AcDbCircle
 10
264.8805556014
 20
554.1327342711
 30
0.0
 40
0.0445
  0
CIRCLE
  5
35
100
AcDbEntity
  8
DF250
  6
CONTINUOUS
 62
         3
100
AcDbCircle
 10
261.0741515073
 20
544.8762426125
 30
0.0
 40
0.38
  0
ARC
  5
36
100
AcDbEntity
  8
DF500
  6
CONTINUOUS
 62
         5
100
AcDbCircle
 10
261.0814398961
 20
546.4691874247
 30
0.0
 40
0.25
100
AcDbArc
 50
-129.5138253787
 51
50.4861746213
  0
LINE
  5
37
100
AcDbEntity
  8
DF500
  6
CONTINUOUS
 62
         5
100
AcDbLine
 10
260.7583365718
 20
547.0597204398
 30
0.0
 11
261.2405059945
 21
546.6620551938
 31
0.0
  0
LINE
  5
38
100
AcDbEntity
  8
DF500
  6
CONTINUOUS
 62
         5
100
AcDbLine
 10
260.9223737977
 20
546.2763196557
 30
0.0
 11
260.440204375
 21
546.6739849016
 31
0.0
  0
ARC
  5
39
100
AcDbEntity
  8
DF500
  6
CONTINUOUS
 62
         5
100
AcDbCircle
 10
260.5992704734
 20
546.8668526707
 30
0.0
 40
0.25
100
AcDbArc
 50
50.4861746213
 51
-129.5138253787
  0
CIRCLE
  5
3A
100
AcDbEntity
  8
DF500
  6
CONTINUOUS
 62
         5
100
AcDbCircle
 10
260.2996312749
 20
547.3483690713
 30
0.0
 40
0.0445
  0
CIRCLE
  5
3B
100
AcDbEntity
  8
DF500
  6
CONTINUOUS
 62
         5
100
AcDbCircle
 10
260.0182249058
 20
545.8812807786
 30
0.0
 40
0.3124614934
  0
CIRCLE
  5
3C
100
AcDbEntity
  8
DF500
  6
CONTINUOUS
 62
         5
100
AcDbCircle
 10
261.0741515073
 20
544.8762426125
 30
0.0
 40
0.3124614934
  0
CIRCLE
  5
3D
100
AcDbEntity
  8
DF500
  6
CONTINUOUS
 62
         5
100
AcDbCircle
 10
260.4164073392
 20
549.1050877871
 30
0.0
 40
0.0445
  0
CIRCLE
  5
3E
100
AcDbEntity
  8
DF500
  6
CONTINUOUS
 62
         5
100
AcDbCircle
 10
262.5386853563
 20
545.2210134707
 30
0.0
 40
0.0445
  0
CIRCLE
  5
3F
100
AcDbEntity
  8
DF500
  6
CONTINUOUS
 62
         5
100
AcDbCircle
 10
263.3865809415
 20
547.0183498016
 30
0.0
 40
0.25
  0
CIRCLE
  5
40
100
AcDbEntity
  8
DF500
  6
CONTINUOUS
 62
         5
100
AcDbCircle
 10
263.8232219087
 20
548.5008984634
 30
0.0
 40
0.0445
  0
CIRCLE
  5
41
100
AcDbEntity
  8
DF500
  6
CONTINUOUS
 62
         5
100
AcDbCircle
 10
264.3360210322
 20
547.7291603697
 30
0.0
 40
0.0445
  0
CIRCLE
  5
42
100
AcDbEntity
  8
DF500
  6
CONTINUOUS
 62
         5
100
AcDbCircle
 10
263.9349206949
 20
547.9830215816
 30
0.0
 40
0.0445
  0
ARC
  5
43
100
AcDbEntity
  8
DF500
  6
CONTINUOUS
 62
         5
100
AcDbCircle
 10
265.951982565
 20
545.0599204803
 30
0.0
 40
0.25
100
AcDbArc
 50
-104.9934187749
 51
75.0065812252
  0
LINE
  5
44
100
AcDbEntity
  8
DF500
  6
CONTINUOUS
 62
         5
100
AcDbLine
 10
265.2921929266
 20
545.4954404375
 30
0.0
 11
266.0166595883
 21
545.3014093676
 31
0.0
  0
LINE
  5
45
100
AcDbEntity
  8
DF500
  6
CONTINUOUS
 62
         5
100
AcDbLine
 10
265.16283888
 20
545.012462663
 30
0.0
 11
265.8873055417
 21
544.8184315931
 31
0.0
  0
ARC
  5
46
100
AcDbEntity
  8
DF500
  6
CONTINUOUS
 62
         5
100
AcDbCircle
 10
265.2275159033
 20
545.2539515503
 30
0.0
 40
0.25
100
AcDbArc
 50
75.0065812251
 51
-104.9934187748
  0
CIRCLE
  5
47
100
AcDbEntity
  8
DF500
  6
CONTINUOUS
 62
         5
100
AcDbCircle
 10
264.4731060494
 20
546.0333691992
 30
0.0
 40
0.0445
  0
CIRCLE
  5
48
100
AcDbEntity
  8
DF500
  6
CONTINUOUS
 62
         5
100
AcDbCircle
 10
266.6055382905
 20
547.3382157606
 30
0.0
 40
0.0445
  0
CIRCLE
  5
49
100
AcDbEntity
  8
DF500
  6
CONTINUOUS
 62
         5
100
AcDbCircle
 10
264.7472758645
 20
546.5258589292
 30
0.0
 40
0.0445
  0
CIRCLE
  5
4A
100
AcDbEntity
  8
DF500
  6
CONTINUOUS
 62
         5
100
AcDbCircle
 10
264.5949593451
 20
545.5205695193
 30
0.0
 40
0.0445
  0
CIRCLE
  5
4B
100
AcDbEntity
  8
DF500
  6
CONTINUOUS
 62
         5
100
AcDbCircle
 10
267.0555556014
 20
545.3827342711
 30
0.0
 40
0.0445
  0
CIRCLE
  5
4C
100
AcDbEntity
  8
DF250
  6
CONTINUOUS
 62
         3
100
AcDbCircle
 10
263.6649765659
 20
550.2767041813
 30
0.0
 40
0.5985
  0
CIRCLE
  5
4D
100
AcDbEntity
  8
DF500
  6
CONTINUOUS
 62
         5
100
AcDbCircle
 10
263.6649765659
 20
550.2767041813
 30
0.0
 40
0.53125
  0
ARC
  5
4E
100
AcDbEntity
  8
DF250
  6
CONTINUOUS
 62
         3
100
AcDbCircle
 10
257.1126849515
 20
552.6049226452
 30
0.0
 40
0.1325001202
100
AcDbArc
 50
131.692443585
 51
168.3075606462
  0
LINE
  5
4F
100
AcDbEntity
  8
DF250
  6
CONTINUOUS
 62
         3
100
AcDbLine
 10
257.6129156754
 20
553.2279347201
 30
0.0
 11
257.0245548988
 21
552.7038639191
 31
0.0
  0
LINE
  5
50
100
AcDbEntity
  8
DF250
  6
CONTINUOUS
 62
         3
100
AcDbLine
 10
256.56164663
 20
552.8279000222
 30
0.0
 11
256.3141465988
 21
553.5759390119
 31
0.0
  0
LINE
  5
51
100
AcDbEntity
  8
DF250
  6
CONTINUOUS
 62
         3
100
AcDbLine
 10
256.0625598396
 20
553.5759390014
 30
0.0
 11
255.8150598708
 21
552.8278999911
 31
0.0
  0
ARC
  5
52
100
AcDbEntity
  8
DF250
  6
CONTINUOUS
 62
         3
100
AcDbCircle
 10
256.4358531319
 20
552.7862793818
 30
0.0
 40
0.1325001202
100
AcDbArc
 50
-18.3075564305
 51
18.3075609923
  0
ARC
  5
53
100
AcDbEntity
  8
DF250
  6
CONTINUOUS
 62
         3
100
AcDbCircle
 10
256.188353221
 20
553.5343179981
 30
0.0
 40
0.1325001234
100
AcDbArc
 50
18.3077373891
 51
161.6922673883
  0
ARC
  5
54
100
AcDbEntity
  8
DF500
  6
CONTINUOUS
 62
         5
100
AcDbCircle
 10
257.1126849515
 20
552.6049226452
 30
0.0
 40
0.0625001202
100
AcDbArc
 50
131.6924435851
 51
168.3075600693
  0
LINE
  5
55
100
AcDbEntity
  8
DF500
  6
CONTINUOUS
 62
         5
100
AcDbLine
 10
256.1290167166
 20
553.5539507431
 30
0.0
 11
255.8815167478
 21
552.8059117328
 31
0.0
  0
ARC
  5
56
100
AcDbEntity
  8
DF500
  6
CONTINUOUS
 62
         5
100
AcDbCircle
 10
256.4358531319
 20
552.7862793818
 30
0.0
 40
0.0625001202
100
AcDbArc
 50
-18.3075558535
 51
18.3075606308
  0
ARC
  5
57
100
AcDbEntity
  8
DF500
  6
CONTINUOUS
 62
         5
100
AcDbCircle
 10
256.188353221
 20
553.5343179981
 30
0.0
 40
0.0625001234
100
AcDbArc
 50
18.3077404197
 51
161.6922643576
  0
LINE
  5
58
100
AcDbEntity
  8
DF500
  6
CONTINUOUS
 62
         5
100
AcDbLine
 10
256.4951897549
 20
552.8059117583
 30
0.0
 11
256.2476897237
 21
553.553950748
 31
0.0
  0
CIRCLE
  5
59
100
AcDbEntity
  8
DF500
  6
CONTINUOUS
 62
         5
100
AcDbCircle
 10
257.1805556014
 20
554.1327342711
 30
0.0
 40
0.0445
  0
LINE
  5
5A
100
AcDbEntity
  8
DF500
  6
CONTINUOUS
 62
         5
100
AcDbLine
 10
257.6594748842
 20
553.1756638862
 30
0.0
 11
257.0711141135
 21
552.6515930904
 31
0.0
  0
LINE
  5
5B
100
AcDbEntity
  8
DF500
  6
CONTINUOUS
 62
         5
100
AcDbLine
 10
257.602570537
 20
552.3447566038
 30
0.0
 11
257.7622487249
 21
553.116327386
 31
0.0
  0
ARC
  5
5C
100
AcDbEntity
  8
DF250
  6
CONTINUOUS
 62
         3
100
AcDbCircle
 10
257.7010454314
 20
553.1289931778
 30
0.0
 40
0.1325001234
100
AcDbArc
 50
-11.6922631725
 51
131.692263796
  0
ARC
  5
5D
100
AcDbEntity
  8
DF500
  6
CONTINUOUS
 62
         5
100
AcDbCircle
 10
257.7010454314
 20
553.1289931778
 30
0.0
 40
0.0625001234
100
AcDbArc
 50
-11.6922601419
 51
131.692263796
  0
ARC
  5
5E
100
AcDbEntity
  8
DF500
  6
CONTINUOUS
 62
         5
100
AcDbCircle
 10
262.0310177435
 20
545.5154391339
 30
0.0
 40
0.25
100
AcDbArc
 50
-133.6831434738
 51
46.3168565262
  0
LINE
  5
5F
100
AcDbEntity
  8
DF500
  6
CONTINUOUS
 62
         5
100
AcDbLine
 10
261.7517036807
 20
546.1279002791
 30
0.0
 11
262.2036851642
 21
545.6962317273
 31
0.0
  0
LINE
  5
60
100
AcDbEntity
  8
DF500
  6
CONTINUOUS
 62
         5
100
AcDbLine
 10
261.8583503228
 20
545.3346465405
 30
0.0
 11
261.4063688393
 21
545.7663150923
 31
0.0
  0
ARC
  5
61
100
AcDbEntity
  8
DF500
  6
CONTINUOUS
 62
         5
100
AcDbCircle
 10
261.57903626
 20
545.9471076857
 30
0.0
 40
0.25
100
AcDbArc
 50
46.3168565262
 51
-133.6831434738
  0
CIRCLE
  5
62
100
AcDbEntity
  8
DF500
  6
CONTINUOUS
 62
         5
100
AcDbCircle
 10
261.6603262372
 20
548.714142075
 30
0.0
 40
0.25
  0
CIRCLE
  5
63
100
AcDbEntity
  8
DF500
  6
CONTINUOUS
 62
         5
100
AcDbCircle
 10
262.1629710505
 20
550.2576171644
 30
0.0
 40
0.0445
  0
CIRCLE
  5
64
100
AcDbEntity
  8
DF500
  6
CONTINUOUS
 62
         5
100
AcDbCircle
 10
261.6552490304
 20
550.384547246
 30
0.0
 40
0.0445
  0
CIRCLE
  5
65
100
AcDbEntity
  8
DF500
  6
CONTINUOUS
 62
         5
100
AcDbCircle
 10
261.5373305047
 20
546.4123577897
 30
0.0
 40
0.0575
  0
CIRCLE
  5
66
100
AcDbEntity
  8
DF250
  6
CONTINUOUS
 62
         3
100
AcDbCircle
 10
260.0182249058
 20
545.8812807786
 30
0.0
 40
0.38
  0
ARC
  5
67
100
AcDbEntity
  8
DF250
  6
CONTINUOUS
 62
         3
100
AcDbCircle
 10
254.6756611137
 20
553.1289932022
 30
0.0
 40
0.1325001234
100
AcDbArc
 50
48.3077398582
 51
-168.3077331733
  0
ARC
  5
68
100
AcDbEntity
  8
DF250
  6
CONTINUOUS
 62
         3
100
AcDbCircle
 10
255.264021627
 20
552.6049227072
 30
0.0
 40
0.1325001202
100
AcDbArc
 50
11.692443008
 51
48.3075600693
  0
LINE
  5
69
100
AcDbEntity
  8
DF250
  6
CONTINUOUS
 62
         3
100
AcDbLine
 10
255.3521516734
 20
552.7038639867
 30
0.0
 11
254.7637908634
 21
553.2279347502
 31
0.0
  0
LINE
  5
6A
100
AcDbEntity
  8
DF500
  6
CONTINUOUS
 62
         5
100
AcDbLine
 10
255.305592462
 20
552.6515931551
 30
0.0
 11
254.7172316579
 21
553.1756639133
 31
0.0
  0
ARC
  5
6B
100
AcDbEntity
  8
DF500
  6
CONTINUOUS
 62
         5
100
AcDbCircle
 10
254.6756611137
 20
553.1289932022
 30
0.0
 40
0.0625001234
100
AcDbArc
 50
48.3077398582
 51
-168.307736204
  0
ARC
  5
6C
100
AcDbEntity
  8
DF500
  6
CONTINUOUS
 62
         5
100
AcDbCircle
 10
255.264021627
 20
552.6049227072
 30
0.0
 40
0.0625001202
100
AcDbArc
 50
11.6924435849
 51
48.3075600693
  0
CIRCLE
  5
6D
100
AcDbEntity
  8
DF500
  6
CONTINUOUS
 62
         5
100
AcDbCircle
 10
253.3305556014
 20
554.1327342711
 30
0.0
 40
0.0445
  0
CIRCLE
  5
6E
100
AcDbEntity
  8
DF500
  6
CONTINUOUS
 62
         5
100
AcDbCircle
 10
253.5570834619
 20
553.212560109
 30
0.0
 40
0.0445
  0
ELLIPSE
  5
6F
100
AcDbEntity
  8
DF500
  6
CONTINUOUS
 62
         5
100
AcDbEllipse
 10
256.9530071368
 20
551.8333528748
 30
0.0
 11
-0.0126658658095855
 21
-0.0612032785031789
 31
0.0
210
0.0
220
0.0
230
1.0
 40
1.0
 41
4.7123889803846897
 42
7.2149181424154021
  0
ARC
  5
70
100
AcDbEntity
  8
DF250
  6
CONTINUOUS
 62
         3
100
AcDbCircle
 10
256.9530071368
 20
551.8333528748
 30
0.0
 40
0.1325001236
100
AcDbArc
 50
168.3078267214
 51
-48.307809646
  0
ARC
  5
71
100
AcDbEntity
  8
DF250
  6
CONTINUOUS
 62
         3
100
AcDbCircle
 10
255.9408533724
 20
552.7862793612
 30
0.0
 40
0.1325001202
100
AcDbArc
 50
161.6924437851
 51
-161.6924387922
  0
ARC
  5
72
100
AcDbEntity
  8
DF500
  6
CONTINUOUS
 62
         5
100
AcDbCircle
 10
255.9408533724
 20
552.7862793612
 30
0.0
 40
0.0625001202
100
AcDbArc
 50
161.6924441465
 51
-161.6924393692
  0
LINE
  5
73
100
AcDbEntity
  8
DF250
  6
CONTINUOUS
 62
         3
100
AcDbLine
 10
256.9829342663
 20
552.6317748622
 30
0.0
 11
256.8232563283
 21
551.8602045131
 31
0.0
  0
LINE
  5
74
100
AcDbEntity
  8
DF250
  6
CONTINUOUS
 62
         3
100
AcDbLine
 10
257.0411367696
 20
551.7344112224
 30
0.0
 11
257.6294973764
 21
552.2584815032
 31
0.0
  0
ARC
  5
75
100
AcDbEntity
  8
DF250
  6
CONTINUOUS
 62
         3
100
AcDbCircle
 10
256.188353221
 20
552.0382414343
 30
0.0
 40
0.1325001236
100
AcDbArc
 50
-161.6921681773
 51
-18.3078090844
  0
LINE
  5
76
100
AcDbEntity
  8
DF250
  6
CONTINUOUS
 62
         3
100
AcDbLine
 10
256.3141465485
 20
551.9966202675
 30
0.0
 11
256.5616466328
 21
552.7446587498
 31
0.0
  0
LINE
  5
77
100
AcDbEntity
  8
DF250
  6
CONTINUOUS
 62
         3
100
AcDbLine
 10
255.8150598748
 20
552.7446587194
 30
0.0
 11
256.0625599093
 21
551.9966202198
 31
0.0
  0
LINE
  5
78
100
AcDbEntity
  8
DF500
  6
CONTINUOUS
 62
         5
100
AcDbLine
 10
257.051481743
 20
552.6175888327
 30
0.0
 11
256.8918038051
 21
551.8460184836
 31
0.0
  0
ELLIPSE
  5
79
100
AcDbEntity
  8
DF500
  6
CONTINUOUS
 62
         5
100
AcDbEllipse
 10
256.188353221
 20
552.0382414343
 30
0.0
 11
0.0196326782811123
 21
-0.0593365266910227
 31
0.0
210
0.0
220
0.0
230
1.0
 40
1.0
 41
4.7123889803846897
 42
7.2149181424154021
  0
LINE
  5
7A
100
AcDbEntity
  8
DF500
  6
CONTINUOUS
 62
         5
100
AcDbLine
 10
255.8815167455
 20
552.7666469965
 30
0.0
 11
256.1290167767
 21
552.0186085068
 31
0.0
  0
LINE
  5
7B
100
AcDbEntity
  8
DF500
  6
CONTINUOUS
 62
         5
100
AcDbLine
 10
256.2476896792
 20
552.018608549
 30
0.0
 11
256.4951897604
 21
552.7666470221
 31
0.0
  0
LINE
  5
7C
100
AcDbEntity
  8
DF500
  6
CONTINUOUS
 62
         5
100
AcDbLine
 10
256.9945775738
 20
551.7866820679
 30
0.0
 11
257.5829381733
 21
552.3107523422
 31
0.0
  0
ARC
  5
7D
100
AcDbEntity
  8
DF500
  6
CONTINUOUS
 62
         5
100
AcDbCircle
 10
257.541367326
 20
552.3574227791
 30
0.0
 40
0.0625001202
100
AcDbArc
 50
-48.3075564151
 51
-11.6924399307
  0
ARC
  5
7E
100
AcDbEntity
  8
DF250
  6
CONTINUOUS
 62
         3
100
AcDbCircle
 10
257.541367326
 20
552.3574227791
 30
0.0
 40
0.1325001202
100
AcDbArc
 50
-48.307556992
 51
-11.6924399308
  0
LINE
  5
7F
100
AcDbEntity
  8
DF250
  6
CONTINUOUS
 62
         3
100
AcDbLine
 10
257.6711180107
 20
552.3305705599
 30
0.0
 11
257.8307961988
 21
553.1021413428
 31
0.0
  0
CIRCLE
  5
80
100
AcDbEntity
  8
DF250
  6
CONTINUOUS
 62
         3
100
AcDbCircle
 10
252.9232140541
 20
550.211179471
 30
0.0
 40
0.38
  0
ARC
  5
81
100
AcDbEntity
  8
DF500
  6
CONTINUOUS
 62
         5
100
AcDbCircle
 10
252.9260783857
 20
549.0674818779
 30
0.0
 40
0.09
100
AcDbArc
 50
0.0
 51
180.0
  0
CIRCLE
  5
82
100
AcDbEntity
  8
DF500
  6
CONTINUOUS
 62
         5
100
AcDbCircle
 10
254.0140336872
 20
548.9984698712
 30
0.0
 40
0.0445
  0
CIRCLE
  5
83
100
AcDbEntity
  8
DF500
  6
CONTINUOUS
 62
         5
100
AcDbCircle
 10
252.9232140541
 20
550.211179471
 30
0.0
 40
0.3124614934
  0
LINE
  5
84
100
AcDbEntity
  8
DF500
  6
CONTINUOUS
 62
         5
100
AcDbLine
 10
259.2366819463
 20
549.1012887824
 30
0.0
 11
259.2366819463
 21
547.4012887824
 31
0.0
  0
LINE
  5
85
100
AcDbEntity
  8
DF500
  6
CONTINUOUS
 62
         5
100
AcDbLine
 10
259.4166819463
 20
549.1012887824
 30
0.0
 11
259.4166819463
 21
547.4012887824
 31
0.0
  0
CIRCLE
  5
86
100
AcDbEntity
  8
DF500
  6
CONTINUOUS
 62
         5
100
AcDbCircle
 10
258.2992073266
 20
548.3282763469
 30
0.0
 40
0.25
  0
CIRCLE
  5
87
100
AcDbEntity
  8
DF500
  6
CONTINUOUS
 62
         5
100
AcDbCircle
 10
256.1883532513
 20
550.5089335146
 30
0.0
 40
0.59375
  0
CIRCLE
  5
88
100
AcDbEntity
  8
DF500
  6
CONTINUOUS
 62
         5
100
AcDbCircle
 10
258.2992073266
 20
547.5819247993
 30
0.0
 40
0.0445
  0
ARC
  5
89
100
AcDbEntity
  8
DF500
  6
CONTINUOUS
 62
         5
100
AcDbCircle
 10
259.3266819463
 20
547.4012887824
 30
0.0
 40
0.09
100
AcDbArc
 50
180.0
 51
0.0
  0
CIRCLE
  5
8A
100
AcDbEntity
  8
DF250
  6
CONTINUOUS
 62
         3
100
AcDbCircle
 10
259.326689109
 20
550.1996452066
 30
0.0
 40
0.38
  0
ARC
  5
8B
100
AcDbEntity
  8
DF500
  6
CONTINUOUS
 62
         5
100
AcDbCircle
 10
259.3266819463
 20
549.1012887824
 30
0.0
 40
0.09
100
AcDbArc
 50
0.0
 51
180.0
  0
CIRCLE
  5
8C
100
AcDbEntity
  8
DF500
  6
CONTINUOUS
 62
         5
100
AcDbCircle
 10
259.326689109
 20
550.1996452066
 30
0.0
 40
0.3124614934
  0
CIRCLE
  5
8D
100
AcDbEntity
  8
DF500
  6
CONTINUOUS
 62
         5
100
AcDbCircle
 10
258.2992073266
 20
549.0746278945
 30
0.0
 40
0.0445
  0
CIRCLE
  5
8E
100
AcDbEntity
  8
DF500
  6
CONTINUOUS
 62
         5
100
AcDbCircle
 10
251.9019669453
 20
551.9106250947
 30
0.0
 40
0.0445
  0
ELLIPSE
  5
8F
100
AcDbEntity
  8
DF500
  6
CONTINUOUS
 62
         5
100
AcDbEllipse
 10
255.4236993829
 20
551.8333528846
 30
0.0
 11
0.0466706610738537
 21
-0.0415706008036158
 31
0.0
210
0.0
220
0.0
230
1.0
 40
1.0
 41
4.7123889803846897
 42
7.2149181424154021
  0
ARC
  5
90
100
AcDbEntity
  8
DF250
  6
CONTINUOUS
 62
         3
100
AcDbCircle
 10
255.4236993829
 20
551.8333528846
 30
0.0
 40
0.1325001236
100
AcDbArc
 50
-131.6921732786
 51
11.6921945551
  0
LINE
  5
91
100
AcDbEntity
  8
DF250
  6
CONTINUOUS
 62
         3
100
AcDbLine
 10
254.7472092236
 20
552.2584815327
 30
0.0
 11
255.3355697778
 21
551.7344112075
 31
0.0
  0
LINE
  5
92
100
AcDbEntity
  8
DF250
  6
CONTINUOUS
 62
         3
100
AcDbLine
 10
255.5534501818
 20
551.8602045688
 30
0.0
 11
255.3937723106
 21
552.6317749317
 31
0.0
  0
LINE
  5
93
100
AcDbEntity
  8
DF500
  6
CONTINUOUS
 62
         5
100
AcDbLine
 10
255.4849027058
 20
551.8460185357
 30
0.0
 11
255.3252248346
 21
552.6175888986
 31
0.0
  0
LINE
  5
94
100
AcDbEntity
  8
DF500
  6
CONTINUOUS
 62
         5
100
AcDbLine
 10
254.7937684239
 20
552.3107523742
 30
0.0
 11
255.3821289781
 21
551.786682049
 31
0.0
  0
ARC
  5
95
100
AcDbEntity
  8
DF500
  6
CONTINUOUS
 62
         5
100
AcDbCircle
 10
254.8353392683
 20
552.3574228138
 30
0.0
 40
0.0625001202
100
AcDbArc
 50
-168.307556415
 51
-131.6924399307
  0
ARC
  5
96
100
AcDbEntity
  8
DF250
  6
CONTINUOUS
 62
         3
100
AcDbCircle
 10
254.8353392683
 20
552.3574228138
 30
0.0
 40
0.1325001202
100
AcDbArc
 50
-168.307556415
 51
-131.6924393538
  0
LINE
  5
97
100
AcDbEntity
  8
DF250
  6
CONTINUOUS
 62
         3
100
AcDbLine
 10
254.5459103479
 20
553.102141359
 30
0.0
 11
254.7055885853
 21
552.3305705862
 31
0.0
  0
LINE
  5
98
100
AcDbEntity
  8
DF500
  6
CONTINUOUS
 62
         5
100
AcDbLine
 10
254.6144578209
 20
553.1163274065
 30
0.0
 11
254.7741360581
 21
552.3447566346
 31
0.0
  0
CIRCLE
  5
99
100
AcDbEntity
  8
DF500
  6
CONTINUOUS
 62
         5
100
AcDbCircle
 10
264.6508085781
 20
536.6608223831
 30
0.0
 40
0.0445
  0
CIRCLE
  5
9A
100
AcDbEntity
  8
DF500
  6
CONTINUOUS
 62
         5
100
AcDbCircle
 10
267.0555556014
 20
539.3827342711
 30
0.0
 40
0.0445
  0
CIRCLE
  5
9B
100
AcDbEntity
  8
DF250
  6
CONTINUOUS
 62
         3
100
AcDbCircle
 10
260.2758355117
 20
539.3869109797
 30
0.0
 40
0.38
  0
CIRCLE
  5
9C
100
AcDbEntity
  8
DF500
  6
CONTINUOUS
 62
         5
100
AcDbCircle
 10
262.269592519
 20
542.1594503994
 30
0.0
 40
0.25
  0
CIRCLE
  5
9D
100
AcDbEntity
  8
DF500
  6
CONTINUOUS
 62
         5
100
AcDbCircle
 10
261.447082953
 20
542.3574624103
 30
0.0
 40
0.0445
  0
CIRCLE
  5
9E
100
AcDbEntity
  8
DF500
  6
CONTINUOUS
 62
         5
100
AcDbCircle
 10
259.7441457083
 20
540.8050673303
 30
0.0
 40
0.3124614934
  0
CIRCLE
  5
9F
100
AcDbEntity
  8
DF250
  6
CONTINUOUS
 62
         3
100
AcDbCircle
 10
259.7441457083
 20
540.8050673303
 30
0.0
 40
0.38
  0
CIRCLE
  5
A0
100
AcDbEntity
  8
DF500
  6
CONTINUOUS
 62
         5
100
AcDbCircle
 10
263.4525848098
 20
542.8042573185
 30
0.0
 40
0.0445
  0
CIRCLE
  5
A1
100
AcDbEntity
  8
DF500
  6
CONTINUOUS
 62
         5
100
AcDbCircle
 10
263.7978357885
 20
543.2510522611
 30
0.0
 40
0.0445
  0
LINE
  5
A2
100
AcDbEntity
  8
DF500
  6
CONTINUOUS
 62
         5
100
AcDbLine
 10
264.7747767401
 20
543.5635293397
 30
0.0
 11
265.4992434018
 21
543.3694982697
 31
0.0
  0
LINE
  5
A3
100
AcDbEntity
  8
DF500
  6
CONTINUOUS
 62
         5
100
AcDbLine
 10
264.5160686469
 20
542.5975737907
 30
0.0
 11
265.2405353086
 21
542.4035427208
 31
0.0
  0
LINE
  5
A4
100
AcDbEntity
  8
DF500
  6
CONTINUOUS
 62
         5
100
AcDbLine
 10
264.3867146003
 20
542.1145960163
 30
0.0
 11
265.111181262
 21
541.9205649463
 31
0.0
  0
ARC
  5
A5
100
AcDbEntity
  8
DF500
  6
CONTINUOUS
 62
         5
100
AcDbCircle
 10
264.4513916236
 20
542.3560849035
 30
0.0
 40
0.25
100
AcDbArc
 50
75.0065812251
 51
-104.9934187748
  0
ARC
  5
A6
100
AcDbEntity
  8
DF500
  6
CONTINUOUS
 62
         5
100
AcDbCircle
 10
265.1758582853
 20
542.1620538336
 30
0.0
 40
0.25
100
AcDbArc
 50
-104.9934187749
 51
75.0065812252
  0
CIRCLE
  5
A7
100
AcDbEntity
  8
DF250
  6
CONTINUOUS
 62
         3
100
AcDbCircle
 10
252.1687465625
 20
545.8940032408
 30
0.0
 40
0.38
  0
ARC
  5
A8
100
AcDbEntity
  8
DF500
  6
CONTINUOUS
 62
         5
100
AcDbCircle
 10
251.6803523599
 20
546.7436607089
 30
0.0
 40
0.25
100
AcDbArc
 50
-40.3645085078
 51
139.6354914921
  0
LINE
  5
A9
100
AcDbEntity
  8
DF500
  6
CONTINUOUS
 62
         5
100
AcDbLine
 10
251.8708372687
 20
546.5817486971
 30
0.0
 11
251.4660572394
 21
546.1055364253
 31
0.0
  0
CIRCLE
  5
AA
100
AcDbEntity
  8
DF500
  6
CONTINUOUS
 62
         5
100
AcDbCircle
 10
252.1687465625
 20
545.8940032408
 30
0.0
 40
0.3124614934
  0
CIRCLE
  5
AB
100
AcDbEntity
  8
DF500
  6
CONTINUOUS
 62
         5
100
AcDbCircle
 10
251.8511381117
 20
549.1253988202
 30
0.0
 40
0.0445
  0
CIRCLE
  5
AC
100
AcDbEntity
  8
DF500
  6
CONTINUOUS
 62
         5
100
AcDbCircle
 10
252.0237635469
 20
547.3483735225
 30
0.0
 40
0.0445
  0
LINE
  5
AD
100
AcDbEntity
  8
DF500
  6
CONTINUOUS
 62
         5
100
AcDbLine
 10
252.8360783857
 20
549.0674818779
 30
0.0
 11
252.8360783857
 21
547.3674818779
 31
0.0
  0
LINE
  5
AE
100
AcDbEntity
  8
DF500
  6
CONTINUOUS
 62
         5
100
AcDbLine
 10
253.0160783857
 20
549.0674818779
 30
0.0
 11
253.0160783857
 21
547.3674818779
 31
0.0
  0
CIRCLE
  5
AF
100
AcDbEntity
  8
DF500
  6
CONTINUOUS
 62
         5
100
AcDbCircle
 10
254.0140336872
 20
548.2521183236
 30
0.0
 40
0.25
  0
CIRCLE
  5
B0
100
AcDbEntity
  8
DF500
  6
CONTINUOUS
 62
         5
100
AcDbCircle
 10
254.0140336872
 20
547.505766776
 30
0.0
 40
0.0445
  0
ARC
  5
B1
100
AcDbEntity
  8
DF500
  6
CONTINUOUS
 62
         5
100
AcDbCircle
 10
252.9260783857
 20
547.3674818779
 30
0.0
 40
0.09
100
AcDbArc
 50
180.0
 51
0.0
  0
CIRCLE
  5
B2
100
AcDbEntity
  8
DF500
  6
CONTINUOUS
 62
         5
100
AcDbCircle
 10
257.7051726406
 20
540.747988128
 30
0.0
 40
0.0575
  0
CIRCLE
  5
B3
100
AcDbEntity
  8
DF500
  6
CONTINUOUS
 62
         5
100
AcDbCircle
 10
262.2797470434
 20
539.5853009888
 30
0.0
 40
0.0445
  0
CIRCLE
  5
B4
100
AcDbEntity
  8
DF500
  6
CONTINUOUS
 62
         5
100
AcDbCircle
 10
260.2758355117
 20
539.3869109797
 30
0.0
 40
0.3124614934
  0
CIRCLE
  5
B5
100
AcDbEntity
  8
DF250
  6
CONTINUOUS
 62
         3
100
AcDbCircle
 10
260.7915371026
 20
537.9271743601
 30
0.0
 40
0.38
  0
CIRCLE
  5
B6
100
AcDbEntity
  8
DF500
  6
CONTINUOUS
 62
         5
100
AcDbCircle
 10
260.7915371026
 20
537.9271743601
 30
0.0
 40
0.3124614934
  0
LINE
  5
B7
100
AcDbEntity
  8
DF250
  6
CONTINUOUS
 62
         3
100
AcDbLine
 10
262.9076303409
 20
537.8947753114
 30
0.0
 11
262.8936513518
 21
537.1069793763
 31
0.0
  0
LINE
  5
B8
100
AcDbEntity
  8
DF250
  6
CONTINUOUS
 62
         3
100
AcDbLine
 10
263.1310639906
 20
537.0237262733
 30
0.0
 11
263.6121555069
 21
537.6477205043
 31
0.0
  0
ARC
  5
B9
100
AcDbEntity
  8
DF250
  6
CONTINUOUS
 62
         3
100
AcDbCircle
 10
263.0261306299
 20
537.1046291322
 30
0.0
 40
0.1325001236
100
AcDbArc
 50
178.9836618584
 51
-37.631970308
  0
ARC
  5
BA
100
AcDbEntity
  8
DF250
  6
CONTINUOUS
 62
         3
100
AcDbCircle
 10
263.5212009561
 20
538.5164189384
 30
0.0
 40
0.1325001234
100
AcDbArc
 50
-1.0164250047
 51
142.368098933
  0
ARC
  5
BB
100
AcDbEntity
  8
DF250
  6
CONTINUOUS
 62
         3
100
AcDbCircle
 10
263.0401096051
 20
537.8924244758
 30
0.0
 40
0.1325001202
100
AcDbArc
 50
142.368278722
 51
178.9833957832
  0
ARC
  5
BC
100
AcDbEntity
  8
DF250
  6
CONTINUOUS
 62
         3
100
AcDbCircle
 10
263.5072218116
 20
537.7286229236
 30
0.0
 40
0.1325001202
100
AcDbArc
 50
-37.631721855
 51
-1.0166047937
  0
LINE
  5
BD
100
AcDbEntity
  8
DF250
  6
CONTINUOUS
 62
         3
100
AcDbLine
 10
263.4162675007
 20
538.5973216741
 30
0.0
 11
262.9351759079
 21
537.9733268926
 31
0.0
  0
LINE
  5
BE
100
AcDbEntity
  8
DF250
  6
CONTINUOUS
 62
         3
100
AcDbLine
 10
263.6397010757
 20
537.7262720857
 30
0.0
 11
263.6536802304
 21
538.5140685004
 31
0.0
  0
LINE
  5
BF
100
AcDbEntity
  8
DF500
  6
CONTINUOUS
 62
         5
100
AcDbLine
 10
263.0756273934
 20
537.0664671634
 30
0.0
 11
263.5567189097
 21
537.6904613945
 31
0.0
  0
LINE
  5
C0
100
AcDbEntity
  8
DF500
  6
CONTINUOUS
 62
         5
100
AcDbLine
 10
262.9776193233
 20
537.8935333969
 30
0.0
 11
262.9636403341
 21
537.1057374618
 31
0.0
  0
ELLIPSE
  5
C1
100
AcDbEntity
  8
DF500
  6
CONTINUOUS
 62
         5
100
AcDbEllipse
 10
263.0261306299
 20
537.1046291322
 30
0.0
 11
-0.0011085920330359
 21
-0.062490291085483
 31
0.0
210
0.0
220
0.0
230
1.0
 40
1.0
 41
4.7123889803846897
 42
7.2149181424154021
  0
LINE
  5
C2
100
AcDbEntity
  8
DF500
  6
CONTINUOUS
 62
         5
100
AcDbLine
 10
263.5697120936
 20
537.727514015
 30
0.0
 11
263.5836912482
 21
538.5153104219
 31
0.0
  0
ARC
  5
C3
100
AcDbEntity
  8
DF500
  6
CONTINUOUS
 62
         5
100
AcDbCircle
 10
263.5212009561
 20
538.5164189384
 30
0.0
 40
0.0625001234
100
AcDbArc
 50
-1.0164250048
 51
142.3680989331
  0
ARC
  5
C4
100
AcDbEntity
  8
DF500
  6
CONTINUOUS
 62
         5
100
AcDbCircle
 10
263.5072218116
 20
537.7286229236
 30
0.0
 40
0.0625001202
100
AcDbArc
 50
-37.6317212781
 51
-1.0166047937
  0
LINE
  5
C5
100
AcDbEntity
  8
DF500
  6
CONTINUOUS
 62
         5
100
AcDbLine
 10
263.4717041026
 20
538.55458079
 30
0.0
 11
262.9906125146
 21
537.9305860148
 31
0.0
  0
ARC
  5
C6
100
AcDbEntity
  8
DF500
  6
CONTINUOUS
 62
         5
100
AcDbCircle
 10
263.0401096051
 20
537.8924244758
 30
0.0
 40
0.0625001202
100
AcDbArc
 50
142.368278722
 51
178.9833952064
  0
ARC
  5
C7
100
AcDbEntity
  8
DF500
  6
CONTINUOUS
 62
         5
100
AcDbCircle
 10
266.187094799
 20
536.2627597581
 30
0.0
 40
0.25
100
AcDbArc
 50
-132.9047296836
 51
47.0952703165
  0
LINE
  5
C8
100
AcDbEntity
  8
DF500
  6
CONTINUOUS
 62
         5
100
AcDbLine
 10
266.0168994647
 20
536.0796380822
 30
0.0
 11
265.5590952749
 21
536.5051264178
 31
0.0
  0
LINE
  5
C9
100
AcDbEntity
  8
DF500
  6
CONTINUOUS
 62
         5
100
AcDbLine
 10
265.8994859434
 20
536.8713697697
 30
0.0
 11
266.3572901332
 21
536.4458814341
 31
0.0
  0
ARC
  5
CA
100
AcDbEntity
  8
DF500
  6
CONTINUOUS
 62
         5
100
AcDbCircle
 10
265.7292906091
 20
536.6882480937
 30
0.0
 40
0.25
100
AcDbArc
 50
47.0952703164
 51
-132.9047296836
  0
ARC
  5
CB
100
AcDbEntity
  8
DF250
  6
CONTINUOUS
 62
         3
100
AcDbCircle
 10
255.9598930841
 20
538.6932764381
 30
0.0
 40
0.1325001202
100
AcDbArc
 50
161.6924437851
 51
-161.6924393691
  0
LINE
  5
CC
100
AcDbEntity
  8
DF500
  6
CONTINUOUS
 62
         5
100
AcDbLine
 10
255.9005564572
 20
538.6736440734
 30
0.0
 11
256.1480564884
 21
537.9256055837
 31
0.0
  0
LINE
  5
CD
100
AcDbEntity
  8
DF500
  6
CONTINUOUS
 62
         5
100
AcDbLine
 10
256.2667293908
 20
537.9256056258
 30
0.0
 11
256.5142294721
 21
538.673644099
 31
0.0
  0
ELLIPSE
  5
CE
100
AcDbEntity
  8
DF500
  6
CONTINUOUS
 62
         5
100
AcDbEllipse
 10
256.2073929326
 20
537.9452385112
 30
0.0
 11
0.0196326782811123
 21
-0.0593365266910227
 31
0.0
210
0.0
220
0.0
230
1.0
 40
1.0
 41
4.7123889803846897
 42
7.2149181424154021
  0
ARC
  5
CF
100
AcDbEntity
  8
DF500
  6
CONTINUOUS
 62
         5
100
AcDbCircle
 10
256.4548928436
 20
538.6932764587
 30
0.0
 40
0.0625001202
100
AcDbArc
 50
-18.3075558535
 51
18.3075606308
  0
LINE
  5
D0
100
AcDbEntity
  8
DF250
  6
CONTINUOUS
 62
         3
100
AcDbLine
 10
256.3331862601
 20
537.9036173444
 30
0.0
 11
256.5806863448
 21
538.651655828
 31
0.0
  0
LINE
  5
D1
100
AcDbEntity
  8
DF250
  6
CONTINUOUS
 62
         3
100
AcDbLine
 10
255.834099586
 20
538.6516557976
 30
0.0
 11
256.0815996209
 21
537.9036172966
 31
0.0
  0
ARC
  5
D2
100
AcDbEntity
  8
DF250
  6
CONTINUOUS
 62
         3
100
AcDbCircle
 10
256.2073929326
 20
537.9452385112
 30
0.0
 40
0.1325001236
100
AcDbArc
 50
-161.6921681773
 51
-18.3078090844
  0
ARC
  5
D3
100
AcDbEntity
  8
DF250
  6
CONTINUOUS
 62
         3
100
AcDbCircle
 10
256.4548928436
 20
538.6932764587
 30
0.0
 40
0.1325001202
100
AcDbArc
 50
-18.3075558535
 51
18.3075609923
  0
LINE
  5
D4
100
AcDbEntity
  8
DF250
  6
CONTINUOUS
 62
         3
100
AcDbLine
 10
256.5806863417
 20
538.7348970991
 30
0.0
 11
256.3331863083
 21
539.4829360954
 31
0.0
  0
LINE
  5
D5
100
AcDbEntity
  8
DF250
  6
CONTINUOUS
 62
         3
100
AcDbLine
 10
256.0815995535
 20
539.4829360849
 30
0.0
 11
255.8340995825
 21
538.7348970679
 31
0.0
  0
ARC
  5
D6
100
AcDbEntity
  8
DF250
  6
CONTINUOUS
 62
         3
100
AcDbCircle
 10
256.2073929326
 20
539.441315075
 30
0.0
 40
0.1325001234
100
AcDbArc
 50
18.3077404198
 51
161.6922643575
  0
LINE
  5
D7
100
AcDbEntity
  8
DF500
  6
CONTINUOUS
 62
         5
100
AcDbLine
 10
256.1480564283
 20
539.46094782
 30
0.0
 11
255.9005564595
 21
538.7129088096
 31
0.0
  0
ARC
  5
D8
100
AcDbEntity
  8
DF500
  6
CONTINUOUS
 62
         5
100
AcDbCircle
 10
256.2073929326
 20
539.441315075
 30
0.0
 40
0.0625001234
100
AcDbArc
 50
18.3077404197
 51
161.6922643576
  0
LINE
  5
D9
100
AcDbEntity
  8
DF500
  6
CONTINUOUS
 62
         5
100
AcDbLine
 10
256.5142294665
 20
538.7129088352
 30
0.0
 11
256.2667294353
 21
539.4609478249
 31
0.0
  0
LINE
  5
DA
100
AcDbEntity
  8
DF500
  6
CONTINUOUS
 62
         5
100
AcDbLine
 10
251.8195585038
 20
540.8820690126
 30
0.0
 11
251.4625363705
 21
541.5844599606
 31
0.0
  0
ELLIPSE
  5
DB
100
AcDbEntity
  8
DF500
  6
CONTINUOUS
 62
         5
100
AcDbEllipse
 10
251.7638425758
 20
540.8537493935
 30
0.0
 11
0.0559624146078297
 21
-0.0278293659199322
 31
0.0
210
0.0
220
0.0
230
1.0
 40
1.0
 41
4.7123889803846897
 42
7.2149181424154021
  0
LINE
  5
DC
100
AcDbEntity
  8
DF250
  6
CONTINUOUS
 62
         3
100
AcDbLine
 10
251.8819599735
 20
540.9137874076
 30
0.0
 11
251.5249378402
 21
541.6161783556
 31
0.0
  0
ARC
  5
DD
100
AcDbEntity
  8
DF250
  6
CONTINUOUS
 62
         3
100
AcDbCircle
 10
251.7638425758
 20
540.8537493935
 30
0.0
 40
0.1325001236
100
AcDbArc
 50
-116.4405534541
 51
26.9438143796
  0
CIRCLE
  5
DE
100
AcDbEntity
  8
DF500
  6
CONTINUOUS
 62
         5
100
AcDbCircle
 10
254.7959256406
 20
540.2098024338
 30
0.0
 40
0.0445
  0
ARC
  5
DF
100
AcDbEntity
  8
DF500
  6
CONTINUOUS
 62
         5
100
AcDbCircle
 10
251.4068206959
 20
541.5561398505
 30
0.0
 40
0.0625001202
100
AcDbArc
 50
26.9440634095
 51
63.5591798938
  0
ARC
  5
E0
100
AcDbEntity
  8
DF250
  6
CONTINUOUS
 62
         3
100
AcDbCircle
 10
251.4068206959
 20
541.5561398505
 30
0.0
 40
0.1325001202
100
AcDbArc
 50
26.9440628326
 51
63.5591798938
  0
CIRCLE
  5
E1
100
AcDbEntity
  8
DF500
  6
CONTINUOUS
 62
         5
100
AcDbCircle
 10
257.7407131695
 20
539.6614634683
 30
0.0
 40
0.0575
  0
CIRCLE
  5
E2
100
AcDbEntity
  8
DF500
  6
CONTINUOUS
 62
         5
100
AcDbCircle
 10
258.2027401387
 20
540.1945719508
 30
0.0
 40
0.0445
  0
CIRCLE
  5
E3
100
AcDbEntity
  8
DF500
  6
CONTINUOUS
 62
         5
100
AcDbCircle
 10
257.4766977508
 20
540.1996480201
 30
0.0
 40
0.25
  0
LINE
  5
E4
100
AcDbEntity
  8
DF250
  6
CONTINUOUS
 62
         3
100
AcDbLine
 10
252.2545050631
 20
536.0933742301
 30
0.0
 11
252.8302283995
 21
535.5554511543
 31
0.0
  0
ARC
  5
E5
100
AcDbEntity
  8
DF250
  6
CONTINUOUS
 62
         3
100
AcDbCircle
 10
252.3449648017
 20
536.1901901295
 30
0.0
 40
0.1325001234
100
AcDbArc
 50
83.5593474025
 51
-133.0561256291
  0
LINE
  5
E6
100
AcDbEntity
  8
DF500
  6
CONTINUOUS
 62
         5
100
AcDbLine
 10
253.1349227963
 20
536.1639094241
 30
0.0
 11
252.3519755167
 21
536.2522958079
 31
0.0
  0
LINE
  5
E7
100
AcDbEntity
  8
DF250
  6
CONTINUOUS
 62
         3
100
AcDbLine
 10
253.7940939449
 20
535.6606970032
 30
0.0
 11
253.2183711434
 21
536.1986199562
 31
0.0
  0
LINE
  5
E8
100
AcDbEntity
  8
DF500
  6
CONTINUOUS
 62
         5
100
AcDbLine
 10
253.7463040633
 20
535.6095489121
 30
0.0
 11
253.1705812618
 21
536.1474718651
 31
0.0
  0
ARC
  5
E9
100
AcDbEntity
  8
DF500
  6
CONTINUOUS
 62
         5
100
AcDbCircle
 10
253.1279116919
 20
536.1018037928
 30
0.0
 40
0.0625001202
100
AcDbArc
 50
46.9440511292
 51
83.5591676135
  0
LINE
  5
EA
100
AcDbEntity
  8
DF250
  6
CONTINUOUS
 62
         3
100
AcDbLine
 10
253.1427751716
 20
536.2334676026
 30
0.0
 11
252.359827885
 21
536.3218539873
 31
0.0
  0
ARC
  5
EB
100
AcDbEntity
  8
DF250
  6
CONTINUOUS
 62
         3
100
AcDbCircle
 10
253.1279116919
 20
536.1018037928
 30
0.0
 40
0.1325001202
100
AcDbArc
 50
46.9440505522
 51
83.5591679749
  0
ARC
  5
EC
100
AcDbEntity
  8
DF500
  6
CONTINUOUS
 62
         5
100
AcDbCircle
 10
252.585841407
 20
537.4591982728
 30
0.0
 40
0.0625001234
100
AcDbArc
 50
83.5593439684
 51
-133.0561320938
  0
LINE
  5
ED
100
AcDbEntity
  8
DF500
  6
CONTINUOUS
 62
         5
100
AcDbLine
 10
252.5431715364
 20
537.413530477
 30
0.0
 11
253.1188948406
 21
536.8756073668
 31
0.0
  0
ARC
  5
EE
100
AcDbEntity
  8
DF250
  6
CONTINUOUS
 62
         3
100
AcDbCircle
 10
252.585841407
 20
537.4591982728
 30
0.0
 40
0.1325001234
100
AcDbArc
 50
83.5593439685
 51
-133.0561320938
  0
LINE
  5
EF
100
AcDbEntity
  8
DF250
  6
CONTINUOUS
 62
         3
100
AcDbLine
 10
252.4953816574
 20
537.3623823836
 30
0.0
 11
253.0711049667
 21
536.8244592685
 31
0.0
  0
LINE
  5
F0
100
AcDbEntity
  8
DF250
  6
CONTINUOUS
 62
         3
100
AcDbLine
 10
253.3836517794
 20
537.5024756981
 30
0.0
 11
252.6007044981
 21
537.5908621297
 31
0.0
  0
ARC
  5
F1
100
AcDbEntity
  8
DF250
  6
CONTINUOUS
 62
         3
100
AcDbCircle
 10
253.1615644224
 20
536.921275428
 30
0.0
 40
0.1325001202
100
AcDbArc
 50
-133.0559526663
 51
-96.4408358204
  0
ARC
  5
F2
100
AcDbEntity
  8
DF250
  6
CONTINUOUS
 62
         3
100
AcDbCircle
 10
253.3687882919
 20
537.3708118891
 30
0.0
 40
0.1325001202
100
AcDbArc
 50
46.9440476952
 51
83.5591645409
  0
LINE
  5
F3
100
AcDbEntity
  8
DF250
  6
CONTINUOUS
 62
         3
100
AcDbLine
 10
254.0349705184
 20
536.9297050596
 30
0.0
 11
253.4592477482
 21
537.467628048
 31
0.0
  0
ARC
  5
F4
100
AcDbEntity
  8
DF250
  6
CONTINUOUS
 62
         3
100
AcDbCircle
 10
253.9445106551
 20
536.8328892763
 30
0.0
 40
0.1325001236
100
AcDbArc
 50
-96.4405646286
 51
46.9437986653
  0
LINE
  5
F5
100
AcDbEntity
  8
DF250
  6
CONTINUOUS
 62
         3
100
AcDbLine
 10
253.146700935
 20
536.789611619
 30
0.0
 11
253.929647767
 21
536.7012253962
 31
0.0
  0
LINE
  5
F6
100
AcDbEntity
  8
DF500
  6
CONTINUOUS
 62
         5
100
AcDbLine
 10
253.3757994
 20
537.4329175201
 30
0.0
 11
252.5928521257
 21
537.5213039508
 31
0.0
  0
ARC
  5
F7
100
AcDbEntity
  8
DF500
  6
CONTINUOUS
 62
         5
100
AcDbCircle
 10
253.1615644224
 20
536.921275428
 30
0.0
 40
0.0625001202
100
AcDbArc
 50
-133.0559523048
 51
-96.4408358205
  0
ARC
  5
F8
100
AcDbEntity
  8
DF500
  6
CONTINUOUS
 62
         5
100
AcDbCircle
 10
253.3687882919
 20
537.3708118891
 30
0.0
 40
0.0625001202
100
AcDbArc
 50
46.9440476951
 51
83.5591641795
  0
LINE
  5
F9
100
AcDbEntity
  8
DF500
  6
CONTINUOUS
 62
         5
100
AcDbLine
 10
253.9871806338
 20
536.8785569714
 30
0.0
 11
253.4114578646
 21
537.4164799589
 31
0.0
  0
ELLIPSE
  5
FA
100
AcDbEntity
  8
DF500
  6
CONTINUOUS
 62
         5
100
AcDbEllipse
 10
253.9445106551
 20
536.8328892763
 30
0.0
 11
0.06210566984611
 21
-0.0070107937646246
 31
0.0
210
0.0
220
0.0
230
1.0
 40
1.0
 41
4.7123889803846897
 42
7.2149181424154021
  0
LINE
  5
FB
100
AcDbEntity
  8
DF500
  6
CONTINUOUS
 62
         5
100
AcDbLine
 10
253.1545533019
 20
536.8591697985
 30
0.0
 11
253.9375001222
 21
536.7707835771
 31
0.0
  0
ARC
  5
FC
100
AcDbEntity
  8
DF500
  6
CONTINUOUS
 62
         5
100
AcDbCircle
 10
255.9598930841
 20
538.6932764381
 30
0.0
 40
0.0625001202
100
AcDbArc
 50
161.6924441465
 51
-161.6924393692
  0
ARC
  5
FD
100
AcDbEntity
  8
DF500
  6
CONTINUOUS
 62
         5
100
AcDbCircle
 10
264.3298753625
 20
535.0870683218
 30
0.0
 40
0.0625001202
100
AcDbArc
 50
118.7877138143
 51
155.4028302985
  0
CIRCLE
  5
FE
100
AcDbEntity
  8
DF500
  6
CONTINUOUS
 62
         5
100
AcDbCircle
 10
266.4329127395
 20
535.2493556604
 30
0.0
 40
0.0445
  0
CIRCLE
  5
FF
100
AcDbEntity
  8
DF500
  6
CONTINUOUS
 62
         5
100
AcDbCircle
 10
267.0555556014
 20
533.3827342711
 30
0.0
 40
0.0445
  0
CIRCLE
  5
100
100
AcDbEntity
  8
DF500
  6
CONTINUOUS
 62
         5
100
AcDbCircle
 10
248.7032618181
 20
535.691076715
 30
0.0
 40
0.0445
  0
CIRCLE
  5
101
100
AcDbEntity
  8
DF500
  6
CONTINUOUS
 62
         5
100
AcDbCircle
 10
247.9315248372
 20
535.9906327635
 30
0.0
 40
0.0445
  0
CIRCLE
  5
102
100
AcDbEntity
  8
DF500
  6
CONTINUOUS
 62
         5
100
AcDbCircle
 10
248.9774320862
 20
537.442717116
 30
0.0
 40
0.25
  0
CIRCLE
  5
103
100
AcDbEntity
  8
DF500
  6
CONTINUOUS
 62
         5
100
AcDbCircle
 10
247.3055556014
 20
539.3827342711
 30
0.0
 40
0.0445
  0
CIRCLE
  5
104
100
AcDbEntity
  8
DF500
  6
CONTINUOUS
 62
         5
100
AcDbCircle
 10
248.8606560957
 20
540.0727179681
 30
0.0
 40
0.0445
  0
CIRCLE
  5
105
100
AcDbEntity
  8
DF500
  6
CONTINUOUS
 62
         5
100
AcDbCircle
 10
247.9264476304
 20
543.5556899529
 30
0.0
 40
0.0445
  0
CIRCLE
  5
106
100
AcDbEntity
  8
DF500
  6
CONTINUOUS
 62
         5
100
AcDbCircle
 10
249.6502221612
 20
542.9488870836
 30
0.0
 40
0.53125
  0
CIRCLE
  5
107
100
AcDbEntity
  8
DF500
  6
CONTINUOUS
 62
         5
100
AcDbCircle
 10
249.6494086139
 20
540.6632359677
 30
0.0
 40
0.25
  0
CIRCLE
  5
108
100
AcDbEntity
  8
DF250
  6
CONTINUOUS
 62
         3
100
AcDbCircle
 10
249.6502221612
 20
542.9488870836
 30
0.0
 40
0.5985
  0
CIRCLE
  5
109
100
AcDbEntity
  8
DF500
  6
CONTINUOUS
 62
         5
100
AcDbCircle
 10
248.3377021376
 20
541.5451111331
 30
0.0
 40
0.0445
  0
CIRCLE
  5
10A
100
AcDbEntity
  8
DF500
  6
CONTINUOUS
 62
         5
100
AcDbCircle
 10
249.4242280136
 20
541.1693970415
 30
0.0
 40
0.0445
  0
LINE
  5
10B
100
AcDbEntity
  8
DF500
  6
CONTINUOUS
 62
         5
100
AcDbLine
 10
250.1854234304
 20
545.2850643898
 30
0.0
 11
250.5424858481
 21
545.7980277704
 31
0.0
  0
ARC
  5
10C
100
AcDbEntity
  8
DF500
  6
CONTINUOUS
 62
         5
100
AcDbCircle
 10
250.3906087826
 20
545.1422394227
 30
0.0
 40
0.25
100
AcDbArc
 50
145.159080647
 51
-34.840919353
  0
CIRCLE
  5
10D
100
AcDbEntity
  8
DF500
  6
CONTINUOUS
 62
         5
100
AcDbCircle
 10
249.9877982597
 20
544.6117514063
 30
0.0
 40
0.0445
  0
CIRCLE
  5
10E
100
AcDbEntity
  8
DF500
  6
CONTINUOUS
 62
         5
100
AcDbCircle
 10
250.25
 20
546.6337017277
 30
0.0
 40
0.25
  0
CIRCLE
  5
10F
100
AcDbEntity
  8
DF500
  6
CONTINUOUS
 62
         5
100
AcDbCircle
 10
247.3055556014
 20
545.3827342711
 30
0.0
 40
0.0445
  0
CIRCLE
  5
110
100
AcDbEntity
  8
DF500
  6
CONTINUOUS
 62
         5
100
AcDbCircle
 10
247.3055556014
 20
551.3827342711
 30
0.0
 40
0.0445
  0
CIRCLE
  5
111
100
AcDbEntity
  8
DF500
  6
CONTINUOUS
 62
         5
100
AcDbCircle
 10
249.2465238131
 20
552.4408231035
 30
0.0
 40
0.25
  0
CIRCLE
  5
112
100
AcDbEntity
  8
DF500
  6
CONTINUOUS
 62
         5
100
AcDbCircle
 10
249.4805556014
 20
554.1327342711
 30
0.0
 40
0.0445
  0
ARC
  5
113
100
AcDbEntity
  8
DF500
  6
CONTINUOUS
 62
         5
100
AcDbCircle
 10
251.6185231232
 20
538.2650485423
 30
0.0
 40
0.25
100
AcDbArc
 50
-10.747724884
 51
169.252275116
  0
LINE
  5
114
100
AcDbEntity
  8
DF500
  6
CONTINUOUS
 62
         5
100
AcDbLine
 10
252.3022949339
 20
536.1445223312
 30
0.0
 11
252.8780182703
 21
535.6065992554
 31
0.0
  0
ARC
  5
115
100
AcDbEntity
  8
DF500
  6
CONTINUOUS
 62
         5
100
AcDbCircle
 10
252.3449648017
 20
536.1901901295
 30
0.0
 40
0.0625001234
100
AcDbArc
 50
83.5593474023
 51
-133.0561286599
  0
CIRCLE
  5
116
100
AcDbEntity
  8
DF500
  6
CONTINUOUS
 62
         5
100
AcDbCircle
 10
264.9191901063
 20
527.8134388035
 30
0.0
 40
0.53125
  0
CIRCLE
  5
117
100
AcDbEntity
  8
DF500
  6
CONTINUOUS
 62
         5
100
AcDbCircle
 10
265.7119475534
 20
531.6648385153
 30
0.0
 40
0.0445
  0
CIRCLE
  5
118
100
AcDbEntity
  8
DF500
  6
CONTINUOUS
 62
         5
100
AcDbCircle
 10
263.9603066009
 20
527.080108916
 30
0.0
 40
0.0445
  0
CIRCLE
  5
119
100
AcDbEntity
  8
DF500
  6
CONTINUOUS
 62
         5
100
AcDbCircle
 10
267.0555556014
 20
527.3827342711
 30
0.0
 40
0.0445
  0
CIRCLE
  5
11A
100
AcDbEntity
  8
DF500
  6
CONTINUOUS
 62
         5
100
AcDbCircle
 10
264.7472755395
 20
524.7953599438
 30
0.0
 40
0.0445
  0
CIRCLE
  5
11B
100
AcDbEntity
  8
DF500
  6
CONTINUOUS
 62
         5
100
AcDbCircle
 10
264.3207890819
 20
525.5163251225
 30
0.0
 40
0.25
  0
CIRCLE
  5
11C
100
AcDbEntity
  8
DF500
  6
CONTINUOUS
 62
         5
100
AcDbCircle
 10
264.640654167
 20
529.5679465544
 30
0.0
 40
0.0445
  0
CIRCLE
  5
11D
100
AcDbEntity
  8
DF250
  6
CONTINUOUS
 62
         3
100
AcDbCircle
 10
262.132077896
 20
534.5550624751
 30
0.0
 40
0.505
  0
CIRCLE
  5
11E
100
AcDbEntity
  8
DF500
  6
CONTINUOUS
 62
         5
100
AcDbCircle
 10
262.132077896
 20
534.5550624751
 30
0.0
 40
0.4375
  0
CIRCLE
  5
11F
100
AcDbEntity
  8
DF500
  6
CONTINUOUS
 62
         5
100
AcDbCircle
 10
265.0092277706
 20
532.2691406611
 30
0.0
 40
0.25
  0
LINE
  5
120
100
AcDbEntity
  8
DF500
  6
CONTINUOUS
 62
         5
100
AcDbLine
 10
264.7492847575
 20
534.7240669233
 30
0.0
 11
265.0772452671
 21
535.4404889356
 31
0.0
  0
ARC
  5
121
100
AcDbEntity
  8
DF500
  6
CONTINUOUS
 62
         5
100
AcDbCircle
 10
265.0204164584
 20
535.4665033916
 30
0.0
 40
0.0625001234
100
AcDbArc
 50
-24.5969899125
 51
118.7875340252
  0
LINE
  5
122
100
AcDbEntity
  8
DF500
  6
CONTINUOUS
 62
         5
100
AcDbLine
 10
264.9903188649
 20
535.5212793014
 30
0.0
 11
264.2997774267
 21
535.1418440399
 31
0.0
  0
ARC
  5
123
100
AcDbEntity
  8
DF250
  6
CONTINUOUS
 62
         3
100
AcDbCircle
 10
265.0204164584
 20
535.4665033916
 30
0.0
 40
0.1325001234
100
AcDbArc
 50
-24.5969899124
 51
118.7875340252
  0
LINE
  5
124
100
AcDbEntity
  8
DF250
  6
CONTINUOUS
 62
         3
100
AcDbLine
 10
264.9566092889
 20
535.5826280135
 30
0.0
 11
264.2660678445
 21
535.2031927487
 31
0.0
  0
LINE
  5
125
100
AcDbEntity
  8
DF250
  6
CONTINUOUS
 62
         3
100
AcDbLine
 10
264.2093987425
 20
535.142219622
 30
0.0
 11
263.8814385733
 21
534.4257979759
 31
0.0
  0
LINE
  5
126
100
AcDbEntity
  8
DF250
  6
CONTINUOUS
 62
         3
100
AcDbLine
 10
264.065722476
 20
534.2545225153
 30
0.0
 11
264.7562636309
 21
534.6339573068
 31
0.0
  0
ARC
  5
127
100
AcDbEntity
  8
DF250
  6
CONTINUOUS
 62
         3
100
AcDbCircle
 10
264.0019154426
 20
534.3706472123
 30
0.0
 40
0.1325001236
100
AcDbArc
 50
155.4030969506
 51
-61.2125352157
  0
ARC
  5
128
100
AcDbEntity
  8
DF250
  6
CONTINUOUS
 62
         3
100
AcDbCircle
 10
264.3298753625
 20
535.0870683218
 30
0.0
 40
0.1325001202
100
AcDbArc
 50
118.7877134528
 51
155.4028308755
  0
ARC
  5
129
100
AcDbEntity
  8
DF250
  6
CONTINUOUS
 62
         3
100
AcDbCircle
 10
264.6924561149
 20
534.7500817347
 30
0.0
 40
0.1325001202
100
AcDbArc
 50
-61.2122867628
 51
-24.5971697015
  0
LINE
  5
12A
100
AcDbEntity
  8
DF250
  6
CONTINUOUS
 62
         3
100
AcDbLine
 10
264.8129327339
 20
534.6949304324
 30
0.0
 11
265.1408932468
 21
535.4113524519
 31
0.0
  0
LINE
  5
12B
100
AcDbEntity
  8
DF500
  6
CONTINUOUS
 62
         5
100
AcDbLine
 10
264.0320129068
 20
534.3158712312
 30
0.0
 11
264.7225540616
 21
534.6953060226
 31
0.0
  0
LINE
  5
12C
100
AcDbEntity
  8
DF500
  6
CONTINUOUS
 62
         5
100
AcDbLine
 10
264.2730467251
 20
535.1130831445
 30
0.0
 11
263.9450865558
 21
534.3966614985
 31
0.0
  0
ELLIPSE
  5
12D
100
AcDbEntity
  8
DF500
  6
CONTINUOUS
 62
         5
100
AcDbEllipse
 10
264.0019154426
 20
534.3706472123
 30
0.0
 11
-0.026014524816434
 21
-0.0568287775235334
 31
0.0
210
0.0
220
0.0
230
1.0
 40
1.0
 41
4.7123889803846897
 42
7.2149181424154021
  0
ARC
  5
12E
100
AcDbEntity
  8
DF500
  6
CONTINUOUS
 62
         5
100
AcDbCircle
 10
264.6924561149
 20
534.7500817347
 30
0.0
 40
0.0625001202
100
AcDbArc
 50
-61.2122861859
 51
-24.5971697016
  0
ARC
  5
12F
100
AcDbEntity
  8
DF500
  6
CONTINUOUS
 62
         5
100
AcDbCircle
 10
252.1040883754
 20
534.921181966
 30
0.0
 40
0.0625001234
100
AcDbArc
 50
83.5593553
 51
-133.056120762
  0
LINE
  5
130
100
AcDbEntity
  8
DF500
  6
CONTINUOUS
 62
         5
100
AcDbLine
 10
252.0614185139
 20
534.8755141618
 30
0.0
 11
252.6371419244
 21
534.3375911654
 31
0.0
  0
LINE
  5
131
100
AcDbEntity
  8
DF250
  6
CONTINUOUS
 62
         3
100
AcDbLine
 10
252.9018987393
 20
534.9644595491
 30
0.0
 11
252.1189514405
 21
535.0528458258
 31
0.0
  0
ELLIPSE
  5
132
100
AcDbEntity
  8
DF500
  6
CONTINUOUS
 62
         5
100
AcDbEllipse
 10
253.7036340874
 20
535.5638812145
 30
0.0
 11
0.0621056702662919
 21
-0.0070107900424092
 31
0.0
210
0.0
220
0.0
230
1.0
 40
1.0
 41
4.7123889803846897
 42
7.2149181424154021
  0
ARC
  5
133
100
AcDbEntity
  8
DF500
  6
CONTINUOUS
 62
         5
100
AcDbCircle
 10
252.9206878494
 20
535.6522673192
 30
0.0
 40
0.0625001202
100
AcDbArc
 50
-133.0559488708
 51
-96.4408323866
  0
LINE
  5
134
100
AcDbEntity
  8
DF500
  6
CONTINUOUS
 62
         5
100
AcDbLine
 10
252.9136767326
 20
535.5901616893
 30
0.0
 11
253.6966235581
 21
535.5017755148
 31
0.0
  0
ARC
  5
135
100
AcDbEntity
  8
DF250
  6
CONTINUOUS
 62
         3
100
AcDbCircle
 10
253.7036340874
 20
535.5638812145
 30
0.0
 40
0.1325001236
100
AcDbArc
 50
-96.4405611947
 51
46.9438020992
  0
ARC
  5
136
100
AcDbEntity
  8
DF250
  6
CONTINUOUS
 62
         3
100
AcDbCircle
 10
252.9206878494
 20
535.6522673192
 30
0.0
 40
0.1325001202
100
AcDbArc
 50
-133.0559492323
 51
-96.4408323865
  0
LINE
  5
137
100
AcDbEntity
  8
DF250
  6
CONTINUOUS
 62
         3
100
AcDbLine
 10
252.9058243698
 20
535.5206035093
 30
0.0
 11
253.6887712072
 21
535.4322173335
 31
0.0
  0
ARC
  5
138
100
AcDbEntity
  8
DF250
  6
CONTINUOUS
 62
         3
100
AcDbCircle
 10
252.8870352777
 20
534.8327957372
 30
0.0
 40
0.1325001202
100
AcDbArc
 50
46.944059027
 51
83.5591758727
  0
LINE
  5
139
100
AcDbEntity
  8
DF250
  6
CONTINUOUS
 62
         3
100
AcDbLine
 10
253.5532175916
 20
534.3916890394
 30
0.0
 11
252.9774947149
 21
534.929611914
 31
0.0
  0
ARC
  5
13A
100
AcDbEntity
  8
DF250
  6
CONTINUOUS
 62
         3
100
AcDbCircle
 10
252.6798114972
 20
534.3832592351
 30
0.0
 40
0.1325001202
100
AcDbArc
 50
-133.0559413346
 51
-96.4408244888
  0
LINE
  5
13B
100
AcDbEntity
  8
DF250
  6
CONTINUOUS
 62
         3
100
AcDbLine
 10
252.6649480358
 20
534.2515954231
 30
0.0
 11
253.4478948749
 21
534.1632093564
 31
0.0
  0
ARC
  5
13C
100
AcDbEntity
  8
DF250
  6
CONTINUOUS
 62
         3
100
AcDbCircle
 10
253.4627577474
 20
534.2948732383
 30
0.0
 40
0.1325001236
100
AcDbArc
 50
-96.4405578367
 51
46.943809997
  0
ARC
  5
13D
100
AcDbEntity
  8
DF500
  6
CONTINUOUS
 62
         5
100
AcDbCircle
 10
252.8870352777
 20
534.8327957372
 30
0.0
 40
0.0625001202
100
AcDbArc
 50
46.9440590269
 51
83.5591755113
  0
LINE
  5
13E
100
AcDbEntity
  8
DF500
  6
CONTINUOUS
 62
         5
100
AcDbLine
 10
253.505427717
 20
534.3405409418
 30
0.0
 11
252.9297048414
 21
534.8784638154
 31
0.0
  0
ARC
  5
13F
100
AcDbEntity
  8
DF500
  6
CONTINUOUS
 62
         5
100
AcDbCircle
 10
252.6798114972
 20
534.3832592351
 30
0.0
 40
0.0625001202
100
AcDbArc
 50
-133.055940973
 51
-96.4408244888
  0
ELLIPSE
  5
140
100
AcDbEntity
  8
DF500
  6
CONTINUOUS
 62
         5
100
AcDbEllipse
 10
253.4627577474
 20
534.2948732383
 30
0.0
 11
0.0621056712326733
 21
-0.0070107814816328
 31
0.0
210
0.0
220
0.0
230
1.0
 40
1.0
 41
4.7123889803846897
 42
7.2149181424154021
  0
LINE
  5
141
100
AcDbEntity
  8
DF500
  6
CONTINUOUS
 62
         5
100
AcDbLine
 10
252.672800389
 20
534.3211536042
 30
0.0
 11
253.4557472267
 21
534.2327675376
 31
0.0
  0
CIRCLE
  5
142
100
AcDbEntity
  8
DF500
  6
CONTINUOUS
 62
         5
100
AcDbCircle
 10
261.6247853661
 20
526.1814409869
 30
0.0
 40
0.0445
  0
ARC
  5
143
100
AcDbEntity
  8
DF500
  6
CONTINUOUS
 62
         5
100
AcDbCircle
 10
261.2368950756
 20
524.6093370722
 30
0.0
 40
0.1875
100
AcDbArc
 50
-21.8651173414
 51
84.4709247056
  0
ARC
  5
144
100
AcDbEntity
  8
DF500
  6
CONTINUOUS
 62
         5
100
AcDbCircle
 10
260.4841899992
 20
524.6821998553
 30
0.0
 40
0.1875
100
AcDbArc
 50
84.4709247056
 51
-128.2011609335
  0
LINE
  5
145
100
AcDbEntity
  8
DF500
  6
CONTINUOUS
 62
         5
100
AcDbLine
 10
261.2549608625
 20
524.7959647158
 30
0.0
 11
260.5022557861
 21
524.8688274989
 31
0.0
  0
CIRCLE
  5
146
100
AcDbEntity
  8
DF500
  6
CONTINUOUS
 62
         5
100
AcDbCircle
 10
261.1333620558
 20
525.5272006749
 30
0.0
 40
0.25
  0
CIRCLE
  5
147
100
AcDbEntity
  8
DF250
  6
CONTINUOUS
 62
         3
100
AcDbCircle
 10
264.9191901063
 20
527.8134388035
 30
0.0
 40
0.5985
  0
CIRCLE
  5
148
100
AcDbEntity
  8
DF500
  6
CONTINUOUS
 62
         5
100
AcDbCircle
 10
262.2086654317
 20
521.1854565677
 30
0.0
 40
0.0445
  0
CIRCLE
  5
149
100
AcDbEntity
  8
DF500
  6
CONTINUOUS
 62
         5
100
AcDbCircle
 10
261.4724686325
 20
520.6066535538
 30
0.0
 40
0.25
  0
LINE
  5
14A
100
AcDbEntity
  8
DF500
  6
CONTINUOUS
 62
         5
100
AcDbLine
 10
262.0218658358
 20
523.6294184423
 30
0.0
 11
261.2940629268
 21
522.093090702
 31
0.0
  0
ARC
  5
14B
100
AcDbEntity
  8
DF500
  6
CONTINUOUS
 62
         5
100
AcDbCircle
 10
261.2127279288
 20
522.1316214442
 30
0.0
 40
0.09
100
AcDbArc
 50
154.6517310299
 51
-25.3482689701
  0
CIRCLE
  5
14C
100
AcDbEntity
  8
DF500
  6
CONTINUOUS
 62
         5
100
AcDbCircle
 10
260.162546014
 20
522.6680047765
 30
0.0
 40
0.0445
  0
CIRCLE
  5
14D
100
AcDbEntity
  8
DF500
  6
CONTINUOUS
 62
         5
100
AcDbCircle
 10
262.7773141009
 20
522.0942789103
 30
0.0
 40
0.25
  0
CIRCLE
  5
14E
100
AcDbEntity
  8
DF500
  6
CONTINUOUS
 62
         5
100
AcDbCircle
 10
262.9905573777
 20
523.140186152
 30
0.0
 40
0.0445
  0
LINE
  5
14F
100
AcDbEntity
  8
DF500
  6
CONTINUOUS
 62
         5
100
AcDbLine
 10
263.8974813556
 20
522.8190327887
 30
0.0
 11
263.8974813556
 21
521.1190327887
 31
0.0
  0
ARC
  5
150
100
AcDbEntity
  8
DF500
  6
CONTINUOUS
 62
         5
100
AcDbCircle
 10
263.9874813556
 20
521.1190327887
 30
0.0
 40
0.09
100
AcDbArc
 50
180.0
 51
0.0
  0
ARC
  5
151
100
AcDbEntity
  8
DF500
  6
CONTINUOUS
 62
         5
100
AcDbCircle
 10
263.9874813556
 20
522.8190327887
 30
0.0
 40
0.09
100
AcDbArc
 50
0.0
 51
180.0
  0
LINE
  5
152
100
AcDbEntity
  8
DF500
  6
CONTINUOUS
 62
         5
100
AcDbLine
 10
264.0774813556
 20
522.8190327887
 30
0.0
 11
264.0774813556
 21
521.1190327887
 31
0.0
  0
CIRCLE
  5
153
100
AcDbEntity
  8
DF500
  6
CONTINUOUS
 62
         5
100
AcDbCircle
 10
267.0555556014
 20
521.3827342711
 30
0.0
 40
0.0445
  0
CIRCLE
  5
154
100
AcDbEntity
  8
DF250
  6
CONTINUOUS
 62
         3
100
AcDbCircle
 10
256.211938632
 20
527.6983815419
 30
0.0
 40
0.38
  0
CIRCLE
  5
155
100
AcDbEntity
  8
DF500
  6
CONTINUOUS
 62
         5
100
AcDbCircle
 10
256.211938632
 20
527.6983815419
 30
0.0
 40
0.3124614934
  0
CIRCLE
  5
156
100
AcDbEntity
  8
DF250
  6
CONTINUOUS
 62
         3
100
AcDbCircle
 10
256.211938632
 20
526.3294957252
 30
0.0
 40
0.38
  0
CIRCLE
  5
157
100
AcDbEntity
  8
DF250
  6
CONTINUOUS
 62
         3
100
AcDbCircle
 10
256.211938632
 20
524.9549298348
 30
0.0
 40
0.38
  0
CIRCLE
  5
158
100
AcDbEntity
  8
DF500
  6
CONTINUOUS
 62
         5
100
AcDbCircle
 10
256.211938632
 20
526.3294957252
 30
0.0
 40
0.3124614934
  0
CIRCLE
  5
159
100
AcDbEntity
  8
DF500
  6
CONTINUOUS
 62
         5
100
AcDbCircle
 10
256.211938632
 20
524.9549298348
 30
0.0
 40
0.3124614934
  0
CIRCLE
  5
15A
100
AcDbEntity
  8
DF250
  6
CONTINUOUS
 62
         3
100
AcDbCircle
 10
256.2117513896
 20
530.4643658432
 30
0.0
 40
0.38
  0
CIRCLE
  5
15B
100
AcDbEntity
  8
DF250
  6
CONTINUOUS
 62
         3
100
AcDbCircle
 10
256.211938632
 20
529.0672674127
 30
0.0
 40
0.38
  0
CIRCLE
  5
15C
100
AcDbEntity
  8
DF500
  6
CONTINUOUS
 62
         5
100
AcDbCircle
 10
256.2117513896
 20
530.4643658432
 30
0.0
 40
0.3124614934
  0
CIRCLE
  5
15D
100
AcDbEntity
  8
DF500
  6
CONTINUOUS
 62
         5
100
AcDbCircle
 10
256.211938632
 20
529.0672674127
 30
0.0
 40
0.3124614934
  0
LINE
  5
15E
100
AcDbEntity
  8
DF250
  6
CONTINUOUS
 62
         3
100
AcDbLine
 10
252.0136286501
 20
534.8243660541
 30
0.0
 11
252.5893520607
 21
534.2864430577
 31
0.0
  0
ARC
  5
15F
100
AcDbEntity
  8
DF250
  6
CONTINUOUS
 62
         3
100
AcDbCircle
 10
252.1040883754
 20
534.921181966
 30
0.0
 40
0.1325001234
100
AcDbArc
 50
83.5593553002
 51
-133.0561177313
  0
LINE
  5
160
100
AcDbEntity
  8
DF500
  6
CONTINUOUS
 62
         5
100
AcDbLine
 10
252.8940463736
 20
534.8949013695
 30
0.0
 11
252.1110990818
 21
534.9832876454
 31
0.0
  0
CIRCLE
  5
161
100
AcDbEntity
  8
DF500
  6
CONTINUOUS
 62
         5
100
AcDbCircle
 10
261.2685556014
 20
517.7042342711
 30
0.0
 40
0.0445
  0
CIRCLE
  5
162
100
AcDbEntity
  8
DF500
  6
CONTINUOUS
 62
         5
100
AcDbCircle
 10
263.6264520297
 20
512.9302928833
 30
0.0
 40
0.0445
  0
CIRCLE
  5
163
100
AcDbEntity
  8
DF500
  6
CONTINUOUS
 62
         5
100
AcDbCircle
 10
263.2578484403
 20
512.9352937207
 30
0.0
 40
0.0445
  0
CIRCLE
  5
164
100
AcDbEntity
  8
DF500
  6
CONTINUOUS
 62
         5
100
AcDbCircle
 10
262.5555556014
 20
518.4747088002
 30
0.0
 40
0.0445
  0
CIRCLE
  5
165
100
AcDbEntity
  8
DF500
  6
CONTINUOUS
 62
         5
100
AcDbCircle
 10
263.4669324839
 20
518.925904566
 30
0.0
 40
0.0445
  0
LINE
  5
166
100
AcDbEntity
  8
DF500
  6
CONTINUOUS
 62
         5
100
AcDbLine
 10
264.2013021819
 20
518.9369913783
 30
0.0
 11
262.4074070146
 21
517.9340385293
 31
0.0
  0
ARC
  5
167
100
AcDbEntity
  8
DF500
  6
CONTINUOUS
 62
         5
100
AcDbCircle
 10
264.2928021948
 20
518.7733332052
 30
0.0
 40
0.1875
100
AcDbArc
 50
29.2092162689
 51
119.209216462
  0
LINE
  5
168
100
AcDbEntity
  8
DF500
  6
CONTINUOUS
 62
         5
100
AcDbLine
 10
265.0195260485
 20
517.8577262418
 30
0.0
 11
264.4564603683
 21
518.8648332176
 31
0.0
  0
ARC
  5
169
100
AcDbEntity
  8
DF500
  6
CONTINUOUS
 62
         5
100
AcDbCircle
 10
264.8558678751
 20
517.7662262294
 30
0.0
 40
0.1875
100
AcDbArc
 50
-60.790783809
 51
29.209216269
  0
LINE
  5
16A
100
AcDbEntity
  8
DF500
  6
CONTINUOUS
 62
         5
100
AcDbLine
 10
263.1534727194
 20
516.5996152176
 30
0.0
 11
264.9473678873
 21
517.6025680558
 31
0.0
  0
CIRCLE
  5
16B
100
AcDbEntity
  8
DF500
  6
CONTINUOUS
 62
         5
100
AcDbCircle
 10
263.7895460537
 20
519.1111579824
 30
0.0
 40
0.0445
  0
CIRCLE
  5
16C
100
AcDbEntity
  8
DF500
  6
CONTINUOUS
 62
         5
100
AcDbCircle
 10
264.0590188085
 20
516.9128623978
 30
0.0
 40
0.0625
  0
LINE
  5
16D
100
AcDbEntity
  8
DF500
  6
CONTINUOUS
 62
         5
100
AcDbLine
 10
265.4305556014
 20
516.2352106102
 30
0.0
 11
265.4305556014
 21
512.3827342711
 31
0.0
  0
CIRCLE
  5
16E
100
AcDbEntity
  8
DF500
  6
CONTINUOUS
 62
         5
100
AcDbCircle
 10
264.7805281551
 20
515.7877342711
 30
0.0
 40
0.08
  0
ARC
  5
16F
100
AcDbEntity
  8
DF500
  6
CONTINUOUS
 62
         5
100
AcDbCircle
 10
265.4305556014
 20
516.4852106102
 30
0.0
 40
0.25
100
AcDbArc
 50
90.0
 51
-90.0
  0
CIRCLE
  5
170
100
AcDbEntity
  8
DF500
  6
CONTINUOUS
 62
         5
100
AcDbCircle
 10
264.7805281551
 20
514.1627342711
 30
0.0
 40
0.08
  0
CIRCLE
  5
171
100
AcDbEntity
  8
DF500
  6
CONTINUOUS
 62
         5
100
AcDbCircle
 10
264.7805281551
 20
513.1627342711
 30
0.0
 40
0.08
  0
LINE
  5
172
100
AcDbEntity
  8
DF500
  6
CONTINUOUS
 62
         5
100
AcDbLine
 10
266.0007716881
 20
518.4102106102
 30
0.0
 11
266.0007716881
 21
516.7352106102
 31
0.0
  0
LINE
  5
173
100
AcDbEntity
  8
DF500
  6
CONTINUOUS
 62
         5
100
AcDbLine
 10
266.1807716881
 20
518.4102106102
 30
0.0
 11
266.1807716881
 21
516.7352106102
 31
0.0
  0
LINE
  5
174
100
AcDbEntity
  8
DF500
  6
CONTINUOUS
 62
         5
100
AcDbLine
 10
266.1807716881
 20
516.7352106102
 30
0.0
 11
267.3055556014
 21
516.7352106102
 31
0.0
  0
CIRCLE
  5
175
100
AcDbEntity
  8
DF500
  6
CONTINUOUS
 62
         5
100
AcDbCircle
 10
267.0555556014
 20
517.4852106102
 30
0.0
 40
0.0445
  0
ARC
  5
176
100
AcDbEntity
  8
DF500
  6
CONTINUOUS
 62
         5
100
AcDbCircle
 10
266.0907716881
 20
518.4102106102
 30
0.0
 40
0.09
100
AcDbArc
 50
0.0
 51
180.0
  0
LINE
  5
177
100
AcDbEntity
  8
DF500
  6
CONTINUOUS
 62
         5
100
AcDbLine
 10
265.4305556014
 20
516.7352106102
 30
0.0
 11
266.0007716881
 21
516.7352106102
 31
0.0
  0
CIRCLE
  5
178
100
AcDbEntity
  8
DF500
  6
CONTINUOUS
 62
         5
100
AcDbCircle
 10
260.4468701886
 20
519.8196844699
 30
0.0
 40
0.0445
  0
LINE
  5
179
100
AcDbEntity
  8
DF500
  6
CONTINUOUS
 62
         5
100
AcDbLine
 10
261.8591958398
 20
523.7064799268
 30
0.0
 11
261.1313929308
 21
522.1701521864
 31
0.0
  0
ARC
  5
17A
100
AcDbEntity
  8
DF500
  6
CONTINUOUS
 62
         5
100
AcDbCircle
 10
257.1461348107
 20
513.498450044
 30
0.0
 40
0.25
100
AcDbArc
 50
-150.790783624
 51
-60.7907837355
  0
LINE
  5
17B
100
AcDbEntity
  8
DF500
  6
CONTINUOUS
 62
         5
100
AcDbLine
 10
256.4266608133
 20
514.2730160582
 30
0.0
 11
256.927923913
 21
513.3764500271
 31
0.0
  0
CIRCLE
  5
17C
100
AcDbEntity
  8
DF500
  6
CONTINUOUS
 62
         5
100
AcDbCircle
 10
257.6046731036
 20
513.2715118441
 30
0.0
 40
0.062506752
  0
ARC
  5
17D
100
AcDbEntity
  8
DF500
  6
CONTINUOUS
 62
         5
100
AcDbCircle
 10
259.4147031917
 20
514.7667889882
 30
0.0
 40
0.25
100
AcDbArc
 50
-60.7907837355
 51
29.209216376
  0
LINE
  5
17E
100
AcDbEntity
  8
DF500
  6
CONTINUOUS
 62
         5
100
AcDbLine
 10
257.2681348272
 20
513.280239146
 30
0.0
 11
259.5367032082
 21
514.5485780902
 31
0.0
  0
CIRCLE
  5
17F
100
AcDbEntity
  8
DF500
  6
CONTINUOUS
 62
         5
100
AcDbCircle
 10
259.3465790684
 20
514.2542445697
 30
0.0
 40
0.062506752
  0
CIRCLE
  5
180
100
AcDbEntity
  8
DF500
  6
CONTINUOUS
 62
         5
100
AcDbCircle
 10
259.2912807101
 20
516.4814207061
 30
0.0
 40
0.0445
  0
CIRCLE
  5
181
100
AcDbEntity
  8
DF500
  6
CONTINUOUS
 62
         5
100
AcDbCircle
 10
257.9538587726
 20
517.6590802433
 30
0.0
 40
0.0445
  0
CIRCLE
  5
182
100
AcDbEntity
  8
DF500
  6
CONTINUOUS
 62
         5
100
AcDbCircle
 10
252.3994767571
 20
519.7942984359
 30
0.0
 40
0.0445
  0
CIRCLE
  5
183
100
AcDbEntity
  8
DF500
  6
CONTINUOUS
 62
         5
100
AcDbCircle
 10
252.1742083453
 20
522.7111571927
 30
0.0
 40
0.25
  0
CIRCLE
  5
184
100
AcDbEntity
  8
DF500
  6
CONTINUOUS
 62
         5
100
AcDbCircle
 10
251.5317659814
 20
522.4222167147
 30
0.0
 40
0.25
  0
LINE
  5
185
100
AcDbEntity
  8
DF500
  6
CONTINUOUS
 62
         5
100
AcDbLine
 10
251.5594978302
 20
523.1254315949
 30
0.0
 11
252.1297754913
 21
523.6220776524
 31
0.0
  0
CIRCLE
  5
186
100
AcDbEntity
  8
DF500
  6
CONTINUOUS
 62
         5
100
AcDbCircle
 10
252.5162527476
 20
521.6373292341
 30
0.0
 40
0.0445
  0
CIRCLE
  5
187
100
AcDbEntity
  8
DF250
  6
CONTINUOUS
 62
         3
100
AcDbCircle
 10
256.2063997965
 20
519.4054863238
 30
0.0
 40
0.505
  0
CIRCLE
  5
188
100
AcDbEntity
  8
DF500
  6
CONTINUOUS
 62
         5
100
AcDbCircle
 10
256.2063997965
 20
519.4054863238
 30
0.0
 40
0.4375
  0
LINE
  5
189
100
AcDbEntity
  8
DF500
  6
CONTINUOUS
 62
         5
100
AcDbLine
 10
262.3352488545
 20
517.6788803431
 30
0.0
 11
262.8983145342
 21
516.6717733781
 31
0.0
  0
ARC
  5
18A
100
AcDbEntity
  8
DF500
  6
CONTINUOUS
 62
         5
100
AcDbCircle
 10
262.4989070276
 20
517.7703803562
 30
0.0
 40
0.1875
100
AcDbArc
 50
119.2092164621
 51
-150.7907834933
  0
ARC
  5
18B
100
AcDbEntity
  8
DF500
  6
CONTINUOUS
 62
         5
100
AcDbCircle
 10
263.0619727073
 20
516.7632733912
 30
0.0
 40
0.1875
100
AcDbArc
 50
-150.7907834933
 51
-60.790783809
  0
CIRCLE
  5
18C
100
AcDbEntity
  8
DF500
  6
CONTINUOUS
 62
         5
100
AcDbCircle
 10
259.6730702293
 20
519.3019212188
 30
0.0
 40
0.25
  0
CIRCLE
  5
18D
100
AcDbEntity
  8
DF500
  6
CONTINUOUS
 62
         5
100
AcDbCircle
 10
263.1384629665
 20
518.5458800446
 30
0.0
 40
0.0625
  0
ELLIPSE
  5
18E
100
AcDbEntity
  8
DF500
  6
CONTINUOUS
 62
         5
100
AcDbEllipse
 10
261.83126063
 20
517.8088438336
 30
0.0
 11
0.0624950053953057
 21
0.0007901269800641
 31
0.0
210
0.0
220
0.0
230
1.0
 40
1.0
 41
0.0
 42
6.2831853071791395
  0
ELLIPSE
  5
18F
100
AcDbEntity
  8
DF500
  6
CONTINUOUS
 62
         5
100
AcDbEllipse
 10
262.752569149
 20
516.1758050671
 30
0.0
 11
-0.000790126979978
 21
0.0624950053952755
 31
0.0
210
0.0
220
0.0
230
1.0
 40
1.0
 41
4.7123889803846897
 42
10.995574287563841
  0
ELLIPSE
  5
190
100
AcDbEntity
  8
DF500
  6
CONTINUOUS
 62
         5
100
AcDbEllipse
 10
260.1397070328
 20
514.7017113861
 30
0.0
 11
-0.000790126979978
 21
0.0624950053952755
 31
0.0
210
0.0
220
0.0
230
1.0
 40
1.0
 41
4.7123889803846897
 42
10.995574287563841
  0
CIRCLE
  5
191
100
AcDbEntity
  8
DF500
  6
CONTINUOUS
 62
         5
100
AcDbCircle
 10
260.0879821978
 20
518.828839141
 30
0.0
 40
0.0445
  0
CIRCLE
  5
192
100
AcDbEntity
  8
DF500
  6
CONTINUOUS
 62
         5
100
AcDbCircle
 10
260.167173103
 20
516.8700141372
 30
0.0
 40
0.062506752
  0
LINE
  5
193
100
AcDbEntity
  8
DF250
  6
CONTINUOUS
 62
         3
100
AcDbLine
 10
249.1720068926
 20
532.586961235
 30
0.0
 11
248.5719008745
 21
533.0975406852
 31
0.0
  0
CIRCLE
  5
194
100
AcDbEntity
  8
DF250
  6
CONTINUOUS
 62
         3
100
AcDbCircle
 10
248.5750920523
 20
534.5266370342
 30
0.0
 40
0.5985
  0
ARC
  5
195
100
AcDbEntity
  8
DF500
  6
CONTINUOUS
 62
         5
100
AcDbCircle
 10
248.486039888
 20
532.9966240181
 30
0.0
 40
0.0625001234
100
AcDbArc
 50
49.6085117341
 51
-167.0069643282
  0
LINE
  5
196
100
AcDbEntity
  8
DF500
  6
CONTINUOUS
 62
         5
100
AcDbLine
 10
250.1112258679
 20
533.0863456609
 30
0.0
 11
250.7113316514
 21
532.5757666796
 31
0.0
  0
LINE
  5
197
100
AcDbEntity
  8
DF500
  6
CONTINUOUS
 62
         5
100
AcDbLine
 10
250.6151806303
 20
533.4387174551
 30
0.0
 11
250.015074587
 21
533.9492968636
 31
0.0
  0
ARC
  5
198
100
AcDbEntity
  8
DF500
  6
CONTINUOUS
 62
         5
100
AcDbCircle
 10
249.9745742209
 20
533.9016944922
 30
0.0
 40
0.0625001234
100
AcDbArc
 50
49.6085152247
 51
-167.0069608376
  0
ARC
  5
199
100
AcDbEntity
  8
DF500
  6
CONTINUOUS
 62
         5
100
AcDbCircle
 10
250.5746799674
 20
533.3911153403
 30
0.0
 40
0.0625001202
100
AcDbArc
 50
12.9932189514
 51
49.6083354358
  0
LINE
  5
19A
100
AcDbEntity
  8
DF500
  6
CONTINUOUS
 62
         5
100
AcDbLine
 10
249.9136742246
 20
533.8876425929
 30
0.0
 11
250.0908266352
 21
533.1198954868
 31
0.0
  0
ARC
  5
19B
100
AcDbEntity
  8
DF500
  6
CONTINUOUS
 62
         5
100
AcDbCircle
 10
250.1517265403
 20
533.1339477676
 30
0.0
 40
0.0625001202
100
AcDbArc
 50
-167.0067810485
 51
-130.3916645643
  0
CIRCLE
  5
19C
100
AcDbEntity
  8
DF500
  6
CONTINUOUS
 62
         5
100
AcDbCircle
 10
250.1908873593
 20
535.1782770498
 30
0.0
 40
0.0445
  0
CIRCLE
  5
19D
100
AcDbEntity
  8
DF500
  6
CONTINUOUS
 62
         5
100
AcDbCircle
 10
248.5750920523
 20
534.5266370342
 30
0.0
 40
0.53125
  0
CIRCLE
  5
19E
100
AcDbEntity
  8
DF500
  6
CONTINUOUS
 62
         5
100
AcDbCircle
 10
247.3055556014
 20
533.3827342711
 30
0.0
 40
0.0445
  0
CIRCLE
  5
19F
100
AcDbEntity
  8
DF500
  6
CONTINUOUS
 62
         5
100
AcDbCircle
 10
249.2871422135
 20
533.3555557978
 30
0.0
 40
0.0445
  0
CIRCLE
  5
1A0
100
AcDbEntity
  8
DF500
  6
CONTINUOUS
 62
         5
100
AcDbCircle
 10
252.3239591448
 20
518.7928697802
 30
0.0
 40
0.0445
  0
CIRCLE
  5
1A1
100
AcDbEntity
  8
DF500
  6
CONTINUOUS
 62
         5
100
AcDbCircle
 10
253.5343898364
 20
516.308743299
 30
0.0
 40
0.0445
  0
CIRCLE
  5
1A2
100
AcDbEntity
  8
DF500
  6
CONTINUOUS
 62
         5
100
AcDbCircle
 10
252.6411204047
 20
519.2765351739
 30
0.0
 40
0.25
  0
CIRCLE
  5
1A3
100
AcDbEntity
  8
DF500
  6
CONTINUOUS
 62
         5
100
AcDbCircle
 10
253.2054472321
 20
516.5106254237
 30
0.0
 40
0.0445
  0
CIRCLE
  5
1A4
100
AcDbEntity
  8
DF500
  6
CONTINUOUS
 62
         5
100
AcDbCircle
 10
254.4231823732
 20
517.6143586778
 30
0.0
 40
0.0445
  0
LINE
  5
1A5
100
AcDbEntity
  8
DF500
  6
CONTINUOUS
 62
         5
100
AcDbLine
 10
258.7914400755
 20
515.8815659172
 30
0.0
 11
256.5228716945
 21
514.613226973
 31
0.0
  0
ELLIPSE
  5
1A6
100
AcDbEntity
  8
DF500
  6
CONTINUOUS
 62
         5
100
AcDbEllipse
 10
259.2183985138
 20
516.3347501526
 30
0.0
 11
-0.000790126979978
 21
0.0624950053952755
 31
0.0
210
0.0
220
0.0
230
1.0
 40
1.0
 41
4.7123889803846897
 42
10.995574287563841
  0
ARC
  5
1A7
100
AcDbEntity
  8
DF500
  6
CONTINUOUS
 62
         5
100
AcDbCircle
 10
258.913440092
 20
515.6633550193
 30
0.0
 40
0.25
100
AcDbArc
 50
29.209216376
 51
119.2092162645
  0
LINE
  5
1A8
100
AcDbEntity
  8
DF500
  6
CONTINUOUS
 62
         5
100
AcDbLine
 10
259.6329140894
 20
514.8887890051
 30
0.0
 11
259.1316509897
 21
515.7853550362
 31
0.0
  0
CIRCLE
  5
1A9
100
AcDbEntity
  8
DF500
  6
CONTINUOUS
 62
         5
100
AcDbCircle
 10
258.9594959027
 20
516.3022873911
 30
0.0
 40
0.0445
  0
CIRCLE
  5
1AA
100
AcDbEntity
  8
DF500
  6
CONTINUOUS
 62
         5
100
AcDbCircle
 10
258.4252671383
 20
515.8872814117
 30
0.0
 40
0.062506752
  0
ARC
  5
1AB
100
AcDbEntity
  8
DF500
  6
CONTINUOUS
 62
         5
100
AcDbCircle
 10
256.644871711
 20
514.3950160751
 30
0.0
 40
0.25
100
AcDbArc
 50
119.2092162645
 51
-150.790783624
  0
CIRCLE
  5
1AC
100
AcDbEntity
  8
DF500
  6
CONTINUOUS
 62
         5
100
AcDbCircle
 10
248.4037068823
 20
528.9079102603
 30
0.0
 40
0.25
  0
CIRCLE
  5
1AD
100
AcDbEntity
  8
DF500
  6
CONTINUOUS
 62
         5
100
AcDbCircle
 10
248.4087840891
 20
530.3498406177
 30
0.0
 40
0.0445
  0
CIRCLE
  5
1AE
100
AcDbEntity
  8
DF500
  6
CONTINUOUS
 62
         5
100
AcDbCircle
 10
247.8249035804
 20
531.7003811344
 30
0.0
 40
0.0445
  0
ELLIPSE
  5
1AF
100
AcDbEntity
  8
DF500
  6
CONTINUOUS
 62
         5
100
AcDbEllipse
 10
249.2632974646
 20
531.7182986509
 30
0.0
 11
0.0476023201849653
 21
-0.0405004267786422
 31
0.0
210
0.0
220
0.0
230
1.0
 40
1.0
 41
4.7123889803846897
 42
7.2149181424154021
  0
ARC
  5
1B0
100
AcDbEntity
  8
DF250
  6
CONTINUOUS
 62
         3
100
AcDbCircle
 10
249.2632974646
 20
531.7182986509
 30
0.0
 40
0.1325001236
100
AcDbArc
 50
-130.3914014029
 51
12.9929664308
  0
LINE
  5
1B1
100
AcDbEntity
  8
DF250
  6
CONTINUOUS
 62
         3
100
AcDbLine
 10
248.5773308732
 20
532.1279608758
 30
0.0
 11
249.1774366256
 21
531.617381858
 31
0.0
  0
LINE
  5
1B2
100
AcDbEntity
  8
DF250
  6
CONTINUOUS
 62
         3
100
AcDbLine
 10
249.3924052725
 20
531.7480888627
 30
0.0
 11
249.2152532837
 21
532.515835579
 31
0.0
  0
CIRCLE
  5
1B3
100
AcDbEntity
  8
DF250
  6
CONTINUOUS
 62
         3
100
AcDbCircle
 10
250.0283721022
 20
532.1366127675
 30
0.0
 40
0.38
  0
LINE
  5
1B4
100
AcDbEntity
  8
DF500
  6
CONTINUOUS
 62
         5
100
AcDbLine
 10
249.3241974952
 20
531.7323504026
 30
0.0
 11
249.1470455065
 21
532.5000971189
 31
0.0
  0
LINE
  5
1B5
100
AcDbEntity
  8
DF500
  6
CONTINUOUS
 62
         5
100
AcDbLine
 10
248.6226914854
 20
532.1812751785
 30
0.0
 11
249.2227972377
 21
531.6706961606
 31
0.0
  0
CIRCLE
  5
1B6
100
AcDbEntity
  8
DF500
  6
CONTINUOUS
 62
         5
100
AcDbCircle
 10
250.0283721022
 20
532.1366127675
 30
0.0
 40
0.3124614934
  0
LINE
  5
1B7
100
AcDbEntity
  8
DF500
  6
CONTINUOUS
 62
         5
100
AcDbLine
 10
248.4251398909
 20
532.9825721225
 30
0.0
 11
248.6022922547
 21
532.2148250056
 31
0.0
  0
ARC
  5
1B8
100
AcDbEntity
  8
DF500
  6
CONTINUOUS
 62
         5
100
AcDbCircle
 10
248.6631921606
 20
532.2288772827
 30
0.0
 40
0.0625001202
100
AcDbArc
 50
-167.0067845392
 51
-130.3916680549
  0
ARC
  5
1B9
100
AcDbEntity
  8
DF250
  6
CONTINUOUS
 62
         3
100
AcDbCircle
 10
248.6631921606
 20
532.2288772827
 30
0.0
 40
0.1325001202
100
AcDbArc
 50
-167.0067845393
 51
-130.3916674779
  0
LINE
  5
1BA
100
AcDbEntity
  8
DF250
  6
CONTINUOUS
 62
         3
100
AcDbLine
 10
248.3569321169
 20
532.9668336481
 30
0.0
 11
248.534084481
 21
532.1990865304
 31
0.0
  0
LINE
  5
1BB
100
AcDbEntity
  8
DF500
  6
CONTINUOUS
 62
         5
100
AcDbLine
 10
249.1266462692
 20
532.533646942
 30
0.0
 11
248.5265402571
 21
533.044226387
 31
0.0
  0
ARC
  5
1BC
100
AcDbEntity
  8
DF500
  6
CONTINUOUS
 62
         5
100
AcDbCircle
 10
249.0861456034
 20
532.4860448296
 30
0.0
 40
0.0625001202
100
AcDbArc
 50
12.9932154607
 51
49.6083319451
  0
LINE
  5
1BD
100
AcDbEntity
  8
DF250
  6
CONTINUOUS
 62
         3
100
AcDbLine
 10
250.065865259
 20
533.0330313555
 30
0.0
 11
250.6659710425
 21
532.5224523742
 31
0.0
  0
ARC
  5
1BE
100
AcDbEntity
  8
DF250
  6
CONTINUOUS
 62
         3
100
AcDbCircle
 10
249.9745742209
 20
533.9016944922
 30
0.0
 40
0.1325001234
100
AcDbArc
 50
49.6085152247
 51
-167.0069608376
  0
ARC
  5
1BF
100
AcDbEntity
  8
DF250
  6
CONTINUOUS
 62
         3
100
AcDbCircle
 10
250.1517265403
 20
533.1339477676
 30
0.0
 40
0.1325001202
100
AcDbArc
 50
-167.0067810485
 51
-130.3916639873
  0
ARC
  5
1C0
100
AcDbEntity
  8
DF250
  6
CONTINUOUS
 62
         3
100
AcDbCircle
 10
250.5746799674
 20
533.3911153403
 30
0.0
 40
0.1325001202
100
AcDbArc
 50
12.9932183744
 51
49.6083354357
  0
LINE
  5
1C1
100
AcDbEntity
  8
DF250
  6
CONTINUOUS
 62
         3
100
AcDbLine
 10
249.84546645
 20
533.8719041211
 30
0.0
 11
250.0226188625
 21
533.1041570074
 31
0.0
  0
LINE
  5
1C2
100
AcDbEntity
  8
DF250
  6
CONTINUOUS
 62
         3
100
AcDbLine
 10
250.6605412504
 20
533.4920317509
 30
0.0
 11
250.0604352012
 21
534.0026111645
 31
0.0
  0
ARC
  5
1C3
100
AcDbEntity
  8
DF250
  6
CONTINUOUS
 62
         3
100
AcDbCircle
 10
249.0861456034
 20
532.4860448296
 30
0.0
 40
0.1325001202
100
AcDbArc
 50
12.9932148838
 51
49.6083319451
  0
ARC
  5
1C4
100
AcDbEntity
  8
DF250
  6
CONTINUOUS
 62
         3
100
AcDbCircle
 10
248.486039888
 20
532.9966240181
 30
0.0
 40
0.1325001234
100
AcDbArc
 50
49.6085117341
 51
-167.0069612975
  0
CIRCLE
  5
1C5
100
AcDbEntity
  8
DF500
  6
CONTINUOUS
 62
         5
100
AcDbCircle
 10
249.5905966409
 20
518.6102106198
 30
0.0
 40
0.0445
  0
ARC
  5
1C6
100
AcDbEntity
  8
DF500
  6
CONTINUOUS
 62
         5
100
AcDbCircle
 10
248.8421754298
 20
518.2435800616
 30
0.0
 40
0.25
100
AcDbArc
 50
0.0
 51
90.0
  0
ARC
  5
1C7
100
AcDbEntity
  8
DF500
  6
CONTINUOUS
 62
         5
100
AcDbCircle
 10
247.8437372773
 20
518.2435800616
 30
0.0
 40
0.25
100
AcDbArc
 50
90.0
 51
180.0
  0
LINE
  5
1C8
100
AcDbEntity
  8
DF500
  6
CONTINUOUS
 62
         5
100
AcDbLine
 10
247.8437372773
 20
518.4935800616
 30
0.0
 11
248.8421754298
 21
518.4935800616
 31
0.0
  0
CIRCLE
  5
1C9
100
AcDbEntity
  8
DF500
  6
CONTINUOUS
 62
         5
100
AcDbCircle
 10
249.1197902774
 20
516.5401937626
 30
0.0
 40
0.0445
  0
LINE
  5
1CA
100
AcDbEntity
  8
DF500
  6
CONTINUOUS
 62
         5
100
AcDbLine
 10
249.0921754298
 20
518.2435800616
 30
0.0
 11
249.0921754298
 21
517.7435824859
 31
0.0
  0
CIRCLE
  5
1CB
100
AcDbEntity
  8
DF500
  6
CONTINUOUS
 62
         5
100
AcDbCircle
 10
247.3056104941
 20
517.4852106102
 30
0.0
 40
0.0445
  0
ARC
  5
1CC
100
AcDbEntity
  8
DF500
  6
CONTINUOUS
 62
         5
100
AcDbCircle
 10
248.8421754298
 20
517.7435824859
 30
0.0
 40
0.25
100
AcDbArc
 50
-90.0
 51
0.0
  0
LINE
  5
1CD
100
AcDbEntity
  8
DF500
  6
CONTINUOUS
 62
         5
100
AcDbLine
 10
247.5937372773
 20
517.7435824859
 30
0.0
 11
247.5937372773
 21
518.2435800616
 31
0.0
  0
ARC
  5
1CE
100
AcDbEntity
  8
DF500
  6
CONTINUOUS
 62
         5
100
AcDbCircle
 10
247.8437372773
 20
517.7435824859
 30
0.0
 40
0.25
100
AcDbArc
 50
180.0
 51
-90.0
  0
ARC
  5
1CF
100
AcDbEntity
  8
DF500
  6
CONTINUOUS
 62
         5
100
AcDbCircle
 10
249.5443299426
 20
523.6118663694
 30
0.0
 40
0.09
100
AcDbArc
 50
180.0
 51
0.0
  0
ARC
  5
1D0
100
AcDbEntity
  8
DF500
  6
CONTINUOUS
 62
         5
100
AcDbCircle
 10
248.1830799531
 20
523.6127846005
 30
0.0
 40
0.09
100
AcDbArc
 50
180.0
 51
0.0
  0
CIRCLE
  5
1D1
100
AcDbEntity
  8
DF500
  6
CONTINUOUS
 62
         5
100
AcDbCircle
 10
247.3055556014
 20
521.3827342711
 30
0.0
 40
0.0445
  0
CIRCLE
  5
1D2
100
AcDbEntity
  8
DF500
  6
CONTINUOUS
 62
         5
100
AcDbCircle
 10
250.6579903216
 20
523.2518851744
 30
0.0
 40
0.0445
  0
CIRCLE
  5
1D3
100
AcDbEntity
  8
DF500
  6
CONTINUOUS
 62
         5
100
AcDbCircle
 10
247.8502895922
 20
527.613219176
 30
0.0
 40
0.0445
  0
CIRCLE
  5
1D4
100
AcDbEntity
  8
DF250
  6
CONTINUOUS
 62
         3
100
AcDbCircle
 10
249.5443299426
 20
526.1501720983
 30
0.0
 40
0.38
  0
CIRCLE
  5
1D5
100
AcDbEntity
  8
DF250
  6
CONTINUOUS
 62
         3
100
AcDbCircle
 10
248.1830799531
 20
526.1510903294
 30
0.0
 40
0.38
  0
ARC
  5
1D6
100
AcDbEntity
  8
DF500
  6
CONTINUOUS
 62
         5
100
AcDbCircle
 10
249.5443299426
 20
525.3118663694
 30
0.0
 40
0.09
100
AcDbArc
 50
0.0
 51
180.0
  0
ARC
  5
1D7
100
AcDbEntity
  8
DF500
  6
CONTINUOUS
 62
         5
100
AcDbCircle
 10
248.1830799531
 20
525.3127846005
 30
0.0
 40
0.09
100
AcDbArc
 50
0.0
 51
180.0
  0
CIRCLE
  5
1D8
100
AcDbEntity
  8
DF500
  6
CONTINUOUS
 62
         5
100
AcDbCircle
 10
250.6732220356
 20
525.6127924063
 30
0.0
 40
0.0445
  0
CIRCLE
  5
1D9
100
AcDbEntity
  8
DF500
  6
CONTINUOUS
 62
         5
100
AcDbCircle
 10
247.3055556014
 20
527.3827342711
 30
0.0
 40
0.0445
  0
CIRCLE
  5
1DA
100
AcDbEntity
  8
DF500
  6
CONTINUOUS
 62
         5
100
AcDbCircle
 10
248.814959612
 20
525.435089656
 30
0.0
 40
0.0445
  0
CIRCLE
  5
1DB
100
AcDbEntity
  8
DF500
  6
CONTINUOUS
 62
         5
100
AcDbCircle
 10
248.1830799531
 20
526.1510903294
 30
0.0
 40
0.3124614934
  0
CIRCLE
  5
1DC
100
AcDbEntity
  8
DF500
  6
CONTINUOUS
 62
         5
100
AcDbCircle
 10
249.5443299426
 20
526.1501720983
 30
0.0
 40
0.3124614934
  0
CIRCLE
  5
1DD
100
AcDbEntity
  8
DF500
  6
CONTINUOUS
 62
         5
100
AcDbCircle
 10
249.3785330809
 20
528.3900338266
 30
0.0
 40
0.0445
  0
CIRCLE
  5
1DE
100
AcDbEntity
  8
DF500
  6
CONTINUOUS
 62
         5
100
AcDbCircle
 10
260.3691648115
 20
523.6228510259
 30
0.0
 40
0.25
  0
CIRCLE
  5
1DF
100
AcDbEntity
  8
DF500
  6
CONTINUOUS
 62
         5
100
AcDbCircle
 10
263.0616385487
 20
523.896691995
 30
0.0
 40
0.0575
  0
CIRCLE
  5
1E0
100
AcDbEntity
  8
DF250
  6
CONTINUOUS
 62
         3
100
AcDbCircle
 10
262.2994257484
 20
524.4255446823
 30
0.0
 40
0.38
  0
CIRCLE
  5
1E1
100
AcDbEntity
  8
DF500
  6
CONTINUOUS
 62
         5
100
AcDbCircle
 10
262.2994257484
 20
524.4255446823
 30
0.0
 40
0.3124614934
  0
LINE
  5
1E2
100
AcDbEntity
  8
DF500
  6
CONTINUOUS
 62
         5
100
AcDbLine
 10
260.3682354395
 20
524.5348540373
 30
0.0
 11
260.962509385
 21
524.0671870576
 31
0.0
  0
LINE
  5
1E3
100
AcDbEntity
  8
DF500
  6
CONTINUOUS
 62
         5
100
AcDbLine
 10
261.2524757878
 20
524.1447035949
 30
0.0
 11
261.4109069187
 21
524.5395077914
 31
0.0
  0
CIRCLE
  5
1E4
100
AcDbEntity
  8
DF500
  6
CONTINUOUS
 62
         5
100
AcDbCircle
 10
258.4642170329
 20
544.1319546391
 30
0.0
 40
1.26
  0
CIRCLE
  5
1E5
100
AcDbEntity
  8
DF500
  6
CONTINUOUS
 62
         5
100
AcDbCircle
 10
253.9124894698
 20
544.0989528343
 30
0.0
 40
1.26
  0
LINE
  5
1E6
100
AcDbEntity
  8
DF500
  6
CONTINUOUS
 62
         5
100
AcDbLine
 10
264.9041307868
 20
544.0465071141
 30
0.0
 11
265.6285974484
 21
543.8524760442
 31
0.0
  0
ARC
  5
1E7
100
AcDbEntity
  8
DF500
  6
CONTINUOUS
 62
         5
100
AcDbCircle
 10
264.8394537634
 20
543.8050182269
 30
0.0
 40
0.25
100
AcDbArc
 50
75.0065812251
 51
-104.9934187748
  0
ARC
  5
1E8
100
AcDbEntity
  8
DF500
  6
CONTINUOUS
 62
         5
100
AcDbCircle
 10
265.5639204251
 20
543.610987157
 30
0.0
 40
0.25
100
AcDbArc
 50
-104.9934187749
 51
75.0065812252
  0
CIRCLE
  5
1E9
100
AcDbEntity
  8
DF500
  6
CONTINUOUS
 62
         5
100
AcDbCircle
 10
263.2038011025
 20
544.4543536671
 30
0.0
 40
0.25
  0
CIRCLE
  5
1EA
100
AcDbEntity
  8
DF500
  6
CONTINUOUS
 62
         5
100
AcDbCircle
 10
256.2073929344
 20
532.7869080198
 30
0.0
 40
1.26
  0
LINE
  5
1EB
100
AcDbEntity
  8
DF500
  6
CONTINUOUS
 62
         5
100
AcDbLine
 10
248.5556104941
 20
512.3827342711
 30
0.0
 11
248.5556104941
 21
515.7352106102
 31
0.0
  0
ARC
  5
1EC
100
AcDbEntity
  8
DF500
  6
CONTINUOUS
 62
         5
100
AcDbCircle
 10
248.3056104941
 20
515.7352106102
 30
0.0
 40
0.25
100
AcDbArc
 50
0.0
 51
90.0
  0
LINE
  5
1ED
100
AcDbEntity
  8
DF500
  6
CONTINUOUS
 62
         5
100
AcDbLine
 10
248.3056104941
 20
515.9852106102
 30
0.0
 11
247.0556104941
 21
515.9852106102
 31
0.0
  0
CIRCLE
  5
1EE
100
AcDbEntity
  8
DF500
  6
CONTINUOUS
 62
         5
100
AcDbCircle
 10
248.9305281551
 20
515.7877342711
 30
0.0
 40
0.08
  0
CIRCLE
  5
1EF
100
AcDbEntity
  8
DF500
  6
CONTINUOUS
 62
         5
100
AcDbCircle
 10
248.8392816102
 20
512.9051968647
 30
0.0
 40
0.0445
  0
CIRCLE
  5
1F0
100
AcDbEntity
  8
DF500
  6
CONTINUOUS
 62
         5
100
AcDbCircle
 10
249.2346991165
 20
512.8962533255
 30
0.0
 40
0.0445
  0
CIRCLE
  5
1F1
100
AcDbEntity
  8
DF500
  6
CONTINUOUS
 62
         5
100
AcDbCircle
 10
248.9305281551
 20
513.1627342711
 30
0.0
 40
0.08
  0
CIRCLE
  5
1F2
100
AcDbEntity
  8
DF500
  6
CONTINUOUS
 62
         5
100
AcDbCircle
 10
248.9305281551
 20
514.1627342711
 30
0.0
 40
0.08
  0
LINE
  5
1F3
100
AcDbEntity
  8
DF500
  6
CONTINUOUS
 62
         5
100
AcDbLine
 10
248.8421754298
 20
517.4935824859
 30
0.0
 11
247.8437372773
 21
517.4935824859
 31
0.0
  0
CIRCLE
  5
1F4
100
AcDbEntity
  8
DF500
  6
CONTINUOUS
 62
         5
100
AcDbCircle
 10
250.1752098477
 20
516.5308842508
 30
0.0
 40
0.0445
  0
CIRCLE
  5
1F5
100
AcDbEntity
  8
DF500
  6
CONTINUOUS
 62
         5
100
AcDbCircle
 10
247.3055556014
 20
516.4727342711
 30
0.0
 40
0.0445
  0
CIRCLE
  5
1F6
100
AcDbEntity
  8
DF500
  6
CONTINUOUS
 62
         5
100
AcDbCircle
 10
249.9683648462
 20
518.4627342711
 30
0.0
 40
0.0445
  0
LINE
  5
1F7
100
AcDbEntity
  8
DF500
  6
CONTINUOUS
 62
         5
100
AcDbLine
 10
250.6456052524
 20
541.8786595446
 30
0.0
 11
251.0026278463
 21
541.1762682983
 31
0.0
  0
ARC
  5
1F8
100
AcDbEntity
  8
DF500
  6
CONTINUOUS
 62
         5
100
AcDbCircle
 10
251.0583435265
 20
541.2045883972
 30
0.0
 40
0.0625001202
100
AcDbArc
 50
-153.0559365905
 51
-116.4408201062
  0
ARC
  5
1F9
100
AcDbEntity
  8
DF500
  6
CONTINUOUS
 62
         5
100
AcDbCircle
 10
251.2755723306
 20
546.267448437
 30
0.0
 40
0.25
100
AcDbArc
 50
139.6354914921
 51
-40.3645085078
  0
ARC
  5
1FA
100
AcDbEntity
  8
DF500
  6
CONTINUOUS
 62
         5
100
AcDbCircle
 10
250.7476712004
 20
545.6552028033
 30
0.0
 40
0.25
100
AcDbArc
 50
-34.840919353
 51
145.159080647
  0
CIRCLE
  5
1FB
100
AcDbEntity
  8
DF500
  6
CONTINUOUS
 62
         5
100
AcDbCircle
 10
250.7646135701
 20
538.6764817432
 30
0.0
 40
0.0445
  0
ARC
  5
1FC
100
AcDbEntity
  8
DF250
  6
CONTINUOUS
 62
         3
100
AcDbCircle
 10
250.7013211131
 20
541.9069792953
 30
0.0
 40
0.1325001234
100
AcDbArc
 50
63.559356652
 51
-153.0561163794
  0
LINE
  5
1FD
100
AcDbEntity
  8
DF250
  6
CONTINUOUS
 62
         3
100
AcDbLine
 10
250.5832037861
 20
541.8469411428
 30
0.0
 11
250.9402263836
 21
541.1445498894
 31
0.0
  0
ARC
  5
1FE
100
AcDbEntity
  8
DF500
  6
CONTINUOUS
 62
         5
100
AcDbCircle
 10
250.7013211131
 20
541.9069792953
 30
0.0
 40
0.0625001234
100
AcDbArc
 50
63.5593596827
 51
-153.0561163793
  0
LINE
  5
1FF
100
AcDbEntity
  8
DF500
  6
CONTINUOUS
 62
         5
100
AcDbLine
 10
250.9528565526
 20
545.5123778363
 30
0.0
 11
250.5957941349
 21
544.9994144556
 31
0.0
  0
CIRCLE
  5
200
100
AcDbEntity
  8
DF500
  6
CONTINUOUS
 62
         5
100
AcDbCircle
 10
250.8304339529
 20
546.1221279046
 30
0.0
 40
0.0575
  0
LINE
  5
201
100
AcDbEntity
  8
DF500
  6
CONTINUOUS
 62
         5
100
AcDbLine
 10
251.8641375741
 20
538.2184272862
 30
0.0
 11
251.2347506165
 21
534.9026321994
 31
0.0
  0
CIRCLE
  5
202
100
AcDbEntity
  8
DF500
  6
CONTINUOUS
 62
         5
100
AcDbCircle
 10
251.4144971469
 20
548.1302649072
 30
0.0
 40
0.25
  0
CIRCLE
  5
203
100
AcDbEntity
  8
DF500
  6
CONTINUOUS
 62
         5
100
AcDbCircle
 10
251.3927041227
 20
544.9080257226
 30
0.0
 40
0.3124614934
  0
LINE
  5
204
100
AcDbEntity
  8
DF500
  6
CONTINUOUS
 62
         5
100
AcDbLine
 10
251.0850874219
 20
546.4293604487
 30
0.0
 11
251.4898674512
 21
546.9055727206
 31
0.0
  0
LINE
  5
205
100
AcDbEntity
  8
DF500
  6
CONTINUOUS
 62
         5
100
AcDbLine
 10
249.6343299426
 20
525.3118663694
 30
0.0
 11
249.6343299426
 21
523.6118663694
 31
0.0
  0
LINE
  5
206
100
AcDbEntity
  8
DF500
  6
CONTINUOUS
 62
         5
100
AcDbLine
 10
248.0930799531
 20
525.3127846005
 30
0.0
 11
248.0930799531
 21
523.6127846005
 31
0.0
  0
LINE
  5
207
100
AcDbEntity
  8
DF500
  6
CONTINUOUS
 62
         5
100
AcDbLine
 10
248.2730799531
 20
525.3127846005
 30
0.0
 11
248.2730799531
 21
523.6127846005
 31
0.0
  0
LINE
  5
208
100
AcDbEntity
  8
DF500
  6
CONTINUOUS
 62
         5
100
AcDbLine
 10
249.4543299426
 20
525.3118663694
 30
0.0
 11
249.4543299426
 21
523.6118663694
 31
0.0
  0
ARC
  5
209
100
AcDbEntity
  8
DF500
  6
CONTINUOUS
 62
         5
100
AcDbCircle
 10
261.0784639447
 20
524.2145328756
 30
0.0
 40
0.1875
100
AcDbArc
 50
-128.2011609335
 51
-21.8651173415
  0
CIRCLE
  5
20A
100
AcDbEntity
  8
DF250
  6
CONTINUOUS
 62
         3
100
AcDbCircle
 10
263.9874813556
 20
523.6573385177
 30
0.0
 40
0.38
  0
CIRCLE
  5
20B
100
AcDbEntity
  8
DF500
  6
CONTINUOUS
 62
         5
100
AcDbCircle
 10
263.9874813556
 20
523.6573385177
 30
0.0
 40
0.3124614934
  0
ARC
  5
20C
100
AcDbEntity
  8
DF500
  6
CONTINUOUS
 62
         5
100
AcDbCircle
 10
252.0066357832
 20
523.7634737708
 30
0.0
 40
0.1875
100
AcDbArc
 50
-48.9478937443
 51
98.3800206167
  0
CIRCLE
  5
20D
100
AcDbEntity
  8
DF250
  6
CONTINUOUS
 62
         3
100
AcDbCircle
 10
256.211938632
 20
523.4894835537
 30
0.0
 40
0.38
  0
CIRCLE
  5
20E
100
AcDbEntity
  8
DF500
  6
CONTINUOUS
 62
         5
100
AcDbCircle
 10
256.211938632
 20
523.4894835537
 30
0.0
 40
0.3124614934
  0
ARC
  5
20F
100
AcDbEntity
  8
DF500
  6
CONTINUOUS
 62
         5
100
AcDbCircle
 10
261.9405308378
 20
523.6679491845
 30
0.0
 40
0.09
100
AcDbArc
 50
-25.3482689701
 51
154.6517310299
  0
LINE
  5
210
100
AcDbEntity
  8
DF500
  6
CONTINUOUS
 62
         5
100
AcDbLine
 10
267.3054444387
 20
554.3944443446
 30
0.0
 11
267.3055556014
 21
516.7352106102
 31
0.0
  0
LINE
  5
211
100
AcDbEntity
  8
DF500
  6
CONTINUOUS
 62
         5
100
AcDbLine
 10
247.0555556014
 20
554.3944443446
 30
0.0
 11
247.0556104941
 21
515.9852106102
 31
0.0
  0
LINE
  5
212
100
AcDbEntity
  8
DF500
  6
CONTINUOUS
 62
         5
100
AcDbLine
 10
248.5556104941
 20
512.3827342711
 30
0.0
 11
265.4305556014
 21
512.3827342711
 31
0.0
  0
CIRCLE
  5
213
100
AcDbEntity
  8
DF250
  6
CONTINUOUS
 62
         3
100
AcDbCircle
 10
250.6375603878
 20
531.1347044617
 30
0.0
 40
0.38
  0
ARC
  5
214
100
AcDbEntity
  8
DF500
  6
CONTINUOUS
 62
         5
100
AcDbCircle
 10
250.9891361657
 20
534.9492534555
 30
0.0
 40
0.25
100
AcDbArc
 50
169.252275116
 51
-10.747724884
  0
CIRCLE
  5
215
100
AcDbEntity
  8
DF500
  6
CONTINUOUS
 62
         5
100
AcDbCircle
 10
250.680077008
 20
524.2812634571
 30
0.0
 40
0.25
  0
CIRCLE
  5
216
100
AcDbEntity
  8
DF500
  6
CONTINUOUS
 62
         5
100
AcDbCircle
 10
250.6375603878
 20
531.1347044617
 30
0.0
 40
0.3124614934
  0
ELLIPSE
  5
217
100
AcDbEntity
  8
DF500
  6
CONTINUOUS
 62
         5
100
AcDbEllipse
 10
250.7518318753
 20
532.6233691723
 30
0.0
 11
0.0476023226523812
 21
-0.0405004238785559
 31
0.0
210
0.0
220
0.0
230
1.0
 40
1.0
 41
4.7123889803846897
 42
7.2149181424154021
  0
ARC
  5
218
100
AcDbEntity
  8
DF250
  6
CONTINUOUS
 62
         3
100
AcDbCircle
 10
250.7518318753
 20
532.6233691723
 30
0.0
 40
0.1325001236
100
AcDbArc
 50
-130.3913979122
 51
12.9929657205
  0
LINE
  5
219
100
AcDbEntity
  8
DF250
  6
CONTINUOUS
 62
         3
100
AcDbLine
 10
250.8809396836
 20
532.6531593825
 30
0.0
 11
250.7037876459
 21
533.4209060975
 31
0.0
  0
LINE
  5
21A
100
AcDbEntity
  8
DF500
  6
CONTINUOUS
 62
         5
100
AcDbLine
 10
250.8127319051
 20
532.6374209277
 30
0.0
 11
250.6355798696
 21
533.4051676332
 31
0.0
  0
CIRCLE
  5
21B
100
AcDbEntity
  8
DF500
  6
CONTINUOUS
 62
         5
100
AcDbCircle
 10
251.2685556014
 20
517.7147342711
 30
0.0
 40
0.0445
  0
LINE
  5
21C
100
AcDbEntity
  8
DF500
  6
CONTINUOUS
 62
         5
100
AcDbLine
 10
251.979309898
 20
523.9489718732
 30
0.0
 11
251.2311604718
 21
523.8387613369
 31
0.0
  0
ARC
  5
21D
100
AcDbEntity
  8
DF500
  6
CONTINUOUS
 62
         5
100
AcDbCircle
 10
251.2584863571
 20
523.6532632345
 30
0.0
 40
0.1875
100
AcDbArc
 50
98.3800206166
 51
-155.2839357913
  0
ARC
  5
21E
100
AcDbEntity
  8
DF500
  6
CONTINUOUS
 62
         5
100
AcDbCircle
 10
251.4363581221
 20
523.2668277133
 30
0.0
 40
0.1875
100
AcDbArc
 50
-155.2839357913
 51
-48.9478937443
  0
LINE
  5
21F
100
AcDbEntity
  8
DF500
  6
CONTINUOUS
 62
         5
100
AcDbLine
 10
251.0881630477
 20
523.574865401
 30
0.0
 11
251.2660348128
 21
523.1884298798
 31
0.0
  0
CIRCLE
  5
220
100
AcDbEntity
  8
DF500
  6
CONTINUOUS
 62
         5
100
AcDbCircle
 10
251.3162386756
 20
524.5751403095
 30
0.0
 40
0.25
  0
LINE
  5
221
100
AcDbEntity
  8
DF500
  6
CONTINUOUS
 62
         5
100
AcDbLine
 10
247.0555556014
 20
554.3944443446
 30
0.0
 11
267.3054444387
 21
554.3944443446
 31
0.0
  0
LINE
  5
222
100
AcDbEntity
  8
DF500
  6
CONTINUOUS
 62
         5
100
AcDbLine
 10
251.0305138674
 20
541.1486261323
 30
0.0
 11
251.7360134449
 21
540.797786862
 31
0.0
  0
LINE
  5
223
100
AcDbEntity
  8
DF250
  6
CONTINUOUS
 62
         3
100
AcDbLine
 10
250.999344776
 20
541.0859484828
 30
0.0
 11
251.7048443535
 21
540.7351092125
 31
0.0
  0
CIRCLE
  5
224
100
AcDbEntity
  8
DF250
  6
CONTINUOUS
 62
         3
100
AcDbCircle
 10
251.3927041227
 20
544.9080257226
 30
0.0
 40
0.38
  0
LINE
  5
225
100
AcDbEntity
  8
DF500
  6
CONTINUOUS
 62
         5
100
AcDbLine
 10
251.3729086723
 20
538.3116697985
 30
0.0
 11
250.7435217148
 21
534.9958747117
 31
0.0
  0
LINE
  5
226
100
AcDbEntity
  8
DF250
  6
CONTINUOUS
 62
         3
100
AcDbLine
 10
251.4658194486
 20
541.6747797639
 30
0.0
 11
250.7603195152
 21
542.0256193866
 31
0.0
  0
ARC
  5
227
100
AcDbEntity
  8
DF250
  6
CONTINUOUS
 62
         3
100
AcDbCircle
 10
251.0583435265
 20
541.2045883972
 30
0.0
 40
0.1325001202
100
AcDbArc
 50
-153.0559365904
 51
-116.4408195292
  0
LINE
  5
228
100
AcDbEntity
  8
DF500
  6
CONTINUOUS
 62
         5
100
AcDbLine
 10
251.4346503439
 20
541.6121021211
 30
0.0
 11
250.7291504113
 21
541.9629417433
 31
0.0
  0
ENDSEC
  0
SECTION
  2
OBJECTS
  0
DICTIONARY
  5
19
100
AcDbDictionary
  3
ACAD_GROUP
350
1A
  3
ACAD_MLINESTYLE
350
1B
  0
DICTIONARY
  5
1A
102
{ACAD_REACTORS
330
19
102
}
100
AcDbDictionary
  0
DICTIONARY
  5
1B
102
{ACAD_REACTORS
330
19
102
}
100
AcDbDictionary
  3
STANDARD
350
1C
  0
MLINESTYLE
  5
1C
102
{ACAD_REACTORS
330
1B
102
}
100
AcDbMlineStyle
  2
STANDARD
 70
         0
  3

 62
         0
 51
90.0
 52
90.0
 71
         2
 49
0.5
 62
       256
  6
BYLAYER
 49
-0.5
 62
       256
  6
BYLAYER
  0
ENDSEC
  0
EOF
