  0
SECTION
  2
HEADER
  9
$ACADVER
  1
AC1014
  9
$ACADMAINTVER
 70
         0
  9
$DWGCODEPAGE
  3
ANSI_1252
  9
$INSBASE
 10
0.0
 20
0.0
 30
0.0
  9
$EXTMIN
 10
-0.93969262
 20
-0.98480775
 30
0.0
  9
$EXTMAX
 10
13.0
 20
12.98480775
 30
0.0
  9
$LIMMIN
 10
0.0
 20
0.0
  9
$LIMMAX
 10
0.0
 20
0.0
  9
$ORTHOMODE
 70
         0
  9
$REGENMODE
 70
         1
  9
$FILLMODE
 70
         1
  9
$QTEXTMODE
 70
         0
  9
$MIRRTEXT
 70
         1
  9
$DRAGMODE
 70
         2
  9
$LTSCALE
 40
1.0
  9
$OSMODE
 70
         0
  9
$ATTMODE
 70
         1
  9
$TEXTSIZE
 40
0.2
  9
$TRACEWID
 40
0.05
  9
$TEXTSTYLE
  7
STANDARD
  9
$CLAYER
  8
0
  9
$CELTYPE
  6
CONTINUOUS
  9
$CECOLOR
 62
       256
  9
$CELTSCALE
 40
1.0
  9
$DELOBJ
 70
         1
  9
$DISPSILH
 70
         0
  9
$DIMSCALE
 40
1.0
  9
$DIMASZ
 40
0.18
  9
$DIMEXO
 40
0.0625
  9
$DIMDLI
 40
0.38
  9
$DIMRND
 40
0.0
  9
$DIMDLE
 40
0.0
  9
$DIMEXE
 40
0.18
  9
$DIMTP
 40
0.0
  9
$DIMTM
 40
0.0
  9
$DIMTXT
 40
0.18
  9
$DIMCEN
 40
0.09
  9
$DIMTSZ
 40
0.0
  9
$DIMTOL
 70
         0
  9
$DIMLIM
 70
         0
  9
$DIMTIH
 70
         1
  9
$DIMTOH
 70
         1
  9
$DIMSE1
 70
         0
  9
$DIMSE2
 70
         0
  9
$DIMTAD
 70
         0
  9
$DIMZIN
 70
         0
  9
$DIMBLK
  1

  9
$DIMASO
 70
         1
  9
$DIMSHO
 70
         1
  9
$DIMPOST
  1

  9
$DIMAPOST
  1

  9
$DIMALT
 70
         0
  9
$DIMALTD
 70
         2
  9
$DIMALTF
 40
25.4
  9
$DIMLFAC
 40
1.0
  9
$DIMTOFL
 70
         0
  9
$DIMTVP
 40
0.0
  9
$DIMTIX
 70
         0
  9
$DIMSOXD
 70
         0
  9
$DIMSAH
 70
         0
  9
$DIMBLK1
  1

  9
$DIMBLK2
  1

  9
$DIMSTYLE
  2
STANDARD
  9
$DIMCLRD
 70
         0
  9
$DIMCLRE
 70
         0
  9
$DIMCLRT
 70
         0
  9
$DIMTFAC
 40
1.0
  9
$DIMGAP
 40
0.09
  9
$DIMJUST
 70
         0
  9
$DIMSD1
 70
         0
  9
$DIMSD2
 70
         0
  9
$DIMTOLJ
 70
         1
  9
$DIMTZIN
 70
         0
  9
$DIMALTZ
 70
         0
  9
$DIMALTTZ
 70
         0
  9
$DIMFIT
 70
         3
  9
$DIMUPT
 70
         0
  9
$DIMUNIT
 70
         2
  9
$DIMDEC
 70
         4
  9
$DIMTDEC
 70
         4
  9
$DIMALTU
 70
         2
  9
$DIMALTTD
 70
         2
  9
$DIMTXSTY
  7
STANDARD
  9
$DIMAUNIT
 70
         0
  9
$LUNITS
 70
         2
  9
$LUPREC
 70
         4
  9
$SKETCHINC
 40
0.1
  9
$FILLETRAD
 40
0.0
  9
$AUNITS
 70
         0
  9
$AUPREC
 70
         0
  9
$MENU
  1
acad
  9
$ELEVATION
 40
0.0
  9
$PELEVATION
 40
0.0
  9
$THICKNESS
 40
0.0
  9
$LIMCHECK
 70
         0
  9
$BLIPMODE
 70
         1
  9
$CHAMFERA
 40
0.0
  9
$CHAMFERB
 40
0.0
  9
$CHAMFERC
 40
0.0
  9
$CHAMFERD
 40
0.0
  9
$SKPOLY
 70
         0
  9
$TDCREATE
 40
2457748.853495371
  9
$TDUPDATE
 40
2457748.853495371
  9
$TDINDWG
 40
0.0000000000
  9
$TDUSRTIMER
 40
0.0000000000
  9
$USRTIMER
 70
         1
  9
$ANGBASE
 50
0.0
  9
$ANGDIR
 70
         0
  9
$PDMODE
 70
         0
  9
$PDSIZE
 40
0.0
  9
$PLINEWID
 40
0.0
  9
$COORDS
 70
         0
  9
$SPLFRAME
 70
         0
  9
$SPLINETYPE
 70
         6
  9
$SPLINESEGS
 70
         8
  9
$ATTDIA
 70
         0
  9
$ATTREQ
 70
         1
  9
$HANDLING
 70
         1
  9
$HANDSEED
  5
1DA
  9
$SURFTAB1
 70
         6
  9
$SURFTAB2
 70
         6
  9
$SURFTYPE
 70
         6
  9
$SURFU
 70
         6
  9
$SURFV
 70
         6
  9
$UCSNAME
  2

  9
$UCSORG
 10
0.0
 20
0.0
 30
0.0
  9
$UCSXDIR
 10
1.0
 20
0.0
 30
0.0
  9
$UCSYDIR
 10
0.0
 20
1.0
 30
0.0
  9
$PUCSNAME
  2

  9
$PUCSORG
 10
0.0
 20
0.0
 30
0.0
  9
$PUCSXDIR
 10
1.0
 20
0.0
 30
0.0
  9
$PUCSYDIR
 10
0.0
 20
1.0
 30
0.0
  9
$USERI1
 70
         0
  9
$USERI2
 70
         0
  9
$USERI3
 70
         0
  9
$USERI4
 70
         0
  9
$USERI5
 70
         0
  9
$USERR1
 40
0.0
  9
$USERR2
 40
0.0
  9
$USERR3
 40
0.0
  9
$USERR4
 40
0.0
  9
$USERR5
 40
0.0
  9
$WORLDVIEW
 70
         1
  9
$SHADEDGE
 70
         3
  9
$SHADEDIF
 70
        70
  9
$TILEMODE
 70
         1
  9
$MAXACTVP
 70
        16
  9
$PINSBASE
 10
0.0
 20
0.0
 30
0.0
  9
$PLIMCHECK
 70
         0
  9
$PEXTMIN
 10
1.0000000000E+20
 20
1.0000000000E+20
 30
1.0000000000E+20
  9
$PEXTMAX
 10
-1.0000000000E+20
 20
-1.0000000000E+20
 30
-1.0000000000E+20
  9
$PLIMMIN
 10
0.0
 20
0.0
  9
$PLIMMAX
 10
12.0
 20
9.0
  9
$UNITMODE
 70
         0
  9
$VISRETAIN
 70
         0
  9
$PLINEGEN
 70
         1
  9
$PSLTSCALE
 70
         0
  9
$TREEDEPTH
 70
      3020
  9
$PICKSTYLE
 70
         1
  9
$CMLSTYLE
  2
STANDARD
  9
$CMLJUST
 70
         0
  9
$CMLSCALE
 40
1.0
  9
$PROXYGRAPHICS
 70
         0
  9
$MEASUREMENT
 70
         0
  0
ENDSEC
  0
SECTION
  2
CLASSES
  0
CLASS
  1
LWPOLYLINE
  2
AcDbPolyline
  3
"AutoCAD"
 90
        0
280
         0
281
         1
  0
CLASS
  1
IMAGE
  2
AcDbRasterImage
  3
ISM
 90
      127
280
         0
281
         1
  0
CLASS
  1
OLE2FRAME
  2
AcDbOle2Frame
  3
""
 90
        0
280
         0
281
         1
  0
CLASS
  1
HATCH
  2
AcDbHatch
  3
"ACAD_SEDONA"
 90
        0
280
         0
281
         1
  0
CLASS
  1
DICTIONARYVAR
  2
AcDbDictionaryVar
  3
"AutoCAD"
 90
        0
280
         0
281
         0
  0
CLASS
  1
RASTERVARIABLES
  2
AcDbRasterVariables
  3
ISM
 90
        0
280
         0
281
         0
  0
CLASS
  1
IMAGEDEF
  2
AcDbRasterImageDef
  3
ISM
 90
        0
280
         0
281
         0
  0
CLASS
  1
IMAGEDEF_REACTOR
  2
AcDbRasterImageDefReactor
  3
ISM
 90
        1
280
         0
281
         0
  0
CLASS
  1
IDBUFFER
  2
AcDbIdBuffer
  3
"Acad"
 90
        0
280
         0
281
         0
  0
CLASS
  1
SPATIAL_FILTER
  2
AcDbSpatialFilter
  3
"Acad"
 90
        0
280
         0
281
         0
  0
CLASS
  1
XRECORD
  2
AcDbXrecord
  3
"<Built In>"
 90
        0
280
         0
281
         0
  0
CLASS
  1
SORTENTSTABLE
  2
AcDbSortentsTable
  3
"AutoCAD"
 90
        0
280
         0
281
         0
  0
CLASS
  1
LAYER_INDEX
  2
AcDbLayerIndex
  3
"Acad"
 90
        0
280
         0
281
         0
  0
CLASS
  1
SPATIAL_INDEX
  2
AcDbSpatialIndex
  3
"Acad"
 90
        0
280
         0
281
         0
  0
CLASS
  1
OBJECT_PTR
  2
CAseDLPNTableRecord
  3
"ASE-LPNTableRecord"
 90
        1
280
         0
281
         0
  0
CLASS
  1
LAYOUT
  2
AcDbLayout
  3
"AutoCAD 2000"
 90
        1
280
         0
281
         0
  0
CLASS
  1
PLOTSETTINGS
  2
AcDbPlotSettings
  3
"AutoCAD 2000"
 90
        1
280
         0
281
         0
  0
CLASS
  1
ACDBDICTIONARYWDFLT
  2
AcDbDictionaryWithDefault
  3
"AutoCAD 2000"
 90
        1
280
         0
281
         0
  0
CLASS
  1
ACDBPLACEHOLDER
  2
AcDbPlaceHolder
  3
"AutoCAD 2000"
 90
        1
280
         0
281
         0
  0
CLASS
  1
VBA_PROJECT
  2
AcDbVbaProject
  3
"acadvba"
 90
        1
280
         0
281
         0
  0
CLASS
  1
WIPEOUT
  2
AcDbWipeout
  3
WipeOut|AutoCAD Express Tool|expresstools@autodesk.com
 90
      127
280
         0
281
         1
  0
CLASS
  1
WIPEOUTVARIABLES
  2
AcDbWipeoutVariables
  3
WipeOut|AutoCAD Express Tool|expresstools@autodesk.com
 90
        0
280
         0
281
         0
  0
CLASS
  1
RTEXT
  2
RText
  3
RText|AutoCAD Express Tool|expresstools@autodesk.com
 90
        0
280
         0
281
         1
  0
CLASS
  1
ARCALIGNEDTEXT
  2
AcDbArcAlignedText
  3
ATEXT|AutoCAD Express Tool|expresstools@autodesk.com
 90
        0
280
         0
281
         1
  0
ENDSEC
  0
SECTION
  2
TABLES
  0
TABLE
  2
VPORT
  5
7
100
AcDbSymbolTable
 70
         1
  0
VPORT
  5
15
100
AcDbSymbolTableRecord
100
AcDbViewportTableRecord
  2
*ACTIVE
 70
         0
 10
0.0
 20
0.0
 11
1.0
 21
1.0
 12
6.591288
 22
4.579184
 13
0.0
 23
0.0
 14
1.0
 24
1.0
 15
0.0
 25
0.0
 16
0.0
 26
0.0
 36
1.0
 17
0.0
 27
0.0
 37
0.0
 40
9.158369
 41
0.688564
 42
50.0
 43
0.0
 44
0.0
 50
0.0
 51
0.0
 71
         0
 72
       100
 73
         1
 74
         1
 75
         0
 76
         0
 77
         0
 78
         0
  0
ENDTAB
  0
TABLE
  2
LTYPE
  5
4
100
AcDbSymbolTable
 70
        13
  0
LTYPE
  5
11
100
AcDbSymbolTableRecord
100
AcDbLinetypeTableRecord
  2
BYBLOCK
 70
        64
  3

 72
        65
 73
         0
 40
0.0
  0
LTYPE
  5
12
100
AcDbSymbolTableRecord
100
AcDbLinetypeTableRecord
  2
BYLAYER
 70
        64
  3

 72
        65
 73
         0
 40
0.0
  0
LTYPE
  5
13
100
AcDbSymbolTableRecord
100
AcDbLinetypeTableRecord
  2
CONTINUOUS
 70
        64
  3
Solid line
 72
        65
 73
         0
 40
0.0
  0
LTYPE
  5
1E
100
AcDbSymbolTableRecord
100
AcDbLinetypeTableRecord
  2
DOTTED
 70
        64
  3
Dotted
 72
        65
 73
         2
 40
0.125
 49
0.0
 74
         0
 49
-0.125
 74
         0
  0
LTYPE
  5
1F
100
AcDbSymbolTableRecord
100
AcDbLinetypeTableRecord
  2
CENTER
 70
        64
  3
Center
 72
        65
 73
         4
 40
0.7699999809
 49
0.5
 74
         0
 49
-0.0724999979
 74
         0
 49
0.125
 74
         0
 49
-0.0724999979
 74
         0
  0
LTYPE
  5
20
100
AcDbSymbolTableRecord
100
AcDbLinetypeTableRecord
  2
DASHED
 70
        64
  3
Dashed
 72
        65
 73
         2
 40
0.375
 49
0.25
 74
         0
 49
-0.125
 74
         0
  0
LTYPE
  5
21
100
AcDbSymbolTableRecord
100
AcDbLinetypeTableRecord
  2
HIDDEN
 70
        64
  3
Hidden
 72
        65
 73
         2
 40
0.1974999905
 49
0.125
 74
         0
 49
-0.0724999979
 74
         0
  0
LTYPE
  5
22
100
AcDbSymbolTableRecord
100
AcDbLinetypeTableRecord
  2
PHANTOM
 70
        64
  3
Phantom
 72
        65
 73
         6
 40
0.9674999714
 49
0.5
 74
         0
 49
-0.0724999979
 74
         0
 49
0.125
 74
         0
 49
-0.0724999979
 74
         0
 49
0.125
 74
         0
 49
-0.0724999979
 74
         0
  0
LTYPE
  5
23
100
AcDbSymbolTableRecord
100
AcDbLinetypeTableRecord
  2
DASHDOT
 70
        64
  3
Dashdot
 72
        65
 73
         4
 40
0.6762499809
 49
0.5
 74
         0
 49
-0.0724999979
 74
         0
 49
0.03125
 74
         0
 49
-0.0724999979
 74
         0
  0
LTYPE
  5
24
100
AcDbSymbolTableRecord
100
AcDbLinetypeTableRecord
  2
BORDER
 70
        64
  3
Border
 72
        65
 73
         6
 40
1.2487499714
 49
0.5
 74
         0
 49
-0.0724999979
 74
         0
 49
0.5
 74
         0
 49
-0.0724999979
 74
         0
 49
0.03125
 74
         0
 49
-0.0724999979
 74
         0
  0
LTYPE
  5
25
100
AcDbSymbolTableRecord
100
AcDbLinetypeTableRecord
  2
DIVIDE
 70
        64
  3
Divide
 72
        65
 73
         6
 40
0.7799999714
 49
0.5
 74
         0
 49
-0.0724999979
 74
         0
 49
0.03125
 74
         0
 49
-0.0724999979
 74
         0
 49
0.03125
 74
         0
 49
-0.0724999979
 74
         0
  0
LTYPE
  5
26
100
AcDbSymbolTableRecord
100
AcDbLinetypeTableRecord
  2
CUTTING
 70
        64
  3
Cutting
 72
        65
 73
         6
 40
1.4674999714
 49
1.0
 74
         0
 49
-0.0724999979
 74
         0
 49
0.125
 74
         0
 49
-0.0724999979
 74
         0
 49
0.125
 74
         0
 49
-0.0724999979
 74
         0
  0
LTYPE
  5
27
100
AcDbSymbolTableRecord
100
AcDbLinetypeTableRecord
  2
STITCH
 70
        64
  3
Stitch
 72
        65
 73
         2
 40
0.1449999958
 49
0.0724999979
 74
         0
 49
-0.0724999979
 74
         0
  0
ENDTAB
  0
TABLE
  2
LAYER
  5
2
100
AcDbSymbolTable
 70
        11
  0
LAYER
  5
14
100
AcDbSymbolTableRecord
100
AcDbLayerTableRecord
  2
0
 70
         0
 62
         7
  6
CONTINUOUS
  0
LAYER
  5
28
100
AcDbSymbolTableRecord
100
AcDbLayerTableRecord
  2
DT_COMPONENTS
 70
         0
 62
         4
  6
CONTINUOUS
  0
LAYER
  5
29
100
AcDbSymbolTableRecord
100
AcDbLayerTableRecord
  2
CONSTRUCTION
 70
         0
 62
        -7
  6
CONTINUOUS
  0
LAYER
  5
2A
100
AcDbSymbolTableRecord
100
AcDbLayerTableRecord
  2
1_250BIT_500DEP
 70
         0
 62
         5
  6
CONTINUOUS
  0
LAYER
  5
2B
100
AcDbSymbolTableRecord
100
AcDbLayerTableRecord
  2
2_250BIT_250DEP
 70
         0
 62
         5
  6
CONTINUOUS
  0
LAYER
  5
2C
100
AcDbSymbolTableRecord
100
AcDbLayerTableRecord
  2
3_250BIT_500TAB
 70
         0
 62
         5
  6
CONTINUOUS
  0
LAYER
  5
2D
100
AcDbSymbolTableRecord
100
AcDbLayerTableRecord
  2
4_250BIT_250TAB
 70
         0
 62
         5
  6
CONTINUOUS
  0
LAYER
  5
2E
100
AcDbSymbolTableRecord
100
AcDbLayerTableRecord
  2
5_250BIT_250SPEC
 70
         0
 62
         5
  6
CONTINUOUS
  0
LAYER
  5
2F
100
AcDbSymbolTableRecord
100
AcDbLayerTableRecord
  2
6_125BIT_500DEP
 70
         0
 62
         5
  6
CONTINUOUS
  0
LAYER
  5
30
100
AcDbSymbolTableRecord
100
AcDbLayerTableRecord
  2
7_VCARVE_BIT
 70
         0
 62
         5
  6
CONTINUOUS
  0
LAYER
  5
31
100
AcDbSymbolTableRecord
100
AcDbLayerTableRecord
  2
8_250BIT_500OUTLINE
 70
         0
 62
         5
  6
CONTINUOUS
  0
ENDTAB
  0
TABLE
  2
STYLE
  5
3
100
AcDbSymbolTable
 70
         2
  0
STYLE
  5
17
100
AcDbSymbolTableRecord
100
AcDbTextStyleTableRecord
  2
STANDARD
 70
         0
 40
0.0
 41
1.0
 50
0.0
 71
         0
 42
0.0
  3
txt
  4

  0
STYLE
  5
1D
100
AcDbSymbolTableRecord
100
AcDbTextStyleTableRecord
  2
PLOTTER
 70
         0
 40
0.0
 41
0.98
 50
0.0
 71
         0
 42
0.0
  3
SIMPLEX
  4

  0
ENDTAB
  0
TABLE
  2
VIEW
  5
5
100
AcDbSymbolTable
 70
         0
  0
ENDTAB
  0
TABLE
  2
UCS
  5
6
100
AcDbSymbolTable
 70
         0
  0
ENDTAB
  0
TABLE
  2
APPID
  5
8
100
AcDbSymbolTable
 70
         1
  0
APPID
  5
16
100
AcDbSymbolTableRecord
100
AcDbRegAppTableRecord
  2
ACAD
 70
         0
  0
ENDTAB
  0
TABLE
  2
DIMSTYLE
  5
9
100
AcDbSymbolTable
 70
         1
  0
DIMSTYLE
105
18
100
AcDbSymbolTableRecord
100
AcDbDimStyleTableRecord
  2
STANDARD
 70
         0
  3

  4

  5

  6

  7

 40
1.0
 41
0.18
 42
0.0625
 43
0.38
 44
0.18
 45
0.0
 46
0.0
 47
0.0
 48
0.0
 71
         0
 72
         0
 73
         1
 74
         1
 75
         0
 76
         0
 77
         0
 78
         0
140
0.18
141
0.09
142
0.0
143
25.4
144
1.0
145
0.0
146
1.0
147
0.09
170
         0
171
         2
172
         0
173
         0
174
         0
175
         0
176
         0
177
         0
178
         0
270
         2
271
         4
272
         4
273
         2
274
         2
275
         0
280
         0
281
         0
282
         0
283
         1
284
         0
285
         0
286
         0
287
         0
288
         0
340
17
  0
ENDTAB
  0
TABLE
  2
BLOCK_RECORD
  5
1
100
AcDbSymbolTable
 70
         0
  0
BLOCK_RECORD
  5
A
100
AcDbSymbolTableRecord
100
AcDbBlockTableRecord
  2
*MODEL_SPACE
  0
BLOCK_RECORD
  5
B
100
AcDbSymbolTableRecord
100
AcDbBlockTableRecord
  2
*PAPER_SPACE
  0
ENDTAB
  0
ENDSEC
  0
SECTION
  2
BLOCKS
  0
BLOCK
  5
D
100
AcDbEntity
  8
0
100
AcDbBlockBegin
  2
*MODEL_SPACE
 70
         0
 10
0.0
 20
0.0
 30
0.0
  3
*MODEL_SPACE
  1

  0
ENDBLK
  5
E
100
AcDbEntity
  8
0
100
AcDbBlockEnd
  0
BLOCK
  5
F
100
AcDbEntity
 67
         1
  8
0
100
AcDbBlockBegin
  2
*PAPER_SPACE
 70
         0
 10
0.0
 20
0.0
 30
0.0
  3
*PAPER_SPACE
  1

  0
ENDBLK
  5
10
100
AcDbEntity
 67
         1
  8
0
100
AcDbBlockEnd
  0
ENDSEC
  0
SECTION
  2
ENTITIES
  0
CIRCLE
  5
32
100
AcDbEntity
  8
7_VCARVE_BIT
  6
CONTINUOUS
 62
         5
100
AcDbCircle
 10
17.3860225927
 20
32.0874690945
 30
0.0
 40
0.0445
  0
CIRCLE
  5
33
100
AcDbEntity
  8
7_VCARVE_BIT
  6
CONTINUOUS
 62
         5
100
AcDbCircle
 10
0.25
 20
39.0
 30
0.0
 40
0.0445
  0
CIRCLE
  5
34
100
AcDbEntity
  8
7_VCARVE_BIT
  6
CONTINUOUS
 62
         5
100
AcDbCircle
 10
0.25
 20
36.0
 30
0.0
 40
0.0445
  0
CIRCLE
  5
35
100
AcDbEntity
  8
7_VCARVE_BIT
  6
CONTINUOUS
 62
         5
100
AcDbCircle
 10
0.25
 20
32.0
 30
0.0
 40
0.0445
  0
CIRCLE
  5
36
100
AcDbEntity
  8
7_VCARVE_BIT
  6
CONTINUOUS
 62
         5
100
AcDbCircle
 10
0.25
 20
43.0
 30
0.0
 40
0.0445
  0
CIRCLE
  5
37
100
AcDbEntity
  8
7_VCARVE_BIT
  6
CONTINUOUS
 62
         5
100
AcDbCircle
 10
4.8513397129
 20
42.417079548
 30
0.0
 40
0.0445
  0
CIRCLE
  5
38
100
AcDbEntity
  8
7_VCARVE_BIT
  6
CONTINUOUS
 62
         5
100
AcDbCircle
 10
6.0040530006
 20
43.3768983207
 30
0.0
 40
0.0445
  0
CIRCLE
  5
39
100
AcDbEntity
  8
7_VCARVE_BIT
  6
CONTINUOUS
 62
         5
100
AcDbCircle
 10
12.8305
 20
43.3768983268
 30
0.0
 40
0.0445
  0
CIRCLE
  5
3A
100
AcDbEntity
  8
7_VCARVE_BIT
  6
CONTINUOUS
 62
         5
100
AcDbCircle
 10
2.439045582
 20
41.625
 30
0.0
 40
0.0445
  0
CIRCLE
  5
3B
100
AcDbEntity
  8
7_VCARVE_BIT
  6
CONTINUOUS
 62
         5
100
AcDbCircle
 10
3.6986264253
 20
41.4572607752
 30
0.0
 40
0.0445
  0
CIRCLE
  5
3C
100
AcDbEntity
  8
7_VCARVE_BIT
  6
CONTINUOUS
 62
         5
100
AcDbCircle
 10
2.5459131377
 20
40.4974420024
 30
0.0
 40
0.0445
  0
CIRCLE
  5
3D
100
AcDbEntity
  8
2_250BIT_250DEP
  6
CONTINUOUS
 62
         3
100
AcDbCircle
 10
4.2420583498
 20
39.6325192199
 30
0.0
 40
0.38
  0
CIRCLE
  5
3E
100
AcDbEntity
  8
2_250BIT_250DEP
  6
CONTINUOUS
 62
         3
100
AcDbCircle
 10
16.0079416502
 20
39.6325192199
 30
0.0
 40
0.38
  0
CIRCLE
  5
3F
100
AcDbEntity
  8
2_250BIT_250DEP
  6
CONTINUOUS
 62
         3
100
AcDbCircle
 10
9.5321085302
 20
41.6867922047
 30
0.0
 40
0.38
  0
CIRCLE
  5
40
100
AcDbEntity
  8
2_250BIT_250DEP
  6
CONTINUOUS
 62
         3
100
AcDbCircle
 10
8.3326088976
 20
41.6867922047
 30
0.0
 40
0.38
  0
CIRCLE
  5
41
100
AcDbEntity
  8
2_250BIT_250DEP
  6
CONTINUOUS
 62
         3
100
AcDbCircle
 10
6.547484925
 20
41.5521567655
 30
0.0
 40
0.38
  0
CIRCLE
  5
42
100
AcDbEntity
  8
2_250BIT_250DEP
  6
CONTINUOUS
 62
         3
100
AcDbCircle
 10
5.3947716374
 20
40.5923379927
 30
0.0
 40
0.38
  0
CIRCLE
  5
43
100
AcDbEntity
  8
2_250BIT_250DEP
  6
CONTINUOUS
 62
         3
100
AcDbCircle
 10
10.7316081627
 20
41.6867922047
 30
0.0
 40
0.38
  0
CIRCLE
  5
44
100
AcDbEntity
  8
2_250BIT_250DEP
  6
CONTINUOUS
 62
         3
100
AcDbCircle
 10
11.9311077953
 20
41.6867922047
 30
0.0
 40
0.38
  0
CIRCLE
  5
45
100
AcDbEntity
  8
2_250BIT_250DEP
  6
CONTINUOUS
 62
         3
100
AcDbCircle
 10
14.8552283626
 20
40.5923379927
 30
0.0
 40
0.38
  0
CIRCLE
  5
46
100
AcDbEntity
  8
2_250BIT_250DEP
  6
CONTINUOUS
 62
         3
100
AcDbCircle
 10
13.702515075
 20
41.5521567655
 30
0.0
 40
0.38
  0
CIRCLE
  5
47
100
AcDbEntity
  8
7_VCARVE_BIT
  6
CONTINUOUS
 62
         5
100
AcDbCircle
 10
7.4195
 20
43.3768983268
 30
0.0
 40
0.0445
  0
CIRCLE
  5
48
100
AcDbEntity
  8
7_VCARVE_BIT
  6
CONTINUOUS
 62
         5
100
AcDbCircle
 10
15.3986602871
 20
42.417079548
 30
0.0
 40
0.0445
  0
CIRCLE
  5
49
100
AcDbEntity
  8
7_VCARVE_BIT
  6
CONTINUOUS
 62
         5
100
AcDbCircle
 10
14.2459469994
 20
43.3768983207
 30
0.0
 40
0.0445
  0
CIRCLE
  5
4A
100
AcDbEntity
  8
7_VCARVE_BIT
  6
CONTINUOUS
 62
         5
100
AcDbCircle
 10
20.0
 20
43.0
 30
0.0
 40
0.0445
  0
CIRCLE
  5
4B
100
AcDbEntity
  8
7_VCARVE_BIT
  6
CONTINUOUS
 62
         5
100
AcDbCircle
 10
17.810954418
 20
42.625
 30
0.0
 40
0.0445
  0
CIRCLE
  5
4C
100
AcDbEntity
  8
7_VCARVE_BIT
  6
CONTINUOUS
 62
         5
100
AcDbCircle
 10
20.0
 20
39.0
 30
0.0
 40
0.0445
  0
CIRCLE
  5
4D
100
AcDbEntity
  8
7_VCARVE_BIT
  6
CONTINUOUS
 62
         5
100
AcDbCircle
 10
19.120930869
 20
38.0752125845
 30
0.0
 40
0.0625
  0
CIRCLE
  5
4E
100
AcDbEntity
  8
7_VCARVE_BIT
  6
CONTINUOUS
 62
         5
100
AcDbCircle
 10
18.6469074864
 20
38.0700023391
 30
0.0
 40
0.0575
  0
CIRCLE
  5
4F
100
AcDbEntity
  8
7_VCARVE_BIT
  6
CONTINUOUS
 62
         5
100
AcDbCircle
 10
15.75
 20
43.5
 30
0.0
 40
0.0445
  0
CIRCLE
  5
50
100
AcDbEntity
  8
7_VCARVE_BIT
  6
CONTINUOUS
 62
         5
100
AcDbCircle
 10
18.75
 20
43.5
 30
0.0
 40
0.0445
  0
CIRCLE
  5
51
100
AcDbEntity
  8
7_VCARVE_BIT
  6
CONTINUOUS
 62
         5
100
AcDbCircle
 10
2.439045582
 20
42.625
 30
0.0
 40
0.0445
  0
CIRCLE
  5
52
100
AcDbEntity
  8
7_VCARVE_BIT
  6
CONTINUOUS
 62
         5
100
AcDbCircle
 10
4.5
 20
43.5
 30
0.0
 40
0.0445
  0
CIRCLE
  5
53
100
AcDbEntity
  8
7_VCARVE_BIT
  6
CONTINUOUS
 62
         5
100
AcDbCircle
 10
1.5
 20
43.5
 30
0.0
 40
0.0445
  0
CIRCLE
  5
54
100
AcDbEntity
  8
7_VCARVE_BIT
  6
CONTINUOUS
 62
         5
100
AcDbCircle
 10
1.1317381003
 20
38.0702950014
 30
0.0
 40
0.0625
  0
CIRCLE
  5
55
100
AcDbEntity
  8
7_VCARVE_BIT
  6
CONTINUOUS
 62
         5
100
AcDbCircle
 10
1.6031233411
 20
38.0702950014
 30
0.0
 40
0.0575
  0
CIRCLE
  5
56
100
AcDbEntity
  8
7_VCARVE_BIT
  6
CONTINUOUS
 62
         5
100
AcDbCircle
 10
2.8453889149
 20
32.033427061
 30
0.0
 40
0.0445
  0
CIRCLE
  5
57
100
AcDbEntity
  8
7_VCARVE_BIT
  6
CONTINUOUS
 62
         5
100
AcDbCircle
 10
3.0050733833
 20
34.3559003186
 30
0.0
 40
0.0445
  0
CIRCLE
  5
58
100
AcDbEntity
  8
7_VCARVE_BIT
  6
CONTINUOUS
 62
         5
100
AcDbCircle
 10
3.8471338627
 20
31.7671546598
 30
0.0
 40
0.0625
  0
CIRCLE
  5
59
100
AcDbEntity
  8
7_VCARVE_BIT
  6
CONTINUOUS
 62
         5
100
AcDbCircle
 10
16.384277645
 20
31.8211966934
 30
0.0
 40
0.0625
  0
CIRCLE
  5
5A
100
AcDbEntity
  8
7_VCARVE_BIT
  6
CONTINUOUS
 62
         5
100
AcDbCircle
 10
17.810954418
 20
41.625
 30
0.0
 40
0.0445
  0
CIRCLE
  5
5B
100
AcDbEntity
  8
7_VCARVE_BIT
  6
CONTINUOUS
 62
         5
100
AcDbCircle
 10
16.5513735747
 20
41.4572607752
 30
0.0
 40
0.0445
  0
CIRCLE
  5
5C
100
AcDbEntity
  8
7_VCARVE_BIT
  6
CONTINUOUS
 62
         5
100
AcDbCircle
 10
17.7040868623
 20
40.4974420024
 30
0.0
 40
0.0445
  0
CIRCLE
  5
5D
100
AcDbEntity
  8
7_VCARVE_BIT
  6
CONTINUOUS
 62
         5
100
AcDbCircle
 10
17.0934911672
 20
42.1083275912
 30
0.0
 40
0.0625
  0
CIRCLE
  5
5E
100
AcDbEntity
  8
7_VCARVE_BIT
  6
CONTINUOUS
 62
         5
100
AcDbCircle
 10
20.0
 20
36.0
 30
0.0
 40
0.0445
  0
CIRCLE
  5
5F
100
AcDbEntity
  8
7_VCARVE_BIT
  6
CONTINUOUS
 62
         5
100
AcDbCircle
 10
20.0
 20
32.0
 30
0.0
 40
0.0445
  0
ARC
  5
60
100
AcDbEntity
  8
1_250BIT_500DEP
  6
CONTINUOUS
 62
         5
100
AcDbCircle
 10
8.0201088976
 20
42.9367922047
 30
0.0
 40
0.25
100
AcDbArc
 50
90.0
 51
-90.0
  0
ARC
  5
61
100
AcDbEntity
  8
1_250BIT_500DEP
  6
CONTINUOUS
 62
         5
100
AcDbCircle
 10
12.2436077953
 20
42.9367922047
 30
0.0
 40
0.25
100
AcDbArc
 50
-90.0
 51
90.0
  0
LINE
  5
62
100
AcDbEntity
  8
1_250BIT_500DEP
  6
CONTINUOUS
 62
         5
100
AcDbLine
 10
5.3475175506
 20
42.5049078087
 30
0.0
 11
5.8278147538
 21
42.9048322974
 31
0.0
  0
ARC
  5
63
100
AcDbEntity
  8
1_250BIT_500DEP
  6
CONTINUOUS
 62
         5
100
AcDbCircle
 10
5.9877845493
 20
42.7127134161
 30
0.0
 40
0.25
100
AcDbArc
 50
-50.2171890157
 51
129.7828109843
  0
ARC
  5
64
100
AcDbEntity
  8
1_250BIT_500DEP
  6
CONTINUOUS
 62
         5
100
AcDbCircle
 10
14.2622154507
 20
42.7127134161
 30
0.0
 40
0.25
100
AcDbArc
 50
50.2171890157
 51
-129.7828109843
  0
LINE
  5
65
100
AcDbEntity
  8
1_250BIT_500DEP
  6
CONTINUOUS
 62
         5
100
AcDbLine
 10
14.5825428585
 20
42.1206700462
 30
0.0
 11
14.1022456553
 21
42.5205945349
 31
0.0
  0
LINE
  5
66
100
AcDbEntity
  8
1_250BIT_500DEP
  6
CONTINUOUS
 62
         5
100
AcDbLine
 10
14.4221852462
 20
42.9048322974
 30
0.0
 11
14.9024824494
 21
42.5049078087
 31
0.0
  0
ARC
  5
67
100
AcDbEntity
  8
1_250BIT_500DEP
  6
CONTINUOUS
 62
         5
100
AcDbCircle
 10
14.7425126539
 20
42.3127889275
 30
0.0
 40
0.25
100
AcDbArc
 50
-129.7828109843
 51
50.2171890157
  0
LINE
  5
68
100
AcDbEntity
  8
1_250BIT_500DEP
  6
CONTINUOUS
 62
         5
100
AcDbLine
 10
12.2436077953
 20
42.6867922047
 30
0.0
 11
8.0201088976
 21
42.6867922047
 31
0.0
  0
ARC
  5
69
100
AcDbEntity
  8
1_250BIT_500DEP
  6
CONTINUOUS
 62
         5
100
AcDbCircle
 10
16.567642026
 20
40.7930758706
 30
0.0
 40
0.25
100
AcDbArc
 50
50.2171890157
 51
-129.7828109843
  0
LINE
  5
6A
100
AcDbEntity
  8
1_250BIT_500DEP
  6
CONTINUOUS
 62
         5
100
AcDbLine
 10
16.8879694337
 20
40.2010325007
 30
0.0
 11
16.4076722305
 21
40.6009569893
 31
0.0
  0
LINE
  5
6B
100
AcDbEntity
  8
1_250BIT_500DEP
  6
CONTINUOUS
 62
         5
100
AcDbLine
 10
16.7276118214
 20
40.9851947519
 30
0.0
 11
17.2079090246
 21
40.5852702632
 31
0.0
  0
ARC
  5
6C
100
AcDbEntity
  8
1_250BIT_500DEP
  6
CONTINUOUS
 62
         5
100
AcDbCircle
 10
17.0479392291
 20
40.3931513819
 30
0.0
 40
0.25
100
AcDbArc
 50
-129.7828109843
 51
50.2171890158
  0
ARC
  5
6D
100
AcDbEntity
  8
1_250BIT_500DEP
  6
CONTINUOUS
 62
         5
100
AcDbCircle
 10
4.3547740585
 20
41.3529701547
 30
0.0
 40
0.25
100
AcDbArc
 50
129.7828109843
 51
-50.2171890157
  0
LINE
  5
6E
100
AcDbEntity
  8
1_250BIT_500DEP
  6
CONTINUOUS
 62
         5
100
AcDbLine
 10
4.9950410571
 20
41.5607757621
 30
0.0
 11
4.5147438539
 21
41.1608512734
 31
0.0
  0
LINE
  5
6F
100
AcDbEntity
  8
1_250BIT_500DEP
  6
CONTINUOUS
 62
         5
100
AcDbLine
 10
4.194804263
 20
41.545089036
 30
0.0
 11
4.6751014662
 21
41.9450135246
 31
0.0
  0
ARC
  5
70
100
AcDbEntity
  8
1_250BIT_500DEP
  6
CONTINUOUS
 62
         5
100
AcDbCircle
 10
4.8350712616
 20
41.7528946434
 30
0.0
 40
0.25
100
AcDbArc
 50
-50.2171890157
 51
129.7828109843
  0
ARC
  5
71
100
AcDbEntity
  8
1_250BIT_500DEP
  6
CONTINUOUS
 62
         5
100
AcDbCircle
 10
15.4149287384
 20
41.7528946434
 30
0.0
 40
0.25
100
AcDbArc
 50
50.2171890157
 51
-129.7828109843
  0
LINE
  5
72
100
AcDbEntity
  8
1_250BIT_500DEP
  6
CONTINUOUS
 62
         5
100
AcDbLine
 10
15.7352561461
 20
41.1608512734
 30
0.0
 11
15.2549589429
 21
41.5607757621
 31
0.0
  0
LINE
  5
73
100
AcDbEntity
  8
1_250BIT_500DEP
  6
CONTINUOUS
 62
         5
100
AcDbLine
 10
15.5748985338
 20
41.9450135246
 30
0.0
 11
16.055195737
 21
41.545089036
 31
0.0
  0
ARC
  5
74
100
AcDbEntity
  8
1_250BIT_500DEP
  6
CONTINUOUS
 62
         5
100
AcDbCircle
 10
15.8952259415
 20
41.3529701547
 30
0.0
 40
0.25
100
AcDbArc
 50
-129.7828109843
 51
50.2171890157
  0
CIRCLE
  5
75
100
AcDbEntity
  8
7_VCARVE_BIT
  6
CONTINUOUS
 62
         5
100
AcDbCircle
 10
3.1565088328
 20
42.1083275912
 30
0.0
 40
0.0625
  0
CIRCLE
  5
76
100
AcDbEntity
  8
7_VCARVE_BIT
  6
CONTINUOUS
 62
         5
100
AcDbCircle
 10
14.2599092325
 20
30.742384204
 30
0.0
 40
0.0445
  0
CIRCLE
  5
77
100
AcDbEntity
  8
7_VCARVE_BIT
  6
CONTINUOUS
 62
         5
100
AcDbCircle
 10
5.9719932387
 20
30.6855350879
 30
0.0
 40
0.0445
  0
CIRCLE
  5
78
100
AcDbEntity
  8
7_VCARVE_BIT
  6
CONTINUOUS
 62
         5
100
AcDbCircle
 10
17.226330388
 20
34.4099597638
 30
0.0
 40
0.0445
  0
CIRCLE
  5
79
100
AcDbEntity
  8
1_250BIT_500DEP
  6
CONTINUOUS
 62
         5
100
AcDbCircle
 10
6.547484925
 20
41.5521567655
 30
0.0
 40
0.3124614934
  0
CIRCLE
  5
7A
100
AcDbEntity
  8
1_250BIT_500DEP
  6
CONTINUOUS
 62
         5
100
AcDbCircle
 10
5.3947716374
 20
40.5923379927
 30
0.0
 40
0.3124614934
  0
CIRCLE
  5
7B
100
AcDbEntity
  8
1_250BIT_500DEP
  6
CONTINUOUS
 62
         5
100
AcDbCircle
 10
6.6595601631
 20
30.1555555538
 30
0.0
 40
0.25
  0
CIRCLE
  5
7C
100
AcDbEntity
  8
1_250BIT_500DEP
  6
CONTINUOUS
 62
         5
100
AcDbCircle
 10
16.0079416502
 20
39.6325192199
 30
0.0
 40
0.3124614934
  0
CIRCLE
  5
7D
100
AcDbEntity
  8
1_250BIT_500DEP
  6
CONTINUOUS
 62
         5
100
AcDbCircle
 10
4.2420583498
 20
39.6325192199
 30
0.0
 40
0.3124614934
  0
CIRCLE
  5
7E
100
AcDbEntity
  8
1_250BIT_500DEP
  6
CONTINUOUS
 62
         5
100
AcDbCircle
 10
1.3290099691
 20
42.3987960974
 30
0.0
 40
0.59375
  0
CIRCLE
  5
7F
100
AcDbEntity
  8
1_250BIT_500DEP
  6
CONTINUOUS
 62
         5
100
AcDbCircle
 10
18.9209900309
 20
42.3987960974
 30
0.0
 40
0.59375
  0
CIRCLE
  5
80
100
AcDbEntity
  8
1_250BIT_500DEP
  6
CONTINUOUS
 62
         5
100
AcDbCircle
 10
10.7316081627
 20
41.6867922047
 30
0.0
 40
0.3124614934
  0
CIRCLE
  5
81
100
AcDbEntity
  8
1_250BIT_500DEP
  6
CONTINUOUS
 62
         5
100
AcDbCircle
 10
11.9311077953
 20
41.6867922047
 30
0.0
 40
0.3124614934
  0
CIRCLE
  5
82
100
AcDbEntity
  8
1_250BIT_500DEP
  6
CONTINUOUS
 62
         5
100
AcDbCircle
 10
14.8552283626
 20
40.5923379927
 30
0.0
 40
0.3124614934
  0
CIRCLE
  5
83
100
AcDbEntity
  8
1_250BIT_500DEP
  6
CONTINUOUS
 62
         5
100
AcDbCircle
 10
8.3326088976
 20
41.6867922047
 30
0.0
 40
0.3124614934
  0
CIRCLE
  5
84
100
AcDbEntity
  8
1_250BIT_500DEP
  6
CONTINUOUS
 62
         5
100
AcDbCircle
 10
3.3463169388
 20
33.2300384333
 30
0.0
 40
0.25
  0
CIRCLE
  5
85
100
AcDbEntity
  8
1_250BIT_500DEP
  6
CONTINUOUS
 62
         5
100
AcDbCircle
 10
13.5718755512
 20
30.154166663
 30
0.0
 40
0.25
  0
CIRCLE
  5
86
100
AcDbEntity
  8
1_250BIT_500DEP
  6
CONTINUOUS
 62
         5
100
AcDbCircle
 10
13.702515075
 20
41.5521567655
 30
0.0
 40
0.3124614934
  0
CIRCLE
  5
87
100
AcDbEntity
  8
1_250BIT_500DEP
  6
CONTINUOUS
 62
         5
100
AcDbCircle
 10
16.9366924018
 20
33.2513818989
 30
0.0
 40
0.25
  0
CIRCLE
  5
88
100
AcDbEntity
  8
1_250BIT_500DEP
  6
CONTINUOUS
 62
         5
100
AcDbCircle
 10
9.5321085302
 20
41.6867922047
 30
0.0
 40
0.3124614934
  0
CIRCLE
  5
89
100
AcDbEntity
  8
1_250BIT_500DEP
  6
CONTINUOUS
 62
         5
100
AcDbCircle
 10
0.7685926649
 20
38.5267144097
 30
0.0
 40
0.25
  0
CIRCLE
  5
8A
100
AcDbEntity
  8
1_250BIT_500DEP
  6
CONTINUOUS
 62
         5
100
AcDbCircle
 10
19.4970504104
 20
38.5548347782
 30
0.0
 40
0.25
  0
ARC
  5
8B
100
AcDbEntity
  8
1_250BIT_500DEP
  6
CONTINUOUS
 62
         5
100
AcDbCircle
 10
3.2020607709
 20
40.3931513819
 30
0.0
 40
0.25
100
AcDbArc
 50
129.7828109843
 51
-50.2171890157
  0
LINE
  5
8C
100
AcDbEntity
  8
1_250BIT_500DEP
  6
CONTINUOUS
 62
         5
100
AcDbLine
 10
3.8423277695
 20
40.6009569893
 30
0.0
 11
3.3620305663
 21
40.2010325007
 31
0.0
  0
LINE
  5
8D
100
AcDbEntity
  8
1_250BIT_500DEP
  6
CONTINUOUS
 62
         5
100
AcDbLine
 10
3.0420909754
 20
40.5852702632
 30
0.0
 11
3.5223881786
 21
40.9851947519
 31
0.0
  0
ARC
  5
8E
100
AcDbEntity
  8
1_250BIT_500DEP
  6
CONTINUOUS
 62
         5
100
AcDbCircle
 10
3.682357974
 20
40.7930758706
 30
0.0
 40
0.25
100
AcDbArc
 50
-50.2171890157
 51
129.7828109843
  0
ARC
  5
8F
100
AcDbEntity
  8
1_250BIT_500DEP
  6
CONTINUOUS
 62
         5
100
AcDbCircle
 10
5.5074873461
 20
42.3127889275
 30
0.0
 40
0.25
100
AcDbArc
 50
129.7828109843
 51
-50.2171890157
  0
LINE
  5
90
100
AcDbEntity
  8
1_250BIT_500DEP
  6
CONTINUOUS
 62
         5
100
AcDbLine
 10
6.1477543447
 20
42.5205945349
 30
0.0
 11
5.6674571415
 21
42.1206700462
 31
0.0
  0
LINE
  5
91
100
AcDbEntity
  8
1_250BIT_500DEP
  6
CONTINUOUS
 62
         5
100
AcDbLine
 10
8.0201088976
 20
43.1867922047
 30
0.0
 11
12.2436077953
 21
43.1867922047
 31
0.0
  0
LINE
  5
92
102
{ACAD_REACTORS
330
96
102
}
100
AcDbEntity
  8
DT_COMPONENTS
  6
CONTINUOUS
 62
         4
100
AcDbLine
 10
18.060902937
 20
41.0
 30
0.0
 11
18.060902937
 21
43.25
 31
0.0
  0
LINE
  5
93
102
{ACAD_REACTORS
330
96
102
}
100
AcDbEntity
  8
DT_COMPONENTS
  6
CONTINUOUS
 62
         4
100
AcDbLine
 10
18.060902937
 20
43.25
 30
0.0
 11
17.560902937
 21
43.25
 31
0.0
  0
LINE
  5
94
102
{ACAD_REACTORS
330
96
102
}
100
AcDbEntity
  8
DT_COMPONENTS
  6
CONTINUOUS
 62
         4
100
AcDbLine
 10
17.560902937
 20
43.25
 30
0.0
 11
17.560902937
 21
41.0
 31
0.0
  0
LINE
  5
95
102
{ACAD_REACTORS
330
96
102
}
100
AcDbEntity
  8
DT_COMPONENTS
  6
CONTINUOUS
 62
         4
100
AcDbLine
 10
17.560902937
 20
41.0
 30
0.0
 11
18.060902937
 21
41.0
 31
0.0
  0
CIRCLE
  5
97
102
{ACAD_REACTORS
330
9A
102
}
100
AcDbEntity
  8
DT_COMPONENTS
  6
CONTINUOUS
 62
         4
100
AcDbCircle
 10
2.8453889149
 20
32.033427061
 30
0.0
 40
0.4
  0
CIRCLE
  5
98
102
{ACAD_REACTORS
330
9A
102
}
100
AcDbEntity
  8
DT_COMPONENTS
  6
CONTINUOUS
 62
         4
100
AcDbCircle
 10
2.8453889149
 20
32.033427061
 30
0.0
 40
0.35
  0
CIRCLE
  5
99
102
{ACAD_REACTORS
330
9A
102
}
100
AcDbEntity
  8
DT_COMPONENTS
  6
CONTINUOUS
 62
         4
100
AcDbCircle
 10
2.8453889149
 20
32.033427061
 30
0.0
 40
0.215
  0
CIRCLE
  5
9B
102
{ACAD_REACTORS
330
9E
102
}
100
AcDbEntity
  8
DT_COMPONENTS
  6
CONTINUOUS
 62
         4
100
AcDbCircle
 10
3.6986264253
 20
41.4572607752
 30
0.0
 40
0.4
  0
CIRCLE
  5
9C
102
{ACAD_REACTORS
330
9E
102
}
100
AcDbEntity
  8
DT_COMPONENTS
  6
CONTINUOUS
 62
         4
100
AcDbCircle
 10
3.6986264253
 20
41.4572607752
 30
0.0
 40
0.35
  0
CIRCLE
  5
9D
102
{ACAD_REACTORS
330
9E
102
}
100
AcDbEntity
  8
DT_COMPONENTS
  6
CONTINUOUS
 62
         4
100
AcDbCircle
 10
3.6986264253
 20
41.4572607752
 30
0.0
 40
0.215
  0
CIRCLE
  5
9F
102
{ACAD_REACTORS
330
A2
102
}
100
AcDbEntity
  8
DT_COMPONENTS
  6
CONTINUOUS
 62
         4
100
AcDbCircle
 10
2.5459131377
 20
40.4974420024
 30
0.0
 40
0.4
  0
CIRCLE
  5
A0
102
{ACAD_REACTORS
330
A2
102
}
100
AcDbEntity
  8
DT_COMPONENTS
  6
CONTINUOUS
 62
         4
100
AcDbCircle
 10
2.5459131377
 20
40.4974420024
 30
0.0
 40
0.35
  0
CIRCLE
  5
A1
102
{ACAD_REACTORS
330
A2
102
}
100
AcDbEntity
  8
DT_COMPONENTS
  6
CONTINUOUS
 62
         4
100
AcDbCircle
 10
2.5459131377
 20
40.4974420024
 30
0.0
 40
0.215
  0
CIRCLE
  5
A3
102
{ACAD_REACTORS
330
A6
102
}
100
AcDbEntity
  8
DT_COMPONENTS
  6
CONTINUOUS
 62
         4
100
AcDbCircle
 10
3.0050733833
 20
34.3559003186
 30
0.0
 40
0.4
  0
CIRCLE
  5
A4
102
{ACAD_REACTORS
330
A6
102
}
100
AcDbEntity
  8
DT_COMPONENTS
  6
CONTINUOUS
 62
         4
100
AcDbCircle
 10
3.0050733833
 20
34.3559003186
 30
0.0
 40
0.35
  0
CIRCLE
  5
A5
102
{ACAD_REACTORS
330
A6
102
}
100
AcDbEntity
  8
DT_COMPONENTS
  6
CONTINUOUS
 62
         4
100
AcDbCircle
 10
3.0050733833
 20
34.3559003186
 30
0.0
 40
0.215
  0
LINE
  5
A7
102
{ACAD_REACTORS
330
BB
102
}
100
AcDbEntity
  8
DT_COMPONENTS
  6
CONTINUOUS
 62
         4
100
AcDbLine
 10
3.3885358114
 20
40.345102714
 30
0.0
 11
3.1005901795
 21
40.6909167002
 31
0.0
  0
LINE
  5
A8
102
{ACAD_REACTORS
330
BB
102
}
100
AcDbEntity
  8
DT_COMPONENTS
  6
CONTINUOUS
 62
         4
100
AcDbLine
 10
3.4079803896
 20
40.946868373
 30
0.0
 11
3.6959260214
 21
40.6010543867
 31
0.0
  0
LINE
  5
A9
102
{ACAD_REACTORS
330
BB
102
}
100
AcDbEntity
  8
DT_COMPONENTS
  6
CONTINUOUS
 62
         4
100
AcDbLine
 10
3.0940052357
 20
40.2299865119
 30
0.0
 11
3.1579931538
 21
40.1531389594
 31
0.0
  0
LINE
  5
AA
102
{ACAD_REACTORS
330
BB
102
}
100
AcDbEntity
  8
DT_COMPONENTS
  6
CONTINUOUS
 62
         4
100
AcDbLine
 10
3.8624807607
 20
40.8698656938
 30
0.0
 11
3.0940052357
 21
40.2299865119
 31
0.0
  0
LINE
  5
AB
102
{ACAD_REACTORS
330
BB
102
}
100
AcDbEntity
  8
DT_COMPONENTS
  6
CONTINUOUS
 62
         4
100
AcDbLine
 10
3.1579931538
 20
40.1531389594
 30
0.0
 11
3.9264686789
 21
40.7930181413
 31
0.0
  0
LINE
  5
AC
102
{ACAD_REACTORS
330
BB
102
}
100
AcDbEntity
  8
DT_COMPONENTS
  6
CONTINUOUS
 62
         4
100
AcDbLine
 10
3.0099823114
 20
40.2332208113
 30
0.0
 11
3.0099823114
 21
40.2332208113
 31
0.0
  0
LINE
  5
AD
102
{ACAD_REACTORS
330
BB
102
}
100
AcDbEntity
  8
DT_COMPONENTS
  6
CONTINUOUS
 62
         4
100
AcDbLine
 10
3.8745172771
 20
40.9530848909
 30
0.0
 11
3.8745172771
 21
40.9530848909
 31
0.0
  0
LINE
  5
AE
102
{ACAD_REACTORS
330
BB
102
}
100
AcDbEntity
  8
DT_COMPONENTS
  6
CONTINUOUS
 62
         4
100
AcDbLine
 10
3.9264686789
 20
40.7930181413
 30
0.0
 11
3.8624807607
 21
40.8698656938
 31
0.0
  0
LINE
  5
AF
102
{ACAD_REACTORS
330
BB
102
}
100
AcDbEntity
  8
DT_COMPONENTS
  6
CONTINUOUS
 62
         4
100
AcDbLine
 10
3.6959260214
 20
40.6010543867
 30
0.0
 11
3.3885358114
 21
40.345102714
 31
0.0
  0
LINE
  5
B0
102
{ACAD_REACTORS
330
BB
102
}
100
AcDbEntity
  8
DT_COMPONENTS
  6
CONTINUOUS
 62
         4
100
AcDbLine
 10
3.3942200739
 20
40.5531604023
 30
0.0
 11
3.3942200739
 21
40.5531604023
 31
0.0
  0
LINE
  5
B1
102
{ACAD_REACTORS
330
BB
102
}
100
AcDbEntity
  8
DT_COMPONENTS
  6
CONTINUOUS
 62
         4
100
AcDbLine
 10
3.1697529768
 20
40.7485058266
 30
0.0
 11
3.1057650586
 21
40.8253533791
 31
0.0
  0
LINE
  5
B2
102
{ACAD_REACTORS
330
BB
102
}
100
AcDbEntity
  8
DT_COMPONENTS
  6
CONTINUOUS
 62
         4
100
AcDbLine
 10
3.2748296741
 20
40.9661267991
 30
0.0
 11
3.3388175923
 21
40.8892792466
 31
0.0
  0
LINE
  5
B3
102
{ACAD_REACTORS
330
BB
102
}
100
AcDbEntity
  8
DT_COMPONENTS
  6
CONTINUOUS
 62
         4
100
AcDbLine
 10
3.1057650586
 20
40.8253533791
 30
0.0
 11
3.2748296741
 21
40.9661267991
 31
0.0
  0
LINE
  5
B4
102
{ACAD_REACTORS
330
BB
102
}
100
AcDbEntity
  8
DT_COMPONENTS
  6
CONTINUOUS
 62
         4
100
AcDbLine
 10
3.1685773426
 20
40.6092661757
 30
0.0
 11
3.1285848937
 21
40.657295896
 31
0.0
  0
LINE
  5
B5
102
{ACAD_REACTORS
330
BB
102
}
100
AcDbEntity
  8
DT_COMPONENTS
  6
CONTINUOUS
 62
         4
100
AcDbLine
 10
3.4759675526
 20
40.8652178484
 30
0.0
 11
3.1685773426
 21
40.6092661757
 31
0.0
  0
LINE
  5
B6
102
{ACAD_REACTORS
330
BB
102
}
100
AcDbEntity
  8
DT_COMPONENTS
  6
CONTINUOUS
 62
         4
100
AcDbLine
 10
3.4359751038
 20
40.9132475688
 30
0.0
 11
3.4759675526
 21
40.8652178484
 31
0.0
  0
LINE
  5
B7
102
{ACAD_REACTORS
330
BB
102
}
100
AcDbEntity
  8
DT_COMPONENTS
  6
CONTINUOUS
 62
         4
100
AcDbLine
 10
3.1285848937
 20
40.657295896
 30
0.0
 11
3.4359751038
 21
40.9132475688
 31
0.0
  0
LINE
  5
B8
102
{ACAD_REACTORS
330
BB
102
}
100
AcDbEntity
  8
DT_COMPONENTS
  6
CONTINUOUS
 62
         4
100
AcDbLine
 10
3.3388175923
 20
40.8892792466
 30
0.0
 11
3.1697529768
 21
40.7485058266
 31
0.0
  0
LINE
  5
B9
102
{ACAD_REACTORS
330
BB
102
}
100
AcDbEntity
  8
DT_COMPONENTS
  6
CONTINUOUS
 62
         4
100
AcDbLine
 10
3.1005901795
 20
40.6909167002
 30
0.0
 11
3.4079803896
 21
40.946868373
 31
0.0
  0
LINE
  5
BA
102
{ACAD_REACTORS
330
BB
102
}
100
AcDbEntity
  8
DT_COMPONENTS
  6
CONTINUOUS
 62
         4
100
AcDbLine
 10
3.8745172771
 20
40.9530848909
 30
0.0
 11
3.8745172771
 21
40.9530848909
 31
0.0
  0
LINE
  5
BC
102
{ACAD_REACTORS
330
C0
102
}
100
AcDbEntity
  8
DT_COMPONENTS
  6
CONTINUOUS
 62
         4
100
AcDbLine
 10
14.75
 20
43.75
 30
0.0
 11
19.75
 21
43.75
 31
0.0
  0
LINE
  5
BD
102
{ACAD_REACTORS
330
C0
102
}
100
AcDbEntity
  8
DT_COMPONENTS
  6
CONTINUOUS
 62
         4
100
AcDbLine
 10
19.75
 20
43.75
 30
0.0
 11
19.75
 21
43.25
 31
0.0
  0
LINE
  5
BE
102
{ACAD_REACTORS
330
C0
102
}
100
AcDbEntity
  8
DT_COMPONENTS
  6
CONTINUOUS
 62
         4
100
AcDbLine
 10
19.75
 20
43.25
 30
0.0
 11
14.75
 21
43.25
 31
0.0
  0
LINE
  5
BF
102
{ACAD_REACTORS
330
C0
102
}
100
AcDbEntity
  8
DT_COMPONENTS
  6
CONTINUOUS
 62
         4
100
AcDbLine
 10
14.75
 20
43.25
 30
0.0
 11
14.75
 21
43.75
 31
0.0
  0
LINE
  5
C1
102
{ACAD_REACTORS
330
C5
102
}
100
AcDbEntity
  8
DT_COMPONENTS
  6
CONTINUOUS
 62
         4
100
AcDbLine
 10
19.75
 20
43.75
 30
0.0
 11
20.25
 21
43.75
 31
0.0
  0
LINE
  5
C2
102
{ACAD_REACTORS
330
C5
102
}
100
AcDbEntity
  8
DT_COMPONENTS
  6
CONTINUOUS
 62
         4
100
AcDbLine
 10
20.25
 20
43.75
 30
0.0
 11
20.25
 21
31.1868088976
 31
0.0
  0
LINE
  5
C3
102
{ACAD_REACTORS
330
C5
102
}
100
AcDbEntity
  8
DT_COMPONENTS
  6
CONTINUOUS
 62
         4
100
AcDbLine
 10
19.75
 20
31.2686710695
 30
0.0
 11
19.75
 21
43.75
 31
0.0
  0
LINE
  5
C4
102
{ACAD_REACTORS
330
C5
102
}
100
AcDbEntity
  8
DT_COMPONENTS
  6
CONTINUOUS
 62
         4
100
AcDbLine
 10
20.25
 20
31.1868088976
 30
0.0
 11
19.75
 21
31.2686710695
 31
0.0
  0
CIRCLE
  5
C6
102
{ACAD_REACTORS
330
C9
102
}
100
AcDbEntity
  8
DT_COMPONENTS
  6
CONTINUOUS
 62
         4
100
AcDbCircle
 10
5.9719932387
 20
30.6855350879
 30
0.0
 40
0.4
  0
CIRCLE
  5
C7
102
{ACAD_REACTORS
330
C9
102
}
100
AcDbEntity
  8
DT_COMPONENTS
  6
CONTINUOUS
 62
         4
100
AcDbCircle
 10
5.9719932387
 20
30.6855350879
 30
0.0
 40
0.35
  0
CIRCLE
  5
C8
102
{ACAD_REACTORS
330
C9
102
}
100
AcDbEntity
  8
DT_COMPONENTS
  6
CONTINUOUS
 62
         4
100
AcDbCircle
 10
5.9719932387
 20
30.6855350879
 30
0.0
 40
0.215
  0
LINE
  5
CA
102
{ACAD_REACTORS
330
CE
102
}
100
AcDbEntity
  8
DT_COMPONENTS
  6
CONTINUOUS
 62
         4
100
AcDbLine
 10
2.189045582
 20
41.0
 30
0.0
 11
2.189045582
 21
43.25
 31
0.0
  0
LINE
  5
CB
102
{ACAD_REACTORS
330
CE
102
}
100
AcDbEntity
  8
DT_COMPONENTS
  6
CONTINUOUS
 62
         4
100
AcDbLine
 10
2.189045582
 20
43.25
 30
0.0
 11
2.689045582
 21
43.25
 31
0.0
  0
LINE
  5
CC
102
{ACAD_REACTORS
330
CE
102
}
100
AcDbEntity
  8
DT_COMPONENTS
  6
CONTINUOUS
 62
         4
100
AcDbLine
 10
2.689045582
 20
43.25
 30
0.0
 11
2.689045582
 21
41.0
 31
0.0
  0
LINE
  5
CD
102
{ACAD_REACTORS
330
CE
102
}
100
AcDbEntity
  8
DT_COMPONENTS
  6
CONTINUOUS
 62
         4
100
AcDbLine
 10
2.689045582
 20
41.0
 30
0.0
 11
2.189045582
 21
41.0
 31
0.0
  0
CIRCLE
  5
CF
102
{ACAD_REACTORS
330
D2
102
}
100
AcDbEntity
  8
DT_COMPONENTS
  6
CONTINUOUS
 62
         4
100
AcDbCircle
 10
4.8513397129
 20
42.417079548
 30
0.0
 40
0.4
  0
CIRCLE
  5
D0
102
{ACAD_REACTORS
330
D2
102
}
100
AcDbEntity
  8
DT_COMPONENTS
  6
CONTINUOUS
 62
         4
100
AcDbCircle
 10
4.8513397129
 20
42.417079548
 30
0.0
 40
0.35
  0
CIRCLE
  5
D1
102
{ACAD_REACTORS
330
D2
102
}
100
AcDbEntity
  8
DT_COMPONENTS
  6
CONTINUOUS
 62
         4
100
AcDbCircle
 10
4.8513397129
 20
42.417079548
 30
0.0
 40
0.215
  0
CIRCLE
  5
D3
102
{ACAD_REACTORS
330
D6
102
}
100
AcDbEntity
  8
DT_COMPONENTS
  6
CONTINUOUS
 62
         4
100
AcDbCircle
 10
6.0040530006
 20
43.3768983207
 30
0.0
 40
0.4
  0
CIRCLE
  5
D4
102
{ACAD_REACTORS
330
D6
102
}
100
AcDbEntity
  8
DT_COMPONENTS
  6
CONTINUOUS
 62
         4
100
AcDbCircle
 10
6.0040530006
 20
43.3768983207
 30
0.0
 40
0.35
  0
CIRCLE
  5
D5
102
{ACAD_REACTORS
330
D6
102
}
100
AcDbEntity
  8
DT_COMPONENTS
  6
CONTINUOUS
 62
         4
100
AcDbCircle
 10
6.0040530006
 20
43.3768983207
 30
0.0
 40
0.215
  0
CIRCLE
  5
D7
102
{ACAD_REACTORS
330
DA
102
}
100
AcDbEntity
  8
DT_COMPONENTS
  6
CONTINUOUS
 62
         4
100
AcDbCircle
 10
7.4195
 20
43.3768983268
 30
0.0
 40
0.4
  0
CIRCLE
  5
D8
102
{ACAD_REACTORS
330
DA
102
}
100
AcDbEntity
  8
DT_COMPONENTS
  6
CONTINUOUS
 62
         4
100
AcDbCircle
 10
7.4195
 20
43.3768983268
 30
0.0
 40
0.35
  0
CIRCLE
  5
D9
102
{ACAD_REACTORS
330
DA
102
}
100
AcDbEntity
  8
DT_COMPONENTS
  6
CONTINUOUS
 62
         4
100
AcDbCircle
 10
7.4195
 20
43.3768983268
 30
0.0
 40
0.215
  0
CIRCLE
  5
DB
102
{ACAD_REACTORS
330
DE
102
}
100
AcDbEntity
  8
DT_COMPONENTS
  6
CONTINUOUS
 62
         4
100
AcDbCircle
 10
15.3986602871
 20
42.417079548
 30
0.0
 40
0.4
  0
CIRCLE
  5
DC
102
{ACAD_REACTORS
330
DE
102
}
100
AcDbEntity
  8
DT_COMPONENTS
  6
CONTINUOUS
 62
         4
100
AcDbCircle
 10
15.3986602871
 20
42.417079548
 30
0.0
 40
0.35
  0
CIRCLE
  5
DD
102
{ACAD_REACTORS
330
DE
102
}
100
AcDbEntity
  8
DT_COMPONENTS
  6
CONTINUOUS
 62
         4
100
AcDbCircle
 10
15.3986602871
 20
42.417079548
 30
0.0
 40
0.215
  0
SPLINE
  5
DF
100
AcDbEntity
  8
DT_COMPONENTS
  6
CONTINUOUS
 62
         4
100
AcDbSpline
210
0.0
220
0.0
230
1.0
 70
         0
 71
         3
 72
         0
 73
         0
 74
         4
 44
0.000001
 11
0.4999604266943578
 21
40.360831569845097
 31
0.0
 11
0.6875
 21
39.34375
 31
0.0
 11
1.0
 21
38.670727403178439
 31
0.0
 11
1.6031233411008161
 21
38.285295001393052
 31
0.0
  0
SPLINE
  5
E0
100
AcDbEntity
  8
DT_COMPONENTS
  6
CONTINUOUS
 62
         4
100
AcDbSpline
210
0.0
220
0.0
230
1.0
 70
         0
 71
         3
 72
         0
 73
         0
 74
         4
 44
0.000001
 11
19.750039573305642
 21
40.360831569845097
 31
0.0
 11
19.5625
 21
39.34375
 31
0.0
 11
19.25
 21
38.670727403178439
 31
0.0
 11
18.646876658899185
 21
38.285295001393052
 31
0.0
  0
LINE
  5
E1
100
AcDbEntity
  8
8_250BIT_500OUTLINE
  6
CONTINUOUS
 62
         5
100
AcDbLine
 10
20.25
 20
43.75
 30
0.0
 11
20.25
 21
31.1868088976
 31
0.0
  0
LINE
  5
E2
100
AcDbEntity
  8
8_250BIT_500OUTLINE
  6
CONTINUOUS
 62
         5
100
AcDbLine
 10
17.8322911024
 20
31.5826467004
 30
0.0
 11
20.25
 21
31.1868088976
 31
0.0
  0
LINE
  5
E3
100
AcDbEntity
  8
8_250BIT_500OUTLINE
  6
CONTINUOUS
 62
         5
100
AcDbLine
 10
11.4444522047
 20
28.7458366535
 30
0.0
 11
17.8322911024
 21
31.5833388976
 31
0.0
  0
LINE
  5
E4
100
AcDbEntity
  8
8_250BIT_500OUTLINE
  6
CONTINUOUS
 62
         5
100
AcDbLine
 10
2.3951427953
 20
31.5722255512
 30
0.0
 11
8.8138922047
 21
28.7458366535
 31
0.0
  0
LINE
  5
E5
100
AcDbEntity
  8
8_250BIT_500OUTLINE
  6
CONTINUOUS
 62
         5
100
AcDbLine
 10
8.8138922047
 20
28.7458366535
 30
0.0
 11
11.4444522047
 21
28.7458366535
 31
0.0
  0
CIRCLE
  5
E6
100
AcDbEntity
  8
3_250BIT_500TAB
  6
CONTINUOUS
 62
         5
100
AcDbCircle
 10
6.7555033346
 20
37.1873431611
 30
0.0
 40
2.625
  0
CIRCLE
  5
E7
100
AcDbEntity
  8
3_250BIT_500TAB
  6
CONTINUOUS
 62
         5
100
AcDbCircle
 10
13.3504350162
 20
37.1944983682
 30
0.0
 40
2.625
  0
CIRCLE
  5
E8
100
AcDbEntity
  8
1_250BIT_500DEP
  6
CONTINUOUS
 62
         5
100
AcDbCircle
 10
16.546875
 20
42.671875
 30
0.0
 40
0.25
  0
CIRCLE
  5
E9
100
AcDbEntity
  8
1_250BIT_500DEP
  6
CONTINUOUS
 62
         5
100
AcDbCircle
 10
3.703125
 20
42.671875
 30
0.0
 40
0.25
  0
LINE
  5
EA
102
{ACAD_REACTORS
330
EF
102
}
100
AcDbEntity
  8
DT_COMPONENTS
  6
CONTINUOUS
 62
         4
100
AcDbLine
 10
0.4999427559
 20
43.75
 30
0.0
 11
0.4999427559
 21
43.25
 31
0.0
  0
LINE
  5
EB
102
{ACAD_REACTORS
330
EF
102
}
100
AcDbEntity
  8
DT_COMPONENTS
  6
CONTINUOUS
 62
         4
100
AcDbLine
 10
0.0
 20
43.75
 30
0.0
 11
0.4999604267
 21
43.75
 31
0.0
  0
LINE
  5
EC
102
{ACAD_REACTORS
330
EF
102
}
100
AcDbEntity
  8
DT_COMPONENTS
  6
CONTINUOUS
 62
         4
100
AcDbLine
 10
0.4999604267
 20
43.75
 30
0.0
 11
0.4999604267
 21
31.2757770814
 31
0.0
  0
LINE
  5
ED
102
{ACAD_REACTORS
330
EF
102
}
100
AcDbEntity
  8
DT_COMPONENTS
  6
CONTINUOUS
 62
         4
100
AcDbLine
 10
0.0
 20
31.1975722047
 30
0.0
 11
0.0
 21
43.75
 31
0.0
  0
LINE
  5
EE
102
{ACAD_REACTORS
330
EF
102
}
100
AcDbEntity
  8
DT_COMPONENTS
  6
CONTINUOUS
 62
         4
100
AcDbLine
 10
0.4999604267
 20
31.2757770814
 30
0.0
 11
0.0
 21
31.1975722047
 31
0.0
  0
LINE
  5
F0
100
AcDbEntity
  8
8_250BIT_500OUTLINE
  6
CONTINUOUS
 62
         5
100
AcDbLine
 10
0.0
 20
31.1975722047
 30
0.0
 11
2.3951427953
 21
31.5722255512
 31
0.0
  0
LINE
  5
F1
100
AcDbEntity
  8
8_250BIT_500OUTLINE
  6
CONTINUOUS
 62
         5
100
AcDbLine
 10
0.0
 20
43.75
 30
0.0
 11
20.25
 21
43.75
 31
0.0
  0
LINE
  5
F2
100
AcDbEntity
  8
8_250BIT_500OUTLINE
  6
CONTINUOUS
 62
         5
100
AcDbLine
 10
0.0
 20
43.75
 30
0.0
 11
0.0
 21
31.1975722047
 31
0.0
  0
CIRCLE
  5
F3
102
{ACAD_REACTORS
330
F6
102
}
100
AcDbEntity
  8
DT_COMPONENTS
  6
CONTINUOUS
 62
         4
100
AcDbCircle
 10
14.2459469994
 20
43.3768983207
 30
0.0
 40
0.4
  0
CIRCLE
  5
F4
102
{ACAD_REACTORS
330
F6
102
}
100
AcDbEntity
  8
DT_COMPONENTS
  6
CONTINUOUS
 62
         4
100
AcDbCircle
 10
14.2459469994
 20
43.3768983207
 30
0.0
 40
0.35
  0
CIRCLE
  5
F5
102
{ACAD_REACTORS
330
F6
102
}
100
AcDbEntity
  8
DT_COMPONENTS
  6
CONTINUOUS
 62
         4
100
AcDbCircle
 10
14.2459469994
 20
43.3768983207
 30
0.0
 40
0.215
  0
CIRCLE
  5
F7
102
{ACAD_REACTORS
330
FA
102
}
100
AcDbEntity
  8
DT_COMPONENTS
  6
CONTINUOUS
 62
         4
100
AcDbCircle
 10
12.8305
 20
43.3768983268
 30
0.0
 40
0.4
  0
CIRCLE
  5
F8
102
{ACAD_REACTORS
330
FA
102
}
100
AcDbEntity
  8
DT_COMPONENTS
  6
CONTINUOUS
 62
         4
100
AcDbCircle
 10
12.8305
 20
43.3768983268
 30
0.0
 40
0.35
  0
CIRCLE
  5
F9
102
{ACAD_REACTORS
330
FA
102
}
100
AcDbEntity
  8
DT_COMPONENTS
  6
CONTINUOUS
 62
         4
100
AcDbCircle
 10
12.8305
 20
43.3768983268
 30
0.0
 40
0.215
  0
LINE
  5
FB
102
{ACAD_REACTORS
330
10F
102
}
100
AcDbEntity
  8
DT_COMPONENTS
  6
CONTINUOUS
 62
         4
100
AcDbLine
 10
14.2487337221
 20
42.520620058
 30
0.0
 11
14.5366793539
 21
42.8664340443
 31
0.0
  0
LINE
  5
FC
102
{ACAD_REACTORS
330
10F
102
}
100
AcDbEntity
  8
DT_COMPONENTS
  6
CONTINUOUS
 62
         4
100
AcDbLine
 10
14.844069564
 20
42.6104823716
 30
0.0
 11
14.5561239321
 21
42.2646683853
 31
0.0
  0
LINE
  5
FD
102
{ACAD_REACTORS
330
10F
102
}
100
AcDbEntity
  8
DT_COMPONENTS
  6
CONTINUOUS
 62
         4
100
AcDbLine
 10
14.0821789828
 20
42.7894313651
 30
0.0
 11
14.0181910646
 21
42.7125838126
 31
0.0
  0
LINE
  5
FE
102
{ACAD_REACTORS
330
10F
102
}
100
AcDbEntity
  8
DT_COMPONENTS
  6
CONTINUOUS
 62
         4
100
AcDbLine
 10
14.8506545078
 20
42.1495521833
 30
0.0
 11
14.0821789828
 21
42.7894313651
 31
0.0
  0
LINE
  5
FF
102
{ACAD_REACTORS
330
10F
102
}
100
AcDbEntity
  8
DT_COMPONENTS
  6
CONTINUOUS
 62
         4
100
AcDbLine
 10
14.0181910646
 20
42.7125838126
 30
0.0
 11
14.7866665897
 21
42.0727046307
 31
0.0
  0
LINE
  5
100
102
{ACAD_REACTORS
330
10F
102
}
100
AcDbEntity
  8
DT_COMPONENTS
  6
CONTINUOUS
 62
         4
100
AcDbLine
 10
14.0701424664
 20
42.8726505622
 30
0.0
 11
14.0701424664
 21
42.8726505622
 31
0.0
  0
LINE
  5
101
102
{ACAD_REACTORS
330
10F
102
}
100
AcDbEntity
  8
DT_COMPONENTS
  6
CONTINUOUS
 62
         4
100
AcDbLine
 10
14.9346774321
 20
42.1527864827
 30
0.0
 11
14.9346774321
 21
42.1527864827
 31
0.0
  0
LINE
  5
102
102
{ACAD_REACTORS
330
10F
102
}
100
AcDbEntity
  8
DT_COMPONENTS
  6
CONTINUOUS
 62
         4
100
AcDbLine
 10
14.7866665897
 20
42.0727046307
 30
0.0
 11
14.8506545078
 21
42.1495521833
 31
0.0
  0
LINE
  5
103
102
{ACAD_REACTORS
330
10F
102
}
100
AcDbEntity
  8
DT_COMPONENTS
  6
CONTINUOUS
 62
         4
100
AcDbLine
 10
14.5561239321
 20
42.2646683853
 30
0.0
 11
14.2487337221
 21
42.520620058
 31
0.0
  0
LINE
  5
104
102
{ACAD_REACTORS
330
10F
102
}
100
AcDbEntity
  8
DT_COMPONENTS
  6
CONTINUOUS
 62
         4
100
AcDbLine
 10
14.454380229
 20
42.5527109713
 30
0.0
 11
14.454380229
 21
42.5527109713
 31
0.0
  0
LINE
  5
105
102
{ACAD_REACTORS
330
10F
102
}
100
AcDbEntity
  8
DT_COMPONENTS
  6
CONTINUOUS
 62
         4
100
AcDbLine
 10
14.6058421512
 20
42.808844918
 30
0.0
 11
14.6698300694
 21
42.8856924705
 31
0.0
  0
LINE
  5
106
102
{ACAD_REACTORS
330
10F
102
}
100
AcDbEntity
  8
DT_COMPONENTS
  6
CONTINUOUS
 62
         4
100
AcDbLine
 10
14.8388946849
 20
42.7449190505
 30
0.0
 11
14.7749067667
 21
42.6680714979
 31
0.0
  0
LINE
  5
107
102
{ACAD_REACTORS
330
10F
102
}
100
AcDbEntity
  8
DT_COMPONENTS
  6
CONTINUOUS
 62
         4
100
AcDbLine
 10
14.6698300694
 20
42.8856924705
 30
0.0
 11
14.8388946849
 21
42.7449190505
 31
0.0
  0
LINE
  5
108
102
{ACAD_REACTORS
330
10F
102
}
100
AcDbEntity
  8
DT_COMPONENTS
  6
CONTINUOUS
 62
         4
100
AcDbLine
 10
14.4686921909
 20
42.7847835198
 30
0.0
 11
14.5086846397
 21
42.8328132401
 31
0.0
  0
LINE
  5
109
102
{ACAD_REACTORS
330
10F
102
}
100
AcDbEntity
  8
DT_COMPONENTS
  6
CONTINUOUS
 62
         4
100
AcDbLine
 10
14.7760824009
 20
42.528831847
 30
0.0
 11
14.4686921909
 21
42.7847835198
 31
0.0
  0
LINE
  5
10A
102
{ACAD_REACTORS
330
10F
102
}
100
AcDbEntity
  8
DT_COMPONENTS
  6
CONTINUOUS
 62
         4
100
AcDbLine
 10
14.8160748498
 20
42.5768615674
 30
0.0
 11
14.7760824009
 21
42.528831847
 31
0.0
  0
LINE
  5
10B
102
{ACAD_REACTORS
330
10F
102
}
100
AcDbEntity
  8
DT_COMPONENTS
  6
CONTINUOUS
 62
         4
100
AcDbLine
 10
14.5086846397
 20
42.8328132401
 30
0.0
 11
14.8160748498
 21
42.5768615674
 31
0.0
  0
LINE
  5
10C
102
{ACAD_REACTORS
330
10F
102
}
100
AcDbEntity
  8
DT_COMPONENTS
  6
CONTINUOUS
 62
         4
100
AcDbLine
 10
14.7749067667
 20
42.6680714979
 30
0.0
 11
14.6058421512
 21
42.808844918
 31
0.0
  0
LINE
  5
10D
102
{ACAD_REACTORS
330
10F
102
}
100
AcDbEntity
  8
DT_COMPONENTS
  6
CONTINUOUS
 62
         4
100
AcDbLine
 10
14.5366793539
 20
42.8664340443
 30
0.0
 11
14.844069564
 21
42.6104823716
 31
0.0
  0
LINE
  5
10E
102
{ACAD_REACTORS
330
10F
102
}
100
AcDbEntity
  8
DT_COMPONENTS
  6
CONTINUOUS
 62
         4
100
AcDbLine
 10
14.9346774321
 20
42.1527864827
 30
0.0
 11
14.9346774321
 21
42.1527864827
 31
0.0
  0
LINE
  5
110
102
{ACAD_REACTORS
330
124
102
}
100
AcDbEntity
  8
DT_COMPONENTS
  6
CONTINUOUS
 62
         4
100
AcDbLine
 10
5.6939623866
 20
42.2647402595
 30
0.0
 11
5.4060167548
 21
42.6105542458
 31
0.0
  0
LINE
  5
111
102
{ACAD_REACTORS
330
124
102
}
100
AcDbEntity
  8
DT_COMPONENTS
  6
CONTINUOUS
 62
         4
100
AcDbLine
 10
5.7134069648
 20
42.8665059185
 30
0.0
 11
6.0013525966
 21
42.5206919322
 31
0.0
  0
LINE
  5
112
102
{ACAD_REACTORS
330
124
102
}
100
AcDbEntity
  8
DT_COMPONENTS
  6
CONTINUOUS
 62
         4
100
AcDbLine
 10
5.3994318109
 20
42.1496240575
 30
0.0
 11
5.4634197291
 21
42.0727765049
 31
0.0
  0
LINE
  5
113
102
{ACAD_REACTORS
330
124
102
}
100
AcDbEntity
  8
DT_COMPONENTS
  6
CONTINUOUS
 62
         4
100
AcDbLine
 10
6.167907336
 20
42.7895032393
 30
0.0
 11
5.3994318109
 21
42.1496240575
 31
0.0
  0
LINE
  5
114
102
{ACAD_REACTORS
330
124
102
}
100
AcDbEntity
  8
DT_COMPONENTS
  6
CONTINUOUS
 62
         4
100
AcDbLine
 10
5.4634197291
 20
42.0727765049
 30
0.0
 11
6.2318952542
 21
42.7126556868
 31
0.0
  0
LINE
  5
115
102
{ACAD_REACTORS
330
124
102
}
100
AcDbEntity
  8
DT_COMPONENTS
  6
CONTINUOUS
 62
         4
100
AcDbLine
 10
5.3154088866
 20
42.1528583569
 30
0.0
 11
5.3154088866
 21
42.1528583569
 31
0.0
  0
LINE
  5
116
102
{ACAD_REACTORS
330
124
102
}
100
AcDbEntity
  8
DT_COMPONENTS
  6
CONTINUOUS
 62
         4
100
AcDbLine
 10
6.1799438523
 20
42.8727224365
 30
0.0
 11
6.1799438523
 21
42.8727224365
 31
0.0
  0
LINE
  5
117
102
{ACAD_REACTORS
330
124
102
}
100
AcDbEntity
  8
DT_COMPONENTS
  6
CONTINUOUS
 62
         4
100
AcDbLine
 10
6.2318952542
 20
42.7126556868
 30
0.0
 11
6.167907336
 21
42.7895032393
 31
0.0
  0
LINE
  5
118
102
{ACAD_REACTORS
330
124
102
}
100
AcDbEntity
  8
DT_COMPONENTS
  6
CONTINUOUS
 62
         4
100
AcDbLine
 10
6.0013525966
 20
42.5206919322
 30
0.0
 11
5.6939623866
 21
42.2647402595
 31
0.0
  0
LINE
  5
119
102
{ACAD_REACTORS
330
124
102
}
100
AcDbEntity
  8
DT_COMPONENTS
  6
CONTINUOUS
 62
         4
100
AcDbLine
 10
5.6996466491
 20
42.4727979478
 30
0.0
 11
5.6996466491
 21
42.4727979478
 31
0.0
  0
LINE
  5
11A
102
{ACAD_REACTORS
330
124
102
}
100
AcDbEntity
  8
DT_COMPONENTS
  6
CONTINUOUS
 62
         4
100
AcDbLine
 10
5.475179552
 20
42.6681433722
 30
0.0
 11
5.4111916338
 21
42.7449909247
 31
0.0
  0
LINE
  5
11B
102
{ACAD_REACTORS
330
124
102
}
100
AcDbEntity
  8
DT_COMPONENTS
  6
CONTINUOUS
 62
         4
100
AcDbLine
 10
5.5802562494
 20
42.8857643447
 30
0.0
 11
5.6442441675
 21
42.8089167922
 31
0.0
  0
LINE
  5
11C
102
{ACAD_REACTORS
330
124
102
}
100
AcDbEntity
  8
DT_COMPONENTS
  6
CONTINUOUS
 62
         4
100
AcDbLine
 10
5.4111916338
 20
42.7449909247
 30
0.0
 11
5.5802562494
 21
42.8857643447
 31
0.0
  0
LINE
  5
11D
102
{ACAD_REACTORS
330
124
102
}
100
AcDbEntity
  8
DT_COMPONENTS
  6
CONTINUOUS
 62
         4
100
AcDbLine
 10
5.4740039178
 20
42.5289037212
 30
0.0
 11
5.434011469
 21
42.5769334416
 31
0.0
  0
LINE
  5
11E
102
{ACAD_REACTORS
330
124
102
}
100
AcDbEntity
  8
DT_COMPONENTS
  6
CONTINUOUS
 62
         4
100
AcDbLine
 10
5.7813941279
 20
42.784855394
 30
0.0
 11
5.4740039178
 21
42.5289037212
 31
0.0
  0
LINE
  5
11F
102
{ACAD_REACTORS
330
124
102
}
100
AcDbEntity
  8
DT_COMPONENTS
  6
CONTINUOUS
 62
         4
100
AcDbLine
 10
5.741401679
 20
42.8328851143
 30
0.0
 11
5.7813941279
 21
42.784855394
 31
0.0
  0
LINE
  5
120
102
{ACAD_REACTORS
330
124
102
}
100
AcDbEntity
  8
DT_COMPONENTS
  6
CONTINUOUS
 62
         4
100
AcDbLine
 10
5.434011469
 20
42.5769334416
 30
0.0
 11
5.741401679
 21
42.8328851143
 31
0.0
  0
LINE
  5
121
102
{ACAD_REACTORS
330
124
102
}
100
AcDbEntity
  8
DT_COMPONENTS
  6
CONTINUOUS
 62
         4
100
AcDbLine
 10
5.6442441675
 20
42.8089167922
 30
0.0
 11
5.475179552
 21
42.6681433722
 31
0.0
  0
LINE
  5
122
102
{ACAD_REACTORS
330
124
102
}
100
AcDbEntity
  8
DT_COMPONENTS
  6
CONTINUOUS
 62
         4
100
AcDbLine
 10
5.4060167548
 20
42.6105542458
 30
0.0
 11
5.7134069648
 21
42.8665059185
 31
0.0
  0
LINE
  5
123
102
{ACAD_REACTORS
330
124
102
}
100
AcDbEntity
  8
DT_COMPONENTS
  6
CONTINUOUS
 62
         4
100
AcDbLine
 10
6.1799438523
 20
42.8727224365
 30
0.0
 11
6.1799438523
 21
42.8727224365
 31
0.0
  0
ARC
  5
125
100
AcDbEntity
  8
DT_COMPONENTS
  6
CONTINUOUS
 62
         4
100
AcDbCircle
 10
8.9134439033
 20
33.5403669291
 30
0.0
 40
8.4134834828
100
AcDbArc
 50
148.3070382326
 51
179.9977991793
  0
ARC
  5
126
100
AcDbEntity
  8
DT_COMPONENTS
  6
CONTINUOUS
 62
         4
100
AcDbCircle
 10
11.336461625
 20
33.5402764786
 30
0.0
 40
8.4134834828
100
AcDbArc
 50
0.0006159673
 51
31.6913769139
  0
CIRCLE
  5
127
102
{ACAD_REACTORS
330
12A
102
}
100
AcDbEntity
  8
DT_COMPONENTS
  6
CONTINUOUS
 62
         4
100
AcDbCircle
 10
1.6031233411
 20
38.0702950014
 30
0.0
 40
0.215
  0
CIRCLE
  5
128
102
{ACAD_REACTORS
330
12A
102
}
100
AcDbEntity
  8
DT_COMPONENTS
  6
CONTINUOUS
 62
         4
100
AcDbCircle
 10
1.6031233411
 20
38.0702950014
 30
0.0
 40
0.07
  0
CIRCLE
  5
129
102
{ACAD_REACTORS
330
12A
102
}
100
AcDbEntity
  8
DT_COMPONENTS
  6
CONTINUOUS
 62
         4
100
AcDbCircle
 10
1.6031233411
 20
38.0702950014
 30
0.0
 40
0.1075
  0
CIRCLE
  5
12B
102
{ACAD_REACTORS
330
12E
102
}
100
AcDbEntity
  8
DT_COMPONENTS
  6
CONTINUOUS
 62
         4
100
AcDbCircle
 10
18.6469074864
 20
38.0700023391
 30
0.0
 40
0.215
  0
CIRCLE
  5
12C
102
{ACAD_REACTORS
330
12E
102
}
100
AcDbEntity
  8
DT_COMPONENTS
  6
CONTINUOUS
 62
         4
100
AcDbCircle
 10
18.6469074864
 20
38.0700023391
 30
0.0
 40
0.07
  0
CIRCLE
  5
12D
102
{ACAD_REACTORS
330
12E
102
}
100
AcDbEntity
  8
DT_COMPONENTS
  6
CONTINUOUS
 62
         4
100
AcDbCircle
 10
18.6469074864
 20
38.0700023391
 30
0.0
 40
0.1075
  0
LINE
  5
12F
102
{ACAD_REACTORS
330
143
102
}
100
AcDbEntity
  8
DT_COMPONENTS
  6
CONTINUOUS
 62
         4
100
AcDbLine
 10
9.3321646925
 20
42.780546483
 30
0.0
 11
9.3321646925
 21
43.230546483
 31
0.0
  0
LINE
  5
130
102
{ACAD_REACTORS
330
143
102
}
100
AcDbEntity
  8
DT_COMPONENTS
  6
CONTINUOUS
 62
         4
100
AcDbLine
 10
9.7321646925
 20
43.230546483
 30
0.0
 11
9.7321646925
 21
42.780546483
 31
0.0
  0
LINE
  5
131
102
{ACAD_REACTORS
330
143
102
}
100
AcDbEntity
  8
DT_COMPONENTS
  6
CONTINUOUS
 62
         4
100
AcDbLine
 10
9.0321646925
 20
42.880546483
 30
0.0
 11
9.0321646925
 21
42.780546483
 31
0.0
  0
LINE
  5
132
102
{ACAD_REACTORS
330
143
102
}
100
AcDbEntity
  8
DT_COMPONENTS
  6
CONTINUOUS
 62
         4
100
AcDbLine
 10
10.0321646925
 20
42.880546483
 30
0.0
 11
9.0321646925
 21
42.880546483
 31
0.0
  0
LINE
  5
133
102
{ACAD_REACTORS
330
143
102
}
100
AcDbEntity
  8
DT_COMPONENTS
  6
CONTINUOUS
 62
         4
100
AcDbLine
 10
9.0321646925
 20
42.780546483
 30
0.0
 11
10.0321646925
 21
42.780546483
 31
0.0
  0
LINE
  5
134
102
{ACAD_REACTORS
330
143
102
}
100
AcDbEntity
  8
DT_COMPONENTS
  6
CONTINUOUS
 62
         4
100
AcDbLine
 10
8.9696646925
 20
42.936796483
 30
0.0
 11
8.9696646925
 21
42.936796483
 31
0.0
  0
LINE
  5
135
102
{ACAD_REACTORS
330
143
102
}
100
AcDbEntity
  8
DT_COMPONENTS
  6
CONTINUOUS
 62
         4
100
AcDbLine
 10
10.0946646925
 20
42.936796483
 30
0.0
 11
10.0946646925
 21
42.936796483
 31
0.0
  0
LINE
  5
136
102
{ACAD_REACTORS
330
143
102
}
100
AcDbEntity
  8
DT_COMPONENTS
  6
CONTINUOUS
 62
         4
100
AcDbLine
 10
10.0321646925
 20
42.780546483
 30
0.0
 11
10.0321646925
 21
42.880546483
 31
0.0
  0
LINE
  5
137
102
{ACAD_REACTORS
330
143
102
}
100
AcDbEntity
  8
DT_COMPONENTS
  6
CONTINUOUS
 62
         4
100
AcDbLine
 10
9.7321646925
 20
42.780546483
 30
0.0
 11
9.3321646925
 21
42.780546483
 31
0.0
  0
LINE
  5
138
102
{ACAD_REACTORS
330
143
102
}
100
AcDbEntity
  8
DT_COMPONENTS
  6
CONTINUOUS
 62
         4
100
AcDbLine
 10
9.4696646925
 20
42.936796483
 30
0.0
 11
9.4696646925
 21
42.936796483
 31
0.0
  0
LINE
  5
139
102
{ACAD_REACTORS
330
143
102
}
100
AcDbEntity
  8
DT_COMPONENTS
  6
CONTINUOUS
 62
         4
100
AcDbLine
 10
9.4221646925
 20
43.230546483
 30
0.0
 11
9.4221646925
 21
43.330546483
 31
0.0
  0
LINE
  5
13A
102
{ACAD_REACTORS
330
143
102
}
100
AcDbEntity
  8
DT_COMPONENTS
  6
CONTINUOUS
 62
         4
100
AcDbLine
 10
9.6421646925
 20
43.330546483
 30
0.0
 11
9.6421646925
 21
43.230546483
 31
0.0
  0
LINE
  5
13B
102
{ACAD_REACTORS
330
143
102
}
100
AcDbEntity
  8
DT_COMPONENTS
  6
CONTINUOUS
 62
         4
100
AcDbLine
 10
9.4221646925
 20
43.330546483
 30
0.0
 11
9.6421646925
 21
43.330546483
 31
0.0
  0
LINE
  5
13C
102
{ACAD_REACTORS
330
143
102
}
100
AcDbEntity
  8
DT_COMPONENTS
  6
CONTINUOUS
 62
         4
100
AcDbLine
 10
9.3321646925
 20
43.124296483
 30
0.0
 11
9.3321646925
 21
43.186796483
 31
0.0
  0
LINE
  5
13D
102
{ACAD_REACTORS
330
143
102
}
100
AcDbEntity
  8
DT_COMPONENTS
  6
CONTINUOUS
 62
         4
100
AcDbLine
 10
9.7321646925
 20
43.124296483
 30
0.0
 11
9.3321646925
 21
43.124296483
 31
0.0
  0
LINE
  5
13E
102
{ACAD_REACTORS
330
143
102
}
100
AcDbEntity
  8
DT_COMPONENTS
  6
CONTINUOUS
 62
         4
100
AcDbLine
 10
9.7321646925
 20
43.186796483
 30
0.0
 11
9.7321646925
 21
43.124296483
 31
0.0
  0
LINE
  5
13F
102
{ACAD_REACTORS
330
143
102
}
100
AcDbEntity
  8
DT_COMPONENTS
  6
CONTINUOUS
 62
         4
100
AcDbLine
 10
9.3321646925
 20
43.186796483
 30
0.0
 11
9.7321646925
 21
43.186796483
 31
0.0
  0
LINE
  5
140
102
{ACAD_REACTORS
330
143
102
}
100
AcDbEntity
  8
DT_COMPONENTS
  6
CONTINUOUS
 62
         4
100
AcDbLine
 10
9.6421646925
 20
43.230546483
 30
0.0
 11
9.4221646925
 21
43.230546483
 31
0.0
  0
LINE
  5
141
102
{ACAD_REACTORS
330
143
102
}
100
AcDbEntity
  8
DT_COMPONENTS
  6
CONTINUOUS
 62
         4
100
AcDbLine
 10
9.3321646925
 20
43.230546483
 30
0.0
 11
9.7321646925
 21
43.230546483
 31
0.0
  0
LINE
  5
142
102
{ACAD_REACTORS
330
143
102
}
100
AcDbEntity
  8
DT_COMPONENTS
  6
CONTINUOUS
 62
         4
100
AcDbLine
 10
10.0946646925
 20
42.936796483
 30
0.0
 11
10.0946646925
 21
42.936796483
 31
0.0
  0
LINE
  5
144
102
{ACAD_REACTORS
330
158
102
}
100
AcDbEntity
  8
DT_COMPONENTS
  6
CONTINUOUS
 62
         4
100
AcDbLine
 10
10.5316643251
 20
42.780546483
 30
0.0
 11
10.5316643251
 21
43.230546483
 31
0.0
  0
LINE
  5
145
102
{ACAD_REACTORS
330
158
102
}
100
AcDbEntity
  8
DT_COMPONENTS
  6
CONTINUOUS
 62
         4
100
AcDbLine
 10
10.9316643251
 20
43.230546483
 30
0.0
 11
10.9316643251
 21
42.780546483
 31
0.0
  0
LINE
  5
146
102
{ACAD_REACTORS
330
158
102
}
100
AcDbEntity
  8
DT_COMPONENTS
  6
CONTINUOUS
 62
         4
100
AcDbLine
 10
10.2316643251
 20
42.880546483
 30
0.0
 11
10.2316643251
 21
42.780546483
 31
0.0
  0
LINE
  5
147
102
{ACAD_REACTORS
330
158
102
}
100
AcDbEntity
  8
DT_COMPONENTS
  6
CONTINUOUS
 62
         4
100
AcDbLine
 10
11.2316643251
 20
42.880546483
 30
0.0
 11
10.2316643251
 21
42.880546483
 31
0.0
  0
LINE
  5
148
102
{ACAD_REACTORS
330
158
102
}
100
AcDbEntity
  8
DT_COMPONENTS
  6
CONTINUOUS
 62
         4
100
AcDbLine
 10
10.2316643251
 20
42.780546483
 30
0.0
 11
11.2316643251
 21
42.780546483
 31
0.0
  0
LINE
  5
149
102
{ACAD_REACTORS
330
158
102
}
100
AcDbEntity
  8
DT_COMPONENTS
  6
CONTINUOUS
 62
         4
100
AcDbLine
 10
10.1691643251
 20
42.936796483
 30
0.0
 11
10.1691643251
 21
42.936796483
 31
0.0
  0
LINE
  5
14A
102
{ACAD_REACTORS
330
158
102
}
100
AcDbEntity
  8
DT_COMPONENTS
  6
CONTINUOUS
 62
         4
100
AcDbLine
 10
11.2941643251
 20
42.936796483
 30
0.0
 11
11.2941643251
 21
42.936796483
 31
0.0
  0
LINE
  5
14B
102
{ACAD_REACTORS
330
158
102
}
100
AcDbEntity
  8
DT_COMPONENTS
  6
CONTINUOUS
 62
         4
100
AcDbLine
 10
11.2316643251
 20
42.780546483
 30
0.0
 11
11.2316643251
 21
42.880546483
 31
0.0
  0
LINE
  5
14C
102
{ACAD_REACTORS
330
158
102
}
100
AcDbEntity
  8
DT_COMPONENTS
  6
CONTINUOUS
 62
         4
100
AcDbLine
 10
10.9316643251
 20
42.780546483
 30
0.0
 11
10.5316643251
 21
42.780546483
 31
0.0
  0
LINE
  5
14D
102
{ACAD_REACTORS
330
158
102
}
100
AcDbEntity
  8
DT_COMPONENTS
  6
CONTINUOUS
 62
         4
100
AcDbLine
 10
10.6691643251
 20
42.936796483
 30
0.0
 11
10.6691643251
 21
42.936796483
 31
0.0
  0
LINE
  5
14E
102
{ACAD_REACTORS
330
158
102
}
100
AcDbEntity
  8
DT_COMPONENTS
  6
CONTINUOUS
 62
         4
100
AcDbLine
 10
10.6216643251
 20
43.230546483
 30
0.0
 11
10.6216643251
 21
43.330546483
 31
0.0
  0
LINE
  5
14F
102
{ACAD_REACTORS
330
158
102
}
100
AcDbEntity
  8
DT_COMPONENTS
  6
CONTINUOUS
 62
         4
100
AcDbLine
 10
10.8416643251
 20
43.330546483
 30
0.0
 11
10.8416643251
 21
43.230546483
 31
0.0
  0
LINE
  5
150
102
{ACAD_REACTORS
330
158
102
}
100
AcDbEntity
  8
DT_COMPONENTS
  6
CONTINUOUS
 62
         4
100
AcDbLine
 10
10.6216643251
 20
43.330546483
 30
0.0
 11
10.8416643251
 21
43.330546483
 31
0.0
  0
LINE
  5
151
102
{ACAD_REACTORS
330
158
102
}
100
AcDbEntity
  8
DT_COMPONENTS
  6
CONTINUOUS
 62
         4
100
AcDbLine
 10
10.5316643251
 20
43.124296483
 30
0.0
 11
10.5316643251
 21
43.186796483
 31
0.0
  0
LINE
  5
152
102
{ACAD_REACTORS
330
158
102
}
100
AcDbEntity
  8
DT_COMPONENTS
  6
CONTINUOUS
 62
         4
100
AcDbLine
 10
10.9316643251
 20
43.124296483
 30
0.0
 11
10.5316643251
 21
43.124296483
 31
0.0
  0
LINE
  5
153
102
{ACAD_REACTORS
330
158
102
}
100
AcDbEntity
  8
DT_COMPONENTS
  6
CONTINUOUS
 62
         4
100
AcDbLine
 10
10.9316643251
 20
43.186796483
 30
0.0
 11
10.9316643251
 21
43.124296483
 31
0.0
  0
LINE
  5
154
102
{ACAD_REACTORS
330
158
102
}
100
AcDbEntity
  8
DT_COMPONENTS
  6
CONTINUOUS
 62
         4
100
AcDbLine
 10
10.5316643251
 20
43.186796483
 30
0.0
 11
10.9316643251
 21
43.186796483
 31
0.0
  0
LINE
  5
155
102
{ACAD_REACTORS
330
158
102
}
100
AcDbEntity
  8
DT_COMPONENTS
  6
CONTINUOUS
 62
         4
100
AcDbLine
 10
10.8416643251
 20
43.230546483
 30
0.0
 11
10.6216643251
 21
43.230546483
 31
0.0
  0
LINE
  5
156
102
{ACAD_REACTORS
330
158
102
}
100
AcDbEntity
  8
DT_COMPONENTS
  6
CONTINUOUS
 62
         4
100
AcDbLine
 10
10.5316643251
 20
43.230546483
 30
0.0
 11
10.9316643251
 21
43.230546483
 31
0.0
  0
LINE
  5
157
102
{ACAD_REACTORS
330
158
102
}
100
AcDbEntity
  8
DT_COMPONENTS
  6
CONTINUOUS
 62
         4
100
AcDbLine
 10
11.2941643251
 20
42.936796483
 30
0.0
 11
11.2941643251
 21
42.936796483
 31
0.0
  0
LINE
  5
159
102
{ACAD_REACTORS
330
16D
102
}
100
AcDbEntity
  8
DT_COMPONENTS
  6
CONTINUOUS
 62
         4
100
AcDbLine
 10
11.7311639576
 20
42.780546483
 30
0.0
 11
11.7311639576
 21
43.230546483
 31
0.0
  0
LINE
  5
15A
102
{ACAD_REACTORS
330
16D
102
}
100
AcDbEntity
  8
DT_COMPONENTS
  6
CONTINUOUS
 62
         4
100
AcDbLine
 10
12.1311639576
 20
43.230546483
 30
0.0
 11
12.1311639576
 21
42.780546483
 31
0.0
  0
LINE
  5
15B
102
{ACAD_REACTORS
330
16D
102
}
100
AcDbEntity
  8
DT_COMPONENTS
  6
CONTINUOUS
 62
         4
100
AcDbLine
 10
11.4311639576
 20
42.880546483
 30
0.0
 11
11.4311639576
 21
42.780546483
 31
0.0
  0
LINE
  5
15C
102
{ACAD_REACTORS
330
16D
102
}
100
AcDbEntity
  8
DT_COMPONENTS
  6
CONTINUOUS
 62
         4
100
AcDbLine
 10
12.4311639576
 20
42.880546483
 30
0.0
 11
11.4311639576
 21
42.880546483
 31
0.0
  0
LINE
  5
15D
102
{ACAD_REACTORS
330
16D
102
}
100
AcDbEntity
  8
DT_COMPONENTS
  6
CONTINUOUS
 62
         4
100
AcDbLine
 10
11.4311639576
 20
42.780546483
 30
0.0
 11
12.4311639576
 21
42.780546483
 31
0.0
  0
LINE
  5
15E
102
{ACAD_REACTORS
330
16D
102
}
100
AcDbEntity
  8
DT_COMPONENTS
  6
CONTINUOUS
 62
         4
100
AcDbLine
 10
11.3686639576
 20
42.936796483
 30
0.0
 11
11.3686639576
 21
42.936796483
 31
0.0
  0
LINE
  5
15F
102
{ACAD_REACTORS
330
16D
102
}
100
AcDbEntity
  8
DT_COMPONENTS
  6
CONTINUOUS
 62
         4
100
AcDbLine
 10
12.4936639576
 20
42.936796483
 30
0.0
 11
12.4936639576
 21
42.936796483
 31
0.0
  0
LINE
  5
160
102
{ACAD_REACTORS
330
16D
102
}
100
AcDbEntity
  8
DT_COMPONENTS
  6
CONTINUOUS
 62
         4
100
AcDbLine
 10
12.4311639576
 20
42.780546483
 30
0.0
 11
12.4311639576
 21
42.880546483
 31
0.0
  0
LINE
  5
161
102
{ACAD_REACTORS
330
16D
102
}
100
AcDbEntity
  8
DT_COMPONENTS
  6
CONTINUOUS
 62
         4
100
AcDbLine
 10
12.1311639576
 20
42.780546483
 30
0.0
 11
11.7311639576
 21
42.780546483
 31
0.0
  0
LINE
  5
162
102
{ACAD_REACTORS
330
16D
102
}
100
AcDbEntity
  8
DT_COMPONENTS
  6
CONTINUOUS
 62
         4
100
AcDbLine
 10
11.8686639576
 20
42.936796483
 30
0.0
 11
11.8686639576
 21
42.936796483
 31
0.0
  0
LINE
  5
163
102
{ACAD_REACTORS
330
16D
102
}
100
AcDbEntity
  8
DT_COMPONENTS
  6
CONTINUOUS
 62
         4
100
AcDbLine
 10
11.8211639576
 20
43.230546483
 30
0.0
 11
11.8211639576
 21
43.330546483
 31
0.0
  0
LINE
  5
164
102
{ACAD_REACTORS
330
16D
102
}
100
AcDbEntity
  8
DT_COMPONENTS
  6
CONTINUOUS
 62
         4
100
AcDbLine
 10
12.0411639576
 20
43.330546483
 30
0.0
 11
12.0411639576
 21
43.230546483
 31
0.0
  0
LINE
  5
165
102
{ACAD_REACTORS
330
16D
102
}
100
AcDbEntity
  8
DT_COMPONENTS
  6
CONTINUOUS
 62
         4
100
AcDbLine
 10
11.8211639576
 20
43.330546483
 30
0.0
 11
12.0411639576
 21
43.330546483
 31
0.0
  0
LINE
  5
166
102
{ACAD_REACTORS
330
16D
102
}
100
AcDbEntity
  8
DT_COMPONENTS
  6
CONTINUOUS
 62
         4
100
AcDbLine
 10
11.7311639576
 20
43.124296483
 30
0.0
 11
11.7311639576
 21
43.186796483
 31
0.0
  0
LINE
  5
167
102
{ACAD_REACTORS
330
16D
102
}
100
AcDbEntity
  8
DT_COMPONENTS
  6
CONTINUOUS
 62
         4
100
AcDbLine
 10
12.1311639576
 20
43.124296483
 30
0.0
 11
11.7311639576
 21
43.124296483
 31
0.0
  0
LINE
  5
168
102
{ACAD_REACTORS
330
16D
102
}
100
AcDbEntity
  8
DT_COMPONENTS
  6
CONTINUOUS
 62
         4
100
AcDbLine
 10
12.1311639576
 20
43.186796483
 30
0.0
 11
12.1311639576
 21
43.124296483
 31
0.0
  0
LINE
  5
169
102
{ACAD_REACTORS
330
16D
102
}
100
AcDbEntity
  8
DT_COMPONENTS
  6
CONTINUOUS
 62
         4
100
AcDbLine
 10
11.7311639576
 20
43.186796483
 30
0.0
 11
12.1311639576
 21
43.186796483
 31
0.0
  0
LINE
  5
16A
102
{ACAD_REACTORS
330
16D
102
}
100
AcDbEntity
  8
DT_COMPONENTS
  6
CONTINUOUS
 62
         4
100
AcDbLine
 10
12.0411639576
 20
43.230546483
 30
0.0
 11
11.8211639576
 21
43.230546483
 31
0.0
  0
LINE
  5
16B
102
{ACAD_REACTORS
330
16D
102
}
100
AcDbEntity
  8
DT_COMPONENTS
  6
CONTINUOUS
 62
         4
100
AcDbLine
 10
11.7311639576
 20
43.230546483
 30
0.0
 11
12.1311639576
 21
43.230546483
 31
0.0
  0
LINE
  5
16C
102
{ACAD_REACTORS
330
16D
102
}
100
AcDbEntity
  8
DT_COMPONENTS
  6
CONTINUOUS
 62
         4
100
AcDbLine
 10
12.4936639576
 20
42.936796483
 30
0.0
 11
12.4936639576
 21
42.936796483
 31
0.0
  0
LINE
  5
16E
102
{ACAD_REACTORS
330
182
102
}
100
AcDbEntity
  8
DT_COMPONENTS
  6
CONTINUOUS
 62
         4
100
AcDbLine
 10
8.13266506
 20
42.780546483
 30
0.0
 11
8.13266506
 21
43.230546483
 31
0.0
  0
LINE
  5
16F
102
{ACAD_REACTORS
330
182
102
}
100
AcDbEntity
  8
DT_COMPONENTS
  6
CONTINUOUS
 62
         4
100
AcDbLine
 10
8.53266506
 20
43.230546483
 30
0.0
 11
8.53266506
 21
42.780546483
 31
0.0
  0
LINE
  5
170
102
{ACAD_REACTORS
330
182
102
}
100
AcDbEntity
  8
DT_COMPONENTS
  6
CONTINUOUS
 62
         4
100
AcDbLine
 10
7.83266506
 20
42.880546483
 30
0.0
 11
7.83266506
 21
42.780546483
 31
0.0
  0
LINE
  5
171
102
{ACAD_REACTORS
330
182
102
}
100
AcDbEntity
  8
DT_COMPONENTS
  6
CONTINUOUS
 62
         4
100
AcDbLine
 10
8.83266506
 20
42.880546483
 30
0.0
 11
7.83266506
 21
42.880546483
 31
0.0
  0
LINE
  5
172
102
{ACAD_REACTORS
330
182
102
}
100
AcDbEntity
  8
DT_COMPONENTS
  6
CONTINUOUS
 62
         4
100
AcDbLine
 10
7.83266506
 20
42.780546483
 30
0.0
 11
8.83266506
 21
42.780546483
 31
0.0
  0
LINE
  5
173
102
{ACAD_REACTORS
330
182
102
}
100
AcDbEntity
  8
DT_COMPONENTS
  6
CONTINUOUS
 62
         4
100
AcDbLine
 10
7.77016506
 20
42.936796483
 30
0.0
 11
7.77016506
 21
42.936796483
 31
0.0
  0
LINE
  5
174
102
{ACAD_REACTORS
330
182
102
}
100
AcDbEntity
  8
DT_COMPONENTS
  6
CONTINUOUS
 62
         4
100
AcDbLine
 10
8.89516506
 20
42.936796483
 30
0.0
 11
8.89516506
 21
42.936796483
 31
0.0
  0
LINE
  5
175
102
{ACAD_REACTORS
330
182
102
}
100
AcDbEntity
  8
DT_COMPONENTS
  6
CONTINUOUS
 62
         4
100
AcDbLine
 10
8.83266506
 20
42.780546483
 30
0.0
 11
8.83266506
 21
42.880546483
 31
0.0
  0
LINE
  5
176
102
{ACAD_REACTORS
330
182
102
}
100
AcDbEntity
  8
DT_COMPONENTS
  6
CONTINUOUS
 62
         4
100
AcDbLine
 10
8.53266506
 20
42.780546483
 30
0.0
 11
8.13266506
 21
42.780546483
 31
0.0
  0
LINE
  5
177
102
{ACAD_REACTORS
330
182
102
}
100
AcDbEntity
  8
DT_COMPONENTS
  6
CONTINUOUS
 62
         4
100
AcDbLine
 10
8.27016506
 20
42.936796483
 30
0.0
 11
8.27016506
 21
42.936796483
 31
0.0
  0
LINE
  5
178
102
{ACAD_REACTORS
330
182
102
}
100
AcDbEntity
  8
DT_COMPONENTS
  6
CONTINUOUS
 62
         4
100
AcDbLine
 10
8.22266506
 20
43.230546483
 30
0.0
 11
8.22266506
 21
43.330546483
 31
0.0
  0
LINE
  5
179
102
{ACAD_REACTORS
330
182
102
}
100
AcDbEntity
  8
DT_COMPONENTS
  6
CONTINUOUS
 62
         4
100
AcDbLine
 10
8.44266506
 20
43.330546483
 30
0.0
 11
8.44266506
 21
43.230546483
 31
0.0
  0
LINE
  5
17A
102
{ACAD_REACTORS
330
182
102
}
100
AcDbEntity
  8
DT_COMPONENTS
  6
CONTINUOUS
 62
         4
100
AcDbLine
 10
8.22266506
 20
43.330546483
 30
0.0
 11
8.44266506
 21
43.330546483
 31
0.0
  0
LINE
  5
17B
102
{ACAD_REACTORS
330
182
102
}
100
AcDbEntity
  8
DT_COMPONENTS
  6
CONTINUOUS
 62
         4
100
AcDbLine
 10
8.13266506
 20
43.124296483
 30
0.0
 11
8.13266506
 21
43.186796483
 31
0.0
  0
LINE
  5
17C
102
{ACAD_REACTORS
330
182
102
}
100
AcDbEntity
  8
DT_COMPONENTS
  6
CONTINUOUS
 62
         4
100
AcDbLine
 10
8.53266506
 20
43.124296483
 30
0.0
 11
8.13266506
 21
43.124296483
 31
0.0
  0
LINE
  5
17D
102
{ACAD_REACTORS
330
182
102
}
100
AcDbEntity
  8
DT_COMPONENTS
  6
CONTINUOUS
 62
         4
100
AcDbLine
 10
8.53266506
 20
43.186796483
 30
0.0
 11
8.53266506
 21
43.124296483
 31
0.0
  0
LINE
  5
17E
102
{ACAD_REACTORS
330
182
102
}
100
AcDbEntity
  8
DT_COMPONENTS
  6
CONTINUOUS
 62
         4
100
AcDbLine
 10
8.13266506
 20
43.186796483
 30
0.0
 11
8.53266506
 21
43.186796483
 31
0.0
  0
LINE
  5
17F
102
{ACAD_REACTORS
330
182
102
}
100
AcDbEntity
  8
DT_COMPONENTS
  6
CONTINUOUS
 62
         4
100
AcDbLine
 10
8.44266506
 20
43.230546483
 30
0.0
 11
8.22266506
 21
43.230546483
 31
0.0
  0
LINE
  5
180
102
{ACAD_REACTORS
330
182
102
}
100
AcDbEntity
  8
DT_COMPONENTS
  6
CONTINUOUS
 62
         4
100
AcDbLine
 10
8.13266506
 20
43.230546483
 30
0.0
 11
8.53266506
 21
43.230546483
 31
0.0
  0
LINE
  5
181
102
{ACAD_REACTORS
330
182
102
}
100
AcDbEntity
  8
DT_COMPONENTS
  6
CONTINUOUS
 62
         4
100
AcDbLine
 10
8.89516506
 20
42.936796483
 30
0.0
 11
8.89516506
 21
42.936796483
 31
0.0
  0
CIRCLE
  5
183
102
{ACAD_REACTORS
330
186
102
}
100
AcDbEntity
  8
DT_COMPONENTS
  6
CONTINUOUS
 62
         4
100
AcDbCircle
 10
17.7040868623
 20
40.4974420024
 30
0.0
 40
0.4
  0
CIRCLE
  5
184
102
{ACAD_REACTORS
330
186
102
}
100
AcDbEntity
  8
DT_COMPONENTS
  6
CONTINUOUS
 62
         4
100
AcDbCircle
 10
17.7040868623
 20
40.4974420024
 30
0.0
 40
0.35
  0
CIRCLE
  5
185
102
{ACAD_REACTORS
330
186
102
}
100
AcDbEntity
  8
DT_COMPONENTS
  6
CONTINUOUS
 62
         4
100
AcDbCircle
 10
17.7040868623
 20
40.4974420024
 30
0.0
 40
0.215
  0
CIRCLE
  5
187
102
{ACAD_REACTORS
330
18A
102
}
100
AcDbEntity
  8
DT_COMPONENTS
  6
CONTINUOUS
 62
         4
100
AcDbCircle
 10
16.5513735747
 20
41.4572607752
 30
0.0
 40
0.4
  0
CIRCLE
  5
188
102
{ACAD_REACTORS
330
18A
102
}
100
AcDbEntity
  8
DT_COMPONENTS
  6
CONTINUOUS
 62
         4
100
AcDbCircle
 10
16.5513735747
 20
41.4572607752
 30
0.0
 40
0.35
  0
CIRCLE
  5
189
102
{ACAD_REACTORS
330
18A
102
}
100
AcDbEntity
  8
DT_COMPONENTS
  6
CONTINUOUS
 62
         4
100
AcDbCircle
 10
16.5513735747
 20
41.4572607752
 30
0.0
 40
0.215
  0
CIRCLE
  5
18B
102
{ACAD_REACTORS
330
18E
102
}
100
AcDbEntity
  8
DT_COMPONENTS
  6
CONTINUOUS
 62
         4
100
AcDbCircle
 10
17.226330388
 20
34.4099597638
 30
0.0
 40
0.4
  0
CIRCLE
  5
18C
102
{ACAD_REACTORS
330
18E
102
}
100
AcDbEntity
  8
DT_COMPONENTS
  6
CONTINUOUS
 62
         4
100
AcDbCircle
 10
17.226330388
 20
34.4099597638
 30
0.0
 40
0.35
  0
CIRCLE
  5
18D
102
{ACAD_REACTORS
330
18E
102
}
100
AcDbEntity
  8
DT_COMPONENTS
  6
CONTINUOUS
 62
         4
100
AcDbCircle
 10
17.226330388
 20
34.4099597638
 30
0.0
 40
0.215
  0
CIRCLE
  5
18F
102
{ACAD_REACTORS
330
192
102
}
100
AcDbEntity
  8
DT_COMPONENTS
  6
CONTINUOUS
 62
         4
100
AcDbCircle
 10
17.3860225927
 20
32.0874690945
 30
0.0
 40
0.4
  0
CIRCLE
  5
190
102
{ACAD_REACTORS
330
192
102
}
100
AcDbEntity
  8
DT_COMPONENTS
  6
CONTINUOUS
 62
         4
100
AcDbCircle
 10
17.3860225927
 20
32.0874690945
 30
0.0
 40
0.35
  0
CIRCLE
  5
191
102
{ACAD_REACTORS
330
192
102
}
100
AcDbEntity
  8
DT_COMPONENTS
  6
CONTINUOUS
 62
         4
100
AcDbCircle
 10
17.3860225927
 20
32.0874690945
 30
0.0
 40
0.215
  0
CIRCLE
  5
193
102
{ACAD_REACTORS
330
196
102
}
100
AcDbEntity
  8
DT_COMPONENTS
  6
CONTINUOUS
 62
         4
100
AcDbCircle
 10
14.2599092325
 20
30.742384204
 30
0.0
 40
0.4
  0
CIRCLE
  5
194
102
{ACAD_REACTORS
330
196
102
}
100
AcDbEntity
  8
DT_COMPONENTS
  6
CONTINUOUS
 62
         4
100
AcDbCircle
 10
14.2599092325
 20
30.742384204
 30
0.0
 40
0.35
  0
CIRCLE
  5
195
102
{ACAD_REACTORS
330
196
102
}
100
AcDbEntity
  8
DT_COMPONENTS
  6
CONTINUOUS
 62
         4
100
AcDbCircle
 10
14.2599092325
 20
30.742384204
 30
0.0
 40
0.215
  0
LINE
  5
197
102
{ACAD_REACTORS
330
1AB
102
}
100
AcDbEntity
  8
DT_COMPONENTS
  6
CONTINUOUS
 62
         4
100
AcDbLine
 10
4.541249099
 20
41.3049214867
 30
0.0
 11
4.2533034672
 21
41.650735473
 31
0.0
  0
LINE
  5
198
102
{ACAD_REACTORS
330
1AB
102
}
100
AcDbEntity
  8
DT_COMPONENTS
  6
CONTINUOUS
 62
         4
100
AcDbLine
 10
4.5606936772
 20
41.9066871458
 30
0.0
 11
4.848639309
 21
41.5608731595
 31
0.0
  0
LINE
  5
199
102
{ACAD_REACTORS
330
1AB
102
}
100
AcDbEntity
  8
DT_COMPONENTS
  6
CONTINUOUS
 62
         4
100
AcDbLine
 10
4.2467185233
 20
41.1898052847
 30
0.0
 11
4.3107064415
 21
41.1129577322
 31
0.0
  0
LINE
  5
19A
102
{ACAD_REACTORS
330
1AB
102
}
100
AcDbEntity
  8
DT_COMPONENTS
  6
CONTINUOUS
 62
         4
100
AcDbLine
 10
5.0151940484
 20
41.8296844665
 30
0.0
 11
4.2467185233
 21
41.1898052847
 31
0.0
  0
LINE
  5
19B
102
{ACAD_REACTORS
330
1AB
102
}
100
AcDbEntity
  8
DT_COMPONENTS
  6
CONTINUOUS
 62
         4
100
AcDbLine
 10
4.3107064415
 20
41.1129577322
 30
0.0
 11
5.0791819665
 21
41.752836914
 31
0.0
  0
LINE
  5
19C
102
{ACAD_REACTORS
330
1AB
102
}
100
AcDbEntity
  8
DT_COMPONENTS
  6
CONTINUOUS
 62
         4
100
AcDbLine
 10
4.162695599
 20
41.1930395841
 30
0.0
 11
4.162695599
 21
41.1930395841
 31
0.0
  0
LINE
  5
19D
102
{ACAD_REACTORS
330
1AB
102
}
100
AcDbEntity
  8
DT_COMPONENTS
  6
CONTINUOUS
 62
         4
100
AcDbLine
 10
5.0272305647
 20
41.9129036637
 30
0.0
 11
5.0272305647
 21
41.9129036637
 31
0.0
  0
LINE
  5
19E
102
{ACAD_REACTORS
330
1AB
102
}
100
AcDbEntity
  8
DT_COMPONENTS
  6
CONTINUOUS
 62
         4
100
AcDbLine
 10
5.0791819665
 20
41.752836914
 30
0.0
 11
5.0151940484
 21
41.8296844665
 31
0.0
  0
LINE
  5
19F
102
{ACAD_REACTORS
330
1AB
102
}
100
AcDbEntity
  8
DT_COMPONENTS
  6
CONTINUOUS
 62
         4
100
AcDbLine
 10
4.848639309
 20
41.5608731595
 30
0.0
 11
4.541249099
 21
41.3049214867
 31
0.0
  0
LINE
  5
1A0
102
{ACAD_REACTORS
330
1AB
102
}
100
AcDbEntity
  8
DT_COMPONENTS
  6
CONTINUOUS
 62
         4
100
AcDbLine
 10
4.5469333615
 20
41.512979175
 30
0.0
 11
4.5469333615
 21
41.512979175
 31
0.0
  0
LINE
  5
1A1
102
{ACAD_REACTORS
330
1AB
102
}
100
AcDbEntity
  8
DT_COMPONENTS
  6
CONTINUOUS
 62
         4
100
AcDbLine
 10
4.3224662644
 20
41.7083245994
 30
0.0
 11
4.2584783462
 21
41.7851721519
 31
0.0
  0
LINE
  5
1A2
102
{ACAD_REACTORS
330
1AB
102
}
100
AcDbEntity
  8
DT_COMPONENTS
  6
CONTINUOUS
 62
         4
100
AcDbLine
 10
4.4275429617
 20
41.9259455719
 30
0.0
 11
4.4915308799
 21
41.8490980194
 31
0.0
  0
LINE
  5
1A3
102
{ACAD_REACTORS
330
1AB
102
}
100
AcDbEntity
  8
DT_COMPONENTS
  6
CONTINUOUS
 62
         4
100
AcDbLine
 10
4.2584783462
 20
41.7851721519
 30
0.0
 11
4.4275429617
 21
41.9259455719
 31
0.0
  0
LINE
  5
1A4
102
{ACAD_REACTORS
330
1AB
102
}
100
AcDbEntity
  8
DT_COMPONENTS
  6
CONTINUOUS
 62
         4
100
AcDbLine
 10
4.3212906302
 20
41.5690849485
 30
0.0
 11
4.2812981814
 21
41.6171146688
 31
0.0
  0
LINE
  5
1A5
102
{ACAD_REACTORS
330
1AB
102
}
100
AcDbEntity
  8
DT_COMPONENTS
  6
CONTINUOUS
 62
         4
100
AcDbLine
 10
4.6286808403
 20
41.8250366212
 30
0.0
 11
4.3212906302
 21
41.5690849485
 31
0.0
  0
LINE
  5
1A6
102
{ACAD_REACTORS
330
1AB
102
}
100
AcDbEntity
  8
DT_COMPONENTS
  6
CONTINUOUS
 62
         4
100
AcDbLine
 10
4.5886883914
 20
41.8730663415
 30
0.0
 11
4.6286808403
 21
41.8250366212
 31
0.0
  0
LINE
  5
1A7
102
{ACAD_REACTORS
330
1AB
102
}
100
AcDbEntity
  8
DT_COMPONENTS
  6
CONTINUOUS
 62
         4
100
AcDbLine
 10
4.2812981814
 20
41.6171146688
 30
0.0
 11
4.5886883914
 21
41.8730663415
 31
0.0
  0
LINE
  5
1A8
102
{ACAD_REACTORS
330
1AB
102
}
100
AcDbEntity
  8
DT_COMPONENTS
  6
CONTINUOUS
 62
         4
100
AcDbLine
 10
4.4915308799
 20
41.8490980194
 30
0.0
 11
4.3224662644
 21
41.7083245994
 31
0.0
  0
LINE
  5
1A9
102
{ACAD_REACTORS
330
1AB
102
}
100
AcDbEntity
  8
DT_COMPONENTS
  6
CONTINUOUS
 62
         4
100
AcDbLine
 10
4.2533034672
 20
41.650735473
 30
0.0
 11
4.5606936772
 21
41.9066871458
 31
0.0
  0
LINE
  5
1AA
102
{ACAD_REACTORS
330
1AB
102
}
100
AcDbEntity
  8
DT_COMPONENTS
  6
CONTINUOUS
 62
         4
100
AcDbLine
 10
5.0272305647
 20
41.9129036637
 30
0.0
 11
5.0272305647
 21
41.9129036637
 31
0.0
  0
LINE
  5
1AC
102
{ACAD_REACTORS
330
1C0
102
}
100
AcDbEntity
  8
DT_COMPONENTS
  6
CONTINUOUS
 62
         4
100
AcDbLine
 10
15.4014470097
 20
41.5608012853
 30
0.0
 11
15.6893926416
 21
41.9066152716
 31
0.0
  0
LINE
  5
1AD
102
{ACAD_REACTORS
330
1C0
102
}
100
AcDbEntity
  8
DT_COMPONENTS
  6
CONTINUOUS
 62
         4
100
AcDbLine
 10
15.9967828516
 20
41.6506635988
 30
0.0
 11
15.7088372198
 21
41.3048496125
 31
0.0
  0
LINE
  5
1AE
102
{ACAD_REACTORS
330
1C0
102
}
100
AcDbEntity
  8
DT_COMPONENTS
  6
CONTINUOUS
 62
         4
100
AcDbLine
 10
15.2348922704
 20
41.8296125923
 30
0.0
 11
15.1709043522
 21
41.7527650398
 31
0.0
  0
LINE
  5
1AF
102
{ACAD_REACTORS
330
1C0
102
}
100
AcDbEntity
  8
DT_COMPONENTS
  6
CONTINUOUS
 62
         4
100
AcDbLine
 10
16.0033677955
 20
41.1897334105
 30
0.0
 11
15.2348922704
 21
41.8296125923
 31
0.0
  0
LINE
  5
1B0
102
{ACAD_REACTORS
330
1C0
102
}
100
AcDbEntity
  8
DT_COMPONENTS
  6
CONTINUOUS
 62
         4
100
AcDbLine
 10
15.1709043522
 20
41.7527650398
 30
0.0
 11
15.9393798773
 21
41.112885858
 31
0.0
  0
LINE
  5
1B1
102
{ACAD_REACTORS
330
1C0
102
}
100
AcDbEntity
  8
DT_COMPONENTS
  6
CONTINUOUS
 62
         4
100
AcDbLine
 10
15.222855754
 20
41.9128317895
 30
0.0
 11
15.222855754
 21
41.9128317895
 31
0.0
  0
LINE
  5
1B2
102
{ACAD_REACTORS
330
1C0
102
}
100
AcDbEntity
  8
DT_COMPONENTS
  6
CONTINUOUS
 62
         4
100
AcDbLine
 10
16.0873907198
 20
41.1929677099
 30
0.0
 11
16.0873907198
 21
41.1929677099
 31
0.0
  0
LINE
  5
1B3
102
{ACAD_REACTORS
330
1C0
102
}
100
AcDbEntity
  8
DT_COMPONENTS
  6
CONTINUOUS
 62
         4
100
AcDbLine
 10
15.9393798773
 20
41.112885858
 30
0.0
 11
16.0033677955
 21
41.1897334105
 31
0.0
  0
LINE
  5
1B4
102
{ACAD_REACTORS
330
1C0
102
}
100
AcDbEntity
  8
DT_COMPONENTS
  6
CONTINUOUS
 62
         4
100
AcDbLine
 10
15.7088372198
 20
41.3048496125
 30
0.0
 11
15.4014470097
 21
41.5608012853
 31
0.0
  0
LINE
  5
1B5
102
{ACAD_REACTORS
330
1C0
102
}
100
AcDbEntity
  8
DT_COMPONENTS
  6
CONTINUOUS
 62
         4
100
AcDbLine
 10
15.6070935166
 20
41.5928921986
 30
0.0
 11
15.6070935166
 21
41.5928921986
 31
0.0
  0
LINE
  5
1B6
102
{ACAD_REACTORS
330
1C0
102
}
100
AcDbEntity
  8
DT_COMPONENTS
  6
CONTINUOUS
 62
         4
100
AcDbLine
 10
15.7585554388
 20
41.8490261452
 30
0.0
 11
15.822543357
 21
41.9258736977
 31
0.0
  0
LINE
  5
1B7
102
{ACAD_REACTORS
330
1C0
102
}
100
AcDbEntity
  8
DT_COMPONENTS
  6
CONTINUOUS
 62
         4
100
AcDbLine
 10
15.9916079725
 20
41.7851002777
 30
0.0
 11
15.9276200543
 21
41.7082527252
 31
0.0
  0
LINE
  5
1B8
102
{ACAD_REACTORS
330
1C0
102
}
100
AcDbEntity
  8
DT_COMPONENTS
  6
CONTINUOUS
 62
         4
100
AcDbLine
 10
15.822543357
 20
41.9258736977
 30
0.0
 11
15.9916079725
 21
41.7851002777
 31
0.0
  0
LINE
  5
1B9
102
{ACAD_REACTORS
330
1C0
102
}
100
AcDbEntity
  8
DT_COMPONENTS
  6
CONTINUOUS
 62
         4
100
AcDbLine
 10
15.6214054785
 20
41.824964747
 30
0.0
 11
15.6613979273
 21
41.8729944673
 31
0.0
  0
LINE
  5
1BA
102
{ACAD_REACTORS
330
1C0
102
}
100
AcDbEntity
  8
DT_COMPONENTS
  6
CONTINUOUS
 62
         4
100
AcDbLine
 10
15.9287956885
 20
41.5690130743
 30
0.0
 11
15.6214054785
 21
41.824964747
 31
0.0
  0
LINE
  5
1BB
102
{ACAD_REACTORS
330
1C0
102
}
100
AcDbEntity
  8
DT_COMPONENTS
  6
CONTINUOUS
 62
         4
100
AcDbLine
 10
15.9687881374
 20
41.6170427946
 30
0.0
 11
15.9287956885
 21
41.5690130743
 31
0.0
  0
LINE
  5
1BC
102
{ACAD_REACTORS
330
1C0
102
}
100
AcDbEntity
  8
DT_COMPONENTS
  6
CONTINUOUS
 62
         4
100
AcDbLine
 10
15.6613979273
 20
41.8729944673
 30
0.0
 11
15.9687881374
 21
41.6170427946
 31
0.0
  0
LINE
  5
1BD
102
{ACAD_REACTORS
330
1C0
102
}
100
AcDbEntity
  8
DT_COMPONENTS
  6
CONTINUOUS
 62
         4
100
AcDbLine
 10
15.9276200543
 20
41.7082527252
 30
0.0
 11
15.7585554388
 21
41.8490261452
 31
0.0
  0
LINE
  5
1BE
102
{ACAD_REACTORS
330
1C0
102
}
100
AcDbEntity
  8
DT_COMPONENTS
  6
CONTINUOUS
 62
         4
100
AcDbLine
 10
15.6893926416
 20
41.9066152716
 30
0.0
 11
15.9967828516
 21
41.6506635988
 31
0.0
  0
LINE
  5
1BF
102
{ACAD_REACTORS
330
1C0
102
}
100
AcDbEntity
  8
DT_COMPONENTS
  6
CONTINUOUS
 62
         4
100
AcDbLine
 10
16.0873907198
 20
41.1929677099
 30
0.0
 11
16.0873907198
 21
41.1929677099
 31
0.0
  0
LINE
  5
1C1
102
{ACAD_REACTORS
330
1D5
102
}
100
AcDbEntity
  8
DT_COMPONENTS
  6
CONTINUOUS
 62
         4
100
AcDbLine
 10
16.5541602973
 20
40.6009825125
 30
0.0
 11
16.8421059292
 21
40.9467964988
 31
0.0
  0
LINE
  5
1C2
102
{ACAD_REACTORS
330
1D5
102
}
100
AcDbEntity
  8
DT_COMPONENTS
  6
CONTINUOUS
 62
         4
100
AcDbLine
 10
17.1494961392
 20
40.690844826
 30
0.0
 11
16.8615505074
 21
40.3450308398
 31
0.0
  0
LINE
  5
1C3
102
{ACAD_REACTORS
330
1D5
102
}
100
AcDbEntity
  8
DT_COMPONENTS
  6
CONTINUOUS
 62
         4
100
AcDbLine
 10
16.387605558
 20
40.8697938196
 30
0.0
 11
16.3236176398
 21
40.7929462671
 31
0.0
  0
LINE
  5
1C4
102
{ACAD_REACTORS
330
1D5
102
}
100
AcDbEntity
  8
DT_COMPONENTS
  6
CONTINUOUS
 62
         4
100
AcDbLine
 10
17.1560810831
 20
40.2299146377
 30
0.0
 11
16.387605558
 21
40.8697938196
 31
0.0
  0
LINE
  5
1C5
102
{ACAD_REACTORS
330
1D5
102
}
100
AcDbEntity
  8
DT_COMPONENTS
  6
CONTINUOUS
 62
         4
100
AcDbLine
 10
16.3236176398
 20
40.7929462671
 30
0.0
 11
17.0920931649
 21
40.1530670852
 31
0.0
  0
LINE
  5
1C6
102
{ACAD_REACTORS
330
1D5
102
}
100
AcDbEntity
  8
DT_COMPONENTS
  6
CONTINUOUS
 62
         4
100
AcDbLine
 10
16.3755690417
 20
40.9530130167
 30
0.0
 11
16.3755690417
 21
40.9530130167
 31
0.0
  0
LINE
  5
1C7
102
{ACAD_REACTORS
330
1D5
102
}
100
AcDbEntity
  8
DT_COMPONENTS
  6
CONTINUOUS
 62
         4
100
AcDbLine
 10
17.2401040074
 20
40.2331489371
 30
0.0
 11
17.2401040074
 21
40.2331489371
 31
0.0
  0
LINE
  5
1C8
102
{ACAD_REACTORS
330
1D5
102
}
100
AcDbEntity
  8
DT_COMPONENTS
  6
CONTINUOUS
 62
         4
100
AcDbLine
 10
17.0920931649
 20
40.1530670852
 30
0.0
 11
17.1560810831
 21
40.2299146377
 31
0.0
  0
LINE
  5
1C9
102
{ACAD_REACTORS
330
1D5
102
}
100
AcDbEntity
  8
DT_COMPONENTS
  6
CONTINUOUS
 62
         4
100
AcDbLine
 10
16.8615505074
 20
40.3450308398
 30
0.0
 11
16.5541602973
 21
40.6009825125
 31
0.0
  0
LINE
  5
1CA
102
{ACAD_REACTORS
330
1D5
102
}
100
AcDbEntity
  8
DT_COMPONENTS
  6
CONTINUOUS
 62
         4
100
AcDbLine
 10
16.7598068042
 20
40.6330734258
 30
0.0
 11
16.7598068042
 21
40.6330734258
 31
0.0
  0
LINE
  5
1CB
102
{ACAD_REACTORS
330
1D5
102
}
100
AcDbEntity
  8
DT_COMPONENTS
  6
CONTINUOUS
 62
         4
100
AcDbLine
 10
16.9112687264
 20
40.8892073724
 30
0.0
 11
16.9752566446
 21
40.9660549249
 31
0.0
  0
LINE
  5
1CC
102
{ACAD_REACTORS
330
1D5
102
}
100
AcDbEntity
  8
DT_COMPONENTS
  6
CONTINUOUS
 62
         4
100
AcDbLine
 10
17.1443212601
 20
40.8252815049
 30
0.0
 11
17.0803333419
 21
40.7484339524
 31
0.0
  0
LINE
  5
1CD
102
{ACAD_REACTORS
330
1D5
102
}
100
AcDbEntity
  8
DT_COMPONENTS
  6
CONTINUOUS
 62
         4
100
AcDbLine
 10
16.9752566446
 20
40.9660549249
 30
0.0
 11
17.1443212601
 21
40.8252815049
 31
0.0
  0
LINE
  5
1CE
102
{ACAD_REACTORS
330
1D5
102
}
100
AcDbEntity
  8
DT_COMPONENTS
  6
CONTINUOUS
 62
         4
100
AcDbLine
 10
16.7741187661
 20
40.8651459742
 30
0.0
 11
16.814111215
 21
40.9131756946
 31
0.0
  0
LINE
  5
1CF
102
{ACAD_REACTORS
330
1D5
102
}
100
AcDbEntity
  8
DT_COMPONENTS
  6
CONTINUOUS
 62
         4
100
AcDbLine
 10
17.0815089761
 20
40.6091943015
 30
0.0
 11
16.7741187661
 21
40.8651459742
 31
0.0
  0
LINE
  5
1D0
102
{ACAD_REACTORS
330
1D5
102
}
100
AcDbEntity
  8
DT_COMPONENTS
  6
CONTINUOUS
 62
         4
100
AcDbLine
 10
17.121501425
 20
40.6572240218
 30
0.0
 11
17.0815089761
 21
40.6091943015
 31
0.0
  0
LINE
  5
1D1
102
{ACAD_REACTORS
330
1D5
102
}
100
AcDbEntity
  8
DT_COMPONENTS
  6
CONTINUOUS
 62
         4
100
AcDbLine
 10
16.814111215
 20
40.9131756946
 30
0.0
 11
17.121501425
 21
40.6572240218
 31
0.0
  0
LINE
  5
1D2
102
{ACAD_REACTORS
330
1D5
102
}
100
AcDbEntity
  8
DT_COMPONENTS
  6
CONTINUOUS
 62
         4
100
AcDbLine
 10
17.0803333419
 20
40.7484339524
 30
0.0
 11
16.9112687264
 21
40.8892073724
 31
0.0
  0
LINE
  5
1D3
102
{ACAD_REACTORS
330
1D5
102
}
100
AcDbEntity
  8
DT_COMPONENTS
  6
CONTINUOUS
 62
         4
100
AcDbLine
 10
16.8421059292
 20
40.9467964988
 30
0.0
 11
17.1494961392
 21
40.690844826
 31
0.0
  0
LINE
  5
1D4
102
{ACAD_REACTORS
330
1D5
102
}
100
AcDbEntity
  8
DT_COMPONENTS
  6
CONTINUOUS
 62
         4
100
AcDbLine
 10
17.2401040074
 20
40.2331489371
 30
0.0
 11
17.2401040074
 21
40.2331489371
 31
0.0
  0
LINE
  5
1D6
102
{ACAD_REACTORS
330
1D9
102
}
100
AcDbEntity
  8
DT_COMPONENTS
  6
CONTINUOUS
 62
         4
100
AcDbLine
 10
5.4999427559
 20
43.75
 30
0.0
 11
0.4999427559
 21
43.75
 31
0.0
  0
LINE
  5
1D7
102
{ACAD_REACTORS
330
1D9
102
}
100
AcDbEntity
  8
DT_COMPONENTS
  6
CONTINUOUS
 62
         4
100
AcDbLine
 10
0.4999427559
 20
43.25
 30
0.0
 11
5.4999427559
 21
43.25
 31
0.0
  0
LINE
  5
1D8
102
{ACAD_REACTORS
330
1D9
102
}
100
AcDbEntity
  8
DT_COMPONENTS
  6
CONTINUOUS
 62
         4
100
AcDbLine
 10
5.4999427559
 20
43.25
 30
0.0
 11
5.4999427559
 21
43.75
 31
0.0
  0
ENDSEC
  0
SECTION
  2
OBJECTS
  0
DICTIONARY
  5
19
100
AcDbDictionary
  3
ACAD_GROUP
350
1A
  3
ACAD_MLINESTYLE
350
1B
  0
DICTIONARY
  5
1A
102
{ACAD_REACTORS
330
19
102
}
100
AcDbDictionary
  3
VELLUMGRP1
350
96
  3
VELLUMGRP2
350
9A
  3
VELLUMGRP3
350
9E
  3
VELLUMGRP4
350
A2
  3
VELLUMGRP5
350
A6
  3
VELLUMGRP6
350
BB
  3
VELLUMGRP7
350
C0
  3
VELLUMGRP8
350
C5
  3
VELLUMGRP9
350
C9
  3
VELLUMGRP10
350
CE
  3
VELLUMGRP11
350
D2
  3
VELLUMGRP12
350
D6
  3
VELLUMGRP13
350
DA
  3
VELLUMGRP14
350
DE
  3
VELLUMGRP15
350
EF
  3
VELLUMGRP16
350
F6
  3
VELLUMGRP17
350
FA
  3
VELLUMGRP18
350
10F
  3
VELLUMGRP19
350
124
  3
VELLUMGRP20
350
12A
  3
VELLUMGRP21
350
12E
  3
VELLUMGRP22
350
143
  3
VELLUMGRP23
350
158
  3
VELLUMGRP24
350
16D
  3
VELLUMGRP25
350
182
  3
VELLUMGRP26
350
186
  3
VELLUMGRP27
350
18A
  3
VELLUMGRP28
350
18E
  3
VELLUMGRP29
350
192
  3
VELLUMGRP30
350
196
  3
VELLUMGRP31
350
1AB
  3
VELLUMGRP32
350
1C0
  3
VELLUMGRP33
350
1D5
  3
VELLUMGRP34
350
1D9
  0
DICTIONARY
  5
1B
102
{ACAD_REACTORS
330
19
102
}
100
AcDbDictionary
  3
STANDARD
350
1C
  0
MLINESTYLE
  5
1C
102
{ACAD_REACTORS
330
1B
102
}
100
AcDbMlineStyle
  2
STANDARD
 70
         0
  3

 62
         0
 51
90.0
 52
90.0
 71
         2
 49
0.5
 62
       256
  6
BYLAYER
 49
-0.5
 62
       256
  6
BYLAYER
  0
GROUP
  5
96
102
{ACAD_XDICTIONARY
360
5CEB210060EB2100
102
}
102
{ACAD_REACTORS
330
1A
102
}
100
AcDbGroup
300
This is Vellum Group Number 1
 70
         0
 71
         1
340
92
340
93
340
94
340
95
  0
GROUP
  5
9A
102
{ACAD_XDICTIONARY
360
5CEB210060EB2100
102
}
102
{ACAD_REACTORS
330
1A
102
}
100
AcDbGroup
300
This is Vellum Group Number 2
 70
         0
 71
         1
340
97
340
98
340
99
  0
GROUP
  5
9E
102
{ACAD_XDICTIONARY
360
5CEB210060EB2100
102
}
102
{ACAD_REACTORS
330
1A
102
}
100
AcDbGroup
300
This is Vellum Group Number 3
 70
         0
 71
         1
340
9B
340
9C
340
9D
  0
GROUP
  5
A2
102
{ACAD_XDICTIONARY
360
3207917C60EB2100
102
}
102
{ACAD_REACTORS
330
1A
102
}
100
AcDbGroup
300
This is Vellum Group Number 4
 70
         0
 71
         1
340
9F
340
A0
340
A1
  0
GROUP
  5
A6
102
{ACAD_XDICTIONARY
360
3207917C60EB2100
102
}
102
{ACAD_REACTORS
330
1A
102
}
100
AcDbGroup
300
This is Vellum Group Number 5
 70
         0
 71
         1
340
A3
340
A4
340
A5
  0
GROUP
  5
BB
102
{ACAD_XDICTIONARY
360
3207917C60EB2100
102
}
102
{ACAD_REACTORS
330
1A
102
}
100
AcDbGroup
300
This is Vellum Group Number 6
 70
         0
 71
         1
340
A7
340
A8
340
A9
340
AA
340
AB
340
AC
340
AD
340
AE
340
AF
340
B0
340
B1
340
B2
340
B3
340
B4
340
B5
340
B6
340
B7
340
B8
340
B9
340
BA
  0
GROUP
  5
C0
102
{ACAD_XDICTIONARY
360
3207917C60EB2100
102
}
102
{ACAD_REACTORS
330
1A
102
}
100
AcDbGroup
300
This is Vellum Group Number 7
 70
         0
 71
         1
340
BC
340
BD
340
BE
340
BF
  0
GROUP
  5
C5
102
{ACAD_XDICTIONARY
360
3207917C60EB2100
102
}
102
{ACAD_REACTORS
330
1A
102
}
100
AcDbGroup
300
This is Vellum Group Number 8
 70
         0
 71
         1
340
C1
340
C2
340
C3
340
C4
  0
GROUP
  5
C9
102
{ACAD_XDICTIONARY
360
3207917C60EB2100
102
}
102
{ACAD_REACTORS
330
1A
102
}
100
AcDbGroup
300
This is Vellum Group Number 9
 70
         0
 71
         1
340
C6
340
C7
340
C8
  0
GROUP
  5
CE
102
{ACAD_XDICTIONARY
360
3207917C60EB2100
102
}
102
{ACAD_REACTORS
330
1A
102
}
100
AcDbGroup
300
This is Vellum Group Number 10
 70
         0
 71
         1
340
CA
340
CB
340
CC
340
CD
  0
GROUP
  5
D2
102
{ACAD_XDICTIONARY
360
3207917C60EB2100
102
}
102
{ACAD_REACTORS
330
1A
102
}
100
AcDbGroup
300
This is Vellum Group Number 11
 70
         0
 71
         1
340
CF
340
D0
340
D1
  0
GROUP
  5
D6
102
{ACAD_XDICTIONARY
360
3207917C60EB2100
102
}
102
{ACAD_REACTORS
330
1A
102
}
100
AcDbGroup
300
This is Vellum Group Number 12
 70
         0
 71
         1
340
D3
340
D4
340
D5
  0
GROUP
  5
DA
102
{ACAD_XDICTIONARY
360
3207917C60EB2100
102
}
102
{ACAD_REACTORS
330
1A
102
}
100
AcDbGroup
300
This is Vellum Group Number 13
 70
         0
 71
         1
340
D7
340
D8
340
D9
  0
GROUP
  5
DE
102
{ACAD_XDICTIONARY
360
3207917C60EB2100
102
}
102
{ACAD_REACTORS
330
1A
102
}
100
AcDbGroup
300
This is Vellum Group Number 14
 70
         0
 71
         1
340
DB
340
DC
340
DD
  0
GROUP
  5
EF
102
{ACAD_XDICTIONARY
360
3207917C60EB2100
102
}
102
{ACAD_REACTORS
330
1A
102
}
100
AcDbGroup
300
This is Vellum Group Number 15
 70
         0
 71
         1
340
EA
340
EB
340
EC
340
ED
340
EE
  0
GROUP
  5
F6
102
{ACAD_XDICTIONARY
360
3207917C60EB2100
102
}
102
{ACAD_REACTORS
330
1A
102
}
100
AcDbGroup
300
This is Vellum Group Number 16
 70
         0
 71
         1
340
F3
340
F4
340
F5
  0
GROUP
  5
FA
102
{ACAD_XDICTIONARY
360
3207917C60EB2100
102
}
102
{ACAD_REACTORS
330
1A
102
}
100
AcDbGroup
300
This is Vellum Group Number 17
 70
         0
 71
         1
340
F7
340
F8
340
F9
  0
GROUP
  5
10F
102
{ACAD_XDICTIONARY
360
3207917C60EB2100
102
}
102
{ACAD_REACTORS
330
1A
102
}
100
AcDbGroup
300
This is Vellum Group Number 18
 70
         0
 71
         1
340
FB
340
FC
340
FD
340
FE
340
FF
340
100
340
101
340
102
340
103
340
104
340
105
340
106
340
107
340
108
340
109
340
10A
340
10B
340
10C
340
10D
340
10E
  0
GROUP
  5
124
102
{ACAD_XDICTIONARY
360
3207917C60EB2100
102
}
102
{ACAD_REACTORS
330
1A
102
}
100
AcDbGroup
300
This is Vellum Group Number 19
 70
         0
 71
         1
340
110
340
111
340
112
340
113
340
114
340
115
340
116
340
117
340
118
340
119
340
11A
340
11B
340
11C
340
11D
340
11E
340
11F
340
120
340
121
340
122
340
123
  0
GROUP
  5
12A
102
{ACAD_XDICTIONARY
360
3207917C60EB2100
102
}
102
{ACAD_REACTORS
330
1A
102
}
100
AcDbGroup
300
This is Vellum Group Number 20
 70
         0
 71
         1
340
127
340
128
340
129
  0
GROUP
  5
12E
102
{ACAD_XDICTIONARY
360
3207917C60EB2100
102
}
102
{ACAD_REACTORS
330
1A
102
}
100
AcDbGroup
300
This is Vellum Group Number 21
 70
         0
 71
         1
340
12B
340
12C
340
12D
  0
GROUP
  5
143
102
{ACAD_XDICTIONARY
360
3207917C60EB2100
102
}
102
{ACAD_REACTORS
330
1A
102
}
100
AcDbGroup
300
This is Vellum Group Number 22
 70
         0
 71
         1
340
12F
340
130
340
131
340
132
340
133
340
134
340
135
340
136
340
137
340
138
340
139
340
13A
340
13B
340
13C
340
13D
340
13E
340
13F
340
140
340
141
340
142
  0
GROUP
  5
158
102
{ACAD_XDICTIONARY
360
3207917C60EB2100
102
}
102
{ACAD_REACTORS
330
1A
102
}
100
AcDbGroup
300
This is Vellum Group Number 23
 70
         0
 71
         1
340
144
340
145
340
146
340
147
340
148
340
149
340
14A
340
14B
340
14C
340
14D
340
14E
340
14F
340
150
340
151
340
152
340
153
340
154
340
155
340
156
340
157
  0
GROUP
  5
16D
102
{ACAD_XDICTIONARY
360
3207917C60EB2100
102
}
102
{ACAD_REACTORS
330
1A
102
}
100
AcDbGroup
300
This is Vellum Group Number 24
 70
         0
 71
         1
340
159
340
15A
340
15B
340
15C
340
15D
340
15E
340
15F
340
160
340
161
340
162
340
163
340
164
340
165
340
166
340
167
340
168
340
169
340
16A
340
16B
340
16C
  0
GROUP
  5
182
102
{ACAD_XDICTIONARY
360
3207917C60EB2100
102
}
102
{ACAD_REACTORS
330
1A
102
}
100
AcDbGroup
300
This is Vellum Group Number 25
 70
         0
 71
         1
340
16E
340
16F
340
170
340
171
340
172
340
173
340
174
340
175
340
176
340
177
340
178
340
179
340
17A
340
17B
340
17C
340
17D
340
17E
340
17F
340
180
340
181
  0
GROUP
  5
186
102
{ACAD_XDICTIONARY
360
3207917C60EB2100
102
}
102
{ACAD_REACTORS
330
1A
102
}
100
AcDbGroup
300
This is Vellum Group Number 26
 70
         0
 71
         1
340
183
340
184
340
185
  0
GROUP
  5
18A
102
{ACAD_XDICTIONARY
360
3207917C60EB2100
102
}
102
{ACAD_REACTORS
330
1A
102
}
100
AcDbGroup
300
This is Vellum Group Number 27
 70
         0
 71
         1
340
187
340
188
340
189
  0
GROUP
  5
18E
102
{ACAD_XDICTIONARY
360
3207917C60EB2100
102
}
102
{ACAD_REACTORS
330
1A
102
}
100
AcDbGroup
300
This is Vellum Group Number 28
 70
         0
 71
         1
340
18B
340
18C
340
18D
  0
GROUP
  5
192
102
{ACAD_XDICTIONARY
360
3207917C60EB2100
102
}
102
{ACAD_REACTORS
330
1A
102
}
100
AcDbGroup
300
This is Vellum Group Number 29
 70
         0
 71
         1
340
18F
340
190
340
191
  0
GROUP
  5
196
102
{ACAD_XDICTIONARY
360
3207917C60EB2100
102
}
102
{ACAD_REACTORS
330
1A
102
}
100
AcDbGroup
300
This is Vellum Group Number 30
 70
         0
 71
         1
340
193
340
194
340
195
  0
GROUP
  5
1AB
102
{ACAD_XDICTIONARY
360
3207917C60EB2100
102
}
102
{ACAD_REACTORS
330
1A
102
}
100
AcDbGroup
300
This is Vellum Group Number 31
 70
         0
 71
         1
340
197
340
198
340
199
340
19A
340
19B
340
19C
340
19D
340
19E
340
19F
340
1A0
340
1A1
340
1A2
340
1A3
340
1A4
340
1A5
340
1A6
340
1A7
340
1A8
340
1A9
340
1AA
  0
GROUP
  5
1C0
102
{ACAD_XDICTIONARY
360
3207917C60EB2100
102
}
102
{ACAD_REACTORS
330
1A
102
}
100
AcDbGroup
300
This is Vellum Group Number 32
 70
         0
 71
         1
340
1AC
340
1AD
340
1AE
340
1AF
340
1B0
340
1B1
340
1B2
340
1B3
340
1B4
340
1B5
340
1B6
340
1B7
340
1B8
340
1B9
340
1BA
340
1BB
340
1BC
340
1BD
340
1BE
340
1BF
  0
GROUP
  5
1D5
102
{ACAD_XDICTIONARY
360
3207917C60EB2100
102
}
102
{ACAD_REACTORS
330
1A
102
}
100
AcDbGroup
300
This is Vellum Group Number 33
 70
         0
 71
         1
340
1C1
340
1C2
340
1C3
340
1C4
340
1C5
340
1C6
340
1C7
340
1C8
340
1C9
340
1CA
340
1CB
340
1CC
340
1CD
340
1CE
340
1CF
340
1D0
340
1D1
340
1D2
340
1D3
340
1D4
  0
GROUP
  5
1D9
102
{ACAD_XDICTIONARY
360
3207917C60EB2100
102
}
102
{ACAD_REACTORS
330
1A
102
}
100
AcDbGroup
300
This is Vellum Group Number 34
 70
         0
 71
         1
340
1D6
340
1D7
340
1D8
  0
ENDSEC
  0
EOF
