  0
SECTION
  2
HEADER
  9
$ACADVER
  1
AC1014
  9
$ACADMAINTVER
 70
         0
  9
$DWGCODEPAGE
  3
ANSI_1252
  9
$INSBASE
 10
0.0
 20
0.0
 30
0.0
  9
$EXTMIN
 10
-0.93969262
 20
-0.98480775
 30
0.0
  9
$EXTMAX
 10
13.0
 20
12.98480775
 30
0.0
  9
$LIMMIN
 10
0.0
 20
0.0
  9
$LIMMAX
 10
0.0
 20
0.0
  9
$ORTHOMODE
 70
         0
  9
$REGENMODE
 70
         1
  9
$FILLMODE
 70
         1
  9
$QTEXTMODE
 70
         0
  9
$MIRRTEXT
 70
         1
  9
$DRAGMODE
 70
         2
  9
$LTSCALE
 40
21.5596
  9
$OSMODE
 70
         0
  9
$ATTMODE
 70
         1
  9
$TEXTSIZE
 40
0.2
  9
$TRACEWID
 40
0.05
  9
$TEXTSTYLE
  7
STANDARD
  9
$CLAYER
  8
0
  9
$CELTYPE
  6
CONTINUOUS
  9
$CECOLOR
 62
       256
  9
$CELTSCALE
 40
1.0
  9
$DELOBJ
 70
         1
  9
$DISPSILH
 70
         0
  9
$DIMSCALE
 40
1.0
  9
$DIMASZ
 40
0.18
  9
$DIMEXO
 40
0.0625
  9
$DIMDLI
 40
0.38
  9
$DIMRND
 40
0.0
  9
$DIMDLE
 40
0.0
  9
$DIMEXE
 40
0.18
  9
$DIMTP
 40
0.0
  9
$DIMTM
 40
0.0
  9
$DIMTXT
 40
0.18
  9
$DIMCEN
 40
0.09
  9
$DIMTSZ
 40
0.0
  9
$DIMTOL
 70
         0
  9
$DIMLIM
 70
         0
  9
$DIMTIH
 70
         1
  9
$DIMTOH
 70
         1
  9
$DIMSE1
 70
         0
  9
$DIMSE2
 70
         0
  9
$DIMTAD
 70
         0
  9
$DIMZIN
 70
         0
  9
$DIMBLK
  1

  9
$DIMASO
 70
         1
  9
$DIMSHO
 70
         1
  9
$DIMPOST
  1

  9
$DIMAPOST
  1

  9
$DIMALT
 70
         0
  9
$DIMALTD
 70
         2
  9
$DIMALTF
 40
25.4
  9
$DIMLFAC
 40
1.0
  9
$DIMTOFL
 70
         0
  9
$DIMTVP
 40
0.0
  9
$DIMTIX
 70
         0
  9
$DIMSOXD
 70
         0
  9
$DIMSAH
 70
         0
  9
$DIMBLK1
  1

  9
$DIMBLK2
  1

  9
$DIMSTYLE
  2
STANDARD
  9
$DIMCLRD
 70
         0
  9
$DIMCLRE
 70
         0
  9
$DIMCLRT
 70
         0
  9
$DIMTFAC
 40
1.0
  9
$DIMGAP
 40
0.09
  9
$DIMJUST
 70
         0
  9
$DIMSD1
 70
         0
  9
$DIMSD2
 70
         0
  9
$DIMTOLJ
 70
         1
  9
$DIMTZIN
 70
         0
  9
$DIMALTZ
 70
         0
  9
$DIMALTTZ
 70
         0
  9
$DIMFIT
 70
         3
  9
$DIMUPT
 70
         0
  9
$DIMUNIT
 70
         2
  9
$DIMDEC
 70
         4
  9
$DIMTDEC
 70
         4
  9
$DIMALTU
 70
         2
  9
$DIMALTTD
 70
         2
  9
$DIMTXSTY
  7
STANDARD
  9
$DIMAUNIT
 70
         0
  9
$LUNITS
 70
         2
  9
$LUPREC
 70
         4
  9
$SKETCHINC
 40
0.1
  9
$FILLETRAD
 40
0.0
  9
$AUNITS
 70
         0
  9
$AUPREC
 70
         0
  9
$MENU
  1
acad
  9
$ELEVATION
 40
0.0
  9
$PELEVATION
 40
0.0
  9
$THICKNESS
 40
0.0
  9
$LIMCHECK
 70
         0
  9
$BLIPMODE
 70
         1
  9
$CHAMFERA
 40
0.0
  9
$CHAMFERB
 40
0.0
  9
$CHAMFERC
 40
0.0
  9
$CHAMFERD
 40
0.0
  9
$SKPOLY
 70
         0
  9
$TDCREATE
 40
2458143.502719908
  9
$TDUPDATE
 40
2458143.502719908
  9
$TDINDWG
 40
0.0000000000
  9
$TDUSRTIMER
 40
0.0000000000
  9
$USRTIMER
 70
         1
  9
$ANGBASE
 50
0.0
  9
$ANGDIR
 70
         0
  9
$PDMODE
 70
         0
  9
$PDSIZE
 40
0.0
  9
$PLINEWID
 40
0.0
  9
$COORDS
 70
         0
  9
$SPLFRAME
 70
         0
  9
$SPLINETYPE
 70
         6
  9
$SPLINESEGS
 70
         8
  9
$ATTDIA
 70
         0
  9
$ATTREQ
 70
         1
  9
$HANDLING
 70
         1
  9
$HANDSEED
  5
AE
  9
$SURFTAB1
 70
         6
  9
$SURFTAB2
 70
         6
  9
$SURFTYPE
 70
         6
  9
$SURFU
 70
         6
  9
$SURFV
 70
         6
  9
$UCSNAME
  2

  9
$UCSORG
 10
0.0
 20
0.0
 30
0.0
  9
$UCSXDIR
 10
1.0
 20
0.0
 30
0.0
  9
$UCSYDIR
 10
0.0
 20
1.0
 30
0.0
  9
$PUCSNAME
  2

  9
$PUCSORG
 10
0.0
 20
0.0
 30
0.0
  9
$PUCSXDIR
 10
1.0
 20
0.0
 30
0.0
  9
$PUCSYDIR
 10
0.0
 20
1.0
 30
0.0
  9
$USERI1
 70
         0
  9
$USERI2
 70
         0
  9
$USERI3
 70
         0
  9
$USERI4
 70
         0
  9
$USERI5
 70
         0
  9
$USERR1
 40
0.0
  9
$USERR2
 40
0.0
  9
$USERR3
 40
0.0
  9
$USERR4
 40
0.0
  9
$USERR5
 40
0.0
  9
$WORLDVIEW
 70
         1
  9
$SHADEDGE
 70
         3
  9
$SHADEDIF
 70
        70
  9
$TILEMODE
 70
         1
  9
$MAXACTVP
 70
        16
  9
$PINSBASE
 10
0.0
 20
0.0
 30
0.0
  9
$PLIMCHECK
 70
         0
  9
$PEXTMIN
 10
1.0000000000E+20
 20
1.0000000000E+20
 30
1.0000000000E+20
  9
$PEXTMAX
 10
-1.0000000000E+20
 20
-1.0000000000E+20
 30
-1.0000000000E+20
  9
$PLIMMIN
 10
0.0
 20
0.0
  9
$PLIMMAX
 10
12.0
 20
9.0
  9
$UNITMODE
 70
         0
  9
$VISRETAIN
 70
         0
  9
$PLINEGEN
 70
         1
  9
$PSLTSCALE
 70
         0
  9
$TREEDEPTH
 70
      3020
  9
$PICKSTYLE
 70
         1
  9
$CMLSTYLE
  2
STANDARD
  9
$CMLJUST
 70
         0
  9
$CMLSCALE
 40
1.0
  9
$PROXYGRAPHICS
 70
         0
  9
$MEASUREMENT
 70
         0
  0
ENDSEC
  0
SECTION
  2
CLASSES
  0
CLASS
  1
LWPOLYLINE
  2
AcDbPolyline
  3
"AutoCAD"
 90
        0
280
         0
281
         1
  0
CLASS
  1
IMAGE
  2
AcDbRasterImage
  3
ISM
 90
      127
280
         0
281
         1
  0
CLASS
  1
OLE2FRAME
  2
AcDbOle2Frame
  3
""
 90
        0
280
         0
281
         1
  0
CLASS
  1
HATCH
  2
AcDbHatch
  3
"ACAD_SEDONA"
 90
        0
280
         0
281
         1
  0
CLASS
  1
DICTIONARYVAR
  2
AcDbDictionaryVar
  3
"AutoCAD"
 90
        0
280
         0
281
         0
  0
CLASS
  1
RASTERVARIABLES
  2
AcDbRasterVariables
  3
ISM
 90
        0
280
         0
281
         0
  0
CLASS
  1
IMAGEDEF
  2
AcDbRasterImageDef
  3
ISM
 90
        0
280
         0
281
         0
  0
CLASS
  1
IMAGEDEF_REACTOR
  2
AcDbRasterImageDefReactor
  3
ISM
 90
        1
280
         0
281
         0
  0
CLASS
  1
IDBUFFER
  2
AcDbIdBuffer
  3
"Acad"
 90
        0
280
         0
281
         0
  0
CLASS
  1
SPATIAL_FILTER
  2
AcDbSpatialFilter
  3
"Acad"
 90
        0
280
         0
281
         0
  0
CLASS
  1
XRECORD
  2
AcDbXrecord
  3
"<Built In>"
 90
        0
280
         0
281
         0
  0
CLASS
  1
SORTENTSTABLE
  2
AcDbSortentsTable
  3
"AutoCAD"
 90
        0
280
         0
281
         0
  0
CLASS
  1
LAYER_INDEX
  2
AcDbLayerIndex
  3
"Acad"
 90
        0
280
         0
281
         0
  0
CLASS
  1
SPATIAL_INDEX
  2
AcDbSpatialIndex
  3
"Acad"
 90
        0
280
         0
281
         0
  0
CLASS
  1
OBJECT_PTR
  2
CAseDLPNTableRecord
  3
"ASE-LPNTableRecord"
 90
        1
280
         0
281
         0
  0
CLASS
  1
LAYOUT
  2
AcDbLayout
  3
"AutoCAD 2000"
 90
        1
280
         0
281
         0
  0
CLASS
  1
PLOTSETTINGS
  2
AcDbPlotSettings
  3
"AutoCAD 2000"
 90
        1
280
         0
281
         0
  0
CLASS
  1
ACDBDICTIONARYWDFLT
  2
AcDbDictionaryWithDefault
  3
"AutoCAD 2000"
 90
        1
280
         0
281
         0
  0
CLASS
  1
ACDBPLACEHOLDER
  2
AcDbPlaceHolder
  3
"AutoCAD 2000"
 90
        1
280
         0
281
         0
  0
CLASS
  1
VBA_PROJECT
  2
AcDbVbaProject
  3
"acadvba"
 90
        1
280
         0
281
         0
  0
CLASS
  1
WIPEOUT
  2
AcDbWipeout
  3
WipeOut|AutoCAD Express Tool|expresstools@autodesk.com
 90
      127
280
         0
281
         1
  0
CLASS
  1
WIPEOUTVARIABLES
  2
AcDbWipeoutVariables
  3
WipeOut|AutoCAD Express Tool|expresstools@autodesk.com
 90
        0
280
         0
281
         0
  0
CLASS
  1
RTEXT
  2
RText
  3
RText|AutoCAD Express Tool|expresstools@autodesk.com
 90
        0
280
         0
281
         1
  0
CLASS
  1
ARCALIGNEDTEXT
  2
AcDbArcAlignedText
  3
ATEXT|AutoCAD Express Tool|expresstools@autodesk.com
 90
        0
280
         0
281
         1
  0
ENDSEC
  0
SECTION
  2
TABLES
  0
TABLE
  2
VPORT
  5
7
100
AcDbSymbolTable
 70
         1
  0
VPORT
  5
15
100
AcDbSymbolTableRecord
100
AcDbViewportTableRecord
  2
*ACTIVE
 70
         0
 10
0.0
 20
0.0
 11
1.0
 21
1.0
 12
6.591288
 22
4.579184
 13
0.0
 23
0.0
 14
1.0
 24
1.0
 15
0.0
 25
0.0
 16
0.0
 26
0.0
 36
1.0
 17
0.0
 27
0.0
 37
0.0
 40
9.158369
 41
0.688564
 42
50.0
 43
0.0
 44
0.0
 50
0.0
 51
0.0
 71
         0
 72
       100
 73
         1
 74
         1
 75
         0
 76
         0
 77
         0
 78
         0
  0
ENDTAB
  0
TABLE
  2
LTYPE
  5
4
100
AcDbSymbolTable
 70
        13
  0
LTYPE
  5
11
100
AcDbSymbolTableRecord
100
AcDbLinetypeTableRecord
  2
BYBLOCK
 70
        64
  3

 72
        65
 73
         0
 40
0.0
  0
LTYPE
  5
12
100
AcDbSymbolTableRecord
100
AcDbLinetypeTableRecord
  2
BYLAYER
 70
        64
  3

 72
        65
 73
         0
 40
0.0
  0
LTYPE
  5
13
100
AcDbSymbolTableRecord
100
AcDbLinetypeTableRecord
  2
CONTINUOUS
 70
        64
  3
Solid line
 72
        65
 73
         0
 40
0.0
  0
LTYPE
  5
1E
100
AcDbSymbolTableRecord
100
AcDbLinetypeTableRecord
  2
DOTTED
 70
        64
  3
Dotted
 72
        65
 73
         2
 40
0.125
 49
0.0
 74
         0
 49
-0.125
 74
         0
  0
LTYPE
  5
1F
100
AcDbSymbolTableRecord
100
AcDbLinetypeTableRecord
  2
CENTER
 70
        64
  3
Center
 72
        65
 73
         4
 40
0.7699999809
 49
0.5
 74
         0
 49
-0.0724999979
 74
         0
 49
0.125
 74
         0
 49
-0.0724999979
 74
         0
  0
LTYPE
  5
20
100
AcDbSymbolTableRecord
100
AcDbLinetypeTableRecord
  2
DASHED
 70
        64
  3
Dashed
 72
        65
 73
         2
 40
0.375
 49
0.25
 74
         0
 49
-0.125
 74
         0
  0
LTYPE
  5
21
100
AcDbSymbolTableRecord
100
AcDbLinetypeTableRecord
  2
HIDDEN
 70
        64
  3
Hidden
 72
        65
 73
         2
 40
0.1974999905
 49
0.125
 74
         0
 49
-0.0724999979
 74
         0
  0
LTYPE
  5
22
100
AcDbSymbolTableRecord
100
AcDbLinetypeTableRecord
  2
PHANTOM
 70
        64
  3
Phantom
 72
        65
 73
         6
 40
0.9674999714
 49
0.5
 74
         0
 49
-0.0724999979
 74
         0
 49
0.125
 74
         0
 49
-0.0724999979
 74
         0
 49
0.125
 74
         0
 49
-0.0724999979
 74
         0
  0
LTYPE
  5
23
100
AcDbSymbolTableRecord
100
AcDbLinetypeTableRecord
  2
DASHDOT
 70
        64
  3
Dashdot
 72
        65
 73
         4
 40
0.6762499809
 49
0.5
 74
         0
 49
-0.0724999979
 74
         0
 49
0.03125
 74
         0
 49
-0.0724999979
 74
         0
  0
LTYPE
  5
24
100
AcDbSymbolTableRecord
100
AcDbLinetypeTableRecord
  2
BORDER
 70
        64
  3
Border
 72
        65
 73
         6
 40
1.2487499714
 49
0.5
 74
         0
 49
-0.0724999979
 74
         0
 49
0.5
 74
         0
 49
-0.0724999979
 74
         0
 49
0.03125
 74
         0
 49
-0.0724999979
 74
         0
  0
LTYPE
  5
25
100
AcDbSymbolTableRecord
100
AcDbLinetypeTableRecord
  2
DIVIDE
 70
        64
  3
Divide
 72
        65
 73
         6
 40
0.7799999714
 49
0.5
 74
         0
 49
-0.0724999979
 74
         0
 49
0.03125
 74
         0
 49
-0.0724999979
 74
         0
 49
0.03125
 74
         0
 49
-0.0724999979
 74
         0
  0
LTYPE
  5
26
100
AcDbSymbolTableRecord
100
AcDbLinetypeTableRecord
  2
CUTTING
 70
        64
  3
Cutting
 72
        65
 73
         6
 40
1.4674999714
 49
1.0
 74
         0
 49
-0.0724999979
 74
         0
 49
0.125
 74
         0
 49
-0.0724999979
 74
         0
 49
0.125
 74
         0
 49
-0.0724999979
 74
         0
  0
LTYPE
  5
27
100
AcDbSymbolTableRecord
100
AcDbLinetypeTableRecord
  2
STITCH
 70
        64
  3
Stitch
 72
        65
 73
         2
 40
0.1449999958
 49
0.0724999979
 74
         0
 49
-0.0724999979
 74
         0
  0
ENDTAB
  0
TABLE
  2
LAYER
  5
2
100
AcDbSymbolTable
 70
        16
  0
LAYER
  5
14
100
AcDbSymbolTableRecord
100
AcDbLayerTableRecord
  2
0
 70
         0
 62
         7
  6
CONTINUOUS
  0
LAYER
  5
28
100
AcDbSymbolTableRecord
100
AcDbLayerTableRecord
  2
1_250BIT_500DEP
 70
         0
 62
         7
  6
CONTINUOUS
  0
LAYER
  5
29
100
AcDbSymbolTableRecord
100
AcDbLayerTableRecord
  2
7_250BIT_750OUTLINE
 70
         0
 62
         7
  6
CONTINUOUS
  0
LAYER
  5
2A
100
AcDbSymbolTableRecord
100
AcDbLayerTableRecord
  2
3_250BIT_200DEP
 70
         0
 62
         7
  6
CONTINUOUS
  0
LAYER
  5
2B
100
AcDbSymbolTableRecord
100
AcDbLayerTableRecord
  2
4_250BIT_375DEP
 70
         0
 62
         7
  6
CONTINUOUS
  0
LAYER
  5
2C
100
AcDbSymbolTableRecord
100
AcDbLayerTableRecord
  2
6_125BIT_750DEP
 70
         0
 62
         7
  6
CONTINUOUS
  0
LAYER
  5
2D
100
AcDbSymbolTableRecord
100
AcDbLayerTableRecord
  2
0_WOOD
 70
         0
 62
         7
  6
CONTINUOUS
  0
LAYER
  5
2E
100
AcDbSymbolTableRecord
100
AcDbLayerTableRecord
  2
5_250BIT_500OUTLINE
 70
         0
 62
         7
  6
CONTINUOUS
  0
LAYER
  5
2F
100
AcDbSymbolTableRecord
100
AcDbLayerTableRecord
  2
8_250BIT_750TAB
 70
         0
 62
         7
  6
CONTINUOUS
  0
LAYER
  5
30
100
AcDbSymbolTableRecord
100
AcDbLayerTableRecord
  2
CONSTRUCTION
 70
         0
 62
         7
  6
CONTINUOUS
  0
LAYER
  5
31
100
AcDbSymbolTableRecord
100
AcDbLayerTableRecord
  2
9_500VCARVE_700DEP
 70
         0
 62
         7
  6
CONTINUOUS
  0
LAYER
  5
32
100
AcDbSymbolTableRecord
100
AcDbLayerTableRecord
  2

 70
         0
 62
         7
  6
CONTINUOUS
  0
LAYER
  5
33
100
AcDbSymbolTableRecord
100
AcDbLayerTableRecord
  2
CHANGELISTTXT
 70
         0
 62
         7
  6
CONTINUOUS
  0
LAYER
  5
34
100
AcDbSymbolTableRecord
100
AcDbLayerTableRecord
  2
COMPONENTS
 70
         0
 62
         7
  6
CONTINUOUS
  0
LAYER
  5
35
100
AcDbSymbolTableRecord
100
AcDbLayerTableRecord
  2
9A_250BIT_450DEP
 70
         0
 62
         7
  6
CONTINUOUS
  0
LAYER
  5
36
100
AcDbSymbolTableRecord
100
AcDbLayerTableRecord
  2
10_375VCARVE_888DEP
 70
         0
 62
         7
  6
CONTINUOUS
  0
ENDTAB
  0
TABLE
  2
STYLE
  5
3
100
AcDbSymbolTable
 70
         2
  0
STYLE
  5
17
100
AcDbSymbolTableRecord
100
AcDbTextStyleTableRecord
  2
STANDARD
 70
         0
 40
0.0
 41
1.0
 50
0.0
 71
         0
 42
0.0
  3
txt
  4

  0
STYLE
  5
1D
100
AcDbSymbolTableRecord
100
AcDbTextStyleTableRecord
  2
PLOTTER
 70
         0
 40
0.0
 41
0.98
 50
0.0
 71
         0
 42
0.0
  3
SIMPLEX
  4

  0
ENDTAB
  0
TABLE
  2
VIEW
  5
5
100
AcDbSymbolTable
 70
         0
  0
ENDTAB
  0
TABLE
  2
UCS
  5
6
100
AcDbSymbolTable
 70
         0
  0
ENDTAB
  0
TABLE
  2
APPID
  5
8
100
AcDbSymbolTable
 70
         1
  0
APPID
  5
16
100
AcDbSymbolTableRecord
100
AcDbRegAppTableRecord
  2
ACAD
 70
         0
  0
ENDTAB
  0
TABLE
  2
DIMSTYLE
  5
9
100
AcDbSymbolTable
 70
         1
  0
DIMSTYLE
105
18
100
AcDbSymbolTableRecord
100
AcDbDimStyleTableRecord
  2
STANDARD
 70
         0
  3

  4

  5

  6

  7

 40
1.0
 41
0.18
 42
0.0625
 43
0.38
 44
0.18
 45
0.0
 46
0.0
 47
0.0
 48
0.0
 71
         0
 72
         0
 73
         1
 74
         1
 75
         0
 76
         0
 77
         0
 78
         0
140
0.18
141
0.09
142
0.0
143
25.4
144
1.0
145
0.0
146
1.0
147
0.09
170
         0
171
         2
172
         0
173
         0
174
         0
175
         0
176
         0
177
         0
178
         0
270
         2
271
         4
272
         4
273
         2
274
         2
275
         0
280
         0
281
         0
282
         0
283
         1
284
         0
285
         0
286
         0
287
         0
288
         0
340
17
  0
ENDTAB
  0
TABLE
  2
BLOCK_RECORD
  5
1
100
AcDbSymbolTable
 70
         0
  0
BLOCK_RECORD
  5
A
100
AcDbSymbolTableRecord
100
AcDbBlockTableRecord
  2
*MODEL_SPACE
  0
BLOCK_RECORD
  5
B
100
AcDbSymbolTableRecord
100
AcDbBlockTableRecord
  2
*PAPER_SPACE
  0
ENDTAB
  0
ENDSEC
  0
SECTION
  2
BLOCKS
  0
BLOCK
  5
D
100
AcDbEntity
  8
0
100
AcDbBlockBegin
  2
*MODEL_SPACE
 70
         0
 10
0.0
 20
0.0
 30
0.0
  3
*MODEL_SPACE
  1

  0
ENDBLK
  5
E
100
AcDbEntity
  8
0
100
AcDbBlockEnd
  0
BLOCK
  5
F
100
AcDbEntity
 67
         1
  8
0
100
AcDbBlockBegin
  2
*PAPER_SPACE
 70
         0
 10
0.0
 20
0.0
 30
0.0
  3
*PAPER_SPACE
  1

  0
ENDBLK
  5
10
100
AcDbEntity
 67
         1
  8
0
100
AcDbBlockEnd
  0
ENDSEC
  0
SECTION
  2
ENTITIES
  0
ARC
  5
37
102
{ACAD_REACTORS
330
81
102
}
100
AcDbEntity
  8
8_250BIT_750TAB
  6
CONTINUOUS
 62
         7
100
AcDbCircle
 10
395.3922779364
 20
-240.435951098
 30
0.0
 40
0.375
100
AcDbArc
 50
-135.0
 51
-28.398450401
  0
ARC
  5
38
102
{ACAD_REACTORS
330
81
102
}
100
AcDbEntity
  8
8_250BIT_750TAB
  6
CONTINUOUS
 62
         7
100
AcDbCircle
 10
393.0831666667
 20
-239.1875
 30
0.0
 40
3.0
100
AcDbArc
 50
-28.398450401
 51
28.398450401
  0
ARC
  5
39
102
{ACAD_REACTORS
330
81
102
}
100
AcDbEntity
  8
8_250BIT_750TAB
  6
CONTINUOUS
 62
         7
100
AcDbCircle
 10
395.3922779364
 20
-237.939048902
 30
0.0
 40
0.375
100
AcDbArc
 50
28.398450401
 51
135.0
  0
ARC
  5
3A
102
{ACAD_REACTORS
330
81
102
}
100
AcDbEntity
  8
8_250BIT_750TAB
  6
CONTINUOUS
 62
         7
100
AcDbCircle
 10
393.0831666667
 20
-239.1875
 30
0.0
 40
2.25
100
AcDbArc
 50
-28.398450401
 51
28.398450401
  0
ARC
  5
3B
102
{ACAD_REACTORS
330
81
102
}
100
AcDbEntity
  8
8_250BIT_750TAB
  6
CONTINUOUS
 62
         7
100
AcDbCircle
 10
395.3922779364
 20
-240.435951098
 30
0.0
 40
0.375
100
AcDbArc
 50
151.601549599
 51
-135.0
  0
ARC
  5
3C
102
{ACAD_REACTORS
330
81
102
}
100
AcDbEntity
  8
8_250BIT_750TAB
  6
CONTINUOUS
 62
         7
100
AcDbCircle
 10
395.3922779364
 20
-237.939048902
 30
0.0
 40
0.375
100
AcDbArc
 50
135.0
 51
-151.601549599
  0
ARC
  5
3D
102
{ACAD_REACTORS
330
81
102
}
100
AcDbEntity
  8
8_250BIT_750TAB
  6
CONTINUOUS
 62
         7
100
AcDbCircle
 10
391.8347155687
 20
-241.4966112697
 30
0.0
 40
0.375
100
AcDbArc
 50
135.0
 51
-118.398450401
  0
ARC
  5
3E
102
{ACAD_REACTORS
330
81
102
}
100
AcDbEntity
  8
8_250BIT_750TAB
  6
CONTINUOUS
 62
         7
100
AcDbCircle
 10
393.0831666667
 20
-239.1875
 30
0.0
 40
3.0
100
AcDbArc
 50
-118.398450401
 51
-61.601549599
  0
ARC
  5
3F
102
{ACAD_REACTORS
330
81
102
}
100
AcDbEntity
  8
8_250BIT_750TAB
  6
CONTINUOUS
 62
         7
100
AcDbCircle
 10
394.3316177646
 20
-241.4966112697
 30
0.0
 40
0.375
100
AcDbArc
 50
-61.601549599
 51
45.0
  0
ARC
  5
40
102
{ACAD_REACTORS
330
81
102
}
100
AcDbEntity
  8
8_250BIT_750TAB
  6
CONTINUOUS
 62
         7
100
AcDbCircle
 10
393.0831666667
 20
-239.1875
 30
0.0
 40
2.25
100
AcDbArc
 50
-118.398450401
 51
-61.601549599
  0
ARC
  5
41
102
{ACAD_REACTORS
330
81
102
}
100
AcDbEntity
  8
8_250BIT_750TAB
  6
CONTINUOUS
 62
         7
100
AcDbCircle
 10
391.8347155687
 20
-241.4966112697
 30
0.0
 40
0.375
100
AcDbArc
 50
61.601549599
 51
135.0
  0
ARC
  5
42
102
{ACAD_REACTORS
330
81
102
}
100
AcDbEntity
  8
8_250BIT_750TAB
  6
CONTINUOUS
 62
         7
100
AcDbCircle
 10
394.3316177646
 20
-241.4966112697
 30
0.0
 40
0.375
100
AcDbArc
 50
45.0
 51
118.398450401
  0
ARC
  5
43
102
{ACAD_REACTORS
330
81
102
}
100
AcDbEntity
  8
8_250BIT_750TAB
  6
CONTINUOUS
 62
         7
100
AcDbCircle
 10
390.7740553969
 20
-237.939048902
 30
0.0
 40
0.375
100
AcDbArc
 50
45.0
 51
151.601549599
  0
ARC
  5
44
102
{ACAD_REACTORS
330
81
102
}
100
AcDbEntity
  8
8_250BIT_750TAB
  6
CONTINUOUS
 62
         7
100
AcDbCircle
 10
393.0831666667
 20
-239.1875
 30
0.0
 40
3.0
100
AcDbArc
 50
151.601549599
 51
-151.601549599
  0
ARC
  5
45
102
{ACAD_REACTORS
330
81
102
}
100
AcDbEntity
  8
8_250BIT_750TAB
  6
CONTINUOUS
 62
         7
100
AcDbCircle
 10
390.7740553969
 20
-240.435951098
 30
0.0
 40
0.375
100
AcDbArc
 50
-151.601549599
 51
-45.0
  0
ARC
  5
46
102
{ACAD_REACTORS
330
81
102
}
100
AcDbEntity
  8
8_250BIT_750TAB
  6
CONTINUOUS
 62
         7
100
AcDbCircle
 10
393.0831666667
 20
-239.1875
 30
0.0
 40
2.25
100
AcDbArc
 50
151.601549599
 51
-151.601549599
  0
ARC
  5
47
102
{ACAD_REACTORS
330
81
102
}
100
AcDbEntity
  8
8_250BIT_750TAB
  6
CONTINUOUS
 62
         7
100
AcDbCircle
 10
390.7740553969
 20
-237.939048902
 30
0.0
 40
0.375
100
AcDbArc
 50
-28.398450401
 51
45.0
  0
ARC
  5
48
102
{ACAD_REACTORS
330
81
102
}
100
AcDbEntity
  8
8_250BIT_750TAB
  6
CONTINUOUS
 62
         7
100
AcDbCircle
 10
390.7740553969
 20
-240.435951098
 30
0.0
 40
0.375
100
AcDbArc
 50
-45.0
 51
28.398450401
  0
ARC
  5
49
102
{ACAD_REACTORS
330
81
102
}
100
AcDbEntity
  8
8_250BIT_750TAB
  6
CONTINUOUS
 62
         7
100
AcDbCircle
 10
391.8347155687
 20
-236.8783887303
 30
0.0
 40
0.375
100
AcDbArc
 50
-135.0
 51
-61.601549599
  0
ARC
  5
4A
102
{ACAD_REACTORS
330
81
102
}
100
AcDbEntity
  8
8_250BIT_750TAB
  6
CONTINUOUS
 62
         7
100
AcDbCircle
 10
394.3316177646
 20
-236.8783887303
 30
0.0
 40
0.375
100
AcDbArc
 50
-118.398450401
 51
-45.0
  0
ARC
  5
4B
102
{ACAD_REACTORS
330
81
102
}
100
AcDbEntity
  8
8_250BIT_750TAB
  6
CONTINUOUS
 62
         7
100
AcDbCircle
 10
393.0831666667
 20
-239.1875
 30
0.0
 40
2.25
100
AcDbArc
 50
61.601549599
 51
118.398450401
  0
ARC
  5
4C
102
{ACAD_REACTORS
330
81
102
}
100
AcDbEntity
  8
8_250BIT_750TAB
  6
CONTINUOUS
 62
         7
100
AcDbCircle
 10
391.8347155687
 20
-236.8783887303
 30
0.0
 40
0.375
100
AcDbArc
 50
118.398450401
 51
-135.0
  0
ARC
  5
4D
102
{ACAD_REACTORS
330
81
102
}
100
AcDbEntity
  8
8_250BIT_750TAB
  6
CONTINUOUS
 62
         7
100
AcDbCircle
 10
393.0831666667
 20
-239.1875
 30
0.0
 40
3.0
100
AcDbArc
 50
61.601549599
 51
118.398450401
  0
ARC
  5
4E
102
{ACAD_REACTORS
330
81
102
}
100
AcDbEntity
  8
8_250BIT_750TAB
  6
CONTINUOUS
 62
         7
100
AcDbCircle
 10
394.3316177646
 20
-236.8783887303
 30
0.0
 40
0.375
100
AcDbArc
 50
-45.0
 51
61.601549599
  0
ARC
  5
4F
102
{ACAD_REACTORS
330
81
102
}
100
AcDbEntity
  8
8_250BIT_750TAB
  6
CONTINUOUS
 62
         7
100
AcDbCircle
 10
393.0831666667
 20
-239.1875
 30
0.0
 40
4.5
100
AcDbArc
 50
-79.5243183036
 51
-10.4756816964
  0
ARC
  5
50
102
{ACAD_REACTORS
330
81
102
}
100
AcDbEntity
  8
8_250BIT_750TAB
  6
CONTINUOUS
 62
         7
100
AcDbCircle
 10
393.8331666667
 20
-243.2437451849
 30
0.0
 40
0.375
100
AcDbArc
 50
180.0
 51
-79.5243183036
  0
ARC
  5
51
102
{ACAD_REACTORS
330
81
102
}
100
AcDbEntity
  8
8_250BIT_750TAB
  6
CONTINUOUS
 62
         7
100
AcDbCircle
 10
393.0831666667
 20
-239.1875
 30
0.0
 40
3.75
100
AcDbArc
 50
-79.5243183036
 51
-10.4756816964
  0
ARC
  5
52
102
{ACAD_REACTORS
330
81
102
}
100
AcDbEntity
  8
8_250BIT_750TAB
  6
CONTINUOUS
 62
         7
100
AcDbCircle
 10
397.1394118516
 20
-239.9375
 30
0.0
 40
0.375
100
AcDbArc
 50
90.0
 51
169.5243183036
  0
ARC
  5
53
102
{ACAD_REACTORS
330
81
102
}
100
AcDbEntity
  8
8_250BIT_750TAB
  6
CONTINUOUS
 62
         7
100
AcDbCircle
 10
393.8331666667
 20
-243.2437451849
 30
0.0
 40
0.375
100
AcDbArc
 50
100.4756816964
 51
-180.0
  0
ARC
  5
54
102
{ACAD_REACTORS
330
81
102
}
100
AcDbEntity
  8
8_250BIT_750TAB
  6
CONTINUOUS
 62
         7
100
AcDbCircle
 10
392.3331666667
 20
-243.2437451849
 30
0.0
 40
0.375
100
AcDbArc
 50
-100.4756816964
 51
0.0
  0
ARC
  5
55
102
{ACAD_REACTORS
330
81
102
}
100
AcDbEntity
  8
8_250BIT_750TAB
  6
CONTINUOUS
 62
         7
100
AcDbCircle
 10
393.0831666667
 20
-239.1875
 30
0.0
 40
4.5
100
AcDbArc
 50
-169.5243183036
 51
-100.4756816964
  0
ARC
  5
56
102
{ACAD_REACTORS
330
81
102
}
100
AcDbEntity
  8
8_250BIT_750TAB
  6
CONTINUOUS
 62
         7
100
AcDbCircle
 10
389.0269214818
 20
-239.9375
 30
0.0
 40
0.375
100
AcDbArc
 50
90.0
 51
-169.5243183036
  0
ARC
  5
57
102
{ACAD_REACTORS
330
81
102
}
100
AcDbEntity
  8
8_250BIT_750TAB
  6
CONTINUOUS
 62
         7
100
AcDbCircle
 10
393.0831666667
 20
-239.1875
 30
0.0
 40
3.75
100
AcDbArc
 50
-169.5243183036
 51
-100.4756816964
  0
ARC
  5
58
102
{ACAD_REACTORS
330
81
102
}
100
AcDbEntity
  8
8_250BIT_750TAB
  6
CONTINUOUS
 62
         7
100
AcDbCircle
 10
392.3331666667
 20
-243.2437451849
 30
0.0
 40
0.375
100
AcDbArc
 50
0.0
 51
79.5243183036
  0
ARC
  5
59
102
{ACAD_REACTORS
330
81
102
}
100
AcDbEntity
  8
8_250BIT_750TAB
  6
CONTINUOUS
 62
         7
100
AcDbCircle
 10
389.0269214818
 20
-239.9375
 30
0.0
 40
0.375
100
AcDbArc
 50
10.4756816964
 51
90.0
  0
ARC
  5
5A
102
{ACAD_REACTORS
330
81
102
}
100
AcDbEntity
  8
8_250BIT_750TAB
  6
CONTINUOUS
 62
         7
100
AcDbCircle
 10
389.0269214818
 20
-238.4375
 30
0.0
 40
0.375
100
AcDbArc
 50
169.5243183036
 51
-90.0
  0
ARC
  5
5B
102
{ACAD_REACTORS
330
81
102
}
100
AcDbEntity
  8
8_250BIT_750TAB
  6
CONTINUOUS
 62
         7
100
AcDbCircle
 10
393.0831666667
 20
-239.1875
 30
0.0
 40
4.5
100
AcDbArc
 50
100.4756816964
 51
169.5243183036
  0
ARC
  5
5C
102
{ACAD_REACTORS
330
81
102
}
100
AcDbEntity
  8
8_250BIT_750TAB
  6
CONTINUOUS
 62
         7
100
AcDbCircle
 10
392.3331666667
 20
-235.1312548151
 30
0.0
 40
0.375
100
AcDbArc
 50
0.0
 51
100.4756816964
  0
ARC
  5
5D
102
{ACAD_REACTORS
330
81
102
}
100
AcDbEntity
  8
8_250BIT_750TAB
  6
CONTINUOUS
 62
         7
100
AcDbCircle
 10
393.0831666667
 20
-239.1875
 30
0.0
 40
3.75
100
AcDbArc
 50
100.4756816964
 51
169.5243183036
  0
ARC
  5
5E
102
{ACAD_REACTORS
330
81
102
}
100
AcDbEntity
  8
8_250BIT_750TAB
  6
CONTINUOUS
 62
         7
100
AcDbCircle
 10
389.0269214818
 20
-238.4375
 30
0.0
 40
0.375
100
AcDbArc
 50
-90.0
 51
-10.4756816964
  0
ARC
  5
5F
102
{ACAD_REACTORS
330
81
102
}
100
AcDbEntity
  8
8_250BIT_750TAB
  6
CONTINUOUS
 62
         7
100
AcDbCircle
 10
392.3331666667
 20
-235.1312548151
 30
0.0
 40
0.375
100
AcDbArc
 50
-79.5243183036
 51
-0.0
  0
ARC
  5
60
102
{ACAD_REACTORS
330
81
102
}
100
AcDbEntity
  8
8_250BIT_750TAB
  6
CONTINUOUS
 62
         7
100
AcDbCircle
 10
397.1394118516
 20
-238.4375
 30
0.0
 40
0.375
100
AcDbArc
 50
-169.5243183036
 51
-90.0
  0
ARC
  5
61
102
{ACAD_REACTORS
330
81
102
}
100
AcDbEntity
  8
8_250BIT_750TAB
  6
CONTINUOUS
 62
         7
100
AcDbCircle
 10
393.8331666667
 20
-235.1312548151
 30
0.0
 40
0.375
100
AcDbArc
 50
-180.0
 51
-100.4756816964
  0
LINE
  5
62
102
{ACAD_REACTORS
330
81
102
}
100
AcDbEntity
  8
8_250BIT_750TAB
  6
CONTINUOUS
 62
         7
100
AcDbLine
 10
397.1394118516
 20
-238.8125
 30
0.0
 11
397.1394118516
 21
-238.8125
 31
0.0
  0
ARC
  5
63
102
{ACAD_REACTORS
330
81
102
}
100
AcDbEntity
  8
8_250BIT_750TAB
  6
CONTINUOUS
 62
         7
100
AcDbCircle
 10
393.0831666667
 20
-239.1875
 30
0.0
 40
3.75
100
AcDbArc
 50
10.4756816964
 51
79.5243183036
  0
ARC
  5
64
102
{ACAD_REACTORS
330
81
102
}
100
AcDbEntity
  8
8_250BIT_750TAB
  6
CONTINUOUS
 62
         7
100
AcDbCircle
 10
397.1394118516
 20
-238.4375
 30
0.0
 40
0.375
100
AcDbArc
 50
-90.0
 51
10.4756816964
  0
ARC
  5
65
102
{ACAD_REACTORS
330
81
102
}
100
AcDbEntity
  8
8_250BIT_750TAB
  6
CONTINUOUS
 62
         7
100
AcDbCircle
 10
393.0831666667
 20
-239.1875
 30
0.0
 40
4.5
100
AcDbArc
 50
10.4756816964
 51
79.5243183036
  0
LINE
  5
66
102
{ACAD_REACTORS
330
81
102
}
100
AcDbEntity
  8
8_250BIT_750TAB
  6
CONTINUOUS
 62
         7
100
AcDbLine
 10
393.4581666667
 20
-235.1312548151
 30
0.0
 11
393.4581666667
 21
-235.1312548151
 31
0.0
  0
ARC
  5
67
102
{ACAD_REACTORS
330
81
102
}
100
AcDbEntity
  8
8_250BIT_750TAB
  6
CONTINUOUS
 62
         7
100
AcDbCircle
 10
393.8331666667
 20
-235.1312548151
 30
0.0
 40
0.375
100
AcDbArc
 50
79.5243183036
 51
180.0
  0
ARC
  5
68
102
{ACAD_REACTORS
330
81
102
}
100
AcDbEntity
  8
8_250BIT_750TAB
  6
CONTINUOUS
 62
         7
100
AcDbCircle
 10
394.2690207892
 20
-238.625
 30
0.0
 40
0.1875
100
AcDbArc
 50
-90.0
 51
25.3769335251
  0
ARC
  5
69
102
{ACAD_REACTORS
330
81
102
}
100
AcDbEntity
  8
8_250BIT_750TAB
  6
CONTINUOUS
 62
         7
100
AcDbCircle
 10
393.0831666667
 20
-239.1875
 30
0.0
 40
1.5
100
AcDbArc
 50
25.3769335251
 51
64.6230664748
  0
ARC
  5
6A
102
{ACAD_REACTORS
330
81
102
}
100
AcDbEntity
  8
8_250BIT_750TAB
  6
CONTINUOUS
 62
         7
100
AcDbCircle
 10
393.6456666667
 20
-238.0016458774
 30
0.0
 40
0.1875
100
AcDbArc
 50
64.6230664749
 51
180.0
  0
LINE
  5
6B
102
{ACAD_REACTORS
330
81
102
}
100
AcDbEntity
  8
8_250BIT_750TAB
  6
CONTINUOUS
 62
         7
100
AcDbLine
 10
393.4581666667
 20
-238.625
 30
0.0
 11
393.4581666667
 21
-238.0016458774
 31
0.0
  0
LINE
  5
6C
102
{ACAD_REACTORS
330
81
102
}
100
AcDbEntity
  8
8_250BIT_750TAB
  6
CONTINUOUS
 62
         7
100
AcDbLine
 10
393.6456666667
 20
-238.8125
 30
0.0
 11
394.2690207892
 21
-238.8125
 31
0.0
  0
ARC
  5
6D
102
{ACAD_REACTORS
330
81
102
}
100
AcDbEntity
  8
8_250BIT_750TAB
  6
CONTINUOUS
 62
         7
100
AcDbCircle
 10
393.6456666667
 20
-238.625
 30
0.0
 40
0.1875
100
AcDbArc
 50
180.0
 51
-90.0
  0
ARC
  5
6E
102
{ACAD_REACTORS
330
81
102
}
100
AcDbEntity
  8
8_250BIT_750TAB
  6
CONTINUOUS
 62
         7
100
AcDbCircle
 10
393.6456666667
 20
-240.3733541226
 30
0.0
 40
0.1875
100
AcDbArc
 50
180.0
 51
-64.6230664749
  0
ARC
  5
6F
102
{ACAD_REACTORS
330
81
102
}
100
AcDbEntity
  8
8_250BIT_750TAB
  6
CONTINUOUS
 62
         7
100
AcDbCircle
 10
393.0831666667
 20
-239.1875
 30
0.0
 40
1.5
100
AcDbArc
 50
-64.6230664748
 51
-25.3769335251
  0
ARC
  5
70
102
{ACAD_REACTORS
330
81
102
}
100
AcDbEntity
  8
8_250BIT_750TAB
  6
CONTINUOUS
 62
         7
100
AcDbCircle
 10
394.2690207892
 20
-239.75
 30
0.0
 40
0.1875
100
AcDbArc
 50
-25.3769335251
 51
90.0
  0
LINE
  5
71
102
{ACAD_REACTORS
330
81
102
}
100
AcDbEntity
  8
8_250BIT_750TAB
  6
CONTINUOUS
 62
         7
100
AcDbLine
 10
393.6456666667
 20
-239.5625
 30
0.0
 11
394.2690207892
 21
-239.5625
 31
0.0
  0
LINE
  5
72
102
{ACAD_REACTORS
330
81
102
}
100
AcDbEntity
  8
8_250BIT_750TAB
  6
CONTINUOUS
 62
         7
100
AcDbLine
 10
393.4581666667
 20
-239.75
 30
0.0
 11
393.4581666667
 21
-240.3733541226
 31
0.0
  0
ARC
  5
73
102
{ACAD_REACTORS
330
81
102
}
100
AcDbEntity
  8
8_250BIT_750TAB
  6
CONTINUOUS
 62
         7
100
AcDbCircle
 10
393.6456666667
 20
-239.75
 30
0.0
 40
0.1875
100
AcDbArc
 50
90.0
 51
180.0
  0
ARC
  5
74
102
{ACAD_REACTORS
330
81
102
}
100
AcDbEntity
  8
8_250BIT_750TAB
  6
CONTINUOUS
 62
         7
100
AcDbCircle
 10
391.8973125441
 20
-239.75
 30
0.0
 40
0.1875
100
AcDbArc
 50
90.0
 51
-154.6230664749
  0
ARC
  5
75
102
{ACAD_REACTORS
330
81
102
}
100
AcDbEntity
  8
8_250BIT_750TAB
  6
CONTINUOUS
 62
         7
100
AcDbCircle
 10
393.0831666667
 20
-239.1875
 30
0.0
 40
1.5
100
AcDbArc
 50
-154.6230664748
 51
-115.3769335251
  0
ARC
  5
76
102
{ACAD_REACTORS
330
81
102
}
100
AcDbEntity
  8
8_250BIT_750TAB
  6
CONTINUOUS
 62
         7
100
AcDbCircle
 10
392.5206666667
 20
-240.3733541226
 30
0.0
 40
0.1875
100
AcDbArc
 50
-115.3769335251
 51
0.0
  0
LINE
  5
77
102
{ACAD_REACTORS
330
81
102
}
100
AcDbEntity
  8
8_250BIT_750TAB
  6
CONTINUOUS
 62
         7
100
AcDbLine
 10
392.7081666667
 20
-239.75
 30
0.0
 11
392.7081666667
 21
-240.3733541226
 31
0.0
  0
LINE
  5
78
102
{ACAD_REACTORS
330
81
102
}
100
AcDbEntity
  8
8_250BIT_750TAB
  6
CONTINUOUS
 62
         7
100
AcDbLine
 10
392.5206666667
 20
-239.5625
 30
0.0
 11
391.8973125441
 21
-239.5625
 31
0.0
  0
ARC
  5
79
102
{ACAD_REACTORS
330
81
102
}
100
AcDbEntity
  8
8_250BIT_750TAB
  6
CONTINUOUS
 62
         7
100
AcDbCircle
 10
392.5206666667
 20
-239.75
 30
0.0
 40
0.1875
100
AcDbArc
 50
0.0
 51
90.0
  0
ARC
  5
7A
102
{ACAD_REACTORS
330
81
102
}
100
AcDbEntity
  8
8_250BIT_750TAB
  6
CONTINUOUS
 62
         7
100
AcDbCircle
 10
392.5206666667
 20
-238.625
 30
0.0
 40
0.1875
100
AcDbArc
 50
-90.0
 51
0.0
  0
LINE
  5
7B
102
{ACAD_REACTORS
330
81
102
}
100
AcDbEntity
  8
8_250BIT_750TAB
  6
CONTINUOUS
 62
         7
100
AcDbLine
 10
392.7081666667
 20
-238.625
 30
0.0
 11
392.7081666667
 21
-238.0016458774
 31
0.0
  0
LINE
  5
7C
102
{ACAD_REACTORS
330
81
102
}
100
AcDbEntity
  8
8_250BIT_750TAB
  6
CONTINUOUS
 62
         7
100
AcDbLine
 10
392.5206666667
 20
-238.8125
 30
0.0
 11
391.8973125441
 21
-238.8125
 31
0.0
  0
ARC
  5
7D
102
{ACAD_REACTORS
330
81
102
}
100
AcDbEntity
  8
8_250BIT_750TAB
  6
CONTINUOUS
 62
         7
100
AcDbCircle
 10
391.8973125441
 20
-238.625
 30
0.0
 40
0.1875
100
AcDbArc
 50
154.6230664749
 51
-90.0
  0
ARC
  5
7E
102
{ACAD_REACTORS
330
81
102
}
100
AcDbEntity
  8
8_250BIT_750TAB
  6
CONTINUOUS
 62
         7
100
AcDbCircle
 10
393.0831666667
 20
-239.1875
 30
0.0
 40
1.5
100
AcDbArc
 50
115.3769335251
 51
154.6230664748
  0
ARC
  5
7F
102
{ACAD_REACTORS
330
81
102
}
100
AcDbEntity
  8
8_250BIT_750TAB
  6
CONTINUOUS
 62
         7
100
AcDbCircle
 10
392.5206666667
 20
-238.0016458774
 30
0.0
 40
0.1875
100
AcDbArc
 50
0.0
 51
115.3769335251
  0
ARC
  5
80
102
{ACAD_REACTORS
330
81
102
}
100
AcDbEntity
  8
8_250BIT_750TAB
  6
CONTINUOUS
 62
         7
100
AcDbCircle
 10
397.1394118516
 20
-239.9375
 30
0.0
 40
0.375
100
AcDbArc
 50
-10.4756816964
 51
90.0
  0
CIRCLE
  5
82
100
AcDbEntity
  8
6_125BIT_750DEP
  6
CONTINUOUS
 62
         7
100
AcDbCircle
 10
384.6958333333
 20
-236.6875
 30
0.0
 40
0.0625
  0
CIRCLE
  5
83
100
AcDbEntity
  8
6_125BIT_750DEP
  6
CONTINUOUS
 62
         7
100
AcDbCircle
 10
384.6958333333
 20
-241.6875
 30
0.0
 40
0.0625
  0
CIRCLE
  5
84
100
AcDbEntity
  8
6_125BIT_750DEP
  6
CONTINUOUS
 62
         7
100
AcDbCircle
 10
384.6958333333
 20
-231.6875
 30
0.0
 40
0.0625
  0
LINE
  5
85
102
{ACAD_REACTORS
330
89
102
}
100
AcDbEntity
  8
3_250BIT_200DEP
  6
CONTINUOUS
 62
         7
100
AcDbLine
 10
367.4125
 20
-249.9375
 30
0.0
 11
367.4125
 21
-228.4375
 31
0.0
  0
LINE
  5
86
102
{ACAD_REACTORS
330
89
102
}
100
AcDbEntity
  8
3_250BIT_200DEP
  6
CONTINUOUS
 62
         7
100
AcDbLine
 10
368.1125
 20
-249.9375
 30
0.0
 11
367.4125
 21
-249.9375
 31
0.0
  0
LINE
  5
87
102
{ACAD_REACTORS
330
89
102
}
100
AcDbEntity
  8
3_250BIT_200DEP
  6
CONTINUOUS
 62
         7
100
AcDbLine
 10
368.1125
 20
-228.4375
 30
0.0
 11
368.1125
 21
-249.9375
 31
0.0
  0
LINE
  5
88
102
{ACAD_REACTORS
330
89
102
}
100
AcDbEntity
  8
3_250BIT_200DEP
  6
CONTINUOUS
 62
         7
100
AcDbLine
 10
367.4125
 20
-228.4375
 30
0.0
 11
368.1125
 21
-228.4375
 31
0.0
  0
LINE
  5
8A
102
{ACAD_REACTORS
330
8E
102
}
100
AcDbEntity
  8
3_250BIT_200DEP
  6
CONTINUOUS
 62
         7
100
AcDbLine
 10
384.3458333333
 20
-249.9375
 30
0.0
 11
384.3458333333
 21
-228.4375
 31
0.0
  0
LINE
  5
8B
102
{ACAD_REACTORS
330
8E
102
}
100
AcDbEntity
  8
3_250BIT_200DEP
  6
CONTINUOUS
 62
         7
100
AcDbLine
 10
385.0458333333
 20
-249.9375
 30
0.0
 11
384.3458333333
 21
-249.9375
 31
0.0
  0
LINE
  5
8C
102
{ACAD_REACTORS
330
8E
102
}
100
AcDbEntity
  8
3_250BIT_200DEP
  6
CONTINUOUS
 62
         7
100
AcDbLine
 10
385.0458333333
 20
-228.4375
 30
0.0
 11
385.0458333333
 21
-249.9375
 31
0.0
  0
LINE
  5
8D
102
{ACAD_REACTORS
330
8E
102
}
100
AcDbEntity
  8
3_250BIT_200DEP
  6
CONTINUOUS
 62
         7
100
AcDbLine
 10
384.3458333333
 20
-228.4375
 30
0.0
 11
385.0458333333
 21
-228.4375
 31
0.0
  0
LINE
  5
8F
100
AcDbEntity
  8
7_250BIT_750OUTLINE
  6
CONTINUOUS
 62
         7
100
AcDbLine
 10
401.4791666667
 20
-228.6875
 30
0.0
 11
401.4791666667
 21
-249.6875
 31
0.0
  0
CIRCLE
  5
90
100
AcDbEntity
  8
6_125BIT_750DEP
  6
CONTINUOUS
 62
         7
100
AcDbCircle
 10
367.7625
 20
-246.6875
 30
0.0
 40
0.0625
  0
LINE
  5
91
100
AcDbEntity
  8
7_250BIT_750OUTLINE
  6
CONTINUOUS
 62
         7
100
AcDbLine
 10
350.9791666667
 20
-228.6875
 30
0.0
 11
401.4791666667
 21
-228.6875
 31
0.0
  0
LINE
  5
92
100
AcDbEntity
  8
7_250BIT_750OUTLINE
  6
CONTINUOUS
 62
         7
100
AcDbLine
 10
401.4791666667
 20
-249.6875
 30
0.0
 11
350.9791666667
 21
-249.6875
 31
0.0
  0
LINE
  5
93
102
{ACAD_REACTORS
330
97
102
}
100
AcDbEntity
  8
0_WOOD
  6
CONTINUOUS
 62
         7
100
AcDbLine
 10
409.4791666667
 20
-251.1875
 30
0.0
 11
349.4791666667
 21
-251.1875
 31
0.0
  0
LINE
  5
94
102
{ACAD_REACTORS
330
97
102
}
100
AcDbEntity
  8
0_WOOD
  6
CONTINUOUS
 62
         7
100
AcDbLine
 10
349.4791666667
 20
-221.1875
 30
0.0
 11
409.4791666667
 21
-221.1875
 31
0.0
  0
LINE
  5
95
102
{ACAD_REACTORS
330
97
102
}
100
AcDbEntity
  8
0_WOOD
  6
CONTINUOUS
 62
         7
100
AcDbLine
 10
349.4791666667
 20
-251.1875
 30
0.0
 11
349.4791666667
 21
-221.1875
 31
0.0
  0
LINE
  5
96
102
{ACAD_REACTORS
330
97
102
}
100
AcDbEntity
  8
0_WOOD
  6
CONTINUOUS
 62
         7
100
AcDbLine
 10
409.4791666667
 20
-221.1875
 30
0.0
 11
409.4791666667
 21
-251.1875
 31
0.0
  0
CIRCLE
  5
98
100
AcDbEntity
  8
6_125BIT_750DEP
  6
CONTINUOUS
 62
         7
100
AcDbCircle
 10
355.1041666667
 20
-248.5625
 30
0.0
 40
0.0625
  0
CIRCLE
  5
99
100
AcDbEntity
  8
6_125BIT_750DEP
  6
CONTINUOUS
 62
         7
100
AcDbCircle
 10
355.1041666667
 20
-246.0625
 30
0.0
 40
0.0625
  0
LINE
  5
9A
100
AcDbEntity
  8
7_250BIT_750OUTLINE
  6
CONTINUOUS
 62
         7
100
AcDbLine
 10
350.9791666667
 20
-249.6875
 30
0.0
 11
350.9791666667
 21
-228.6875
 31
0.0
  0
CIRCLE
  5
9B
100
AcDbEntity
  8
6_125BIT_750DEP
  6
CONTINUOUS
 62
         7
100
AcDbCircle
 10
357.6041666667
 20
-248.5625
 30
0.0
 40
0.0625
  0
CIRCLE
  5
9C
100
AcDbEntity
  8
6_125BIT_750DEP
  6
CONTINUOUS
 62
         7
100
AcDbCircle
 10
357.6041666667
 20
-246.0625
 30
0.0
 40
0.0625
  0
CIRCLE
  5
9D
100
AcDbEntity
  8
8_250BIT_750TAB
  6
CONTINUOUS
 62
         7
100
AcDbCircle
 10
356.3541666667
 20
-247.3125
 30
0.0
 40
0.875
  0
LINE
  5
9E
100
AcDbEntity
  8
7_250BIT_750OUTLINE
  6
CONTINUOUS
 62
         7
100
AcDbLine
 10
405.2291666667
 20
-229.1875
 30
0.0
 11
405.2291666667
 21
-249.1875
 31
0.0
  0
LINE
  5
9F
100
AcDbEntity
  8
7_250BIT_750OUTLINE
  6
CONTINUOUS
 62
         7
100
AcDbLine
 10
405.9791666667
 20
-231.1875
 30
0.0
 11
405.9791666667
 21
-247.1875
 31
0.0
  0
LINE
  5
A0
100
AcDbEntity
  8
7_250BIT_750OUTLINE
  6
CONTINUOUS
 62
         7
100
AcDbLine
 10
403.7291666667
 20
-231.1875
 30
0.0
 11
403.7291666667
 21
-247.1875
 31
0.0
  0
LINE
  5
A1
100
AcDbEntity
  8
7_250BIT_750OUTLINE
  6
CONTINUOUS
 62
         7
100
AcDbLine
 10
402.9791666667
 20
-229.1875
 30
0.0
 11
402.9791666667
 21
-249.1875
 31
0.0
  0
LINE
  5
A2
100
AcDbEntity
  8
7_250BIT_750OUTLINE
  6
CONTINUOUS
 62
         7
100
AcDbLine
 10
405.6041666667
 20
-229.1875
 30
0.0
 11
405.9791666667
 21
-231.1875
 31
0.0
  0
LINE
  5
A3
100
AcDbEntity
  8
7_250BIT_750OUTLINE
  6
CONTINUOUS
 62
         7
100
AcDbLine
 10
405.2291666667
 20
-229.1875
 30
0.0
 11
405.6041666667
 21
-229.1875
 31
0.0
  0
LINE
  5
A4
100
AcDbEntity
  8
7_250BIT_750OUTLINE
  6
CONTINUOUS
 62
         7
100
AcDbLine
 10
402.9791666667
 20
-229.1875
 30
0.0
 11
403.3541666667
 21
-229.1875
 31
0.0
  0
LINE
  5
A5
100
AcDbEntity
  8
7_250BIT_750OUTLINE
  6
CONTINUOUS
 62
         7
100
AcDbLine
 10
403.3541666667
 20
-229.1875
 30
0.0
 11
403.7291666667
 21
-231.1875
 31
0.0
  0
LINE
  5
A6
100
AcDbEntity
  8
7_250BIT_750OUTLINE
  6
CONTINUOUS
 62
         7
100
AcDbLine
 10
405.6041666667
 20
-249.1875
 30
0.0
 11
405.2291666667
 21
-249.1875
 31
0.0
  0
LINE
  5
A7
100
AcDbEntity
  8
7_250BIT_750OUTLINE
  6
CONTINUOUS
 62
         7
100
AcDbLine
 10
405.6041666667
 20
-249.1875
 30
0.0
 11
405.9791666667
 21
-247.1875
 31
0.0
  0
LINE
  5
A8
100
AcDbEntity
  8
7_250BIT_750OUTLINE
  6
CONTINUOUS
 62
         7
100
AcDbLine
 10
403.3541666667
 20
-249.1875
 30
0.0
 11
403.7291666667
 21
-247.1875
 31
0.0
  0
LINE
  5
A9
100
AcDbEntity
  8
7_250BIT_750OUTLINE
  6
CONTINUOUS
 62
         7
100
AcDbLine
 10
403.3541666667
 20
-249.1875
 30
0.0
 11
402.9791666667
 21
-249.1875
 31
0.0
  0
CIRCLE
  5
AA
100
AcDbEntity
  8
6_125BIT_750DEP
  6
CONTINUOUS
 62
         7
100
AcDbCircle
 10
367.7625
 20
-236.6875
 30
0.0
 40
0.0625
  0
CIRCLE
  5
AB
100
AcDbEntity
  8
6_125BIT_750DEP
  6
CONTINUOUS
 62
         7
100
AcDbCircle
 10
367.7625
 20
-241.6875
 30
0.0
 40
0.0625
  0
CIRCLE
  5
AC
100
AcDbEntity
  8
6_125BIT_750DEP
  6
CONTINUOUS
 62
         7
100
AcDbCircle
 10
367.7625
 20
-231.6875
 30
0.0
 40
0.0625
  0
CIRCLE
  5
AD
100
AcDbEntity
  8
6_125BIT_750DEP
  6
CONTINUOUS
 62
         7
100
AcDbCircle
 10
384.6958333333
 20
-246.6875
 30
0.0
 40
0.0625
  0
ENDSEC
  0
SECTION
  2
OBJECTS
  0
DICTIONARY
  5
19
100
AcDbDictionary
  3
ACAD_GROUP
350
1A
  3
ACAD_MLINESTYLE
350
1B
  0
DICTIONARY
  5
1A
102
{ACAD_REACTORS
330
19
102
}
100
AcDbDictionary
  3
VELLUMGRP1
350
81
  3
VELLUMGRP2
350
89
  3
VELLUMGRP3
350
8E
  3
VELLUMGRP4
350
97
  0
DICTIONARY
  5
1B
102
{ACAD_REACTORS
330
19
102
}
100
AcDbDictionary
  3
STANDARD
350
1C
  0
MLINESTYLE
  5
1C
102
{ACAD_REACTORS
330
1B
102
}
100
AcDbMlineStyle
  2
STANDARD
 70
         0
  3

 62
         0
 51
90.0
 52
90.0
 71
         2
 49
0.5
 62
       256
  6
BYLAYER
 49
-0.5
 62
       256
  6
BYLAYER
  0
GROUP
  5
81
102
{ACAD_XDICTIONARY
360
5CEB210060EB2100
102
}
102
{ACAD_REACTORS
330
1A
102
}
100
AcDbGroup
300
This is Vellum Group Number 1
 70
         0
 71
         1
340
37
340
38
340
39
340
3A
340
3B
340
3C
340
3D
340
3E
340
3F
340
40
340
41
340
42
340
43
340
44
340
45
340
46
340
47
340
48
340
49
340
4A
340
4B
340
4C
340
4D
340
4E
340
4F
340
50
340
51
340
52
340
53
340
54
340
55
340
56
340
57
340
58
340
59
340
5A
340
5B
340
5C
340
5D
340
5E
340
5F
340
60
340
61
340
62
340
63
340
64
340
65
340
66
340
67
340
68
340
69
340
6A
340
6B
340
6C
340
6D
340
6E
340
6F
340
70
340
71
340
72
340
73
340
74
340
75
340
76
340
77
340
78
340
79
340
7A
340
7B
340
7C
340
7D
340
7E
340
7F
340
80
  0
GROUP
  5
89
102
{ACAD_XDICTIONARY
360
3207917C60EB2100
102
}
102
{ACAD_REACTORS
330
1A
102
}
100
AcDbGroup
300
This is Vellum Group Number 2
 70
         0
 71
         1
340
85
340
86
340
87
340
88
  0
GROUP
  5
8E
102
{ACAD_XDICTIONARY
360
3207917C60EB2100
102
}
102
{ACAD_REACTORS
330
1A
102
}
100
AcDbGroup
300
This is Vellum Group Number 3
 70
         0
 71
         1
340
8A
340
8B
340
8C
340
8D
  0
GROUP
  5
97
102
{ACAD_XDICTIONARY
360
3207917C60EB2100
102
}
102
{ACAD_REACTORS
330
1A
102
}
100
AcDbGroup
300
This is Vellum Group Number 4
 70
         0
 71
         1
340
93
340
94
340
95
340
96
  0
ENDSEC
  0
EOF
